<?xml version="1.0" encoding="utf-8"?>
<!-- Generator: Adobe Illustrator 23.0.3, SVG Export Plug-In . SVG Version: 6.00 Build 0)  -->
<svg version="1.1" xmlns="http://www.w3.org/2000/svg" xmlns:xlink="http://www.w3.org/1999/xlink" x="0px" y="0px"
	 viewBox="0 0 612 792" style="enable-background:new 0 0 612 792;" xml:space="preserve">
<style type="text/css">
	.st0{fill:#E6E6E6;}
	.st1{fill:#B22234;}
	.st2{fill:#3C3B6E;}
</style>
<g id="Layer_2">
	<path class="st0" d="M270.3,176.1l-6.7,9.3l6.7,9.9l-12-3.1l-8,8.2v-10.8l-12.1-4.5l12.1-4v-10.9l8,8.6L270.3,176.1z M258.3,302.1
		l-8-8.5v10.9l-12.1,4l12.1,4.5v10.8l8-8.2l12,3l-6.7-9.9l6.7-9.3L258.3,302.1z M233.3,284.5l12,3l-6.7-9.9l6.7-9.3l-12,2.7l-8-8.5
		v10.9l-12.1,4l12.1,4.4v10.8L233.3,284.5z M258.3,240.2l-8-8.5v10.9l-12.1,4l12.1,4.4V262l8-8.2l12,3l-6.7-9.9l6.7-9.3L258.3,240.2
		z M233.3,209.6l-8-8.6v10.9l-12.1,4l12.1,4.5v10.8l8-8.2l12,3l-6.7-9.9l6.7-9.1L233.3,209.6z M204.3,253.7l12,3l-6.7-9.9l6.7-9.3
		l-12,2.7l-8-8.5v10.9l-12.1,4l12.1,4.4V262L204.3,253.7z M196.3,170.2v10.9l-12.1,4l12.1,4.5v10.8l8-8.2l12,3.1l-6.7-9.9l6.7-9.3
		l-12,2.7L196.3,170.2z M204.3,315.6l12,3l-6.7-9.9l6.7-9.3l-12,2.7l-8-8.5v10.9l-12.1,4l12.1,4.5v10.8L204.3,315.6z M178.5,271
		l-7.9-8.5v10.9l-12.1,4l12.1,4.4v10.8l7.9-8.1l12.1,3l-6.8-9.9l6.8-9.3L178.5,271z M233.3,145.8l-8-8.5v10.9l-12.1,4l12.1,4.4v10.8
		l8-8.2l12,3.1l-6.7-9.9l6.7-9.3L233.3,145.8z M327,30.9c-0.3-0.2-0.5-0.4-0.8-0.5c0,0,0,0,0,0c-2.1-1.4-4.3-2.9-6.7-4.5
		c0,0-0.1,0-0.1-0.1c-0.7-0.5-1.5-1-2.2-1.6c-7-5-9.8-6.9-10.9-7.5c-0.1,0-0.2,0-0.3,0h-0.2c-1.1,0.6-3.8,2.4-9,6.2
		c-0.7,0.5-1.4,1-2,1.4l-0.2,0.2c-4.1,2.9-7.7,5.4-11.3,7.6l0.1,506.5c1.2,1.1,2.4,2.2,3.6,3.2c0.1,0.1,0.1,0.1,0.2,0.2
		c0.5,0.4,1,0.9,1.5,1.3c0.1,0.1,0.3,0.2,0.4,0.4c0.4,0.4,0.9,0.8,1.3,1.1c0.2,0.1,0.3,0.3,0.5,0.4c0.4,0.3,0.8,0.7,1.1,1
		c0.2,0.2,0.4,0.3,0.5,0.5c0.4,0.3,0.7,0.6,1.1,0.9c0.2,0.1,0.3,0.3,0.5,0.4c0.4,0.3,0.7,0.7,1.1,1c0.1,0.1,0.3,0.2,0.4,0.4
		c0.4,0.4,0.9,0.7,1.3,1.1c0.1,0.1,0.1,0.1,0.2,0.2c0.5,0.4,0.9,0.8,1.4,1.2c0.1,0.1,0.2,0.2,0.3,0.2c0.4,0.3,0.7,0.6,1,0.9
		c0.1,0.1,0.3,0.2,0.4,0.3c0.3,0.2,0.6,0.5,0.8,0.7c0.2,0.1,0.3,0.2,0.4,0.4c0.2,0.2,0.5,0.4,0.7,0.6c0.1,0.1,0.3,0.2,0.4,0.3
		c0.2,0.2,0.4,0.3,0.6,0.5c0.1,0.1,0.3,0.2,0.4,0.3c0.2,0.2,0.4,0.3,0.6,0.4c0.1,0.1,0.2,0.2,0.4,0.3c0.2,0.1,0.4,0.3,0.6,0.4
		c0.1,0.1,0.2,0.1,0.3,0.2c0.3,0.2,0.5,0.3,0.7,0.5c0,0,0.1-0.1,0.1-0.1c1.3-0.8,5.4-3.8,16.2-13.3c0.1-0.1,0.2-0.2,0.4-0.3
		c0,0,0.1-0.1,0.1-0.1c0.1-0.1,0.2-0.2,0.3-0.3c0,0,0.1-0.1,0.2-0.1c0.1-0.1,0.2-0.2,0.4-0.3c0.1-0.1,0.1-0.1,0.2-0.2
		c0.1-0.1,0.3-0.2,0.4-0.4c0.1-0.1,0.1-0.1,0.2-0.2c0.2-0.2,0.4-0.3,0.6-0.5c0,0,0,0,0,0c0.2-0.2,0.5-0.5,0.8-0.7c0,0,0,0,0,0
		c0.5-0.5,1.1-1,1.7-1.6L327,30.9z M232.3,652.3c-1.7-35.7-2-46.1-2-92.9c0-50,0.2-57.8,2.6-83.9c0.1-1.1,0.2-2,0.2-2.8
		c-7.2-4-23.6-13.2-44.4-24.8v288c8.2,6.7,16.6,13.1,25,19c9,6.4,20.1,13.7,26.6,17.7c0-0.4-0.1-0.9-0.1-1.4
		C237.5,740.8,234.1,689.6,232.3,652.3z M119.9,409.6c-8.4-4.7-9.4-5.3-9.8-5.5c-0.6-0.4-1.1-0.9-1.4-1.4L106.3,648
		c0.4,0.5,0.7,1.1,1.1,1.6c9.5,14,22.4,30.1,34.6,43.2c1.6,1.7,3.3,3.5,5,5.3V424.8C133.7,417.4,125.3,412.6,119.9,409.6z
		 M528.8,536.7C528.8,536.7,528.8,536.7,528.8,536.7c-0.2-0.9-0.4-1.8-0.6-2.7c-5-21.3-5.8-42.6-2.5-61.4c0.2-1,0.4-1.9,0.6-2.9
		c0-0.2,0.1-0.4,0.1-0.6c0.2-0.9,0.4-1.7,0.6-2.6c0-0.1,0-0.1,0-0.2c0.5-2,1.1-3.9,1.8-5.7V198.8c-1.6-4-3.4-7.9-5.2-11.9
		c-0.1-0.2-0.2-0.4-0.3-0.6c-0.8-1.6-1.5-3.2-2.3-4.8c-0.2-0.4-0.4-0.8-0.6-1.3c-0.9-1.8-1.8-3.6-2.8-5.4
		c-9.5-18-19.2-32.6-31.6-47.2c-0.7-0.8-1.3-1.5-1.9-2.3c-0.1-0.1-0.2-0.2-0.3-0.3c-0.6-0.7-1.2-1.4-1.8-2.1
		c-0.1-0.1-0.2-0.2-0.3-0.3c-0.6-0.7-1.2-1.4-1.8-2c0,0,0,0,0,0c-0.6-0.7-1.2-1.4-1.9-2c0,0,0,0,0-0.1c-0.6-0.7-1.2-1.3-1.9-2
		c0,0-0.1-0.1-0.1-0.1c-2-2-4-4-6.3-6.3v231.5c2.9-1.5,5.8-3.1,8.7-4.7c0.2-0.1,0.4-0.2,0.7-0.4c3-1.6,6-3.3,8.9-5
		c6.7-3.8,7.5-4.2,9.6-4.2h3l2.1,2c2.1,2.1,2.2,4,2.2,7.6c0,1.6,0,4,0.1,6.9c0.1,6.1,0.1,14,0.1,22.5c0.1,12.9,0.1,21.4,0.1,26.2
		c0,6.7-0.1,9.3-3.1,11.6v0c0,0,0,0,0,0c0,0,0,0,0,0c0,0,0,0-0.1,0c0,0,0,0,0,0c0,0,0,0-0.1,0c0,0,0,0,0,0c0,0-0.1,0-0.1,0.1
		c0,0,0,0,0,0c-0.1,0-0.2,0.1-0.3,0.2c0,0,0,0,0,0c-0.1,0.1-0.3,0.1-0.4,0.2c0,0,0,0,0,0c-0.1,0-0.2,0.1-0.3,0.2c0,0,0,0,0,0
		c-0.1,0-0.2,0.1-0.3,0.2c0,0,0,0-0.1,0c-0.2,0.1-0.5,0.3-0.8,0.5c0,0,0,0,0,0c-1.4,0.8-3.8,2.1-7.5,4.2c-0.2,0.1-0.4,0.2-0.6,0.3
		c-0.3,0.2-0.6,0.3-0.9,0.5c-0.1,0-0.1,0.1-0.2,0.1c-2.3,1.3-5.1,2.8-8.4,4.7c-0.1,0-0.1,0.1-0.2,0.1c-1.3,0.7-2.7,1.5-4.1,2.3
		c-0.1,0.1-0.2,0.1-0.3,0.2c-2.3,1.3-4.8,2.7-7.5,4.2v271c0.7-0.7,1.3-1.4,1.9-2.1c1-1.1,2-2.2,3-3.3c0.7-0.8,1.5-1.6,2.2-2.5
		c0.9-1,1.8-2.1,2.7-3.1c0.7-0.8,1.4-1.6,2-2.4c1.4-1.6,2.8-3.3,4.1-4.9c0.6-0.7,1.1-1.4,1.7-2.1c1-1.3,2-2.5,3-3.8
		c0.6-0.8,1.2-1.6,1.8-2.4c0.9-1.2,1.8-2.4,2.7-3.6c0.6-0.7,1.1-1.5,1.7-2.2c1.4-1.8,2.7-3.7,4-5.5c0.3-0.4,0.6-0.9,0.9-1.3
		c1.1-1.5,2.1-3,3.2-4.6c0.5-0.7,1-1.4,1.4-2.1c0.9-1.3,1.8-2.7,2.7-4.1c0.4-0.7,0.9-1.3,1.3-2c1.2-2,2.5-3.9,3.7-5.9
		c0.1-0.2,0.2-0.4,0.4-0.6c1.1-1.8,2.2-3.6,3.2-5.5c0.4-0.6,0.7-1.3,1.1-1.9c0.8-1.5,1.7-2.9,2.5-4.4c0.3-0.6,0.7-1.2,1-1.8
		c1.1-2,2.2-4.1,3.2-6.1c0.6-1.2,1.2-2.3,1.8-3.5c0.1-0.1,0.1-0.3,0.2-0.4c0.6-1.1,1.1-2.2,1.6-3.3V536.7z M428.2,445.3
		c-5.5,3.1-10.8,6-15.8,8.8c-0.6,0.4-1.3,0.7-1.9,1.1c-5.2,2.9-10.1,5.6-14.4,8c-0.1,0.1-0.3,0.2-0.4,0.2c-1,0.6-2,1.1-2.9,1.6
		c-0.1,0.1-0.3,0.1-0.4,0.2c-2.9,1.6-5.5,3.1-7.7,4.3c-0.4,0.2-0.8,0.5-1.2,0.7c-0.9,0.5-1.8,1-2.5,1.4c-0.7,0.4-1.4,0.8-2,1.1
		c0.1,0.8,0.2,1.8,0.2,2.8c2.3,26.2,2.5,33.2,2.6,83.5c0,36.8-0.2,49.3-0.8,67c-1.5,40.7-5.4,102.6-9,144c-0.1,0.7-0.1,1.6-0.2,2.6
		c1.5-1,3.5-2.2,6.1-3.8c2-1.3,4-2.5,5.9-3.8c0.5-0.3,1-0.6,1.5-1c1.8-1.2,3.7-2.4,5.5-3.7c0.1-0.1,0.2-0.1,0.3-0.2
		c2-1.3,3.9-2.7,5.9-4.1c0.3-0.2,0.7-0.5,1-0.7c1.9-1.3,3.7-2.7,5.6-4c0.1,0,0.1-0.1,0.2-0.1c2-1.5,4-3,6-4.5
		c0.1-0.1,0.3-0.2,0.4-0.3c6.1-4.6,12.1-9.4,18.2-14.5c0,0,0,0,0,0C428.1,638.7,428.2,538.6,428.2,445.3z M233.3,346.4l12,3
		l-6.7-9.9l6.7-9.3l-12,2.7l-8-8.5v10.9l-12.1,4l12.1,4.4v10.9L233.3,346.4z M93.8,191.6l12,3.1l-6.7-9.9l6.7-9.3l-12,2.7l-0.7-0.8
		c-2.6,5-5,10.2-7.3,15.4v7L93.8,191.6z M94.3,302.1l-8-8.5v10.9l-12.1,4l12.1,4.5v10.8l8-8.2l12,3l-6.7-9.9l6.7-9.3L94.3,302.1z
		 M258.3,378.9l12,3l-6.7-9.9l6.7-9.1l-12,2.7l-8-8.6v10.9l-12.1,4l12.1,4.5v10.8L258.3,378.9z M91.2,365.5l-8-8.6v10.9l-12.1,4
		l12.1,4.5v10.8l8-8.2l12,3l-6.7-9.9l6.7-9.1L91.2,365.5z M196.3,106.6v10.9l-12.1,4l12.1,4.4v10.8l8-8.2l12,3.1l-6.7-9.9l6.7-9.3
		l-12,2.7L196.3,106.6z M170.7,201v10.9l-12.1,4l12.1,4.5v10.8l7.9-8.2l12.1,3l-6.8-9.9l6.8-9.1l-12.1,2.7L170.7,201z M250.3,56
		l-12.1,4l12.1,4.5v10.8l8-8.2l12,3l-6.7-9.9l6.7-9.3l-12,2.7l-5.6-6c-0.8,0.3-1.6,0.7-2.4,1V56z M216.3,363.9l-12,2.7l-8-8.6
		l1.7,10.5c4.1,1.8,8.1,3.5,12,5.2l-0.4-0.6L216.3,363.9z M67.8,332.9l-2.8-3c0.1,7,0.3,13.2,0.5,18.9l2.3-2.4l12.1,3l-6.8-9.9
		l6.8-9.3L67.8,332.9z M115.3,292.6l7.9-8.1l12.1,3l-6.8-9.9l6.8-9.3l-12.1,2.7l-7.9-8.5v10.9l-12.1,4l12.1,4.4V292.6z M207.1,71
		l12,3l-5.5-8.1l-1.2-1.8l0.3-0.5c-0.2,0.1-0.3,0.1-0.5,0.2c-3.5,1.5-6.8,3-10.3,4.7c-1,0.5-1.9,0.9-2.9,1.4v9.4L207.1,71z
		 M114.8,148l-5.5,1.8c-0.8,1.2-1.6,2.5-2.4,3.7l7.9,2.9v10.8l7.9-8.2l12.1,3.1l-6.8-9.9l6.8-9.3l-12.1,2.7l-5.9-6.3
		c-0.7,0.9-1.4,1.8-2,2.7V148z M377.7,55.1c-2-0.8-3.9-1.5-5.7-2.2c-0.1,0-0.2-0.1-0.3-0.1l0.2,332.6c8.9-3.1,18.1-6.6,27.5-10.5
		c0,0,0.1,0,0.1-0.1c2.3-0.9,4.6-1.9,7-2.9c0.1,0,0.2-0.1,0.3-0.1c2.3-1,4.5-1.9,6.8-2.9c0.2-0.1,0.3-0.2,0.5-0.2c2.2-1,4.5-2,6.8-3
		c0.2-0.1,0.3-0.1,0.5-0.2c2.3-1,4.6-2.1,6.9-3.1c0,0,0,0,0,0c0.1-92.7,0.1-191.1,0.1-283.8c0,0,0,0,0,0c-2.1-1.3-4.3-2.5-6.4-3.7
		c-0.3-0.1-0.5-0.3-0.8-0.4c-0.6-0.3-1.2-0.7-1.8-1c-0.6-0.3-1.3-0.7-1.9-1c-0.6-0.3-1.1-0.6-1.7-0.9c-0.7-0.4-1.5-0.8-2.3-1.1
		c-0.3-0.2-0.7-0.3-1-0.5c-1.1-0.5-2.2-1.1-3.3-1.6c-1.2-0.6-2.4-1.1-3.6-1.7c-0.5-0.2-1.1-0.5-1.6-0.7c-0.8-0.4-1.7-0.8-2.6-1.1
		c-5.9-2.6-12.5-5.2-20-8.1C380.1,56,378.9,55.5,377.7,55.1z M169.8,94.2v10.9l7.9-8.2l12.1,3l-6.8-9.9l6.8-9.3l-11.6,2.6l-1.1-0.8
		c-4.6,3-9.2,6.2-13.6,9.5L169.8,94.2z M141.7,136l8-8.2l12,3.1l-6.7-9.9l6.7-9.3l-12,2.7l-5.6-6c-0.8,0.8-1.6,1.5-2.4,2.3v6.1
		l-8.7,2.9c-0.5,0.6-1.1,1.2-1.6,1.8l10.3,3.7V136z M64.9,268.3c-0.2,4.5-0.4,10.6-0.3,19.4l3.1-3.2l12.1,3l-6.8-9.9l6.8-9.3
		L67.6,271L64.9,268.3z M178.5,332.9l-7.9-8.5v10.9l-12.1,4l12.1,4.4v10.9l7.9-8.2l12.1,3l-6.8-9.9l6.8-9.3L178.5,332.9z
		 M141.7,313.1v10.8l8-8.2l12,3l-6.7-9.9l6.7-9.3l-12,2.7l-8-8.5v10.9l-12.1,4L141.7,313.1z M141.7,231.7v10.9l-12.1,4l12.1,4.4V262
		l8-8.2l12,3l-6.7-9.9l6.7-9.3l-12,2.7L141.7,231.7z M258.3,115.1l-8-8.5v10.9l-12.1,4l12.1,4.4v10.8l8-8.2l12,3.1l-6.7-9.9l6.7-9.3
		L258.3,115.1z M86.3,262l8-8.2l12,3l-6.7-9.9l6.7-9.3l-12,2.7l-8-8.5v10.9l-12.1,4l12.1,4.4V262z M233.3,84.3l-8-8.5v10.9l-12.1,4
		l12.1,4.4v10.9l8-8.2l12,3l-6.7-9.9l6.7-9.3L233.3,84.3z M141.7,170.2v10.9l-12.1,4l12.1,4.5v10.8l8-8.2l12,3.1l-6.7-9.9l6.7-9.3
		l-12,2.7L141.7,170.2z M115.3,201v10.9l-12.1,4l12.1,4.5v10.8l7.9-8.2l12.1,3l-6.8-9.9l6.8-9.1l-12.1,2.7L115.3,201z M170.7,137.4
		v10.9l-12.1,4l12.1,4.4v10.8l7.9-8.2l12.1,3.1l-6.8-9.9l6.8-9.3l-12.1,2.7L170.7,137.4z"/>
</g>
<g id="Layer_3">
	<path class="st1" d="M371.7,52.7l0.2,332.6c-0.6,0.2-1.2,0.4-1.8,0.6c-5.6,1.9-19.9,6.5-24.7,7.8l-2.4,0.7l-3.1,0.9l-1.4,2.9
		l-0.8,1.6c-3.2,6.7-3.8,12.2-4,23c-0.3,17,1,31,4.7,50.2c2.6,13.6,7.5,35.2,10.6,46.2c0,0.1,0.1,0.3,0.1,0.4
		c-5,4.7-15.2,14.1-21.6,20.1L327,30.9c6.9,4.4,13.4,7.9,23,12.4C357.3,46.8,363.3,49.4,371.7,52.7L371.7,52.7z M327.5,539.7
		L327.5,539.7C327.5,539.7,327.5,539.7,327.5,539.7L327.5,539.7z M147,424.8v273.3c12.3,12.6,26.7,25.7,41.7,37.9V448
		c-4.7-2.6-9.5-5.3-14.6-8.1C163.4,433.9,154.4,428.9,147,424.8z M63.2,404.2c-6.3,6.9-9.8,15.1-9.1,21.4c0.1,1.1,0.2,1.6,0.3,1.9
		c0.2,0.1,0.6,0.4,1.2,0.8c5.5,3.4,12.9,9.7,16.9,14.3c7.2,8.4,11.4,17.3,13.6,28.8c1.5,8.3,2.1,15.2,2.1,24.7
		c0,16.1-2.3,31.6-6.9,47.5c-2.8,9.6-5.5,16.6-10.6,27.6l-0.7,1.6l0.4,1.5c1.5,5.3,2.2,7.6,3.8,12.3c6.7,18.8,18.1,40.5,32,61.4
		c0,0,0,0,0,0l2.3-245.4H64.6C64.1,403.2,63.7,403.7,63.2,404.2z M283.3,402.7h-7.7c2.1,5.5,2.6,11,2.7,20.2
		c0.4,22.9-2,40.8-10.4,76.6c-2.2,9.5-3.6,15-5,20.2c5.4,5.1,13,12.2,20.4,18.9l0-136V402.7z M371.8,385.3L371.8,385.3
		C371.8,385.3,371.8,385.3,371.8,385.3L371.8,385.3z M469.6,693.2L469.6,693.2C469.6,693.1,469.6,693.1,469.6,693.2L469.6,693.2z
		 M469.6,110.1L469.6,110.1C469.6,110.1,469.6,110.1,469.6,110.1L469.6,110.1z M528.8,536.7C528.8,536.7,528.8,536.7,528.8,536.7
		C528.8,536.7,528.8,536.7,528.8,536.7l0,71.1c5.7-11.9,9.7-22.3,12.8-33.4l0.4-1.5l-1.1-2.3C535.2,558.2,531.6,548.2,528.8,536.7z
		 M548.8,404.1l-1-1.1l-2.1-2.3l-0.8-0.9l-2.3-2.5l0.5-3.4l0.3-2.1c2.2-15.1,3.3-36.7,3.9-79.8c0.3-19.5,0.3-36.3,0-41.9
		c-0.4-7.1-1-11.3-3.1-21.1c-3.9-18-8.9-34.5-15.4-50.3v261.9c2.5-6.9,6.1-12.9,11-18.5c4.1-4.6,10.7-10.2,16.2-13.6
		c0.9-0.6,1.4-0.9,1.6-1.1c0.1-0.3,0.2-0.8,0.3-1.9C558.6,419.3,555.1,411,548.8,404.1z M466.2,106.8c-9.7-9-18.2-15.7-29.3-23.1
		c-2.8-1.9-5.6-3.7-8.5-5.4c0,92.7-0.1,191.2-0.1,283.8c13.7-6.3,27.6-13.3,41.4-20.6V110.1C468.6,109,467.4,108,466.2,106.8z
		 M469.6,341.6c0.2-0.1,0.4-0.2,0.6-0.3C470.1,341.3,469.8,341.4,469.6,341.6L469.6,341.6z M437.8,439.9c-3.3,1.8-6.5,3.6-9.6,5.4
		c-0.1,93.3-0.1,193.4-0.1,286.8c6-5,12.1-10.3,18.3-16c8.1-7.4,15.9-15,23.2-22.9v-271C461.4,426.8,451,432.6,437.8,439.9z"/>
</g>
<g id="Layer_4">
	<path class="st2" d="M114.8,148l-5.5,1.8c1.8-2.7,3.6-5.3,5.5-7.9h0V148z M141.7,116.8v-6.1c-2.7,2.7-5.4,5.4-8,8.2
		c-0.2,0.3-0.5,0.5-0.7,0.8c0,0,0,0,0,0L141.7,116.8z M65.5,348.8L65.5,348.8L65.5,348.8C65.5,348.8,65.5,348.8,65.5,348.8z
		 M65,329.9L65,329.9L65,329.9C65,329.9,65,329.9,65,329.9z M283.3,402.7h-7.7c-0.4-1-0.8-1.9-1.3-2.9l-0.8-1.6l-1.4-2.9l-3.1-0.9
		l-2.4-0.7c-10-2.8-26.9-8.4-37.7-12.5c-6.1-2.3-12.5-4.8-18.9-7.5l-0.4-0.6l6.7-9.1l-12,2.7l-8-8.6l1.7,10.5
		c-24.2-10.6-49.9-23.5-73.8-37c-6.8-3.9-7.5-4.2-9.6-4.2h-2.7l-2,1.8l-0.2,0.2l-0.2,0.2c-2,2.1-2.1,3.9-2.1,7.5c0,1.6,0,4-0.1,6.9
		c0,6.1-0.1,14.1-0.1,22.5c-0.1,13-0.1,21.4-0.1,26.2c0,1.7,0,3.1,0.1,4.3v0c0.1,2.7,0.5,4.5,1.6,5.9H64.6c0.8-0.9,1.5-1.6,1.8-1.9
		l0.8-0.9l2.2-2.5l-0.4-3.3l-0.6-4.7c-1.3-10-2.2-22.1-2.8-40.6l2.3-2.4l12.1,3l-6.8-9.9l6.8-9.3l-12.1,2.7l-2.8-3
		c-0.1-5.4-0.2-11.3-0.3-17.7c-0.1-9.9-0.2-18-0.2-24.5l3.1-3.2l12.1,3l-6.8-9.9l6.8-9.3L67.6,271l-2.8-2.7c0.1-2,0.2-3.7,0.4-5.1
		c0.9-7.6,4.2-22.6,7.5-34.1c3.6-12.5,7.9-24.6,13-36.2v7l8-8.2l12,3.1l-6.7-9.9l6.7-9.3l-12,2.7l-0.7-0.8
		c4.2-8.3,8.8-16.2,13.8-23.9l7.9,2.9v10.8l7.9-8.2l12.1,3.1l-6.8-9.9l6.8-9.3l-12.1,2.7l-5.9-6.3l0,0c4.6-6.2,9.5-12.1,14.6-17.7
		l0,0l10.3,3.7V136l8-8.2l12,3.1l-6.7-9.9l6.7-9.3l-12,2.7l-5.6-6c6.2-5.9,12.7-11.4,19.5-16.5l6.3,2.3v10.9l7.9-8.2l12.1,3
		l-6.8-9.9l6.8-9.3l-11.6,2.6l-1.1-0.8c6.7-4.4,13.6-8.3,20.7-11.9c0.4-0.2,0.9-0.4,1.3-0.7v9.4l8-8.2l12,3l-5.5-8.1l-1.2-1.8
		l0.3-0.5c4.9-2.1,10.5-4.3,18.2-7.3c8.2-3.1,13.9-5.4,19.3-7.7V56l-12.1,4l12.1,4.5v10.8l8-8.2l12,3l-6.7-9.9l6.7-9.3l-12,2.7
		l-5.6-6c3.3-1.5,6.6-3,10.3-4.7c8.3-4,14.2-7.1,20.2-10.8c0,0,0,0,0,0c0,0,0,0,0,0L283.3,402.7z M213.1,90.8l12.1,4.4v10.9l8-8.2
		l12,3l-6.7-9.9l6.7-9.3l-12,2.7l-8-8.5v10.9L213.1,90.8z M238.6,152.4l6.7-9.3l-12,2.7l-8-8.5v10.9l-12.1,4l12.1,4.4v10.8l8-8.2
		l12,3.1L238.6,152.4z M238.6,216l6.7-9.1l-12,2.7l-8-8.6v10.9l-12.1,4l12.1,4.5v10.8l8-8.2l12,3L238.6,216z M238.6,277.5l6.7-9.3
		l-12,2.7l-8-8.5v10.9l-12.1,4l12.1,4.4v10.8l8-8.1l12,3L238.6,277.5z M196.3,251V262l8-8.2l12,3l-6.7-9.9l6.7-9.3l-12,2.7l-8-8.5
		v10.9l-12.1,4L196.3,251z M183.9,277.5l6.8-9.3l-12.1,2.7l-7.9-8.5v10.9l-12.1,4l12.1,4.4v10.8l7.9-8.1l12.1,3L183.9,277.5z
		 M141.7,251V262l8-8.2l12,3l-6.7-9.9l6.7-9.3l-12,2.7l-8-8.5v10.9l-12.1,4L141.7,251z M209.6,185.4l6.7-9.3l-12,2.7l-8-8.6v10.9
		l-12.1,4l12.1,4.5v10.8l8-8.2l12,3.1L209.6,185.4z M178.5,209.6l-7.9-8.6v10.9l-12.1,4l12.1,4.5v10.8l7.9-8.2l12.1,3l-6.8-9.9
		l6.8-9.1L178.5,209.6z M184.1,121.5l12.1,4.4v10.8l8-8.2l12,3.1l-6.7-9.9l6.7-9.3l-12,2.7l-8-8.5v10.9L184.1,121.5z M158.5,152.3
		l12.1,4.4v10.8l7.9-8.2l12.1,3.1l-6.8-9.9l6.8-9.3l-12.1,2.7l-7.9-8.5v10.9L158.5,152.3z M129.5,185.1l12.1,4.5v10.8l8-8.2l12,3.1
		l-6.7-9.9l6.7-9.3l-12,2.7l-8-8.6v10.9L129.5,185.1z M103.1,215.9l12.1,4.5v10.8l7.9-8.2l12.1,3l-6.8-9.9l6.8-9.1l-12.1,2.7
		l-7.9-8.6v10.9L103.1,215.9z M86.3,251V262l8-8.2l12,3l-6.7-9.9l6.7-9.3l-12,2.7l-8-8.5v10.9l-12.1,4L86.3,251z M96.5,371.9
		l6.7-9.1l-12,2.7l-8-8.6v10.9l-12.1,4l12.1,4.5v10.8l8-8.2l12,3L96.5,371.9z M99.6,308.7l6.7-9.3l-12,2.7l-8-8.5v10.9l-12.1,4
		l12.1,4.5v10.8l8-8.2l12,3L99.6,308.7z M135.3,287.5l-6.8-9.9l6.8-9.3l-12.1,2.7l-7.9-8.5v10.9l-12.1,4l12.1,4.4v10.8l7.9-8.1
		L135.3,287.5z M149.7,315.6l12,3l-6.7-9.9l6.7-9.3l-12,2.7l-8-8.5v10.9l-12.1,4l12.1,4.5v10.8L149.7,315.6z M183.9,339.5l6.8-9.3
		l-12.1,2.7l-7.9-8.5v10.9l-12.1,4l12.1,4.4v10.9l7.9-8.2l12.1,3L183.9,339.5z M204.3,315.6l12,3l-6.7-9.9l6.7-9.3l-12,2.7l-8-8.5
		v10.9l-12.1,4l12.1,4.5v10.8L204.3,315.6z M233.3,346.4l12,3l-6.7-9.9l6.7-9.3l-12,2.7l-8-8.5v10.9l-12.1,4l12.1,4.4v10.9
		L233.3,346.4z M263.6,371.9l6.7-9.1l-12,2.7l-8-8.6v10.9l-12.1,4l12.1,4.5v10.8l8-8.2l12,3L263.6,371.9z M263.6,308.7l6.7-9.3
		l-12,2.7l-8-8.5v10.9l-12.1,4l12.1,4.5v10.8l8-8.2l12,3L263.6,308.7z M263.6,246.8l6.7-9.3l-12,2.7l-8-8.5v10.9l-12.1,4l12.1,4.4
		V262l8-8.2l12,3L263.6,246.8z M263.6,185.4l6.7-9.3l-12,2.7l-8-8.6v10.9l-12.1,4l12.1,4.5v10.8l8-8.2l12,3.1L263.6,185.4z
		 M263.6,121.6l6.7-9.3l-12,2.7l-8-8.5v10.9l-12.1,4l12.1,4.4v10.8l8-8.2l12,3.1L263.6,121.6z M106.8,153.5L106.8,153.5
		C106.9,153.5,106.9,153.5,106.8,153.5L106.8,153.5z"/>
</g>
</svg>
