<?xml version="1.0" encoding="utf-8"?>
<!-- Generator: Adobe Illustrator 23.0.3, SVG Export Plug-In . SVG Version: 6.00 Build 0)  -->
<svg version="1.1" xmlns="http://www.w3.org/2000/svg" xmlns:xlink="http://www.w3.org/1999/xlink" x="0px" y="0px"
	 viewBox="0 0 612 792" style="enable-background:new 0 0 612 792;" xml:space="preserve">
<style type="text/css">
	.st0{fill:#E6E6E6;}
	.st1{fill:#B22234;}
	.st2{fill:#3C3B6E;}
</style>
<g id="Layer_1_1_">
	<path d="M547.2,399.2c-1.2-1.3-2.6-2.8-3-3.3l-0.8-0.9l0.3-2c2.2-15.1,3.3-36.5,3.9-79c0.3-19.5,0.3-35.8,0-41.4
		c-0.4-7.4-1-11.8-3.1-21.7c-5.8-27.4-14.2-50.9-26.5-74.5c-9.4-18-19.2-32.8-31.6-47.5c-6.8-8.1-11.6-13.2-19.8-20.9
		c-9.7-9.1-18.3-15.9-29.4-23.4c-16-10.7-30.3-17.8-55.4-27.3c-13.4-5.1-20.6-8.2-30-12.6c-13.2-6.3-20-10.3-30.8-18.1
		c-7.3-5.2-10.8-7.6-12.1-8.2c-0.6-0.3-1.7-0.4-2.7-0.5h-0.2c-1,0-1.9,0.1-2.5,0.4c-1.3,0.5-5.3,3.2-10.5,7
		c-11.7,8.5-18.2,12.4-31.7,18.9c-10,4.8-16.5,7.5-30.5,13c-4.4,1.7-8.1,3.1-11.4,4.5c-6.7,2.7-11.6,4.9-17.4,7.6
		c-1.8,0.9-3.5,1.7-5.3,2.6c-23.4,12-45,28.5-63.3,48.2c-27.9,30.2-48.8,68.2-60.8,110.6c-3.3,11.8-6.6,26.7-7.5,34.5
		c-0.8,7.1-1,19.6-0.6,48.8c0.6,40.8,1.5,61,3.6,76.3l0.6,4.6l-0.8,0.9c-0.5,0.5-1.8,2-3,3.3c-7.6,8.3-11.6,18.2-10.7,26.5
		c0.5,4.5,1.2,5.6,4.8,7.8c4.7,2.9,11.4,8.6,14.8,12.6c6.2,7.3,9.8,15,11.7,25c1.4,7.6,2,14,2,22.9c0,15-2.1,29.6-6.5,44.5
		c-2.6,9-5.1,15.6-9.9,26.1l-1.8,3.8l1.1,4c1.5,5.4,2.2,7.8,3.9,12.5c6.8,19.3,18.6,41.9,33,63.2c9.4,13.9,22.2,30.1,34.3,43.1
		c19.3,20.8,45.3,43.6,70.8,61.8c11.8,8.5,29.7,20.1,32.3,21c0.4,0.1,0.8,0.2,1.2,0.2c1.8,0,3.6-1.3,3.9-3.1
		c0.1-0.4-0.2-4.2-0.5-8.4c-2.7-30-6-79.5-7.7-116.1c-1.7-34.7-1.9-44.9-1.9-90.5c0-48.9,0.2-56.1,2.5-81.4c0.3-4,0.6-7.3,0.6-7.3
		c0,0-27.6-15.5-61.2-34.4c-33.7-18.9-61.3-34.4-61.5-34.6c-0.3-0.2-0.3-4.7-0.2-31.3c0.1-17.1,0.2-31.1,0.2-31.2c0,0,0,0,0,0
		c0.1,0,2.7,1.4,5.9,3.2c33.8,19.3,71.4,37.2,102.9,49.1c10.7,4,27.4,9.6,37.2,12.4l2.3,0.7l0.7,1.5c2.3,4.9,3,9,3.2,19.7
		c0.4,21.8-1.9,38.7-9.9,73.2c-2.1,9.3-3.4,14.5-4.8,19.5l-1.1,4l2.5,2.4c31.7,29.8,42.9,39.5,46.3,40c0.4,0,0.7,0.1,1,0.1
		c1.2,0,2.2-0.4,3.9-1.5c3-2,8.8-6.7,16.6-13.7c3.7-3.3,29.3-27.2,29.3-27.3c0-0.1-0.5-2.1-1.2-4.5c-3-10.6-7.7-31.4-10.2-44.6
		c-3.5-18.4-4.7-31.5-4.4-47.7c0.2-10.6,0.8-14.7,3.2-19.6l0.7-1.5l2.3-0.7c4.7-1.3,18.8-5.8,24.3-7.8
		c35.2-12.2,76.8-31.5,115.8-53.7c3.1-1.8,5.7-3.2,5.9-3.2c0,0,0,0,0,0c0,0,0.2,14.1,0.2,31.2c0.1,26.6,0.1,31.1-0.2,31.3
		c-0.2,0.1-27.9,15.7-61.5,34.6c-33.7,18.9-61.2,34.3-61.2,34.4c0,0,0.3,3.3,0.6,7.3c2.2,25.3,2.4,32.4,2.5,81
		c0,35.9-0.2,48.1-0.8,65.3c-1.5,39.5-5.3,100.4-8.7,140.5c-0.6,7.2-0.8,9.4-0.6,10c0.5,1.6,2.2,2.7,3.8,2.7c0.3,0,0.6,0,0.9-0.1
		c1-0.3,4.8-2.5,12.3-7.3c24.1-15.5,44.9-31.6,67.7-52.3c32.7-29.8,59.6-64.6,78.1-100.8c7.8-15.2,12.7-27.6,16.4-41.1l1.1-4
		l-2.1-4.6c-5.8-12.5-9.2-22.5-12-34.4c-4.6-19.8-5.4-39.8-2.3-57.3c1.9-10.8,5.7-18.9,12.1-26.3c3.5-4,9.5-9.1,14.2-12
		c3.9-2.5,4.6-3.5,5.1-8.1C558.8,417.5,554.8,407.5,547.2,399.2z"/>
</g>
<g id="Layer_2_1_">
	<path class="st0" d="M271.3,180.9l-6.5,9.1l6.5,9.7l-11.6-3l-7.8,8.1v-10.6l-11.8-4.4l11.8-3.9v-10.7l7.8,8.4L271.3,180.9z
		 M259.7,304.2l-7.8-8.3v10.7l-11.8,3.9l11.8,4.4v10.6l7.8-8.1l11.6,2.9l-6.5-9.7l6.5-9.1L259.7,304.2z M235.3,286.9l11.7,2.9
		l-6.5-9.7l6.5-9.1l-11.7,2.6l-7.8-8.3v10.7l-11.8,3.9l11.8,4.3v10.6L235.3,286.9z M259.7,243.6l-7.8-8.3V246l-11.8,3.9l11.8,4.3
		v10.7l7.8-8.1l11.6,2.9l-6.5-9.7l6.5-9.1L259.7,243.6z M235.3,213.6l-7.8-8.4v10.7l-11.8,3.9l11.8,4.4v10.6l7.8-8.1l11.7,2.9
		l-6.5-9.7l6.5-8.9L235.3,213.6z M207.1,256.8l11.6,2.9l-6.5-9.7l6.5-9.1l-11.6,2.6l-7.8-8.3V246l-11.8,3.9l11.8,4.3v10.7
		L207.1,256.8z M199.3,175.1v10.7l-11.8,3.9l11.8,4.4v10.6l7.8-8.1l11.6,3l-6.5-9.7l6.5-9.1l-11.6,2.6L199.3,175.1z M207.1,317.4
		l11.6,2.9l-6.5-9.7l6.5-9.1l-11.6,2.6l-7.8-8.3v10.7l-11.8,3.9l11.8,4.4v10.6L207.1,317.4z M182.1,273.7l-7.7-8.3v10.7l-11.8,3.9
		l11.8,4.3v10.6l7.7-7.9l11.8,2.9l-6.6-9.7l6.6-9.1L182.1,273.7z M235.3,151.3l-7.8-8.3v10.7l-11.8,3.9l11.8,4.3v10.6l7.8-8.1
		l11.7,3l-6.5-9.7l6.5-9.1L235.3,151.3z M326.4,38.9c-0.3-0.2-0.5-0.3-0.8-0.5c0,0,0,0,0,0c-2.1-1.4-4.2-2.8-6.5-4.4
		c0,0-0.1,0-0.1-0.1c-0.7-0.5-1.4-1-2.1-1.5c-6.8-4.9-9.5-6.7-10.6-7.3c-0.1,0-0.2,0-0.3,0h-0.2c-1,0.6-3.7,2.3-8.8,6
		c-0.7,0.5-1.3,1-2,1.4l-0.2,0.2c-4,2.9-7.5,5.3-11,7.4l0.1,495.4c1.2,1.1,2.3,2.1,3.5,3.2c0.1,0.1,0.1,0.1,0.2,0.2
		c0.5,0.4,1,0.9,1.4,1.3c0.1,0.1,0.3,0.2,0.4,0.3c0.4,0.4,0.8,0.7,1.2,1.1c0.2,0.1,0.3,0.3,0.5,0.4c0.4,0.3,0.7,0.7,1.1,1
		c0.2,0.2,0.4,0.3,0.5,0.5c0.4,0.3,0.7,0.6,1,0.9c0.2,0.1,0.3,0.3,0.5,0.4c0.4,0.3,0.7,0.6,1.1,1c0.1,0.1,0.3,0.2,0.4,0.4
		c0.4,0.4,0.8,0.7,1.2,1.1c0.1,0.1,0.1,0.1,0.2,0.2c0.5,0.4,0.9,0.8,1.4,1.2c0.1,0.1,0.2,0.1,0.3,0.2c0.3,0.3,0.7,0.6,1,0.9
		c0.1,0.1,0.3,0.2,0.4,0.3c0.3,0.2,0.5,0.5,0.8,0.7c0.1,0.1,0.3,0.2,0.4,0.4c0.2,0.2,0.5,0.4,0.7,0.6c0.1,0.1,0.3,0.2,0.4,0.3
		c0.2,0.2,0.4,0.3,0.6,0.5c0.1,0.1,0.3,0.2,0.4,0.3c0.2,0.1,0.4,0.3,0.6,0.4c0.1,0.1,0.2,0.2,0.3,0.3c0.2,0.1,0.4,0.3,0.5,0.4
		c0.1,0.1,0.2,0.1,0.3,0.2c0.2,0.2,0.5,0.3,0.7,0.5c0,0,0.1-0.1,0.1-0.1c1.3-0.8,5.3-3.7,15.7-13c0.1-0.1,0.2-0.2,0.3-0.3
		c0,0,0.1-0.1,0.1-0.1c0.1-0.1,0.2-0.2,0.3-0.3c0,0,0.1-0.1,0.2-0.1c0.1-0.1,0.2-0.2,0.4-0.3c0.1-0.1,0.1-0.1,0.2-0.2
		c0.1-0.1,0.3-0.2,0.4-0.4c0.1-0.1,0.1-0.1,0.2-0.2c0.2-0.2,0.4-0.3,0.6-0.5c0,0,0,0,0,0c0.2-0.2,0.5-0.4,0.7-0.7c0,0,0,0,0,0
		c0.5-0.5,1.1-1,1.7-1.5L326.4,38.9z M234.3,646.7c-1.7-34.9-1.9-45.1-1.9-90.8c0-48.9,0.2-56.5,2.5-82c0.1-1,0.2-2,0.2-2.8
		c-7-3.9-23-12.9-43.2-24.2v281.7c8,6.5,16.2,12.8,24.3,18.6c8.7,6.2,19.6,13.4,25.9,17.3c0-0.4-0.1-0.9-0.1-1.3
		C239.5,733.2,236.1,683.2,234.3,646.7z M125,409.3c-8.2-4.6-9.2-5.2-9.5-5.4c-0.6-0.4-1-0.9-1.4-1.3l-2.2,240c0.3,0.5,0.7,1,1,1.5
		c9.2,13.7,21.8,29.5,33.6,42.3c1.6,1.7,3.2,3.4,4.9,5.2V424.1C138.5,416.9,130.3,412.2,125,409.3z M522.6,533.6
		C522.6,533.6,522.6,533.6,522.6,533.6c-0.2-0.9-0.4-1.7-0.6-2.6c-4.8-20.9-5.7-41.6-2.4-60.1c0.2-0.9,0.4-1.9,0.5-2.8
		c0-0.2,0.1-0.4,0.1-0.6c0.2-0.8,0.4-1.7,0.6-2.5c0-0.1,0-0.1,0-0.2c0.5-1.9,1.1-3.8,1.7-5.6V203.1c-1.6-3.9-3.3-7.8-5.1-11.6
		c-0.1-0.2-0.2-0.4-0.3-0.6c-0.7-1.6-1.5-3.1-2.3-4.7c-0.2-0.4-0.4-0.8-0.6-1.2c-0.9-1.8-1.8-3.6-2.7-5.3
		c-9.2-17.6-18.7-31.9-30.7-46.2c-0.6-0.8-1.3-1.5-1.9-2.2c-0.1-0.1-0.2-0.2-0.3-0.3c-0.6-0.7-1.2-1.4-1.7-2
		c-0.1-0.1-0.2-0.2-0.3-0.3c-0.6-0.7-1.2-1.3-1.8-2c0,0,0,0,0,0c-0.6-0.7-1.2-1.3-1.8-2c0,0,0,0,0,0c-0.6-0.6-1.2-1.3-1.8-1.9
		c0,0-0.1-0.1-0.1-0.1c-1.9-2-3.9-4-6.1-6.1v226.4c2.8-1.5,5.6-3,8.4-4.6c0.2-0.1,0.4-0.2,0.7-0.4c2.9-1.6,5.8-3.2,8.7-4.9
		c6.5-3.7,7.3-4.1,9.3-4.1h2.9l2,2c2.1,2,2.1,4,2.2,7.4c0,1.6,0,3.9,0.1,6.7c0,5.9,0.1,13.7,0.1,22c0.1,12.7,0.1,20.9,0.1,25.6
		c0,6.6-0.1,9.1-3,11.3v0c0,0,0,0,0,0c0,0,0,0,0,0c0,0,0,0-0.1,0c0,0,0,0,0,0c0,0,0,0-0.1,0c0,0,0,0,0,0c0,0-0.1,0-0.1,0.1
		c0,0,0,0,0,0c-0.1,0-0.2,0.1-0.3,0.2c0,0,0,0,0,0c-0.1,0.1-0.2,0.1-0.4,0.2c0,0,0,0,0,0c-0.1,0-0.2,0.1-0.3,0.1c0,0,0,0,0,0
		c-0.1,0-0.2,0.1-0.3,0.1c0,0,0,0-0.1,0c-0.2,0.1-0.5,0.3-0.8,0.5c0,0,0,0,0,0c-1.4,0.8-3.7,2.1-7.3,4.1c-0.2,0.1-0.4,0.2-0.6,0.3
		c-0.3,0.2-0.6,0.3-0.9,0.5c-0.1,0-0.1,0.1-0.2,0.1c-2.2,1.3-4.9,2.8-8.2,4.6c-0.1,0-0.1,0.1-0.2,0.1c-1.3,0.7-2.6,1.5-4,2.3
		c-0.1,0.1-0.2,0.1-0.3,0.2c-2.2,1.2-4.7,2.6-7.3,4.1v265.1c0.6-0.7,1.3-1.4,1.9-2.1c1-1.1,2-2.1,2.9-3.2c0.7-0.8,1.4-1.6,2.1-2.4
		c0.9-1,1.8-2.1,2.7-3.1c0.7-0.8,1.3-1.6,2-2.3c1.4-1.6,2.7-3.2,4-4.8c0.6-0.7,1.1-1.4,1.7-2.1c1-1.2,2-2.5,2.9-3.7
		c0.6-0.8,1.2-1.5,1.8-2.3c0.9-1.2,1.8-2.3,2.6-3.5c0.5-0.7,1.1-1.5,1.6-2.2c1.3-1.8,2.6-3.6,3.9-5.4c0.3-0.4,0.6-0.9,0.9-1.3
		c1-1.5,2.1-3,3.1-4.5c0.5-0.7,0.9-1.4,1.4-2.1c0.9-1.3,1.7-2.6,2.6-4c0.4-0.6,0.8-1.3,1.2-1.9c1.2-1.9,2.4-3.8,3.6-5.7
		c0.1-0.2,0.2-0.4,0.3-0.6c1.1-1.8,2.1-3.6,3.2-5.3c0.4-0.6,0.7-1.2,1.1-1.9c0.8-1.4,1.6-2.9,2.4-4.3c0.3-0.6,0.7-1.2,1-1.8
		c1.1-2,2.1-4,3.1-6c0.6-1.2,1.2-2.3,1.7-3.4c0.1-0.1,0.1-0.3,0.2-0.4c0.5-1.1,1.1-2.2,1.6-3.2V533.6z M424.8,444.2
		c-5.4,3-10.5,5.9-15.3,8.6c-0.6,0.4-1.3,0.7-1.9,1c-5.1,2.9-9.8,5.5-14,7.8c-0.1,0.1-0.3,0.2-0.4,0.2c-1,0.5-1.9,1.1-2.8,1.6
		c-0.1,0.1-0.3,0.1-0.4,0.2c-2.8,1.6-5.3,3-7.5,4.2c-0.4,0.2-0.8,0.5-1.2,0.7c-0.9,0.5-1.7,1-2.5,1.4c-0.7,0.4-1.4,0.8-2,1.1
		c0.1,0.8,0.2,1.7,0.2,2.7c2.3,25.6,2.5,32.5,2.5,81.6c0,36-0.2,48.3-0.8,65.5c-1.5,39.8-5.3,100.4-8.8,140.9
		c-0.1,0.7-0.1,1.6-0.2,2.6c1.5-0.9,3.4-2.1,5.9-3.8c1.9-1.2,3.8-2.5,5.7-3.7c0.5-0.3,0.9-0.6,1.4-0.9c1.8-1.2,3.6-2.4,5.3-3.6
		c0.1-0.1,0.2-0.1,0.3-0.2c1.9-1.3,3.8-2.6,5.7-4c0.3-0.2,0.7-0.5,1-0.7c1.8-1.3,3.6-2.6,5.4-3.9c0.1,0,0.1-0.1,0.2-0.1
		c2-1.4,3.9-2.9,5.8-4.4c0.1-0.1,0.3-0.2,0.4-0.3c5.9-4.5,11.8-9.2,17.7-14.1c0,0,0,0,0,0C424.7,633.4,424.8,535.4,424.8,444.2z
		 M235.3,347.5l11.7,2.9l-6.5-9.7l6.5-9.1l-11.7,2.6l-7.8-8.3v10.7l-11.8,3.9l11.8,4.3v10.7L235.3,347.5z M99.7,196.1l11.6,3
		l-6.5-9.7l6.5-9.1L99.7,183l-0.7-0.8c-2.5,4.9-4.9,10-7.1,15.1v6.8L99.7,196.1z M100.2,304.2l-7.8-8.3v10.7l-11.8,3.9l11.8,4.4
		v10.6l7.8-8.1l11.6,2.9l-6.5-9.7l6.5-9.1L100.2,304.2z M259.7,379.2l11.6,2.9l-6.5-9.7l6.5-8.9l-11.6,2.6l-7.8-8.4v10.7l-11.8,3.9
		l11.8,4.4v10.6L259.7,379.2z M97.1,366.1l-7.8-8.4v10.7l-11.8,3.9l11.8,4.4v10.6l7.8-8.1l11.6,2.9l-6.5-9.7l6.5-8.9L97.1,366.1z
		 M199.3,112.9v10.7l-11.8,3.9l11.8,4.3v10.6l7.8-8.1l11.6,3l-6.5-9.7l6.5-9.1l-11.6,2.6L199.3,112.9z M174.4,205.2v10.7l-11.8,3.9
		l11.8,4.4v10.6l7.7-8.1l11.8,2.9l-6.6-9.7l6.6-8.9l-11.8,2.6L174.4,205.2z M251.8,63.4l-11.8,3.9l11.8,4.4v10.6l7.8-8l11.6,2.9
		l-6.5-9.7l6.5-9.1L259.7,61l-5.5-5.8c-0.8,0.3-1.5,0.7-2.3,1V63.4z M218.8,364.6l-11.6,2.6l-7.8-8.4l1.6,10.3
		c3.9,1.7,7.9,3.4,11.7,5l-0.4-0.6L218.8,364.6z M74.4,334.3l-2.7-2.9c0.1,6.8,0.3,12.9,0.5,18.4l2.2-2.3l11.8,2.9l-6.6-9.7l6.6-9.1
		L74.4,334.3z M120.5,294.8l7.7-7.9l11.8,2.9l-6.6-9.7l6.6-9.1l-11.8,2.6l-7.7-8.3v10.7l-11.8,3.9l11.8,4.3V294.8z M209.9,78.1
		l11.6,2.9l-5.3-8l-1.2-1.7l0.3-0.5c-0.2,0.1-0.3,0.1-0.5,0.2c-3.4,1.5-6.6,2.9-10,4.6c-0.9,0.5-1.9,0.9-2.8,1.4v9.2L209.9,78.1z
		 M120.1,153.4l-5.4,1.8c-0.8,1.2-1.6,2.4-2.3,3.6l7.7,2.8v10.6l7.7-8.1l11.8,3l-6.6-9.7l6.6-9.1l-11.8,2.6l-5.7-6.2
		c-0.7,0.9-1.3,1.8-2,2.6V153.4z M375.7,62.5c-2-0.8-3.8-1.5-5.6-2.2c-0.1,0-0.2-0.1-0.3-0.1l0.2,325.3c8.6-3,17.6-6.5,26.7-10.2
		c0,0,0.1,0,0.1-0.1c2.2-0.9,4.5-1.9,6.8-2.8c0.1,0,0.2-0.1,0.3-0.1c2.2-0.9,4.4-1.9,6.7-2.9c0.2-0.1,0.3-0.1,0.5-0.2
		c2.2-1,4.4-1.9,6.6-2.9c0.2-0.1,0.3-0.1,0.5-0.2c2.2-1,4.5-2,6.7-3.1c0,0,0,0,0,0c0-90.6,0.1-187,0.1-277.6c0,0,0,0,0,0
		c-2.1-1.2-4.1-2.5-6.2-3.6c-0.3-0.1-0.5-0.3-0.8-0.4c-0.6-0.3-1.2-0.6-1.7-1c-0.6-0.3-1.2-0.7-1.9-1c-0.5-0.3-1.1-0.6-1.6-0.8
		c-0.7-0.4-1.5-0.7-2.2-1.1c-0.3-0.2-0.7-0.3-1-0.5c-1-0.5-2.1-1-3.2-1.5c-1.1-0.5-2.3-1.1-3.5-1.6c-0.5-0.2-1-0.5-1.6-0.7
		c-0.8-0.4-1.7-0.8-2.5-1.1c-5.8-2.5-12.2-5.1-19.5-7.9C378,63.4,376.8,62.9,375.7,62.5z M173.6,100.8v10.7l7.7-8.1l11.8,2.9
		l-6.6-9.7l6.6-9.1L181.8,90l-1-0.8c-4.5,2.9-8.9,6-13.2,9.3L173.6,100.8z M146.2,141.7l7.8-8.1l11.6,3l-6.5-9.7l6.5-9.1l-11.6,2.6
		l-5.5-5.8c-0.8,0.7-1.6,1.5-2.3,2.3v6l-8.5,2.8c-0.5,0.6-1,1.2-1.6,1.7l10,3.6V141.7z M71.6,271.1c-0.2,4.4-0.3,10.3-0.3,18.9
		l3-3.1l11.8,2.9l-6.6-9.7L86,271l-11.8,2.6L71.6,271.1z M182.1,334.3l-7.7-8.3v10.7l-11.8,3.9l11.8,4.3v10.7l7.7-8.1l11.8,2.9
		l-6.6-9.7l6.6-9.1L182.1,334.3z M146.2,314.9v10.6l7.8-8.1l11.6,2.9l-6.5-9.7l6.5-9.1l-11.6,2.6l-7.8-8.3v10.7l-11.8,3.9
		L146.2,314.9z M146.2,235.3V246l-11.8,3.9l11.8,4.3v10.7l7.8-8.1l11.6,2.9l-6.5-9.7l6.5-9.1l-11.6,2.6L146.2,235.3z M259.7,121.2
		l-7.8-8.3v10.7l-11.8,3.9l11.8,4.3v10.6l7.8-8.1l11.6,3l-6.5-9.7l6.5-9.1L259.7,121.2z M92.4,264.9l7.8-8.1l11.6,2.9l-6.5-9.7
		l6.5-9.1l-11.6,2.6l-7.8-8.3V246l-11.8,3.9l11.8,4.3V264.9z M235.3,91.1l-7.8-8.3v10.7l-11.8,3.9l11.8,4.3v10.7l7.8-8.1l11.7,2.9
		l-6.5-9.7l6.5-9.1L235.3,91.1z M146.2,175.1v10.7l-11.8,3.9l11.8,4.4v10.6l7.8-8.1l11.6,3l-6.5-9.7l6.5-9.1l-11.6,2.6L146.2,175.1z
		 M120.5,205.2v10.7l-11.8,3.9l11.8,4.4v10.6l7.7-8.1l11.8,2.9l-6.6-9.7l6.6-8.9l-11.8,2.6L120.5,205.2z M174.4,143v10.7l-11.8,3.9
		l11.8,4.3v10.6l7.7-8.1l11.8,3l-6.6-9.7l6.6-9.1l-11.8,2.6L174.4,143z"/>
</g>
<g id="Layer_3">
	<path class="st1" d="M369.8,60.2l0.2,325.3c-0.6,0.2-1.2,0.4-1.7,0.6c-5.5,1.9-19.4,6.3-24,7.6l-2.3,0.7l-3,0.9l-1.4,2.9l-0.7,1.5
		c-3.1,6.5-3.7,12-3.9,22.5c-0.3,16.6,1,30.4,4.5,49.1c2.5,13.3,7.3,34.4,10.3,45.2c0,0.1,0.1,0.3,0.1,0.4
		c-4.9,4.6-14.8,13.8-21,19.6l-0.5-497.6c6.7,4.3,13,7.7,22.4,12.2C355.8,54.4,361.7,57,369.8,60.2L369.8,60.2z M326.9,536.5
		L326.9,536.5C326.9,536.5,326.9,536.5,326.9,536.5L326.9,536.5z M151.4,424.1v267.4c11.9,12.4,25.9,25.1,40.6,37.1V446.9
		c-4.5-2.5-9.3-5.2-14.2-8C167.3,433,158.6,428.2,151.4,424.1z M70,404c-6.2,6.8-9.6,14.8-8.9,21c0.1,1,0.2,1.6,0.3,1.9
		c0.2,0.1,0.5,0.4,1.2,0.8c5.4,3.3,12.6,9.5,16.4,14c7,8.3,11.1,17,13.2,28.2c1.5,8.1,2.1,14.9,2.1,24.2c0,15.7-2.2,30.9-6.8,46.5
		c-2.7,9.4-5.3,16.2-10.3,27l-0.7,1.5l0.4,1.5c1.4,5.2,2.1,7.5,3.7,12c6.5,18.4,17.5,39.6,31.2,60.1c0,0,0,0,0,0l2.2-240H71.3
		C70.8,403,70.4,403.5,70,404z M283.9,402.5h-7.5c2,5.4,2.5,10.7,2.6,19.7c0.4,22.4-2,39.9-10.1,74.9c-2.1,9.3-3.5,14.7-4.9,19.7
		c5.2,4.9,12.6,11.9,19.8,18.5l0-133V402.5z M370,385.5L370,385.5C370,385.5,370,385.5,370,385.5L370,385.5z M465.1,686.7
		L465.1,686.7C465.1,686.6,465.1,686.6,465.1,686.7L465.1,686.7z M465.1,116.3L465.1,116.3C465.1,116.3,465.1,116.3,465.1,116.3
		L465.1,116.3z M522.6,533.6C522.6,533.6,522.6,533.6,522.6,533.6C522.6,533.6,522.6,533.6,522.6,533.6l0,69.5
		c5.6-11.7,9.4-21.8,12.4-32.7l0.4-1.5l-1-2.3C528.9,554.6,525.4,544.8,522.6,533.6z M542,403.9l-1-1l-2-2.2l-0.8-0.9l-2.3-2.5
		l0.5-3.3l0.3-2c2.2-14.8,3.2-35.9,3.8-78.1c0.3-19.1,0.3-35.5,0-41c-0.4-7-1-11-3-20.6c-3.8-17.7-8.7-33.7-15-49.2v256.1
		c2.5-6.8,6-12.7,10.7-18.1c4-4.5,10.4-10,15.7-13.3c0.9-0.6,1.4-0.9,1.6-1.1c0.1-0.3,0.2-0.8,0.3-1.8
		C551.6,418.7,548.2,410.7,542,403.9z M461.7,113.1c-9.4-8.8-17.7-15.4-28.5-22.6c-2.8-1.8-5.5-3.6-8.2-5.2
		c0,90.7-0.1,187-0.1,277.6c13.3-6.2,26.8-13,40.2-20.2V116.3C464,115.3,462.9,114.3,461.7,113.1z M465.1,342.7
		c0.2-0.1,0.4-0.2,0.6-0.3C465.5,342.5,465.3,342.6,465.1,342.7L465.1,342.7z M434.2,438.9c-3.2,1.8-6.3,3.5-9.4,5.2
		c0,91.2-0.1,189.2-0.1,280.5c5.9-4.9,11.8-10.1,17.8-15.6c7.9-7.2,15.4-14.7,22.6-22.4v-265C457,426.1,446.9,431.8,434.2,438.9z"/>
</g>
<g id="Layer_4">
	<path class="st2" d="M120.1,153.4l-5.4,1.8c1.7-2.6,3.5-5.2,5.4-7.7h0V153.4z M146.2,122.9v-6c-2.7,2.6-5.3,5.3-7.8,8
		c-0.2,0.3-0.5,0.5-0.7,0.8c0,0,0,0,0,0L146.2,122.9z M72.2,349.8L72.2,349.8L72.2,349.8C72.2,349.8,72.2,349.8,72.2,349.8z
		 M71.7,331.4L71.7,331.4L71.7,331.4C71.7,331.4,71.7,331.4,71.7,331.4z M283.9,402.5h-7.5c-0.4-1-0.8-1.9-1.2-2.9l-0.7-1.5
		l-1.4-2.8l-3-0.9l-2.3-0.7c-9.7-2.8-26.2-8.3-36.7-12.2c-5.9-2.2-12.1-4.7-18.4-7.4l-0.4-0.6l6.5-8.9l-11.6,2.6l-7.8-8.4l1.6,10.3
		c-23.5-10.4-48.5-23-71.8-36.2c-6.6-3.8-7.3-4.1-9.3-4.1h-2.6l-2,1.7l-0.2,0.2l-0.2,0.2c-2,2-2,3.8-2,7.3c0,1.6,0,3.9-0.1,6.7
		c0,5.9-0.1,13.8-0.1,22c-0.1,12.7-0.1,21-0.1,25.6c0,1.6,0,3,0.1,4.2v0c0.1,2.7,0.5,4.4,1.6,5.7H71.3c0.8-0.8,1.4-1.6,1.7-1.9
		l0.8-0.9l2.2-2.4l-0.4-3.2l-0.6-4.6c-1.3-9.8-2.2-21.6-2.7-39.7l2.2-2.3l11.8,2.9l-6.6-9.7l6.6-9.1l-11.8,2.6l-2.7-2.9
		c-0.1-5.3-0.2-11.1-0.3-17.3c-0.1-9.7-0.2-17.6-0.2-24l3-3.1l11.8,2.9l-6.6-9.7L86,271l-11.8,2.6l-2.7-2.6c0.1-2,0.2-3.6,0.4-5
		c0.9-7.4,4.1-22.1,7.3-33.4c3.5-12.2,7.7-24,12.6-35.4v6.8l7.8-8.1l11.6,3l-6.5-9.7l6.5-9.1L99.7,183l-0.7-0.8
		c4.1-8.1,8.6-15.9,13.4-23.4l7.7,2.8v10.6l7.7-8.1l11.8,3l-6.6-9.7l6.6-9.1l-11.8,2.6l-5.7-6.2l0,0c4.5-6,9.2-11.8,14.2-17.4l0,0
		l10,3.6v10.6l7.8-8.1l11.6,3l-6.5-9.7l6.5-9.1l-11.6,2.6l-5.5-5.8c6-5.7,12.4-11.1,19-16.1l6.1,2.2v10.7l7.7-8.1l11.8,2.9l-6.6-9.7
		l6.6-9.1L181.8,90l-1-0.8c6.5-4.3,13.2-8.2,20.1-11.6c0.4-0.2,0.9-0.4,1.3-0.6v9.2l7.8-8.1l11.6,2.9l-5.3-8l-1.2-1.7l0.3-0.5
		c4.8-2,10.2-4.2,17.7-7.1c8-3,13.6-5.3,18.7-7.5v7.2l-11.8,3.9l11.8,4.4v10.6l7.8-8l11.6,2.9l-6.5-9.7l6.5-9.1L259.7,61l-5.5-5.8
		c3.2-1.4,6.4-2.9,10-4.6c8.1-3.9,13.8-6.9,19.6-10.5c0,0,0,0,0,0c0,0,0,0,0,0L283.9,402.5z M215.7,97.4l11.8,4.3v10.7l7.8-8.1
		l11.7,2.9l-6.5-9.7l6.5-9.1l-11.7,2.6l-7.8-8.3v10.7L215.7,97.4z M240.5,157.7l6.5-9.1l-11.7,2.6l-7.8-8.3v10.7l-11.8,3.9l11.8,4.3
		v10.6l7.8-8.1l11.7,3L240.5,157.7z M240.5,219.9l6.5-8.9l-11.7,2.6l-7.8-8.4v10.7l-11.8,3.9l11.8,4.4v10.6l7.8-8.1l11.7,2.9
		L240.5,219.9z M240.5,280.1l6.5-9.1l-11.7,2.6l-7.8-8.3v10.7l-11.8,3.9l11.8,4.3v10.6l7.8-7.9l11.7,2.9L240.5,280.1z M199.3,254.2
		v10.7l7.8-8.1l11.6,2.9l-6.5-9.7l6.5-9.1l-11.6,2.6l-7.8-8.3V246l-11.8,3.9L199.3,254.2z M187.3,280.1l6.6-9.1l-11.8,2.6l-7.7-8.3
		v10.7l-11.8,3.9l11.8,4.3v10.6l7.7-7.9l11.8,2.9L187.3,280.1z M146.2,254.2v10.7l7.8-8.1l11.6,2.9l-6.5-9.7l6.5-9.1l-11.6,2.6
		l-7.8-8.3V246l-11.8,3.9L146.2,254.2z M212.3,190l6.5-9.1l-11.6,2.6l-7.8-8.4v10.7l-11.8,3.9l11.8,4.4v10.6l7.8-8.1l11.6,3
		L212.3,190z M182.1,213.6l-7.7-8.4v10.7l-11.8,3.9l11.8,4.4v10.6l7.7-8.1l11.8,2.9l-6.6-9.7l6.6-8.9L182.1,213.6z M187.5,127.5
		l11.8,4.3v10.6l7.8-8.1l11.6,3l-6.5-9.7l6.5-9.1l-11.6,2.6l-7.8-8.3v10.7L187.5,127.5z M162.6,157.6l11.8,4.3v10.6l7.7-8.1l11.8,3
		l-6.6-9.7l6.6-9.1l-11.8,2.6l-7.7-8.3v10.7L162.6,157.6z M134.5,189.7l11.8,4.4v10.6l7.8-8.1l11.6,3l-6.5-9.7l6.5-9.1l-11.6,2.6
		l-7.8-8.4v10.7L134.5,189.7z M108.8,219.8l11.8,4.4v10.6l7.7-8.1l11.8,2.9l-6.6-9.7l6.6-8.9l-11.8,2.6l-7.7-8.4v10.7L108.8,219.8z
		 M92.4,254.2v10.7l7.8-8.1l11.6,2.9l-6.5-9.7l6.5-9.1l-11.6,2.6l-7.8-8.3V246l-11.8,3.9L92.4,254.2z M102.3,372.4l6.5-8.9
		l-11.6,2.6l-7.8-8.4v10.7l-11.8,3.9l11.8,4.4v10.6l7.8-8.1l11.6,2.9L102.3,372.4z M105.3,310.6l6.5-9.1l-11.6,2.6l-7.8-8.3v10.7
		l-11.8,3.9l11.8,4.4v10.6l7.8-8.1l11.6,2.9L105.3,310.6z M140,289.8l-6.6-9.7l6.6-9.1l-11.8,2.6l-7.7-8.3v10.7l-11.8,3.9l11.8,4.3
		v10.6l7.7-7.9L140,289.8z M154,317.4l11.6,2.9l-6.5-9.7l6.5-9.1l-11.6,2.6l-7.8-8.3v10.7l-11.8,3.9l11.8,4.4v10.6L154,317.4z
		 M187.3,340.7l6.6-9.1l-11.8,2.6l-7.7-8.3v10.7l-11.8,3.9l11.8,4.3v10.7l7.7-8.1l11.8,2.9L187.3,340.7z M207.1,317.4l11.6,2.9
		l-6.5-9.7l6.5-9.1l-11.6,2.6l-7.8-8.3v10.7l-11.8,3.9l11.8,4.4v10.6L207.1,317.4z M235.3,347.5l11.7,2.9l-6.5-9.7l6.5-9.1
		l-11.7,2.6l-7.8-8.3v10.7l-11.8,3.9l11.8,4.3v10.7L235.3,347.5z M264.8,372.4l6.5-8.9l-11.6,2.6l-7.8-8.4v10.7l-11.8,3.9l11.8,4.4
		v10.6l7.8-8.1l11.6,2.9L264.8,372.4z M264.8,310.6l6.5-9.1l-11.6,2.6l-7.8-8.3v10.7l-11.8,3.9l11.8,4.4v10.6l7.8-8.1l11.6,2.9
		L264.8,310.6z M264.8,250l6.5-9.1l-11.6,2.6l-7.8-8.3V246l-11.8,3.9l11.8,4.3v10.7l7.8-8.1l11.6,2.9L264.8,250z M264.8,190l6.5-9.1
		l-11.6,2.6l-7.8-8.4v10.7l-11.8,3.9l11.8,4.4v10.6l7.8-8.1l11.6,3L264.8,190z M264.8,127.6l6.5-9.1l-11.6,2.6l-7.8-8.3v10.7
		l-11.8,3.9l11.8,4.3v10.6l7.8-8.1l11.6,3L264.8,127.6z M112.4,158.8L112.4,158.8C112.4,158.8,112.4,158.8,112.4,158.8L112.4,158.8z
		"/>
</g>
</svg>
