  0
SECTION
  2
HEADER
  9
$ACADVER
  1
AC1024
  9
$ACADMAINTVER
 70
     6
  9
$DWGCODEPAGE
  3
ANSI_1252
  9
$INSBASE
 10
0.0
 20
0.0
 30
0.0
  9
$EXTMIN
 10
1.000000000000000E+20
 20
1.000000000000000E+20
 30
1.000000000000000E+20
  9
$EXTMAX
 10
-1.000000000000000E+20
 20
-1.000000000000000E+20
 30
-1.000000000000000E+20
  9
$LIMMIN
 10
0.0
 20
0.0
  9
$LIMMAX
 10
12.0
 20
9.0
  9
$ORTHOMODE
 70
     0
  9
$REGENMODE
 70
     1
  9
$FILLMODE
 70
     1
  9
$QTEXTMODE
 70
     0
  9
$MIRRTEXT
 70
     1
  9
$LTSCALE
 40
1.0
  9
$ATTMODE
 70
     1
  9
$TEXTSIZE
 40
0.2
  9
$TRACEWID
 40
0.05
  9
$TEXTSTYLE
  7
Standard
  9
$CLAYER
  8
0
  9
$CELTYPE
  6
ByLayer
  9
$CECOLOR
 62
   256
  9
$CELTSCALE
 40
1.0
  9
$DISPSILH
 70
     0
  9
$DIMSCALE
 40
1.0
  9
$DIMASZ
 40
0.18
  9
$DIMEXO
 40
0.0625
  9
$DIMDLI
 40
0.38
  9
$DIMRND
 40
0.0
  9
$DIMDLE
 40
0.0
  9
$DIMEXE
 40
0.18
  9
$DIMTP
 40
0.0
  9
$DIMTM
 40
0.0
  9
$DIMTXT
 40
0.18
  9
$DIMCEN
 40
0.09
  9
$DIMTSZ
 40
0.0
  9
$DIMTOL
 70
     0
  9
$DIMLIM
 70
     0
  9
$DIMTIH
 70
     1
  9
$DIMTOH
 70
     1
  9
$DIMSE1
 70
     0
  9
$DIMSE2
 70
     0
  9
$DIMTAD
 70
     0
  9
$DIMZIN
 70
     0
  9
$DIMBLK
  1

  9
$DIMASO
 70
     1
  9
$DIMSHO
 70
     1
  9
$DIMPOST
  1

  9
$DIMAPOST
  1

  9
$DIMALT
 70
     0
  9
$DIMALTD
 70
     2
  9
$DIMALTF
 40
25.4
  9
$DIMLFAC
 40
1.0
  9
$DIMTOFL
 70
     0
  9
$DIMTVP
 40
0.0
  9
$DIMTIX
 70
     0
  9
$DIMSOXD
 70
     0
  9
$DIMSAH
 70
     0
  9
$DIMBLK1
  1

  9
$DIMBLK2
  1

  9
$DIMSTYLE
  2
Standard
  9
$DIMCLRD
 70
     0
  9
$DIMCLRE
 70
     0
  9
$DIMCLRT
 70
     0
  9
$DIMTFAC
 40
1.0
  9
$DIMGAP
 40
0.09
  9
$DIMJUST
 70
     0
  9
$DIMSD1
 70
     0
  9
$DIMSD2
 70
     0
  9
$DIMTOLJ
 70
     1
  9
$DIMTZIN
 70
     0
  9
$DIMALTZ
 70
     0
  9
$DIMALTTZ
 70
     0
  9
$DIMUPT
 70
     0
  9
$DIMDEC
 70
     4
  9
$DIMTDEC
 70
     4
  9
$DIMALTU
 70
     2
  9
$DIMALTTD
 70
     2
  9
$DIMTXSTY
  7
Standard
  9
$DIMAUNIT
 70
     0
  9
$DIMADEC
 70
     0
  9
$DIMALTRND
 40
0.0
  9
$DIMAZIN
 70
     0
  9
$DIMDSEP
 70
    46
  9
$DIMATFIT
 70
     3
  9
$DIMFRAC
 70
     0
  9
$DIMLDRBLK
  1

  9
$DIMLUNIT
 70
     2
  9
$DIMLWD
 70
    -2
  9
$DIMLWE
 70
    -2
  9
$DIMTMOVE
 70
     0
  9
$DIMFXL
 40
1.0
  9
$DIMFXLON
 70
     0
  9
$DIMJOGANG
 40
0.7853981633974483
  9
$DIMTFILL
 70
     0
  9
$DIMTFILLCLR
 70
     0
  9
$DIMARCSYM
 70
     0
  9
$DIMLTYPE
  6

  9
$DIMLTEX1
  6

  9
$DIMLTEX2
  6

  9
$DIMTXTDIRECTION
 70
     0
  9
$LUNITS
 70
     2
  9
$LUPREC
 70
     4
  9
$SKETCHINC
 40
0.1
  9
$FILLETRAD
 40
0.5
  9
$AUNITS
 70
     0
  9
$AUPREC
 70
     0
  9
$MENU
  1
.
  9
$ELEVATION
 40
0.0
  9
$PELEVATION
 40
0.0
  9
$THICKNESS
 40
0.0
  9
$LIMCHECK
 70
     0
  9
$CHAMFERA
 40
0.5
  9
$CHAMFERB
 40
0.5
  9
$CHAMFERC
 40
1.0
  9
$CHAMFERD
 40
0.0
  9
$SKPOLY
 70
     0
  9
$TDCREATE
 40
2458780.538394456
  9
$TDUCREATE
 40
2458780.205061123
  9
$TDUPDATE
 40
2458780.538394641
  9
$TDUUPDATE
 40
2458780.205061308
  9
$TDINDWG
 40
0.0000000116
  9
$TDUSRTIMER
 40
0.0000000116
  9
$USRTIMER
 70
     1
  9
$ANGBASE
 50
0.0
  9
$ANGDIR
 70
     0
  9
$PDMODE
 70
     0
  9
$PDSIZE
 40
0.0
  9
$PLINEWID
 40
0.0
  9
$SPLFRAME
 70
     0
  9
$SPLINETYPE
 70
     6
  9
$SPLINESEGS
 70
     8
  9
$HANDSEED
  5
1D4
  9
$SURFTAB1
 70
     6
  9
$SURFTAB2
 70
     6
  9
$SURFTYPE
 70
     6
  9
$SURFU
 70
     6
  9
$SURFV
 70
     6
  9
$UCSBASE
  2

  9
$UCSNAME
  2

  9
$UCSORG
 10
0.0
 20
0.0
 30
0.0
  9
$UCSXDIR
 10
1.0
 20
0.0
 30
0.0
  9
$UCSYDIR
 10
0.0
 20
1.0
 30
0.0
  9
$UCSORTHOREF
  2

  9
$UCSORTHOVIEW
 70
     0
  9
$UCSORGTOP
 10
0.0
 20
0.0
 30
0.0
  9
$UCSORGBOTTOM
 10
0.0
 20
0.0
 30
0.0
  9
$UCSORGLEFT
 10
0.0
 20
0.0
 30
0.0
  9
$UCSORGRIGHT
 10
0.0
 20
0.0
 30
0.0
  9
$UCSORGFRONT
 10
0.0
 20
0.0
 30
0.0
  9
$UCSORGBACK
 10
0.0
 20
0.0
 30
0.0
  9
$PUCSBASE
  2

  9
$PUCSNAME
  2

  9
$PUCSORG
 10
0.0
 20
0.0
 30
0.0
  9
$PUCSXDIR
 10
1.0
 20
0.0
 30
0.0
  9
$PUCSYDIR
 10
0.0
 20
1.0
 30
0.0
  9
$PUCSORTHOREF
  2

  9
$PUCSORTHOVIEW
 70
     0
  9
$PUCSORGTOP
 10
0.0
 20
0.0
 30
0.0
  9
$PUCSORGBOTTOM
 10
0.0
 20
0.0
 30
0.0
  9
$PUCSORGLEFT
 10
0.0
 20
0.0
 30
0.0
  9
$PUCSORGRIGHT
 10
0.0
 20
0.0
 30
0.0
  9
$PUCSORGFRONT
 10
0.0
 20
0.0
 30
0.0
  9
$PUCSORGBACK
 10
0.0
 20
0.0
 30
0.0
  9
$USERI1
 70
     0
  9
$USERI2
 70
     0
  9
$USERI3
 70
     0
  9
$USERI4
 70
     0
  9
$USERI5
 70
     0
  9
$USERR1
 40
0.0
  9
$USERR2
 40
0.0
  9
$USERR3
 40
0.0
  9
$USERR4
 40
0.0
  9
$USERR5
 40
0.0
  9
$WORLDVIEW
 70
     1
  9
$SHADEDGE
 70
     3
  9
$SHADEDIF
 70
    70
  9
$TILEMODE
 70
     1
  9
$MAXACTVP
 70
    64
  9
$PINSBASE
 10
0.0
 20
0.0
 30
0.0
  9
$PLIMCHECK
 70
     0
  9
$PEXTMIN
 10
1.000000000000000E+20
 20
1.000000000000000E+20
 30
1.000000000000000E+20
  9
$PEXTMAX
 10
-1.000000000000000E+20
 20
-1.000000000000000E+20
 30
-1.000000000000000E+20
  9
$PLIMMIN
 10
0.0
 20
0.0
  9
$PLIMMAX
 10
12.0
 20
9.0
  9
$UNITMODE
 70
     0
  9
$VISRETAIN
 70
     1
  9
$PLINEGEN
 70
     0
  9
$PSLTSCALE
 70
     1
  9
$TREEDEPTH
 70
  3020
  9
$CMLSTYLE
  2
Standard
  9
$CMLJUST
 70
     0
  9
$CMLSCALE
 40
1.0
  9
$PROXYGRAPHICS
 70
     1
  9
$MEASUREMENT
 70
     0
  9
$CELWEIGHT
370
    -1
  9
$ENDCAPS
280
     0
  9
$JOINSTYLE
280
     0
  9
$LWDISPLAY
290
     1
  9
$INSUNITS
 70
     1
  9
$HYPERLINKBASE
  1

  9
$STYLESHEET
  1

  9
$XEDIT
290
     1
  9
$CEPSNTYPE
380
     0
  9
$PSTYLEMODE
290
     1
  9
$FINGERPRINTGUID
  2
{40A218C9-648E-415F-92CC-9FE861BA399D}
  9
$VERSIONGUID
  2
{FAEB1C32-E019-11D5-929B-00C0DF256EC4}
  9
$EXTNAMES
290
     1
  9
$PSVPSCALE
 40
0.0
  9
$OLESTARTUP
290
     0
  9
$SORTENTS
280
   127
  9
$INDEXCTL
280
     0
  9
$HIDETEXT
280
     1
  9
$XCLIPFRAME
280
     2
  9
$HALOGAP
280
     0
  9
$OBSCOLOR
 70
   257
  9
$OBSLTYPE
280
     0
  9
$INTERSECTIONDISPLAY
280
     0
  9
$INTERSECTIONCOLOR
 70
   257
  9
$DIMASSOC
280
     2
  9
$PROJECTNAME
  1

  9
$CAMERADISPLAY
290
     0
  9
$LENSLENGTH
 40
50.0
  9
$CAMERAHEIGHT
 40
0.0
  9
$STEPSPERSEC
 40
2.0
  9
$STEPSIZE
 40
6.0
  9
$3DDWFPREC
 40
2.0
  9
$PSOLWIDTH
 40
0.25
  9
$PSOLHEIGHT
 40
4.0
  9
$LOFTANG1
 40
1.570796326794897
  9
$LOFTANG2
 40
1.570796326794897
  9
$LOFTMAG1
 40
0.0
  9
$LOFTMAG2
 40
0.0
  9
$LOFTPARAM
 70
     7
  9
$LOFTNORMALS
280
     1
  9
$LATITUDE
 40
37.795
  9
$LONGITUDE
 40
-122.394
  9
$NORTHDIRECTION
 40
0.0
  9
$TIMEZONE
 70
 -8000
  9
$LIGHTGLYPHDISPLAY
280
     1
  9
$TILEMODELIGHTSYNCH
280
     1
  9
$CMATERIAL
347
3C
  9
$SOLIDHIST
280
     1
  9
$SHOWHIST
280
     1
  9
$DWFFRAME
280
     2
  9
$DGNFRAME
280
     2
  9
$REALWORLDSCALE
290
     1
  9
$INTERFERECOLOR
 62
   256
  9
$CSHADOW
280
     0
  9
$SHADOWPLANELOCATION
 40
0.0
  0
ENDSEC
  0
SECTION
  2
CLASSES
  0
CLASS
  1
ACDBDICTIONARYWDFLT
  2
AcDbDictionaryWithDefault
  3
ObjectDBX Classes
 90
        0
 91
        4
280
     0
281
     0
  0
CLASS
  1
VISUALSTYLE
  2
AcDbVisualStyle
  3
ObjectDBX Classes
 90
     4095
 91
        4
280
     0
281
     0
  0
CLASS
  1
MATERIAL
  2
AcDbMaterial
  3
ObjectDBX Classes
 90
     1153
 91
        4
280
     0
281
     0
  0
CLASS
  1
SUN
  2
AcDbSun
  3
SCENEOE
 90
     1024
 91
        4
280
     0
281
     0
  0
ENDSEC
  0
SECTION
  2
TABLES
  0
TABLE
  2
VPORT
  5
8
330
0
100
AcDbSymbolTable
 70
     1
  0
VPORT
  5
29
330
8
100
AcDbSymbolTableRecord
100
AcDbViewportTableRecord
  2
*Active
 70
     0
 10
0.0
 20
0.0
 11
1.0
 21
1.0
 12
0.0
 22
0.0
 13
0.0
 23
0.0
 14
0.5
 24
0.5
 15
0.5
 25
0.5
 16
0.0
 26
0.0
 36
1.0
 17
4.25
 27
5.5
 37
0.0
 40
11.0
 41
0.7727272727272727
 42
50.0
 43
0.0
 44
0.0
 50
0.0
 51
0.0
 71
     0
 72
   100
 73
     1
 74
     3
 75
     0
 76
     0
 77
     0
 78
     0
281
     0
 65
     1
110
0.0
120
0.0
130
0.0
111
1.0
121
0.0
131
0.0
112
0.0
122
1.0
132
0.0
 79
     0
146
0.0
 60
     3
 61
     5
292
     1
282
     1
141
0.0
142
0.0
 63
   250
361
3F
  0
ENDTAB
  0
TABLE
  2
LTYPE
  5
5
330
0
100
AcDbSymbolTable
 70
     1
  0
LTYPE
  5
14
330
5
100
AcDbSymbolTableRecord
100
AcDbLinetypeTableRecord
  2
ByBlock
 70
     0
  3

 72
    65
 73
     0
 40
0.0
  0
LTYPE
  5
15
330
5
100
AcDbSymbolTableRecord
100
AcDbLinetypeTableRecord
  2
ByLayer
 70
     0
  3

 72
    65
 73
     0
 40
0.0
  0
LTYPE
  5
16
330
5
100
AcDbSymbolTableRecord
100
AcDbLinetypeTableRecord
  2
Continuous
 70
     0
  3
Solid line
 72
    65
 73
     0
 40
0.0
  0
ENDTAB
  0
TABLE
  2
LAYER
  5
2
330
0
100
AcDbSymbolTable
 70
     3
  0
LAYER
  5
10
330
2
100
AcDbSymbolTableRecord
100
AcDbLayerTableRecord
  2
0
 70
     0
 62
     7
  6
Continuous
370
    -3
390
F
347
3E
  0
LAYER
  5
40
330
2
100
AcDbSymbolTableRecord
100
AcDbLayerTableRecord
  2
Layer 2
 70
     0
 62
     7
  6
Continuous
370
    -3
390
F
347
3E
  0
LAYER
  5
43
330
2
100
AcDbSymbolTableRecord
100
AcDbLayerTableRecord
  2
Layer 3
 70
     0
 62
     7
  6
Continuous
370
    -3
390
F
347
3E
  0
ENDTAB
  0
TABLE
  2
STYLE
  5
3
330
0
100
AcDbSymbolTable
 70
     1
  0
STYLE
  5
11
330
3
100
AcDbSymbolTableRecord
100
AcDbTextStyleTableRecord
  2
Standard
 70
     0
 40
0.0
 41
1.0
 50
0.0
 71
     0
 42
0.2
  3
txt
  4

  0
ENDTAB
  0
TABLE
  2
VIEW
  5
6
330
0
100
AcDbSymbolTable
 70
     0
  0
ENDTAB
  0
TABLE
  2
UCS
  5
7
330
0
100
AcDbSymbolTable
 70
     0
  0
ENDTAB
  0
TABLE
  2
APPID
  5
9
330
0
100
AcDbSymbolTable
 70
     1
  0
APPID
  5
12
330
9
100
AcDbSymbolTableRecord
100
AcDbRegAppTableRecord
  2
ACAD
 70
     0
  0
ENDTAB
  0
TABLE
  2
DIMSTYLE
  5
A
330
0
100
AcDbSymbolTable
 70
     1
100
AcDbDimStyleTable
  0
DIMSTYLE
105
27
330
A
100
AcDbSymbolTableRecord
100
AcDbDimStyleTableRecord
  2
Standard
 70
     0
178
     0
340
11
  0
ENDTAB
  0
TABLE
  2
BLOCK_RECORD
  5
1
330
0
100
AcDbSymbolTable
 70
     1
  0
BLOCK_RECORD
  5
1F
330
1
100
AcDbSymbolTableRecord
100
AcDbBlockTableRecord
  2
*Model_Space
340
22
 70
     0
280
     1
281
     0
  0
BLOCK_RECORD
  5
1B
330
1
100
AcDbSymbolTableRecord
100
AcDbBlockTableRecord
  2
*Paper_Space
340
1E
 70
     0
280
     1
281
     0
  0
BLOCK_RECORD
  5
23
330
1
100
AcDbSymbolTableRecord
100
AcDbBlockTableRecord
  2
*Paper_Space0
340
26
 70
     0
280
     1
281
     0
  0
ENDTAB
  0
ENDSEC
  0
SECTION
  2
BLOCKS
  0
BLOCK
  5
20
330
1F
100
AcDbEntity
  8
0
100
AcDbBlockBegin
  2
*Model_Space
 70
     0
 10
0.0
 20
0.0
 30
0.0
  3
*Model_Space
  1

  0
ENDBLK
  5
21
330
1F
100
AcDbEntity
  8
0
100
AcDbBlockEnd
  0
BLOCK
  5
1C
330
1B
100
AcDbEntity
 67
     1
  8
0
100
AcDbBlockBegin
  2
*Paper_Space
 70
     0
 10
0.0
 20
0.0
 30
0.0
  3
*Paper_Space
  1

  0
ENDBLK
  5
1D
330
1B
100
AcDbEntity
 67
     1
  8
0
100
AcDbBlockEnd
  0
BLOCK
  5
24
330
23
100
AcDbEntity
  8
0
100
AcDbBlockBegin
  2
*Paper_Space0
 70
     0
 10
0.0
 20
0.0
 30
0.0
  3
*Paper_Space0
  1

  0
ENDBLK
  5
25
330
23
100
AcDbEntity
  8
0
100
AcDbBlockEnd
  0
ENDSEC
  0
SECTION
  2
ENTITIES
  0
SPLINE
  5
41
330
1F
100
AcDbEntity
  8
Layer 2
370
     0
100
AcDbSpline
210
0.0
220
0.0
230
1.0
 70
    11
 71
     3
 72
   302
 73
   298
 74
     0
 42
0.0000000001
 43
0.0000000001
 12
1.0
 22
0.0
 32
0.0
 13
1.0
 23
0.0
 33
0.0
 40
0.0
 40
0.0
 40
0.0
 40
0.0
 40
1.0
 40
1.0
 40
1.0
 40
2.0
 40
2.0
 40
2.0
 40
3.0
 40
3.0
 40
3.0
 40
4.0
 40
4.0
 40
4.0
 40
5.0
 40
5.0
 40
5.0
 40
6.0
 40
6.0
 40
6.0
 40
7.0
 40
7.0
 40
7.0
 40
8.0
 40
8.0
 40
8.0
 40
9.0
 40
9.0
 40
9.0
 40
10.0
 40
10.0
 40
10.0
 40
11.0
 40
11.0
 40
11.0
 40
12.0
 40
12.0
 40
12.0
 40
13.0
 40
13.0
 40
13.0
 40
14.0
 40
14.0
 40
14.0
 40
15.0
 40
15.0
 40
15.0
 40
16.0
 40
16.0
 40
16.0
 40
17.0
 40
17.0
 40
17.0
 40
18.0
 40
18.0
 40
18.0
 40
19.0
 40
19.0
 40
19.0
 40
20.0
 40
20.0
 40
20.0
 40
21.0
 40
21.0
 40
21.0
 40
22.0
 40
22.0
 40
22.0
 40
23.0
 40
23.0
 40
23.0
 40
24.0
 40
24.0
 40
24.0
 40
25.0
 40
25.0
 40
25.0
 40
26.0
 40
26.0
 40
26.0
 40
27.0
 40
27.0
 40
27.0
 40
28.0
 40
28.0
 40
28.0
 40
29.0
 40
29.0
 40
29.0
 40
30.0
 40
30.0
 40
30.0
 40
31.0
 40
31.0
 40
31.0
 40
32.0
 40
32.0
 40
32.0
 40
33.0
 40
33.0
 40
33.0
 40
34.0
 40
34.0
 40
34.0
 40
35.0
 40
35.0
 40
35.0
 40
36.0
 40
36.0
 40
36.0
 40
37.0
 40
37.0
 40
37.0
 40
38.0
 40
38.0
 40
38.0
 40
39.0
 40
39.0
 40
39.0
 40
40.0
 40
40.0
 40
40.0
 40
41.0
 40
41.0
 40
41.0
 40
42.0
 40
42.0
 40
42.0
 40
43.0
 40
43.0
 40
43.0
 40
44.0
 40
44.0
 40
44.0
 40
45.0
 40
45.0
 40
45.0
 40
46.0
 40
46.0
 40
46.0
 40
47.0
 40
47.0
 40
47.0
 40
48.0
 40
48.0
 40
48.0
 40
49.0
 40
49.0
 40
49.0
 40
50.0
 40
50.0
 40
50.0
 40
51.0
 40
51.0
 40
51.0
 40
52.0
 40
52.0
 40
52.0
 40
53.0
 40
53.0
 40
53.0
 40
54.0
 40
54.0
 40
54.0
 40
55.0
 40
55.0
 40
55.0
 40
56.0
 40
56.0
 40
56.0
 40
57.0
 40
57.0
 40
57.0
 40
58.0
 40
58.0
 40
58.0
 40
59.0
 40
59.0
 40
59.0
 40
60.0
 40
60.0
 40
60.0
 40
61.0
 40
61.0
 40
61.0
 40
62.0
 40
62.0
 40
62.0
 40
63.0
 40
63.0
 40
63.0
 40
64.0
 40
64.0
 40
64.0
 40
65.0
 40
65.0
 40
65.0
 40
66.0
 40
66.0
 40
66.0
 40
67.0
 40
67.0
 40
67.0
 40
68.0
 40
68.0
 40
68.0
 40
69.0
 40
69.0
 40
69.0
 40
70.0
 40
70.0
 40
70.0
 40
71.0
 40
71.0
 40
71.0
 40
72.0
 40
72.0
 40
72.0
 40
73.0
 40
73.0
 40
73.0
 40
74.0
 40
74.0
 40
74.0
 40
75.0
 40
75.0
 40
75.0
 40
76.0
 40
76.0
 40
76.0
 40
77.0
 40
77.0
 40
77.0
 40
78.0
 40
78.0
 40
78.0
 40
79.0
 40
79.0
 40
79.0
 40
80.0
 40
80.0
 40
80.0
 40
81.0
 40
81.0
 40
81.0
 40
82.0
 40
82.0
 40
82.0
 40
83.0
 40
83.0
 40
83.0
 40
84.0
 40
84.0
 40
84.0
 40
85.0
 40
85.0
 40
85.0
 40
86.0
 40
86.0
 40
86.0
 40
87.0
 40
87.0
 40
87.0
 40
88.0
 40
88.0
 40
88.0
 40
89.0
 40
89.0
 40
89.0
 40
90.0
 40
90.0
 40
90.0
 40
91.0
 40
91.0
 40
91.0
 40
92.0
 40
92.0
 40
92.0
 40
93.0
 40
93.0
 40
93.0
 40
94.0
 40
94.0
 40
94.0
 40
95.0
 40
95.0
 40
95.0
 40
96.0
 40
96.0
 40
96.0
 40
97.0
 40
97.0
 40
97.0
 40
98.0
 40
98.0
 40
98.0
 40
99.0
 40
99.0
 40
99.0
 40
99.0
 10
4.251063517679161
 20
10.74995717700182
 30
0.0
 10
4.236649514268985
 20
10.75020307940903
 30
0.0
 10
4.222184133899961
 20
10.74851485034425
 30
0.0
 10
4.213326746193514
 20
10.74490527372456
 30
0.0
 10
4.195675203960794
 20
10.73768536849016
 30
0.0
 10
4.140222866647542
 20
10.700723303905
 30
0.0
 10
4.067429620098955
 20
10.64769486338679
 30
0.0
 10
3.905047603944972
 20
10.52939174167312
 30
0.0
 10
3.814099320966862
 20
10.47520522865614
 30
0.0
 10
3.626931479032237
 20
10.38535083467113
 30
0.0
 10
3.487768291413898
 20
10.31859697905673
 30
0.0
 10
3.397971247521481
 20
10.28052572165618
 30
0.0
 10
3.202657391156877
 20
10.20559241502264
 30
0.0
 10
3.014621278617609
 20
10.13344149036675
 30
0.0
 10
2.921898119314771
 20
10.09440993518634
 30
0.0
 10
2.803274649431513
 20
10.03747638396275
 30
0.0
 10
2.45013670357802
 20
9.867967657923788
 30
0.0
 10
2.123793422596413
 20
9.625694379203575
 30
0.0
 10
1.851438235600691
 20
9.330921312540934
 30
0.0
 10
1.464500574139303
 20
8.912202904710991
 30
0.0
 10
1.173886015966875
 20
8.38342399377738
 30
0.0
 10
1.007100994439131
 20
7.794729118938196
 30
0.0
 10
0.9607653008708262
 20
7.630998723471166
 30
0.0
 10
0.9157895158826552
 20
7.424196302995116
 30
0.0
 10
0.902943300132266
 20
7.315761613360526
 30
0.0
 10
0.8912103835595214
 20
7.216333569387062
 30
0.0
 10
0.88917704161103
 20
7.042882884881388
 30
0.0
 10
0.8949526022009751
 20
6.637163464852947
 30
0.0
 10
0.9029946770911389
 20
6.070263664840253
 30
0.0
 10
0.9161001488800417
 20
5.79039927760943
 30
0.0
 10
0.9445776067580658
 20
5.577054123512704
 30
0.0
 10
0.9445776067580658
 20
5.577054123512704
 30
0.0
 10
0.9530729845082406
 20
5.513479327306527
 30
0.0
 10
0.9530729845082406
 20
5.513479327306527
 30
0.0
 10
0.9530729845082406
 20
5.513479327306527
 30
0.0
 10
0.9418973103353715
 20
5.501158639111509
 30
0.0
 10
0.9418973103353715
 20
5.501158639111509
 30
0.0
 10
0.9357198238442631
 20
5.494370003083582
 30
0.0
 10
0.9169032102676686
 20
5.473720592836293
 30
0.0
 10
0.9000551246299311
 20
5.455338071905644
 30
0.0
 10
0.7944335822031183
 20
5.339782364396089
 30
0.0
 10
0.7388903471934327
 20
5.201987904933932
 30
0.0
 10
0.7518405024836485
 20
5.087541014242206
 30
0.0
 10
0.7589241994874985
 20
5.025124290534854
 30
0.0
 10
0.7684297272902287
 20
5.009477151886282
 30
0.0
 10
0.817951187514849
 20
4.978822822443943
 30
0.0
 10
0.8837765328207372
 20
4.938066566434927
 30
0.0
 10
0.9767976784848997
 20
4.859128133743878
 30
0.0
 10
1.02349577721682
 20
4.804411840158435
 30
0.0
 10
1.10969208670829
 20
4.703394078482057
 30
0.0
 10
1.159666849792971
 20
4.59645021919088
 30
0.0
 10
1.185515388207161
 20
4.457842476996575
 30
0.0
 10
1.205199481973636
 20
4.352155577563685
 30
0.0
 10
1.212891798336209
 20
4.262780956471033
 30
0.0
 10
1.21284002616998
 20
4.140006471719769
 30
0.0
 10
1.212736481837523
 20
3.931712092907623
 30
0.0
 10
1.183145329574497
 20
3.728420737689324
 30
0.0
 10
1.12294022835988
 20
3.521950699060325
 30
0.0
 10
1.08652423992415
 20
3.397006708361611
 30
0.0
 10
1.051572099608393
 20
3.305229462831524
 30
0.0
 10
0.9849950698737504
 20
3.159746981167094
 30
0.0
 10
0.9849950698737504
 20
3.159746981167094
 30
0.0
 10
0.9606099843721267
 20
3.106510237998084
 30
0.0
 10
0.9606099843721267
 20
3.106510237998084
 30
0.0
 10
0.9606099843721267
 20
3.106510237998084
 30
0.0
 10
0.9756843793072801
 20
3.051646177369801
 30
0.0
 10
0.9756843793072801
 20
3.051646177369801
 30
0.0
 10
0.9963264557526877
 20
2.976526563943025
 30
0.0
 10
1.006699463745311
 20
2.943309623099544
 30
0.0
 10
1.029711994030777
 20
2.878343071908198
 30
0.0
 10
1.124921402934761
 20
2.610023125900398
 30
0.0
 10
1.288365341307503
 20
2.296905326062314
 30
0.0
 10
1.487875509588371
 20
2.000593113369203
 30
0.0
 10
1.617985681849253
 20
1.80745331639605
 30
0.0
 10
1.796607164282199
 20
1.582748899876833
 30
0.0
 10
1.963793716503776
 20
1.401980174772436
 30
0.0
 10
2.231499288723183
 20
1.112579361311999
 30
0.0
 10
2.59344324532425
 20
0.7969102299996645
 30
0.0
 10
2.947798429895215
 20
0.5438559731112491
 30
0.0
 10
3.112265164956499
 20
0.4264270457351055
 30
0.0
 10
3.360843095394582
 20
0.2650515230148661
 30
0.0
 10
3.396301101151367
 20
0.2526808271437504
 30
0.0
 10
3.396301101151367
 20
0.2526808271437504
 30
0.0
 10
3.396197161611528
 20
0.2526808271437504
 30
0.0
 10
3.396197161611528
 20
0.2526808271437504
 30
0.0
 10
3.425697811385501
 20
0.2424300055415137
 30
0.0
 10
3.460896956311128
 20
0.26255001121793
 30
0.0
 10
3.466723893859921
 20
0.2930189738609543
 30
0.0
 10
3.467786211286087
 20
0.2986991690685398
 30
0.0
 10
3.464445128131047
 20
0.3512467087016881
 30
0.0
 10
3.459277791692481
 20
0.4097696016306145
 30
0.0
 10
3.422459877355575
 20
0.8257405952563961
 30
0.0
 10
3.376577881854688
 20
1.514541813675502
 30
0.0
 10
3.351843433032867
 20
2.022770201721262
 30
0.0
 10
3.328416330210189
 20
2.504336038468737
 30
0.0
 10
3.32538588005256
 20
2.646553357282679
 30
0.0
 10
3.32538588005256
 20
3.279479645621147
 30
0.0
 10
3.325334107886331
 20
3.958275568847714
 30
0.0
 10
3.32836455804396
 20
4.058233769387142
 30
0.0
 10
3.359470540178449
 20
4.410531079447284
 30
0.0
 10
3.36432684841226
 20
4.465790313515956
 30
0.0
 10
3.368121629634692
 20
4.511264962962438
 30
0.0
 10
3.367823643273343
 20
4.511548841123638
 30
0.0
 10
3.367513405483338
 20
4.511795871523569
 30
0.0
 10
2.984732139993222
 20
4.726545376523846
 30
0.0
 10
2.517205766495547
 20
4.988741262199103
 30
0.0
 10
2.049692039633909
 20
5.250937899869465
 30
0.0
 10
1.665176208971401
 20
5.466931956808417
 30
0.0
 10
1.662806150338737
 20
5.468767576918531
 30
0.0
 10
1.659011764323673
 20
5.471601846560083
 30
0.0
 10
1.658701131326287
 20
5.533980970510988
 30
0.0
 10
1.660423840277405
 20
5.903552360681513
 30
0.0
 10
1.661537139455037
 20
6.140824119798126
 30
0.0
 10
1.663052364533857
 20
6.335540474559403
 30
0.0
 10
1.663764528225051
 20
6.33626690185411
 30
0.0
 10
1.664528464082461
 20
6.336945201460543
 30
0.0
 10
1.701255480722946
 20
6.316972962826981
 30
0.0
 10
1.745415162480084
 20
6.291802181866008
 30
0.0
 10
2.215000961613037
 20
6.024492353315344
 30
0.0
 10
2.736555345041577
 20
5.775774476338825
 30
0.0
 10
3.174581463972635
 20
5.61035697979969
 30
0.0
 10
3.322602039297433
 20
5.554433358034506
 30
0.0
 10
3.555290657191462
 20
5.476899276246993
 30
0.0
 10
3.691525753362485
 20
5.438064367792827
 30
0.0
 10
3.691525753362485
 20
5.438064367792827
 30
0.0
 10
3.723641885549493
 20
5.428910331086399
 30
0.0
 10
3.723641885549493
 20
5.428910331086399
 30
0.0
 10
3.723641885549493
 20
5.428910331086399
 30
0.0
 10
3.733820846720606
 20
5.407595405149828
 30
0.0
 10
3.733820846720606
 20
5.407595405149828
 30
0.0
 10
3.766494221307514
 20
5.33905556110383
 30
0.0
 10
3.775649595375272
 20
5.2825649350113
 30
0.0
 10
3.778136240183812
 20
5.133509348490937
 30
0.0
 10
3.783186990446527
 20
4.829964634644991
 30
0.0
 10
3.751523765912187
 20
4.595773423574706
 30
0.0
 10
3.640735282254177
 20
4.116325393109516
 30
0.0
 10
3.611040190451313
 20
3.987586082994287
 30
0.0
 10
3.59298790793951
 20
3.914919665677391
 30
0.0
 10
3.573614051963053
 20
3.846046687789213
 30
0.0
 10
3.573614051963053
 20
3.846046687789213
 30
0.0
 10
3.557880451125079
 20
3.790122690026439
 30
0.0
 10
3.557880451125079
 20
3.790122690026439
 30
0.0
 10
3.557880451125079
 20
3.790122690026439
 30
0.0
 10
3.593130182594804
 20
3.756955192862708
 30
0.0
 10
3.593130182594804
 20
3.756955192862708
 30
0.0
 10
4.03293038743584
 20
3.342770563666085
 30
0.0
 10
4.188747218663025
 20
3.208254050971618
 30
0.0
 10
4.236598137310137
 20
3.201416159262761
 30
0.0
 10
4.260620422440777
 20
3.198002853371842
 30
0.0
 10
4.275292891474717
 20
3.202192218235975
 30
0.0
 10
4.304081377557471
 20
3.220673250528559
 30
0.0
 10
4.346220759209548
 20
3.247717627353697
 30
0.0
 10
4.426447066082194
 20
3.314088341449835
 30
0.0
 10
4.534645360599243
 20
3.411311535704751
 30
0.0
 10
4.585293557052258
 20
3.456737305467868
 30
0.0
 10
4.941474994906785
 20
3.788681115364018
 30
0.0
 10
4.941474994906785
 20
3.790356936509195
 30
0.0
 10
4.941474994906785
 20
3.791133371479923
 30
0.0
 10
4.93388701329142
 20
3.819236181449266
 30
0.0
 10
4.924522969729221
 20
3.852785692138594
 30
0.0
 10
4.883497282462157
 20
4.00048693543148
 30
0.0
 10
4.817632021211339
 20
4.28863078903358
 30
0.0
 10
4.783029244215792
 20
4.472134520422514
 30
0.0
 10
4.734867692571267
 20
4.727838056150782
 30
0.0
 10
4.718032648776949
 20
4.910097987596196
 30
0.0
 10
4.721827429999368
 20
5.135000178834363
 30
0.0
 10
4.724300637757147
 20
5.282515679330319
 30
0.0
 10
4.733508969613315
 20
5.339301839508607
 30
0.0
 10
4.766129386411825
 20
5.407595405149828
 30
0.0
 10
4.766129386411825
 20
5.407595405149828
 30
0.0
 10
4.776256970624066
 20
5.428910331086399
 30
0.0
 10
4.776256970624066
 20
5.428910331086399
 30
0.0
 10
4.776256970624066
 20
5.428910331086399
 30
0.0
 10
4.808373102811073
 20
5.438015112111871
 30
0.0
 10
4.808373102811073
 20
5.438015112111871
 30
0.0
 10
4.87373328903565
 20
5.456594655766366
 30
0.0
 10
5.069810686050332
 20
5.519011379473732
 30
0.0
 10
5.146592365435506
 20
5.54567336677567
 30
0.0
 10
5.635927072344556
 20
5.715711121387977
 30
0.0
 10
6.212765434744268
 20
5.983341299863595
 30
0.0
 10
6.754496735536905
 20
6.291802181866008
 30
0.0
 10
6.79865720770878
 20
6.316972962826981
 30
0.0
 10
6.835435206100732
 20
6.336895569782023
 30
0.0
 10
6.836238267488347
 20
6.336119510808796
 30
0.0
 10
6.837001808138413
 20
6.335404363441044
 30
0.0
 10
6.838517033217234
 20
6.140676352755248
 30
0.0
 10
6.839579350643387
 20
5.903404593638647
 30
0.0
 10
6.841198120054665
 20
5.534313728355616
 30
0.0
 10
6.840847966319693
 20
5.471601846560083
 30
0.0
 10
6.837092705834847
 20
5.468767576918531
 30
0.0
 10
6.834723042409551
 20
5.466931956808417
 30
0.0
 10
6.450206816539675
 20
5.250888644188535
 30
0.0
 10
5.982693089678049
 20
4.988741262199103
 30
0.0
 10
5.515166716180374
 20
4.726545376523846
 30
0.0
 10
5.132489785437453
 20
4.511795871523569
 30
0.0
 10
5.132126985066457
 20
4.511548841123638
 30
0.0
 10
5.131828998705108
 20
4.511314970638497
 30
0.0
 10
5.135623779927553
 20
4.465827161277275
 30
0.0
 10
5.140531465120223
 20
4.410531079447284
 30
0.0
 10
5.171533902922268
 20
4.059441473564498
 30
0.0
 10
5.174474245798188
 20
3.961023359049401
 30
0.0
 10
5.174525622757023
 20
3.285406871228638
 30
0.0
 10
5.174525622757023
 20
2.786799884862047
 30
0.0
 10
5.172492676015938
 20
2.617206183373507
 30
0.0
 10
5.163647934945528
 20
2.379109109602723
 30
0.0
 10
5.143263928916515
 20
1.830357208040393
 30
0.0
 10
5.090699767105611
 20
0.9852812498616509
 30
0.0
 10
5.042240229099737
 20
0.4271538490273896
 30
0.0
 10
5.033537762684646
 20
0.3270986411162842
 30
0.0
 10
5.03186682589977
 20
0.2971094513656377
 30
0.0
 10
5.034495745363604
 20
0.2879189428954305
 30
0.0
 10
5.041786531032332
 20
0.2622180053684183
 30
0.0
 10
5.073151769205348
 20
0.2446968948581798
 30
0.0
 10
5.099699429467338
 20
0.2514859068836207
 30
0.0
 10
5.114216977209986
 20
0.2551951228578623
 30
0.0
 10
5.165927491089152
 20
0.2859964673479125
 30
0.0
 10
5.270783912036373
 20
0.3532297198571036
 30
0.0
 10
5.605468439891663
 20
0.5679179372543786
 30
0.0
 10
5.894878010775275
 20
0.7915270728680701
 30
0.0
 10
6.211497609482724
 20
1.080200707038658
 30
0.0
 10
6.665308706210604
 20
1.493904435350209
 30
0.0
 10
7.039905226947919
 20
1.977343679963042
 30
0.0
 10
7.296370310984811
 20
2.480520728727925
 30
0.0
 10
7.404024800152733
 20
2.691647873191414
 30
0.0
 10
7.472815386399234
 20
2.864002336797613
 30
0.0
 10
7.524318811613512
 20
3.051646177369801
 30
0.0
 10
7.524318811613512
 20
3.051646177369801
 30
0.0
 10
7.539392811341283
 20
3.106510237998084
 30
0.0
 10
7.539392811341283
 20
3.106510237998084
 30
0.0
 10
7.539392811341283
 20
3.106510237998084
 30
0.0
 10
7.510254961938294
 20
3.17009744212391
 30
0.0
 10
7.510254961938294
 20
3.17009744212391
 30
0.0
 10
7.430430976174218
 20
3.344410289045072
 30
0.0
 10
7.38257926711233
 20
3.482057357461978
 30
0.0
 10
7.344234666682723
 20
3.647659468805311
 30
0.0
 10
7.280441082495852
 20
3.923100244689244
 30
0.0
 10
7.269058319658042
 20
4.201079756129022
 30
0.0
 10
7.311754943709982
 20
4.443071036675797
 30
0.0
 10
7.338108161943055
 20
4.592642867852292
 30
0.0
 10
7.390466025503807
 20
4.706178716445089
 30
0.0
 10
7.480106962482751
 20
4.808305294939297
 30
0.0
 10
7.529019408141291
 20
4.864043549905191
 30
0.0
 10
7.61183590415491
 20
4.934259215096366
 30
0.0
 10
7.677544663284935
 20
4.975743402390334
 30
0.0
 10
7.732375734603415
 20
5.010351722221407
 30
0.0
 10
7.740974656686098
 20
5.023966218036068
 30
0.0
 10
7.748161898022393
 20
5.087639525604118
 30
0.0
 10
7.761059885938998
 20
5.201556635727406
 30
0.0
 10
7.705012366317785
 20
5.340595647128212
 30
0.0
 10
7.599998652834958
 20
5.455338071905644
 30
0.0
 10
7.583150962404589
 20
5.473720592836293
 30
0.0
 10
7.564230804495537
 20
5.494370003083582
 30
0.0
 10
7.558002336252962
 20
5.501158639111509
 30
0.0
 10
7.558002336252962
 20
5.501158639111509
 30
0.0
 10
7.546722327332873
 20
5.513479327306527
 30
0.0
 10
7.546722327332873
 20
5.513479327306527
 30
0.0
 10
7.546722327332873
 20
5.513479327306527
 30
0.0
 10
7.550879118511501
 20
5.541582889270999
 30
0.0
 10
7.550879118511501
 20
5.541582889270999
 30
0.0
 10
7.581880765898783
 20
5.750985332905871
 30
0.0
 10
7.596606192721108
 20
6.048948738903694
 30
0.0
 10
7.605101570471283
 20
6.638604287520302
 30
0.0
 10
7.609154817317504
 20
6.910041441336981
 30
0.0
 10
7.609102649943881
 20
7.136101705073933
 30
0.0
 10
7.605101570471283
 20
7.213734674220909
 30
0.0
 10
7.59984373154364
 20
7.316341401605036
 30
0.0
 10
7.590985553422443
 20
7.377562829054719
 30
0.0
 10
7.561601885031727
 20
7.515344880597278
 30
0.0
 10
7.480404158429362
 20
7.895746128619432
 30
0.0
 10
7.364060639897085
 20
8.222823402037648
 30
0.0
 10
7.193429064980667
 20
8.55028268898142
 30
0.0
 10
7.062864404237618
 20
8.800885065751434
 30
0.0
 10
6.926384279493605
 20
9.006197783876775
 30
0.0
 10
6.755091917844841
 20
9.20968616181891
 30
0.0
 10
6.659999490324126
 20
9.322691477848126
 30
0.0
 10
6.593629944461782
 20
9.39247512183763
 30
0.0
 10
6.479603921981177
 20
9.499554716249614
 30
0.0
 10
6.345400191721764
 20
9.625558268085216
 30
0.0
 10
6.225404957037123
 20
9.720846578873028
 30
0.0
 10
6.071116787939521
 20
9.823983462823156
 30
0.0
 10
5.84924104384739
 20
9.97231149405613
 30
0.0
 10
5.650184573633951
 20
10.07069276080987
 30
0.0
 10
5.302149150209389
 20
10.20385455427928
 30
0.0
 10
5.11604283528618
 20
10.27503164524302
 30
0.0
 10
5.015782676119443
 20
10.3172418838341
 30
0.0
 10
4.885620336484989
 20
10.37919049057359
 30
0.0
 10
4.702648016051827
 20
10.46629709435688
 30
0.0
 10
4.608098603465426
 20
10.52169131155122
 30
0.0
 10
4.45735860618778
 20
10.63012524919068
 30
0.0
 10
4.356334906371027
 20
10.7027935464954
 30
0.0
 10
4.307875368365178
 20
10.73551661453786
 30
0.0
 10
4.288903833497266
 20
10.74379683290428
 30
0.0
 10
4.279954757679661
 20
10.74765306392629
 30
0.0
 10
4.265528107633448
 20
10.74977218620006
 30
0.0
 10
4.251063517679161
 20
10.74995717700182
 30
0.0
 10
4.251063517679161
 20
10.74995717700182
 30
0.0
 10
4.251063517679161
 20
10.74995717700182
 30
0.0
 10
4.251063517679161
 20
10.74995717700182
 30
0.0
  0
HATCH
  5
42
330
1F
100
AcDbEntity
  8
Layer 2
 62
     7
420
 16777215
100
AcDbHatch
 10
0.0
 20
0.0
 30
0.0
210
0.0
220
0.0
230
1.0
  2
SOLID
 70
     1
 71
     0
 91
        1
 92
        1
 93
        1
 72
     4
 94
        3
 73
     0
 74
     1
 95
      302
 96
      298
 40
0.0
 40
0.0
 40
0.0
 40
0.0
 40
1.0
 40
1.0
 40
1.0
 40
2.0
 40
2.0
 40
2.0
 40
3.0
 40
3.0
 40
3.0
 40
4.0
 40
4.0
 40
4.0
 40
5.0
 40
5.0
 40
5.0
 40
6.0
 40
6.0
 40
6.0
 40
7.0
 40
7.0
 40
7.0
 40
8.0
 40
8.0
 40
8.0
 40
9.0
 40
9.0
 40
9.0
 40
10.0
 40
10.0
 40
10.0
 40
11.0
 40
11.0
 40
11.0
 40
12.0
 40
12.0
 40
12.0
 40
13.0
 40
13.0
 40
13.0
 40
14.0
 40
14.0
 40
14.0
 40
15.0
 40
15.0
 40
15.0
 40
16.0
 40
16.0
 40
16.0
 40
17.0
 40
17.0
 40
17.0
 40
18.0
 40
18.0
 40
18.0
 40
19.0
 40
19.0
 40
19.0
 40
20.0
 40
20.0
 40
20.0
 40
21.0
 40
21.0
 40
21.0
 40
22.0
 40
22.0
 40
22.0
 40
23.0
 40
23.0
 40
23.0
 40
24.0
 40
24.0
 40
24.0
 40
25.0
 40
25.0
 40
25.0
 40
26.0
 40
26.0
 40
26.0
 40
27.0
 40
27.0
 40
27.0
 40
28.0
 40
28.0
 40
28.0
 40
29.0
 40
29.0
 40
29.0
 40
30.0
 40
30.0
 40
30.0
 40
31.0
 40
31.0
 40
31.0
 40
32.0
 40
32.0
 40
32.0
 40
33.0
 40
33.0
 40
33.0
 40
34.0
 40
34.0
 40
34.0
 40
35.0
 40
35.0
 40
35.0
 40
36.0
 40
36.0
 40
36.0
 40
37.0
 40
37.0
 40
37.0
 40
38.0
 40
38.0
 40
38.0
 40
39.0
 40
39.0
 40
39.0
 40
40.0
 40
40.0
 40
40.0
 40
41.0
 40
41.0
 40
41.0
 40
42.0
 40
42.0
 40
42.0
 40
43.0
 40
43.0
 40
43.0
 40
44.0
 40
44.0
 40
44.0
 40
45.0
 40
45.0
 40
45.0
 40
46.0
 40
46.0
 40
46.0
 40
47.0
 40
47.0
 40
47.0
 40
48.0
 40
48.0
 40
48.0
 40
49.0
 40
49.0
 40
49.0
 40
50.0
 40
50.0
 40
50.0
 40
51.0
 40
51.0
 40
51.0
 40
52.0
 40
52.0
 40
52.0
 40
53.0
 40
53.0
 40
53.0
 40
54.0
 40
54.0
 40
54.0
 40
55.0
 40
55.0
 40
55.0
 40
56.0
 40
56.0
 40
56.0
 40
57.0
 40
57.0
 40
57.0
 40
58.0
 40
58.0
 40
58.0
 40
59.0
 40
59.0
 40
59.0
 40
60.0
 40
60.0
 40
60.0
 40
61.0
 40
61.0
 40
61.0
 40
62.0
 40
62.0
 40
62.0
 40
63.0
 40
63.0
 40
63.0
 40
64.0
 40
64.0
 40
64.0
 40
65.0
 40
65.0
 40
65.0
 40
66.0
 40
66.0
 40
66.0
 40
67.0
 40
67.0
 40
67.0
 40
68.0
 40
68.0
 40
68.0
 40
69.0
 40
69.0
 40
69.0
 40
70.0
 40
70.0
 40
70.0
 40
71.0
 40
71.0
 40
71.0
 40
72.0
 40
72.0
 40
72.0
 40
73.0
 40
73.0
 40
73.0
 40
74.0
 40
74.0
 40
74.0
 40
75.0
 40
75.0
 40
75.0
 40
76.0
 40
76.0
 40
76.0
 40
77.0
 40
77.0
 40
77.0
 40
78.0
 40
78.0
 40
78.0
 40
79.0
 40
79.0
 40
79.0
 40
80.0
 40
80.0
 40
80.0
 40
81.0
 40
81.0
 40
81.0
 40
82.0
 40
82.0
 40
82.0
 40
83.0
 40
83.0
 40
83.0
 40
84.0
 40
84.0
 40
84.0
 40
85.0
 40
85.0
 40
85.0
 40
86.0
 40
86.0
 40
86.0
 40
87.0
 40
87.0
 40
87.0
 40
88.0
 40
88.0
 40
88.0
 40
89.0
 40
89.0
 40
89.0
 40
90.0
 40
90.0
 40
90.0
 40
91.0
 40
91.0
 40
91.0
 40
92.0
 40
92.0
 40
92.0
 40
93.0
 40
93.0
 40
93.0
 40
94.0
 40
94.0
 40
94.0
 40
95.0
 40
95.0
 40
95.0
 40
96.0
 40
96.0
 40
96.0
 40
97.0
 40
97.0
 40
97.0
 40
98.0
 40
98.0
 40
98.0
 40
99.0
 40
99.0
 40
99.0
 40
99.0
 10
4.251063517679161
 20
10.74995717700182
 10
4.236649514268985
 20
10.75020307940903
 10
4.222184133899961
 20
10.74851485034425
 10
4.213326746193514
 20
10.74490527372456
 10
4.195675203960794
 20
10.73768536849016
 10
4.140222866647542
 20
10.700723303905
 10
4.067429620098955
 20
10.64769486338679
 10
3.905047603944972
 20
10.52939174167312
 10
3.814099320966862
 20
10.47520522865614
 10
3.626931479032237
 20
10.38535083467113
 10
3.487768291413898
 20
10.31859697905673
 10
3.397971247521481
 20
10.28052572165618
 10
3.202657391156877
 20
10.20559241502264
 10
3.014621278617609
 20
10.13344149036675
 10
2.921898119314771
 20
10.09440993518634
 10
2.803274649431513
 20
10.03747638396275
 10
2.45013670357802
 20
9.867967657923788
 10
2.123793422596413
 20
9.625694379203575
 10
1.851438235600691
 20
9.330921312540934
 10
1.464500574139303
 20
8.912202904710991
 10
1.173886015966875
 20
8.38342399377738
 10
1.007100994439131
 20
7.794729118938196
 10
0.9607653008708262
 20
7.630998723471166
 10
0.9157895158826552
 20
7.424196302995116
 10
0.902943300132266
 20
7.315761613360526
 10
0.8912103835595214
 20
7.216333569387062
 10
0.88917704161103
 20
7.042882884881388
 10
0.8949526022009751
 20
6.637163464852947
 10
0.9029946770911389
 20
6.070263664840253
 10
0.9161001488800417
 20
5.79039927760943
 10
0.9445776067580658
 20
5.577054123512704
 10
0.9445776067580658
 20
5.577054123512704
 10
0.9530729845082406
 20
5.513479327306527
 10
0.9530729845082406
 20
5.513479327306527
 10
0.9530729845082406
 20
5.513479327306527
 10
0.9418973103353715
 20
5.501158639111509
 10
0.9418973103353715
 20
5.501158639111509
 10
0.9357198238442631
 20
5.494370003083582
 10
0.9169032102676686
 20
5.473720592836293
 10
0.9000551246299311
 20
5.455338071905644
 10
0.7944335822031183
 20
5.339782364396089
 10
0.7388903471934327
 20
5.201987904933932
 10
0.7518405024836485
 20
5.087541014242206
 10
0.7589241994874985
 20
5.025124290534854
 10
0.7684297272902287
 20
5.009477151886282
 10
0.817951187514849
 20
4.978822822443943
 10
0.8837765328207372
 20
4.938066566434927
 10
0.9767976784848997
 20
4.859128133743878
 10
1.02349577721682
 20
4.804411840158435
 10
1.10969208670829
 20
4.703394078482057
 10
1.159666849792971
 20
4.59645021919088
 10
1.185515388207161
 20
4.457842476996575
 10
1.205199481973636
 20
4.352155577563685
 10
1.212891798336209
 20
4.262780956471033
 10
1.21284002616998
 20
4.140006471719769
 10
1.212736481837523
 20
3.931712092907623
 10
1.183145329574497
 20
3.728420737689324
 10
1.12294022835988
 20
3.521950699060325
 10
1.08652423992415
 20
3.397006708361611
 10
1.051572099608393
 20
3.305229462831524
 10
0.9849950698737504
 20
3.159746981167094
 10
0.9849950698737504
 20
3.159746981167094
 10
0.9606099843721267
 20
3.106510237998084
 10
0.9606099843721267
 20
3.106510237998084
 10
0.9606099843721267
 20
3.106510237998084
 10
0.9756843793072801
 20
3.051646177369801
 10
0.9756843793072801
 20
3.051646177369801
 10
0.9963264557526877
 20
2.976526563943025
 10
1.006699463745311
 20
2.943309623099544
 10
1.029711994030777
 20
2.878343071908198
 10
1.124921402934761
 20
2.610023125900398
 10
1.288365341307503
 20
2.296905326062314
 10
1.487875509588371
 20
2.000593113369203
 10
1.617985681849253
 20
1.80745331639605
 10
1.796607164282199
 20
1.582748899876833
 10
1.963793716503776
 20
1.401980174772436
 10
2.231499288723183
 20
1.112579361311999
 10
2.59344324532425
 20
0.7969102299996645
 10
2.947798429895215
 20
0.5438559731112491
 10
3.112265164956499
 20
0.4264270457351055
 10
3.360843095394582
 20
0.2650515230148661
 10
3.396301101151367
 20
0.2526808271437504
 10
3.396301101151367
 20
0.2526808271437504
 10
3.396197161611528
 20
0.2526808271437504
 10
3.396197161611528
 20
0.2526808271437504
 10
3.425697811385501
 20
0.2424300055415137
 10
3.460896956311128
 20
0.26255001121793
 10
3.466723893859921
 20
0.2930189738609543
 10
3.467786211286087
 20
0.2986991690685398
 10
3.464445128131047
 20
0.3512467087016881
 10
3.459277791692481
 20
0.4097696016306145
 10
3.422459877355575
 20
0.8257405952563961
 10
3.376577881854688
 20
1.514541813675502
 10
3.351843433032867
 20
2.022770201721262
 10
3.328416330210189
 20
2.504336038468737
 10
3.32538588005256
 20
2.646553357282679
 10
3.32538588005256
 20
3.279479645621147
 10
3.325334107886331
 20
3.958275568847714
 10
3.32836455804396
 20
4.058233769387142
 10
3.359470540178449
 20
4.410531079447284
 10
3.36432684841226
 20
4.465790313515956
 10
3.368121629634692
 20
4.511264962962438
 10
3.367823643273343
 20
4.511548841123638
 10
3.367513405483338
 20
4.511795871523569
 10
2.984732139993222
 20
4.726545376523846
 10
2.517205766495547
 20
4.988741262199103
 10
2.049692039633909
 20
5.250937899869465
 10
1.665176208971401
 20
5.466931956808417
 10
1.662806150338737
 20
5.468767576918531
 10
1.659011764323673
 20
5.471601846560083
 10
1.658701131326287
 20
5.533980970510988
 10
1.660423840277405
 20
5.903552360681513
 10
1.661537139455037
 20
6.140824119798126
 10
1.663052364533857
 20
6.335540474559403
 10
1.663764528225051
 20
6.33626690185411
 10
1.664528464082461
 20
6.336945201460543
 10
1.701255480722946
 20
6.316972962826981
 10
1.745415162480084
 20
6.291802181866008
 10
2.215000961613037
 20
6.024492353315344
 10
2.736555345041577
 20
5.775774476338825
 10
3.174581463972635
 20
5.61035697979969
 10
3.322602039297433
 20
5.554433358034506
 10
3.555290657191462
 20
5.476899276246993
 10
3.691525753362485
 20
5.438064367792827
 10
3.691525753362485
 20
5.438064367792827
 10
3.723641885549493
 20
5.428910331086399
 10
3.723641885549493
 20
5.428910331086399
 10
3.723641885549493
 20
5.428910331086399
 10
3.733820846720606
 20
5.407595405149828
 10
3.733820846720606
 20
5.407595405149828
 10
3.766494221307514
 20
5.33905556110383
 10
3.775649595375272
 20
5.2825649350113
 10
3.778136240183812
 20
5.133509348490937
 10
3.783186990446527
 20
4.829964634644991
 10
3.751523765912187
 20
4.595773423574706
 10
3.640735282254177
 20
4.116325393109516
 10
3.611040190451313
 20
3.987586082994287
 10
3.59298790793951
 20
3.914919665677391
 10
3.573614051963053
 20
3.846046687789213
 10
3.573614051963053
 20
3.846046687789213
 10
3.557880451125079
 20
3.790122690026439
 10
3.557880451125079
 20
3.790122690026439
 10
3.557880451125079
 20
3.790122690026439
 10
3.593130182594804
 20
3.756955192862708
 10
3.593130182594804
 20
3.756955192862708
 10
4.03293038743584
 20
3.342770563666085
 10
4.188747218663025
 20
3.208254050971618
 10
4.236598137310137
 20
3.201416159262761
 10
4.260620422440777
 20
3.198002853371842
 10
4.275292891474717
 20
3.202192218235975
 10
4.304081377557471
 20
3.220673250528559
 10
4.346220759209548
 20
3.247717627353697
 10
4.426447066082194
 20
3.314088341449835
 10
4.534645360599243
 20
3.411311535704751
 10
4.585293557052258
 20
3.456737305467868
 10
4.941474994906785
 20
3.788681115364018
 10
4.941474994906785
 20
3.790356936509195
 10
4.941474994906785
 20
3.791133371479923
 10
4.93388701329142
 20
3.819236181449266
 10
4.924522969729221
 20
3.852785692138594
 10
4.883497282462157
 20
4.00048693543148
 10
4.817632021211339
 20
4.28863078903358
 10
4.783029244215792
 20
4.472134520422514
 10
4.734867692571267
 20
4.727838056150782
 10
4.718032648776949
 20
4.910097987596196
 10
4.721827429999368
 20
5.135000178834363
 10
4.724300637757147
 20
5.282515679330319
 10
4.733508969613315
 20
5.339301839508607
 10
4.766129386411825
 20
5.407595405149828
 10
4.766129386411825
 20
5.407595405149828
 10
4.776256970624066
 20
5.428910331086399
 10
4.776256970624066
 20
5.428910331086399
 10
4.776256970624066
 20
5.428910331086399
 10
4.808373102811073
 20
5.438015112111871
 10
4.808373102811073
 20
5.438015112111871
 10
4.87373328903565
 20
5.456594655766366
 10
5.069810686050332
 20
5.519011379473732
 10
5.146592365435506
 20
5.54567336677567
 10
5.635927072344556
 20
5.715711121387977
 10
6.212765434744268
 20
5.983341299863595
 10
6.754496735536905
 20
6.291802181866008
 10
6.79865720770878
 20
6.316972962826981
 10
6.835435206100732
 20
6.336895569782023
 10
6.836238267488347
 20
6.336119510808796
 10
6.837001808138413
 20
6.335404363441044
 10
6.838517033217234
 20
6.140676352755248
 10
6.839579350643387
 20
5.903404593638647
 10
6.841198120054665
 20
5.534313728355616
 10
6.840847966319693
 20
5.471601846560083
 10
6.837092705834847
 20
5.468767576918531
 10
6.834723042409551
 20
5.466931956808417
 10
6.450206816539675
 20
5.250888644188535
 10
5.982693089678049
 20
4.988741262199103
 10
5.515166716180374
 20
4.726545376523846
 10
5.132489785437453
 20
4.511795871523569
 10
5.132126985066457
 20
4.511548841123638
 10
5.131828998705108
 20
4.511314970638497
 10
5.135623779927553
 20
4.465827161277275
 10
5.140531465120223
 20
4.410531079447284
 10
5.171533902922268
 20
4.059441473564498
 10
5.174474245798188
 20
3.961023359049401
 10
5.174525622757023
 20
3.285406871228638
 10
5.174525622757023
 20
2.786799884862047
 10
5.172492676015938
 20
2.617206183373507
 10
5.163647934945528
 20
2.379109109602723
 10
5.143263928916515
 20
1.830357208040393
 10
5.090699767105611
 20
0.9852812498616509
 10
5.042240229099737
 20
0.4271538490273896
 10
5.033537762684646
 20
0.3270986411162842
 10
5.03186682589977
 20
0.2971094513656377
 10
5.034495745363604
 20
0.2879189428954305
 10
5.041786531032332
 20
0.2622180053684183
 10
5.073151769205348
 20
0.2446968948581798
 10
5.099699429467338
 20
0.2514859068836207
 10
5.114216977209986
 20
0.2551951228578623
 10
5.165927491089152
 20
0.2859964673479125
 10
5.270783912036373
 20
0.3532297198571036
 10
5.605468439891663
 20
0.5679179372543786
 10
5.894878010775275
 20
0.7915270728680701
 10
6.211497609482724
 20
1.080200707038658
 10
6.665308706210604
 20
1.493904435350209
 10
7.039905226947919
 20
1.977343679963042
 10
7.296370310984811
 20
2.480520728727925
 10
7.404024800152733
 20
2.691647873191414
 10
7.472815386399234
 20
2.864002336797613
 10
7.524318811613512
 20
3.051646177369801
 10
7.524318811613512
 20
3.051646177369801
 10
7.539392811341283
 20
3.106510237998084
 10
7.539392811341283
 20
3.106510237998084
 10
7.539392811341283
 20
3.106510237998084
 10
7.510254961938294
 20
3.17009744212391
 10
7.510254961938294
 20
3.17009744212391
 10
7.430430976174218
 20
3.344410289045072
 10
7.38257926711233
 20
3.482057357461978
 10
7.344234666682723
 20
3.647659468805311
 10
7.280441082495852
 20
3.923100244689244
 10
7.269058319658042
 20
4.201079756129022
 10
7.311754943709982
 20
4.443071036675797
 10
7.338108161943055
 20
4.592642867852292
 10
7.390466025503807
 20
4.706178716445089
 10
7.480106962482751
 20
4.808305294939297
 10
7.529019408141291
 20
4.864043549905191
 10
7.61183590415491
 20
4.934259215096366
 10
7.677544663284935
 20
4.975743402390334
 10
7.732375734603415
 20
5.010351722221407
 10
7.740974656686098
 20
5.023966218036068
 10
7.748161898022393
 20
5.087639525604118
 10
7.761059885938998
 20
5.201556635727406
 10
7.705012366317785
 20
5.340595647128212
 10
7.599998652834958
 20
5.455338071905644
 10
7.583150962404589
 20
5.473720592836293
 10
7.564230804495537
 20
5.494370003083582
 10
7.558002336252962
 20
5.501158639111509
 10
7.558002336252962
 20
5.501158639111509
 10
7.546722327332873
 20
5.513479327306527
 10
7.546722327332873
 20
5.513479327306527
 10
7.546722327332873
 20
5.513479327306527
 10
7.550879118511501
 20
5.541582889270999
 10
7.550879118511501
 20
5.541582889270999
 10
7.581880765898783
 20
5.750985332905871
 10
7.596606192721108
 20
6.048948738903694
 10
7.605101570471283
 20
6.638604287520302
 10
7.609154817317504
 20
6.910041441336981
 10
7.609102649943881
 20
7.136101705073933
 10
7.605101570471283
 20
7.213734674220909
 10
7.59984373154364
 20
7.316341401605036
 10
7.590985553422443
 20
7.377562829054719
 10
7.561601885031727
 20
7.515344880597278
 10
7.480404158429362
 20
7.895746128619432
 10
7.364060639897085
 20
8.222823402037648
 10
7.193429064980667
 20
8.55028268898142
 10
7.062864404237618
 20
8.800885065751434
 10
6.926384279493605
 20
9.006197783876775
 10
6.755091917844841
 20
9.20968616181891
 10
6.659999490324126
 20
9.322691477848126
 10
6.593629944461782
 20
9.39247512183763
 10
6.479603921981177
 20
9.499554716249614
 10
6.345400191721764
 20
9.625558268085216
 10
6.225404957037123
 20
9.720846578873028
 10
6.071116787939521
 20
9.823983462823156
 10
5.84924104384739
 20
9.97231149405613
 10
5.650184573633951
 20
10.07069276080987
 10
5.302149150209389
 20
10.20385455427928
 10
5.11604283528618
 20
10.27503164524302
 10
5.015782676119443
 20
10.3172418838341
 10
4.885620336484989
 20
10.37919049057359
 10
4.702648016051827
 20
10.46629709435688
 10
4.608098603465426
 20
10.52169131155122
 10
4.45735860618778
 20
10.63012524919068
 10
4.356334906371027
 20
10.7027935464954
 10
4.307875368365178
 20
10.73551661453786
 10
4.288903833497266
 20
10.74379683290428
 10
4.279954757679661
 20
10.74765306392629
 10
4.265528107633448
 20
10.74977218620006
 10
4.251063517679161
 20
10.74995717700182
 10
4.251063517679161
 20
10.74995717700182
 10
4.251063517679161
 20
10.74995717700182
 10
4.251063517679161
 20
10.74995717700182
 97
        0
 97
        0
 75
     2
 76
     1
 98
        0
  0
SPLINE
  5
44
330
1F
100
AcDbEntity
  8
Layer 3
370
     0
100
AcDbSpline
210
0.0
220
0.0
230
1.0
 70
    11
 71
     3
 72
    14
 73
    10
 74
     0
 42
0.0000000001
 43
0.0000000001
 12
1.0
 22
0.0
 32
0.0
 13
1.0
 23
0.0
 33
0.0
 40
0.0
 40
0.0
 40
0.0
 40
0.0
 40
1.0
 40
1.0
 40
1.0
 40
2.0
 40
2.0
 40
2.0
 40
3.0
 40
3.0
 40
3.0
 40
3.0
 10
2.856642111075214
 20
9.949407581437084
 30
0.0
 10
2.856642111075214
 20
9.949407581437084
 30
0.0
 10
2.768024032351819
 20
9.84953661987188
 30
0.0
 10
2.768024032351819
 20
9.84953661987188
 30
0.0
 10
2.768024032351819
 20
9.84953661987188
 30
0.0
 10
2.768024032351819
 20
9.903155056823493
 30
0.0
 10
2.768024032351819
 20
9.903155056823493
 30
0.0
 10
2.801604567676248
 20
9.919665687991065
 30
0.0
 10
2.822803688003495
 20
9.933427658653057
 30
0.0
 10
2.856642111075214
 20
9.949407581437084
 30
0.0
  0
POLYLINE
  5
45
330
1F
100
AcDbEntity
  8
Layer 3
370
     0
100
AcDb2dPolyline
 66
     1
 10
0.0
 20
0.0
 30
0.0
  0
VERTEX
  5
46
330
45
100
AcDbEntity
  8
Layer 3
370
     0
100
AcDbVertex
100
AcDb2dVertex
 10
2.030927591195791
 20
8.560681530385775
 30
0.0
  0
VERTEX
  5
47
330
45
100
AcDbEntity
  8
Layer 3
370
     0
100
AcDbVertex
100
AcDb2dVertex
 10
2.030927591195791
 20
8.412020066929017
 30
0.0
  0
VERTEX
  5
48
330
45
100
AcDbEntity
  8
Layer 3
370
     0
100
AcDbVertex
100
AcDb2dVertex
 10
1.867328649950372
 20
8.357821139902954
 30
0.0
  0
VERTEX
  5
49
330
45
100
AcDbEntity
  8
Layer 3
370
     0
100
AcDbVertex
100
AcDb2dVertex
 10
2.030927591195791
 20
8.296599438622682
 30
0.0
  0
VERTEX
  5
4A
330
45
100
AcDbEntity
  8
Layer 3
370
     0
100
AcDbVertex
100
AcDb2dVertex
 10
2.030927591195791
 20
8.14971233686357
 30
0.0
  0
VERTEX
  5
4B
330
45
100
AcDbEntity
  8
Layer 3
370
     0
100
AcDbVertex
100
AcDb2dVertex
 10
2.139384338941909
 20
8.261620689084035
 30
0.0
  0
VERTEX
  5
4C
330
45
100
AcDbEntity
  8
Layer 3
370
     0
100
AcDbVertex
100
AcDb2dVertex
 10
2.301158444062543
 20
8.219644945095386
 30
0.0
  0
VERTEX
  5
4D
330
45
100
AcDbEntity
  8
Layer 3
370
     0
100
AcDbVertex
100
AcDb2dVertex
 10
2.211064051423578
 20
8.354309752775837
 30
0.0
  0
VERTEX
  5
4E
330
45
100
AcDbEntity
  8
Layer 3
370
     0
100
AcDbVertex
100
AcDb2dVertex
 10
2.301158444062543
 20
8.48021476077262
 30
0.0
  0
VERTEX
  5
4F
330
45
100
AcDbEntity
  8
Layer 3
370
     0
100
AcDbVertex
100
AcDb2dVertex
 10
2.139384338941909
 20
8.443486540381778
 30
0.0
  0
VERTEX
  5
50
330
45
100
AcDbEntity
  8
Layer 3
370
     0
100
AcDbVertex
100
AcDb2dVertex
 10
2.030927591195791
 20
8.560681530385775
 30
0.0
  0
SEQEND
  5
51
330
45
100
AcDbEntity
  8
Layer 3
370
     0
  0
POLYLINE
  5
52
330
1F
100
AcDbEntity
  8
Layer 3
370
     0
100
AcDb2dPolyline
 66
     1
 10
0.0
 20
0.0
 30
0.0
  0
VERTEX
  5
53
330
52
100
AcDbEntity
  8
Layer 3
370
     0
100
AcDbVertex
100
AcDb2dVertex
 10
2.529042446949095
 20
8.891220401604237
 30
0.0
  0
VERTEX
  5
54
330
52
100
AcDbEntity
  8
Layer 3
370
     0
100
AcDbVertex
100
AcDb2dVertex
 10
2.422461926002054
 20
9.006628584487858
 30
0.0
  0
VERTEX
  5
55
330
52
100
AcDbEntity
  8
Layer 3
370
     0
100
AcDbVertex
100
AcDb2dVertex
 10
2.422461926002054
 20
8.857967121031113
 30
0.0
  0
VERTEX
  5
56
330
52
100
AcDbEntity
  8
Layer 3
370
     0
100
AcDbVertex
100
AcDb2dVertex
 10
2.258811594082355
 20
8.80376819400505
 30
0.0
  0
VERTEX
  5
57
330
52
100
AcDbEntity
  8
Layer 3
370
     0
100
AcDbVertex
100
AcDb2dVertex
 10
2.422461926002054
 20
8.744283518154235
 30
0.0
  0
VERTEX
  5
58
330
52
100
AcDbEntity
  8
Layer 3
370
     0
100
AcDbVertex
100
AcDb2dVertex
 10
2.422461926002054
 20
8.597396416395112
 30
0.0
  0
VERTEX
  5
59
330
52
100
AcDbEntity
  8
Layer 3
370
     0
100
AcDbVertex
100
AcDb2dVertex
 10
2.529042446949095
 20
8.709293212151604
 30
0.0
  0
VERTEX
  5
5A
330
52
100
AcDbEntity
  8
Layer 3
370
     0
100
AcDbVertex
100
AcDb2dVertex
 10
2.692641388194526
 20
8.66732902462694
 30
0.0
  0
VERTEX
  5
5B
330
52
100
AcDbEntity
  8
Layer 3
370
     0
100
AcDbVertex
100
AcDb2dVertex
 10
2.600734306317412
 20
8.801993832307378
 30
0.0
  0
VERTEX
  5
5C
330
52
100
AcDbEntity
  8
Layer 3
370
     0
100
AcDbVertex
100
AcDb2dVertex
 10
2.692641388194526
 20
8.927948621995066
 30
0.0
  0
VERTEX
  5
5D
330
52
100
AcDbEntity
  8
Layer 3
370
     0
100
AcDbVertex
100
AcDb2dVertex
 10
2.529042446949095
 20
8.891220401604237
 30
0.0
  0
SEQEND
  5
5E
330
52
100
AcDbEntity
  8
Layer 3
370
     0
  0
POLYLINE
  5
5F
330
1F
100
AcDbEntity
  8
Layer 3
370
     0
100
AcDb2dPolyline
 66
     1
 10
0.0
 20
0.0
 30
0.0
  0
VERTEX
  5
60
330
5F
100
AcDbEntity
  8
Layer 3
370
     0
100
AcDbVertex
100
AcDb2dVertex
 10
2.529042446949095
 20
7.843678502998513
 30
0.0
  0
VERTEX
  5
61
330
5F
100
AcDbEntity
  8
Layer 3
370
     0
100
AcDbVertex
100
AcDb2dVertex
 10
2.692641388194526
 20
7.803439784439345
 30
0.0
  0
VERTEX
  5
62
330
5F
100
AcDbEntity
  8
Layer 3
370
     0
100
AcDbVertex
100
AcDb2dVertex
 10
2.600734306317412
 20
7.938104592119796
 30
0.0
  0
VERTEX
  5
63
330
5F
100
AcDbEntity
  8
Layer 3
370
     0
100
AcDbVertex
100
AcDb2dVertex
 10
2.692641388194526
 20
8.062272574687098
 30
0.0
  0
VERTEX
  5
64
330
5F
100
AcDbEntity
  8
Layer 3
370
     0
100
AcDbVertex
100
AcDb2dVertex
 10
2.529042446949095
 20
8.025544354296269
 30
0.0
  0
VERTEX
  5
65
330
5F
100
AcDbEntity
  8
Layer 3
370
     0
100
AcDbVertex
100
AcDb2dVertex
 10
2.422461926002054
 20
8.142689562609348
 30
0.0
  0
VERTEX
  5
66
330
5F
100
AcDbEntity
  8
Layer 3
370
     0
100
AcDbVertex
100
AcDb2dVertex
 10
2.422461926002054
 20
7.994077880843506
 30
0.0
  0
VERTEX
  5
67
330
5F
100
AcDbEntity
  8
Layer 3
370
     0
100
AcDbVertex
100
AcDb2dVertex
 10
2.258811594082355
 20
7.939878953817444
 30
0.0
  0
VERTEX
  5
68
330
5F
100
AcDbEntity
  8
Layer 3
370
     0
100
AcDbVertex
100
AcDb2dVertex
 10
2.422461926002054
 20
7.878657252537159
 30
0.0
  0
VERTEX
  5
69
330
5F
100
AcDbEntity
  8
Layer 3
370
     0
100
AcDbVertex
100
AcDb2dVertex
 10
2.422461926002054
 20
7.731732814509869
 30
0.0
  0
VERTEX
  5
6A
330
5F
100
AcDbEntity
  8
Layer 3
370
     0
100
AcDbVertex
100
AcDb2dVertex
 10
2.529042446949095
 20
7.843678502998513
 30
0.0
  0
SEQEND
  5
6B
330
5F
100
AcDbEntity
  8
Layer 3
370
     0
  0
SPLINE
  5
6C
330
1F
100
AcDbEntity
  8
Layer 3
370
     0
100
AcDbSpline
210
0.0
220
0.0
230
1.0
 70
    11
 71
     3
 72
    41
 73
    37
 74
     0
 42
0.0000000001
 43
0.0000000001
 12
1.0
 22
0.0
 32
0.0
 13
1.0
 23
0.0
 33
0.0
 40
0.0
 40
0.0
 40
0.0
 40
0.0
 40
1.0
 40
1.0
 40
1.0
 40
2.0
 40
2.0
 40
2.0
 40
3.0
 40
3.0
 40
3.0
 40
4.0
 40
4.0
 40
4.0
 40
5.0
 40
5.0
 40
5.0
 40
6.0
 40
6.0
 40
6.0
 40
7.0
 40
7.0
 40
7.0
 40
8.0
 40
8.0
 40
8.0
 40
9.0
 40
9.0
 40
9.0
 40
10.0
 40
10.0
 40
10.0
 40
11.0
 40
11.0
 40
11.0
 40
12.0
 40
12.0
 40
12.0
 40
12.0
 10
2.030927591195791
 20
9.015338602480622
 30
0.0
 10
2.030927591195791
 20
9.015338602480622
 30
0.0
 10
2.139384338941909
 20
9.127285179928043
 30
0.0
 10
2.139384338941909
 20
9.127285179928043
 30
0.0
 10
2.139384338941909
 20
9.127285179928043
 30
0.0
 10
2.301158444062543
 20
9.085320992403366
 30
0.0
 10
2.301158444062543
 20
9.085320992403366
 30
0.0
 10
2.301158444062543
 20
9.085320992403366
 30
0.0
 10
2.211064051423578
 20
9.21998580008383
 30
0.0
 10
2.211064051423578
 20
9.21998580008383
 30
0.0
 10
2.211064051423578
 20
9.21998580008383
 30
0.0
 10
2.301158444062543
 20
9.345878362657862
 30
0.0
 10
2.301158444062543
 20
9.345878362657862
 30
0.0
 10
2.301158444062543
 20
9.345878362657862
 30
0.0
 10
2.139384338941909
 20
9.309113694957595
 30
0.0
 10
2.139384338941909
 20
9.309113694957595
 30
0.0
 10
2.139384338941909
 20
9.309113694957595
 30
0.0
 10
2.060569732118817
 20
9.393005622697538
 30
0.0
 10
2.060569732118817
 20
9.393005622697538
 30
0.0
 10
2.060569732118817
 20
9.393005622697538
 30
0.0
 10
2.030927591195791
 20
9.363793548676274
 30
0.0
 10
2.030927591195791
 20
9.363793548676274
 30
0.0
 10
2.030927591195791
 20
9.363793548676274
 30
0.0
 10
2.030927591195791
 20
9.275959088807527
 30
0.0
 10
2.030927591195791
 20
9.275959088807527
 30
0.0
 10
2.030927591195791
 20
9.275959088807527
 30
0.0
 10
1.907693688655286
 20
9.235091876400537
 30
0.0
 10
1.907693688655286
 20
9.235091876400537
 30
0.0
 10
1.901373570095087
 20
9.22801932045541
 30
0.0
 10
1.895093629698421
 20
9.220946764510245
 30
0.0
 10
1.888824901812515
 20
9.21387509752387
 30
0.0
 10
1.888824901812515
 20
9.21387509752387
 30
0.0
 10
2.030927591195791
 20
9.162275485930662
 30
0.0
 10
2.030927591195791
 20
9.162275485930662
 30
0.0
 10
2.030927591195791
 20
9.162275485930662
 30
0.0
 10
2.030927591195791
 20
9.015338602480622
 30
0.0
 10
2.030927591195791
 20
9.015338602480622
 30
0.0
  0
POLYLINE
  5
6D
330
1F
100
AcDbEntity
  8
Layer 3
370
     0
100
AcDb2dPolyline
 66
     1
 10
0.0
 20
0.0
 30
0.0
  0
VERTEX
  5
6E
330
6D
100
AcDbEntity
  8
Layer 3
370
     0
100
AcDbVertex
100
AcDb2dVertex
 10
2.768024032351819
 20
9.162275485930662
 30
0.0
  0
VERTEX
  5
6F
330
6D
100
AcDbEntity
  8
Layer 3
370
     0
100
AcDbVertex
100
AcDb2dVertex
 10
2.768024032351819
 20
9.015338602480622
 30
0.0
  0
VERTEX
  5
70
330
6D
100
AcDbEntity
  8
Layer 3
370
     0
100
AcDbVertex
100
AcDb2dVertex
 10
2.876481714473837
 20
9.127285179928043
 30
0.0
  0
VERTEX
  5
71
330
6D
100
AcDbEntity
  8
Layer 3
370
     0
100
AcDbVertex
100
AcDb2dVertex
 10
3.038203494544303
 20
9.085320992403366
 30
0.0
  0
VERTEX
  5
72
330
6D
100
AcDbEntity
  8
Layer 3
370
     0
100
AcDbVertex
100
AcDb2dVertex
 10
2.948161426955494
 20
9.21998580008383
 30
0.0
  0
VERTEX
  5
73
330
6D
100
AcDbEntity
  8
Layer 3
370
     0
100
AcDbVertex
100
AcDb2dVertex
 10
3.038203494544303
 20
9.345878362657862
 30
0.0
  0
VERTEX
  5
74
330
6D
100
AcDbEntity
  8
Layer 3
370
     0
100
AcDbVertex
100
AcDb2dVertex
 10
2.876481714473837
 20
9.309113694957595
 30
0.0
  0
VERTEX
  5
75
330
6D
100
AcDbEntity
  8
Layer 3
370
     0
100
AcDbVertex
100
AcDb2dVertex
 10
2.768024032351819
 20
9.42457077057337
 30
0.0
  0
VERTEX
  5
76
330
6D
100
AcDbEntity
  8
Layer 3
370
     0
100
AcDbVertex
100
AcDb2dVertex
 10
2.768024032351819
 20
9.275959088807527
 30
0.0
  0
VERTEX
  5
77
330
6D
100
AcDbEntity
  8
Layer 3
370
     0
100
AcDbVertex
100
AcDb2dVertex
 10
2.6044250911064
 20
9.22171038009056
 30
0.0
  0
VERTEX
  5
78
330
6D
100
AcDbEntity
  8
Layer 3
370
     0
100
AcDbVertex
100
AcDb2dVertex
 10
2.768024032351819
 20
9.162275485930662
 30
0.0
  0
SEQEND
  5
79
330
6D
100
AcDbEntity
  8
Layer 3
370
     0
  0
POLYLINE
  5
7A
330
1F
100
AcDbEntity
  8
Layer 3
370
     0
100
AcDb2dPolyline
 66
     1
 10
0.0
 20
0.0
 30
0.0
  0
VERTEX
  5
7B
330
7A
100
AcDbEntity
  8
Layer 3
370
     0
100
AcDbVertex
100
AcDb2dVertex
 10
1.674332374266669
 20
8.597396416395112
 30
0.0
  0
VERTEX
  5
7C
330
7A
100
AcDbEntity
  8
Layer 3
370
     0
100
AcDbVertex
100
AcDb2dVertex
 10
1.780924107724495
 20
8.709293212151604
 30
0.0
  0
VERTEX
  5
7D
330
7A
100
AcDbEntity
  8
Layer 3
370
     0
100
AcDbVertex
100
AcDb2dVertex
 10
1.944523983345814
 20
8.66732902462694
 30
0.0
  0
VERTEX
  5
7E
330
7A
100
AcDbEntity
  8
Layer 3
370
     0
100
AcDbVertex
100
AcDb2dVertex
 10
1.852656145256333
 20
8.801993832307378
 30
0.0
  0
VERTEX
  5
7F
330
7A
100
AcDbEntity
  8
Layer 3
370
     0
100
AcDbVertex
100
AcDb2dVertex
 10
1.944523983345814
 20
8.927948621995066
 30
0.0
  0
VERTEX
  5
80
330
7A
100
AcDbEntity
  8
Layer 3
370
     0
100
AcDbVertex
100
AcDb2dVertex
 10
1.780924107724495
 20
8.891220401604237
 30
0.0
  0
VERTEX
  5
81
330
7A
100
AcDbEntity
  8
Layer 3
370
     0
100
AcDbVertex
100
AcDb2dVertex
 10
1.699169954332736
 20
8.97973313701171
 30
0.0
  0
VERTEX
  5
82
330
7A
100
AcDbEntity
  8
Layer 3
370
     0
100
AcDbVertex
100
AcDb2dVertex
 10
1.674332374266669
 20
8.945604232053698
 30
0.0
  0
VERTEX
  5
83
330
7A
100
AcDbEntity
  8
Layer 3
370
     0
100
AcDbVertex
100
AcDb2dVertex
 10
1.674332374266669
 20
8.857967121031113
 30
0.0
  0
VERTEX
  5
84
330
7A
100
AcDbEntity
  8
Layer 3
370
     0
100
AcDbVertex
100
AcDb2dVertex
 10
1.595724264516573
 20
8.831933074599558
 30
0.0
  0
VERTEX
  5
85
330
7A
100
AcDbEntity
  8
Layer 3
370
     0
100
AcDbVertex
100
AcDb2dVertex
 10
1.595672873842305
 20
8.831933074599558
 30
0.0
  0
VERTEX
  5
86
330
7A
100
AcDbEntity
  8
Layer 3
370
     0
100
AcDbVertex
100
AcDb2dVertex
 10
1.564670281614781
 20
8.784140873402634
 30
0.0
  0
VERTEX
  5
87
330
7A
100
AcDbEntity
  8
Layer 3
370
     0
100
AcDbVertex
100
AcDb2dVertex
 10
1.674332374266669
 20
8.744283518154235
 30
0.0
  0
VERTEX
  5
88
330
7A
100
AcDbEntity
  8
Layer 3
370
     0
100
AcDbVertex
100
AcDb2dVertex
 10
1.674332374266669
 20
8.597396416395112
 30
0.0
  0
SEQEND
  5
89
330
7A
100
AcDbEntity
  8
Layer 3
370
     0
  0
POLYLINE
  5
8A
330
1F
100
AcDbEntity
  8
Layer 3
370
     0
100
AcDb2dPolyline
 66
     1
 10
0.0
 20
0.0
 30
0.0
  0
VERTEX
  5
8B
330
8A
100
AcDbEntity
  8
Layer 3
370
     0
100
AcDbVertex
100
AcDb2dVertex
 10
1.552975632901116
 20
8.219644945095386
 30
0.0
  0
VERTEX
  5
8C
330
8A
100
AcDbEntity
  8
Layer 3
370
     0
100
AcDbVertex
100
AcDb2dVertex
 10
1.462933565312306
 20
8.354309752775837
 30
0.0
  0
VERTEX
  5
8D
330
8A
100
AcDbEntity
  8
Layer 3
370
     0
100
AcDbVertex
100
AcDb2dVertex
 10
1.552975632901116
 20
8.48021476077262
 30
0.0
  0
VERTEX
  5
8E
330
8A
100
AcDbEntity
  8
Layer 3
370
     0
100
AcDbVertex
100
AcDb2dVertex
 10
1.391254787206549
 20
8.443486540381778
 30
0.0
  0
VERTEX
  5
8F
330
8A
100
AcDbEntity
  8
Layer 3
370
     0
100
AcDbVertex
100
AcDb2dVertex
 10
1.378861225322718
 20
8.456916040465153
 30
0.0
  0
VERTEX
  5
90
330
8A
100
AcDbEntity
  8
Layer 3
370
     0
100
AcDbVertex
100
AcDb2dVertex
 10
1.282797105084531
 20
8.250594933504898
 30
0.0
  0
VERTEX
  5
91
330
8A
100
AcDbEntity
  8
Layer 3
370
     0
100
AcDbVertex
100
AcDb2dVertex
 10
1.282797105084531
 20
8.14971233686357
 30
0.0
  0
VERTEX
  5
92
330
8A
100
AcDbEntity
  8
Layer 3
370
     0
100
AcDbVertex
100
AcDb2dVertex
 10
1.391254787206549
 20
8.261620689084035
 30
0.0
  0
VERTEX
  5
93
330
8A
100
AcDbEntity
  8
Layer 3
370
     0
100
AcDbVertex
100
AcDb2dVertex
 10
1.552975632901116
 20
8.219644945095386
 30
0.0
  0
SEQEND
  5
94
330
8A
100
AcDbEntity
  8
Layer 3
370
     0
  0
POLYLINE
  5
95
330
1F
100
AcDbEntity
  8
Layer 3
370
     0
100
AcDb2dPolyline
 66
     1
 10
0.0
 20
0.0
 30
0.0
  0
VERTEX
  5
96
330
95
100
AcDbEntity
  8
Layer 3
370
     0
100
AcDbVertex
100
AcDb2dVertex
 10
2.422461926002054
 20
9.43155709751818
 30
0.0
  0
VERTEX
  5
97
330
95
100
AcDbEntity
  8
Layer 3
370
     0
100
AcDbVertex
100
AcDb2dVertex
 10
2.529042446949095
 20
9.543490340584084
 30
0.0
  0
VERTEX
  5
98
330
95
100
AcDbEntity
  8
Layer 3
370
     0
100
AcDbVertex
100
AcDb2dVertex
 10
2.692641388194526
 20
9.503263178488888
 30
0.0
  0
VERTEX
  5
99
330
95
100
AcDbEntity
  8
Layer 3
370
     0
100
AcDbVertex
100
AcDb2dVertex
 10
2.600734306317412
 20
9.63792798616934
 30
0.0
  0
VERTEX
  5
9A
330
95
100
AcDbEntity
  8
Layer 3
370
     0
100
AcDbVertex
100
AcDb2dVertex
 10
2.692641388194526
 20
9.763820548743372
 30
0.0
  0
VERTEX
  5
9B
330
95
100
AcDbEntity
  8
Layer 3
370
     0
100
AcDbVertex
100
AcDb2dVertex
 10
2.535724168981031
 20
9.728830242740766
 30
0.0
  0
VERTEX
  5
9C
330
95
100
AcDbEntity
  8
Layer 3
370
     0
100
AcDbVertex
100
AcDb2dVertex
 10
2.507596651385332
 20
9.750353712391831
 30
0.0
  0
VERTEX
  5
9D
330
95
100
AcDbEntity
  8
Layer 3
370
     0
100
AcDbVertex
100
AcDb2dVertex
 10
2.433133433109649
 20
9.704054072963622
 30
0.0
  0
VERTEX
  5
9E
330
95
100
AcDbEntity
  8
Layer 3
370
     0
100
AcDbVertex
100
AcDb2dVertex
 10
2.431359053283257
 20
9.68060689654217
 30
0.0
  0
VERTEX
  5
9F
330
95
100
AcDbEntity
  8
Layer 3
370
     0
100
AcDbVertex
100
AcDb2dVertex
 10
2.320635509613567
 20
9.617180577521315
 30
0.0
  0
VERTEX
  5
A0
330
95
100
AcDbEntity
  8
Layer 3
370
     0
100
AcDbVertex
100
AcDb2dVertex
 10
2.422461926002054
 20
9.580218560974938
 30
0.0
  0
VERTEX
  5
A1
330
95
100
AcDbEntity
  8
Layer 3
370
     0
100
AcDbVertex
100
AcDb2dVertex
 10
2.422461926002054
 20
9.43155709751818
 30
0.0
  0
SEQEND
  5
A2
330
95
100
AcDbEntity
  8
Layer 3
370
     0
  0
POLYLINE
  5
A3
330
1F
100
AcDbEntity
  8
Layer 3
370
     0
100
AcDb2dPolyline
 66
     1
 10
0.0
 20
0.0
 30
0.0
  0
VERTEX
  5
A4
330
A3
100
AcDbEntity
  8
Layer 3
370
     0
100
AcDbVertex
100
AcDb2dVertex
 10
2.876481714473837
 20
7.609340082598982
 30
0.0
  0
VERTEX
  5
A5
330
A3
100
AcDbEntity
  8
Layer 3
370
     0
100
AcDbVertex
100
AcDb2dVertex
 10
2.768024032351819
 20
7.724747376523825
 30
0.0
  0
VERTEX
  5
A6
330
A3
100
AcDbEntity
  8
Layer 3
370
     0
100
AcDbVertex
100
AcDb2dVertex
 10
2.768024032351819
 20
7.57608591306708
 30
0.0
  0
VERTEX
  5
A7
330
A3
100
AcDbEntity
  8
Layer 3
370
     0
100
AcDbVertex
100
AcDb2dVertex
 10
2.6044250911064
 20
7.521886986041017
 30
0.0
  0
VERTEX
  5
A8
330
A3
100
AcDbEntity
  8
Layer 3
370
     0
100
AcDbVertex
100
AcDb2dVertex
 10
2.768024032351819
 20
7.462403199148967
 30
0.0
  0
VERTEX
  5
A9
330
A3
100
AcDbEntity
  8
Layer 3
370
     0
100
AcDbVertex
100
AcDb2dVertex
 10
2.768024032351819
 20
7.31379062842436
 30
0.0
  0
VERTEX
  5
AA
330
A3
100
AcDbEntity
  8
Layer 3
370
     0
100
AcDbVertex
100
AcDb2dVertex
 10
2.876481714473837
 20
7.425736316913016
 30
0.0
  0
VERTEX
  5
AB
330
A3
100
AcDbEntity
  8
Layer 3
370
     0
100
AcDbVertex
100
AcDb2dVertex
 10
3.038203494544303
 20
7.385447816662918
 30
0.0
  0
VERTEX
  5
AC
330
A3
100
AcDbEntity
  8
Layer 3
370
     0
100
AcDbVertex
100
AcDb2dVertex
 10
2.948161426955494
 20
7.520162406034286
 30
0.0
  0
VERTEX
  5
AD
330
A3
100
AcDbEntity
  8
Layer 3
370
     0
100
AcDbVertex
100
AcDb2dVertex
 10
3.038203494544303
 20
7.646067414031045
 30
0.0
  0
VERTEX
  5
AE
330
A3
100
AcDbEntity
  8
Layer 3
370
     0
100
AcDbVertex
100
AcDb2dVertex
 10
2.876481714473837
 20
7.609340082598982
 30
0.0
  0
SEQEND
  5
AF
330
A3
100
AcDbEntity
  8
Layer 3
370
     0
  0
SPLINE
  5
B0
330
1F
100
AcDbEntity
  8
Layer 3
370
     0
100
AcDbSpline
210
0.0
220
0.0
230
1.0
 70
    11
 71
     3
 72
    32
 73
    28
 74
     0
 42
0.0000000001
 43
0.0000000001
 12
1.0
 22
0.0
 32
0.0
 13
1.0
 23
0.0
 33
0.0
 40
0.0
 40
0.0
 40
0.0
 40
0.0
 40
1.0
 40
1.0
 40
1.0
 40
2.0
 40
2.0
 40
2.0
 40
3.0
 40
3.0
 40
3.0
 40
4.0
 40
4.0
 40
4.0
 40
5.0
 40
5.0
 40
5.0
 40
6.0
 40
6.0
 40
6.0
 40
7.0
 40
7.0
 40
7.0
 40
8.0
 40
8.0
 40
8.0
 40
9.0
 40
9.0
 40
9.0
 40
9.0
 10
3.341522466638316
 20
0.406356996216295
 30
0.0
 10
3.341522466638316
 20
0.406356996216295
 30
0.0
 10
3.341522466638316
 20
0.5215313829443807
 30
0.0
 10
3.341522466638316
 20
0.5215313829443807
 30
0.0
 10
3.317849118938625
 20
0.7943608289684663
 30
0.0
 10
3.274647315013617
 20
1.431191332094184
 30
0.0
 10
3.254005082720369
 20
1.817272347034683
 30
0.0
 10
3.222031673936966
 20
2.415639382257672
 30
0.0
 10
3.216721615720303
 20
2.624511800877346
 30
0.0
 10
3.216773006394583
 20
3.288387096552039
 30
0.0
 10
3.216773006394583
 20
3.924973136017039
 30
0.0
 10
3.220360075459123
 20
4.053810818984023
 30
0.0
 10
3.246467472367764
 20
4.359856209313041
 30
0.0
 10
3.250870251589479
 20
4.411689617061787
 30
0.0
 10
3.253344478961922
 20
4.455094806746754
 30
0.0
 10
3.251881246308888
 20
4.456352683401165
 30
0.0
 10
3.250767470240905
 20
4.457362540559743
 30
0.0
 10
2.989640241728365
 20
4.604053182431471
 30
0.0
 10
2.666547072548421
 20
4.785400770768446
 30
0.0
 10
2.666547072548421
 20
4.785400770768446
 30
0.0
 10
2.666547072548421
 20
0.8918653822975859
 30
0.0
 10
2.666547072548421
 20
0.8918653822975859
 30
0.0
 10
2.868686216373956
 20
0.7261154644751412
 30
0.0
 10
3.061876842244007
 20
0.5856359775039487
 30
0.0
 10
3.278791272112155
 20
0.4457209793493904
 30
0.0
 10
3.310001295788563
 20
0.4256145099718904
 30
0.0
 10
3.33322053680283
 20
0.4111253710390327
 30
0.0
 10
3.341522466638316
 20
0.406356996216295
 30
0.0
  0
POLYLINE
  5
B1
330
1F
100
AcDbEntity
  8
Layer 3
370
     0
100
AcDb2dPolyline
 66
     1
 10
0.0
 20
0.0
 30
0.0
  0
VERTEX
  5
B2
330
B1
100
AcDbEntity
  8
Layer 3
370
     0
100
AcDbVertex
100
AcDb2dVertex
 10
3.267964658605807
 20
8.025544354296269
 30
0.0
  0
VERTEX
  5
B3
330
B1
100
AcDbEntity
  8
Layer 3
370
     0
100
AcDbVertex
100
AcDb2dVertex
 10
3.159507910859689
 20
8.142689562609348
 30
0.0
  0
VERTEX
  5
B4
330
B1
100
AcDbEntity
  8
Layer 3
370
     0
100
AcDbVertex
100
AcDb2dVertex
 10
3.159507910859689
 20
7.994077880843506
 30
0.0
  0
VERTEX
  5
B5
330
B1
100
AcDbEntity
  8
Layer 3
370
     0
100
AcDbVertex
100
AcDb2dVertex
 10
2.99590896961427
 20
7.939878953817444
 30
0.0
  0
VERTEX
  5
B6
330
B1
100
AcDbEntity
  8
Layer 3
370
     0
100
AcDbVertex
100
AcDb2dVertex
 10
3.159507910859689
 20
7.878657252537159
 30
0.0
  0
VERTEX
  5
B7
330
B1
100
AcDbEntity
  8
Layer 3
370
     0
100
AcDbVertex
100
AcDb2dVertex
 10
3.159507910859689
 20
7.731732814509869
 30
0.0
  0
VERTEX
  5
B8
330
B1
100
AcDbEntity
  8
Layer 3
370
     0
100
AcDbVertex
100
AcDb2dVertex
 10
3.267964658605807
 20
7.843678502998513
 30
0.0
  0
VERTEX
  5
B9
330
B1
100
AcDbEntity
  8
Layer 3
370
     0
100
AcDbVertex
100
AcDb2dVertex
 10
3.429738763726454
 20
7.803439784439345
 30
0.0
  0
VERTEX
  5
BA
330
B1
100
AcDbEntity
  8
Layer 3
370
     0
100
AcDbVertex
100
AcDb2dVertex
 10
3.339695761761757
 20
7.938104592119796
 30
0.0
  0
VERTEX
  5
BB
330
B1
100
AcDbEntity
  8
Layer 3
370
     0
100
AcDbVertex
100
AcDb2dVertex
 10
3.429738763726454
 20
8.062272574687098
 30
0.0
  0
VERTEX
  5
BC
330
B1
100
AcDbEntity
  8
Layer 3
370
     0
100
AcDbVertex
100
AcDb2dVertex
 10
3.267964658605807
 20
8.025544354296269
 30
0.0
  0
SEQEND
  5
BD
330
B1
100
AcDbEntity
  8
Layer 3
370
     0
  0
POLYLINE
  5
BE
330
1F
100
AcDbEntity
  8
Layer 3
370
     0
100
AcDb2dPolyline
 66
     1
 10
0.0
 20
0.0
 30
0.0
  0
VERTEX
  5
BF
330
BE
100
AcDbEntity
  8
Layer 3
370
     0
100
AcDbVertex
100
AcDb2dVertex
 10
2.876481714473837
 20
8.443486540381778
 30
0.0
  0
VERTEX
  5
C0
330
BE
100
AcDbEntity
  8
Layer 3
370
     0
100
AcDbVertex
100
AcDb2dVertex
 10
2.768024032351819
 20
8.560681530385775
 30
0.0
  0
VERTEX
  5
C1
330
BE
100
AcDbEntity
  8
Layer 3
370
     0
100
AcDbVertex
100
AcDb2dVertex
 10
2.768024032351819
 20
8.412020066929017
 30
0.0
  0
VERTEX
  5
C2
330
BE
100
AcDbEntity
  8
Layer 3
370
     0
100
AcDbVertex
100
AcDb2dVertex
 10
2.6044250911064
 20
8.357821139902954
 30
0.0
  0
VERTEX
  5
C3
330
BE
100
AcDbEntity
  8
Layer 3
370
     0
100
AcDbVertex
100
AcDb2dVertex
 10
2.768024032351819
 20
8.296599438622682
 30
0.0
  0
VERTEX
  5
C4
330
BE
100
AcDbEntity
  8
Layer 3
370
     0
100
AcDbVertex
100
AcDb2dVertex
 10
2.768024032351819
 20
8.14971233686357
 30
0.0
  0
VERTEX
  5
C5
330
BE
100
AcDbEntity
  8
Layer 3
370
     0
100
AcDbVertex
100
AcDb2dVertex
 10
2.876481714473837
 20
8.261620689084035
 30
0.0
  0
VERTEX
  5
C6
330
BE
100
AcDbEntity
  8
Layer 3
370
     0
100
AcDbVertex
100
AcDb2dVertex
 10
3.038203494544303
 20
8.219644945095386
 30
0.0
  0
VERTEX
  5
C7
330
BE
100
AcDbEntity
  8
Layer 3
370
     0
100
AcDbVertex
100
AcDb2dVertex
 10
2.948161426955494
 20
8.354309752775837
 30
0.0
  0
VERTEX
  5
C8
330
BE
100
AcDbEntity
  8
Layer 3
370
     0
100
AcDbVertex
100
AcDb2dVertex
 10
3.038203494544303
 20
8.48021476077262
 30
0.0
  0
VERTEX
  5
C9
330
BE
100
AcDbEntity
  8
Layer 3
370
     0
100
AcDbVertex
100
AcDb2dVertex
 10
2.876481714473837
 20
8.443486540381778
 30
0.0
  0
SEQEND
  5
CA
330
BE
100
AcDbEntity
  8
Layer 3
370
     0
  0
POLYLINE
  5
CB
330
1F
100
AcDbEntity
  8
Layer 3
370
     0
100
AcDb2dPolyline
 66
     1
 10
0.0
 20
0.0
 30
0.0
  0
VERTEX
  5
CC
330
CB
100
AcDbEntity
  8
Layer 3
370
     0
100
AcDbVertex
100
AcDb2dVertex
 10
3.159507910859689
 20
9.580218560974938
 30
0.0
  0
VERTEX
  5
CD
330
CB
100
AcDbEntity
  8
Layer 3
370
     0
100
AcDbVertex
100
AcDb2dVertex
 10
3.159507910859689
 20
9.43155709751818
 30
0.0
  0
VERTEX
  5
CE
330
CB
100
AcDbEntity
  8
Layer 3
370
     0
100
AcDbVertex
100
AcDb2dVertex
 10
3.267964658605807
 20
9.543490340584084
 30
0.0
  0
VERTEX
  5
CF
330
CB
100
AcDbEntity
  8
Layer 3
370
     0
100
AcDbVertex
100
AcDb2dVertex
 10
3.429738763726454
 20
9.503263178488888
 30
0.0
  0
VERTEX
  5
D0
330
CB
100
AcDbEntity
  8
Layer 3
370
     0
100
AcDbVertex
100
AcDb2dVertex
 10
3.339695761761757
 20
9.63792798616934
 30
0.0
  0
VERTEX
  5
D1
330
CB
100
AcDbEntity
  8
Layer 3
370
     0
100
AcDbVertex
100
AcDb2dVertex
 10
3.429738763726454
 20
9.763820548743372
 30
0.0
  0
VERTEX
  5
D2
330
CB
100
AcDbEntity
  8
Layer 3
370
     0
100
AcDbVertex
100
AcDb2dVertex
 10
3.267964658605807
 20
9.727105662734049
 30
0.0
  0
VERTEX
  5
D3
330
CB
100
AcDbEntity
  8
Layer 3
370
     0
100
AcDbVertex
100
AcDb2dVertex
 10
3.159507910859689
 20
9.842512956658892
 30
0.0
  0
VERTEX
  5
D4
330
CB
100
AcDbEntity
  8
Layer 3
370
     0
100
AcDbVertex
100
AcDb2dVertex
 10
3.159507910859689
 20
9.693852382160886
 30
0.0
  0
VERTEX
  5
D5
330
CB
100
AcDbEntity
  8
Layer 3
370
     0
100
AcDbVertex
100
AcDb2dVertex
 10
2.99590896961427
 20
9.639652566176057
 30
0.0
  0
VERTEX
  5
D6
330
CB
100
AcDbEntity
  8
Layer 3
370
     0
100
AcDbVertex
100
AcDb2dVertex
 10
3.159507910859689
 20
9.580218560974938
 30
0.0
  0
SEQEND
  5
D7
330
CB
100
AcDbEntity
  8
Layer 3
370
     0
  0
POLYLINE
  5
D8
330
1F
100
AcDbEntity
  8
Layer 3
370
     0
100
AcDb2dPolyline
 66
     1
 10
0.0
 20
0.0
 30
0.0
  0
VERTEX
  5
D9
330
D8
100
AcDbEntity
  8
Layer 3
370
     0
100
AcDbVertex
100
AcDb2dVertex
 10
3.267964658605807
 20
7.191348114822555
 30
0.0
  0
VERTEX
  5
DA
330
D8
100
AcDbEntity
  8
Layer 3
370
     0
100
AcDbVertex
100
AcDb2dVertex
 10
3.159507910859689
 20
7.306767854170125
 30
0.0
  0
VERTEX
  5
DB
330
D8
100
AcDbEntity
  8
Layer 3
370
     0
100
AcDbVertex
100
AcDb2dVertex
 10
3.159507910859689
 20
7.158094834249406
 30
0.0
  0
VERTEX
  5
DC
330
D8
100
AcDbEntity
  8
Layer 3
370
     0
100
AcDbVertex
100
AcDb2dVertex
 10
2.99590896961427
 20
7.103907463687316
 30
0.0
  0
VERTEX
  5
DD
330
D8
100
AcDbEntity
  8
Layer 3
370
     0
100
AcDbVertex
100
AcDb2dVertex
 10
3.159507910859689
 20
7.044461013063432
 30
0.0
  0
VERTEX
  5
DE
330
D8
100
AcDbEntity
  8
Layer 3
370
     0
100
AcDbVertex
100
AcDb2dVertex
 10
3.159507910859689
 20
6.897585467768307
 30
0.0
  0
VERTEX
  5
DF
330
D8
100
AcDbEntity
  8
Layer 3
370
     0
100
AcDbVertex
100
AcDb2dVertex
 10
3.267964658605807
 20
7.007745238095342
 30
0.0
  0
VERTEX
  5
E0
330
D8
100
AcDbEntity
  8
Layer 3
370
     0
100
AcDbVertex
100
AcDb2dVertex
 10
3.429738763726454
 20
6.967505630577395
 30
0.0
  0
VERTEX
  5
E1
330
D8
100
AcDbEntity
  8
Layer 3
370
     0
100
AcDbVertex
100
AcDb2dVertex
 10
3.339695761761757
 20
7.102170438257859
 30
0.0
  0
VERTEX
  5
E2
330
D8
100
AcDbEntity
  8
Layer 3
370
     0
100
AcDbVertex
100
AcDb2dVertex
 10
3.429738763726454
 20
7.228075446254618
 30
0.0
  0
VERTEX
  5
E3
330
D8
100
AcDbEntity
  8
Layer 3
370
     0
100
AcDbVertex
100
AcDb2dVertex
 10
3.267964658605807
 20
7.191348114822555
 30
0.0
  0
SEQEND
  5
E4
330
D8
100
AcDbEntity
  8
Layer 3
370
     0
  0
POLYLINE
  5
E5
330
1F
100
AcDbEntity
  8
Layer 3
370
     0
100
AcDb2dPolyline
 66
     1
 10
0.0
 20
0.0
 30
0.0
  0
VERTEX
  5
E6
330
E5
100
AcDbEntity
  8
Layer 3
370
     0
100
AcDbVertex
100
AcDb2dVertex
 10
1.282797105084531
 20
7.31379062842436
 30
0.0
  0
VERTEX
  5
E7
330
E5
100
AcDbEntity
  8
Layer 3
370
     0
100
AcDbVertex
100
AcDb2dVertex
 10
1.391254787206549
 20
7.425736316913016
 30
0.0
  0
VERTEX
  5
E8
330
E5
100
AcDbEntity
  8
Layer 3
370
     0
100
AcDbVertex
100
AcDb2dVertex
 10
1.552975632901116
 20
7.385447816662918
 30
0.0
  0
VERTEX
  5
E9
330
E5
100
AcDbEntity
  8
Layer 3
370
     0
100
AcDbVertex
100
AcDb2dVertex
 10
1.462933565312306
 20
7.520162406034286
 30
0.0
  0
VERTEX
  5
EA
330
E5
100
AcDbEntity
  8
Layer 3
370
     0
100
AcDbVertex
100
AcDb2dVertex
 10
1.552975632901116
 20
7.646067414031045
 30
0.0
  0
VERTEX
  5
EB
330
E5
100
AcDbEntity
  8
Layer 3
370
     0
100
AcDbVertex
100
AcDb2dVertex
 10
1.391254787206549
 20
7.609340082598982
 30
0.0
  0
VERTEX
  5
EC
330
E5
100
AcDbEntity
  8
Layer 3
370
     0
100
AcDbVertex
100
AcDb2dVertex
 10
1.282797105084531
 20
7.724747376523825
 30
0.0
  0
VERTEX
  5
ED
330
E5
100
AcDbEntity
  8
Layer 3
370
     0
100
AcDbVertex
100
AcDb2dVertex
 10
1.282797105084531
 20
7.57608591306708
 30
0.0
  0
VERTEX
  5
EE
330
E5
100
AcDbEntity
  8
Layer 3
370
     0
100
AcDbVertex
100
AcDb2dVertex
 10
1.119197229463212
 20
7.521886986041017
 30
0.0
  0
VERTEX
  5
EF
330
E5
100
AcDbEntity
  8
Layer 3
370
     0
100
AcDbVertex
100
AcDb2dVertex
 10
1.282797105084531
 20
7.462403199148967
 30
0.0
  0
VERTEX
  5
F0
330
E5
100
AcDbEntity
  8
Layer 3
370
     0
100
AcDbVertex
100
AcDb2dVertex
 10
1.282797105084531
 20
7.31379062842436
 30
0.0
  0
SEQEND
  5
F1
330
E5
100
AcDbEntity
  8
Layer 3
370
     0
  0
POLYLINE
  5
F2
330
1F
100
AcDbEntity
  8
Layer 3
370
     0
100
AcDb2dPolyline
 66
     1
 10
0.0
 20
0.0
 30
0.0
  0
VERTEX
  5
F3
330
F2
100
AcDbEntity
  8
Layer 3
370
     0
100
AcDbVertex
100
AcDb2dVertex
 10
3.267964658605807
 20
8.891220401604237
 30
0.0
  0
VERTEX
  5
F4
330
F2
100
AcDbEntity
  8
Layer 3
370
     0
100
AcDbVertex
100
AcDb2dVertex
 10
3.159507910859689
 20
9.006628584487858
 30
0.0
  0
VERTEX
  5
F5
330
F2
100
AcDbEntity
  8
Layer 3
370
     0
100
AcDbVertex
100
AcDb2dVertex
 10
3.159507910859689
 20
8.857967121031113
 30
0.0
  0
VERTEX
  5
F6
330
F2
100
AcDbEntity
  8
Layer 3
370
     0
100
AcDbVertex
100
AcDb2dVertex
 10
2.99590896961427
 20
8.80376819400505
 30
0.0
  0
VERTEX
  5
F7
330
F2
100
AcDbEntity
  8
Layer 3
370
     0
100
AcDbVertex
100
AcDb2dVertex
 10
3.159507910859689
 20
8.744283518154235
 30
0.0
  0
VERTEX
  5
F8
330
F2
100
AcDbEntity
  8
Layer 3
370
     0
100
AcDbVertex
100
AcDb2dVertex
 10
3.159507910859689
 20
8.597396416395112
 30
0.0
  0
VERTEX
  5
F9
330
F2
100
AcDbEntity
  8
Layer 3
370
     0
100
AcDbVertex
100
AcDb2dVertex
 10
3.267964658605807
 20
8.709293212151604
 30
0.0
  0
VERTEX
  5
FA
330
F2
100
AcDbEntity
  8
Layer 3
370
     0
100
AcDbVertex
100
AcDb2dVertex
 10
3.429738763726454
 20
8.66732902462694
 30
0.0
  0
VERTEX
  5
FB
330
F2
100
AcDbEntity
  8
Layer 3
370
     0
100
AcDbVertex
100
AcDb2dVertex
 10
3.339695761761757
 20
8.801993832307378
 30
0.0
  0
VERTEX
  5
FC
330
F2
100
AcDbEntity
  8
Layer 3
370
     0
100
AcDbVertex
100
AcDb2dVertex
 10
3.429738763726454
 20
8.927948621995066
 30
0.0
  0
VERTEX
  5
FD
330
F2
100
AcDbEntity
  8
Layer 3
370
     0
100
AcDbVertex
100
AcDb2dVertex
 10
3.267964658605807
 20
8.891220401604237
 30
0.0
  0
SEQEND
  5
FE
330
F2
100
AcDbEntity
  8
Layer 3
370
     0
  0
POLYLINE
  5
FF
330
1F
100
AcDbEntity
  8
Layer 3
370
     0
100
AcDb2dPolyline
 66
     1
 10
0.0
 20
0.0
 30
0.0
  0
VERTEX
  5
100
330
FF
100
AcDbEntity
  8
Layer 3
370
     0
100
AcDbVertex
100
AcDb2dVertex
 10
2.139384338941909
 20
7.425736316913016
 30
0.0
  0
VERTEX
  5
101
330
FF
100
AcDbEntity
  8
Layer 3
370
     0
100
AcDbVertex
100
AcDb2dVertex
 10
2.301158444062543
 20
7.385447816662918
 30
0.0
  0
VERTEX
  5
102
330
FF
100
AcDbEntity
  8
Layer 3
370
     0
100
AcDbVertex
100
AcDb2dVertex
 10
2.211064051423578
 20
7.520162406034286
 30
0.0
  0
VERTEX
  5
103
330
FF
100
AcDbEntity
  8
Layer 3
370
     0
100
AcDbVertex
100
AcDb2dVertex
 10
2.301158444062543
 20
7.646067414031045
 30
0.0
  0
VERTEX
  5
104
330
FF
100
AcDbEntity
  8
Layer 3
370
     0
100
AcDbVertex
100
AcDb2dVertex
 10
2.139384338941909
 20
7.609340082598982
 30
0.0
  0
VERTEX
  5
105
330
FF
100
AcDbEntity
  8
Layer 3
370
     0
100
AcDbVertex
100
AcDb2dVertex
 10
2.030927591195791
 20
7.724747376523825
 30
0.0
  0
VERTEX
  5
106
330
FF
100
AcDbEntity
  8
Layer 3
370
     0
100
AcDbVertex
100
AcDb2dVertex
 10
2.030927591195791
 20
7.57608591306708
 30
0.0
  0
VERTEX
  5
107
330
FF
100
AcDbEntity
  8
Layer 3
370
     0
100
AcDbVertex
100
AcDb2dVertex
 10
1.867328649950372
 20
7.521886986041017
 30
0.0
  0
VERTEX
  5
108
330
FF
100
AcDbEntity
  8
Layer 3
370
     0
100
AcDbVertex
100
AcDb2dVertex
 10
2.030927591195791
 20
7.462403199148967
 30
0.0
  0
VERTEX
  5
109
330
FF
100
AcDbEntity
  8
Layer 3
370
     0
100
AcDbVertex
100
AcDb2dVertex
 10
2.030927591195791
 20
7.31379062842436
 30
0.0
  0
VERTEX
  5
10A
330
FF
100
AcDbEntity
  8
Layer 3
370
     0
100
AcDbVertex
100
AcDb2dVertex
 10
2.139384338941909
 20
7.425736316913016
 30
0.0
  0
SEQEND
  5
10B
330
FF
100
AcDbEntity
  8
Layer 3
370
     0
  0
POLYLINE
  5
10C
330
1F
100
AcDbEntity
  8
Layer 3
370
     0
100
AcDb2dPolyline
 66
     1
 10
0.0
 20
0.0
 30
0.0
  0
VERTEX
  5
10D
330
10C
100
AcDbEntity
  8
Layer 3
370
     0
100
AcDbVertex
100
AcDb2dVertex
 10
1.780924107724495
 20
7.843678502998513
 30
0.0
  0
VERTEX
  5
10E
330
10C
100
AcDbEntity
  8
Layer 3
370
     0
100
AcDbVertex
100
AcDb2dVertex
 10
1.944523983345814
 20
7.803439784439345
 30
0.0
  0
VERTEX
  5
10F
330
10C
100
AcDbEntity
  8
Layer 3
370
     0
100
AcDbVertex
100
AcDb2dVertex
 10
1.852656145256333
 20
7.938104592119796
 30
0.0
  0
VERTEX
  5
110
330
10C
100
AcDbEntity
  8
Layer 3
370
     0
100
AcDbVertex
100
AcDb2dVertex
 10
1.944523983345814
 20
8.062272574687098
 30
0.0
  0
VERTEX
  5
111
330
10C
100
AcDbEntity
  8
Layer 3
370
     0
100
AcDbVertex
100
AcDb2dVertex
 10
1.780924107724495
 20
8.025544354296269
 30
0.0
  0
VERTEX
  5
112
330
10C
100
AcDbEntity
  8
Layer 3
370
     0
100
AcDbVertex
100
AcDb2dVertex
 10
1.674332374266669
 20
8.142689562609348
 30
0.0
  0
VERTEX
  5
113
330
10C
100
AcDbEntity
  8
Layer 3
370
     0
100
AcDbVertex
100
AcDb2dVertex
 10
1.674332374266669
 20
7.994077880843506
 30
0.0
  0
VERTEX
  5
114
330
10C
100
AcDbEntity
  8
Layer 3
370
     0
100
AcDbVertex
100
AcDb2dVertex
 10
1.510745579907911
 20
7.939878953817444
 30
0.0
  0
VERTEX
  5
115
330
10C
100
AcDbEntity
  8
Layer 3
370
     0
100
AcDbVertex
100
AcDb2dVertex
 10
1.674332374266669
 20
7.878657252537159
 30
0.0
  0
VERTEX
  5
116
330
10C
100
AcDbEntity
  8
Layer 3
370
     0
100
AcDbVertex
100
AcDb2dVertex
 10
1.674332374266669
 20
7.731732814509869
 30
0.0
  0
VERTEX
  5
117
330
10C
100
AcDbEntity
  8
Layer 3
370
     0
100
AcDbVertex
100
AcDb2dVertex
 10
1.780924107724495
 20
7.843678502998513
 30
0.0
  0
SEQEND
  5
118
330
10C
100
AcDbEntity
  8
Layer 3
370
     0
  0
POLYLINE
  5
119
330
1F
100
AcDbEntity
  8
Layer 3
370
     0
100
AcDb2dPolyline
 66
     1
 10
0.0
 20
0.0
 30
0.0
  0
VERTEX
  5
11A
330
119
100
AcDbEntity
  8
Layer 3
370
     0
100
AcDbVertex
100
AcDb2dVertex
 10
2.876481714473837
 20
6.768168183685652
 30
0.0
  0
VERTEX
  5
11B
330
119
100
AcDbEntity
  8
Layer 3
370
     0
100
AcDbVertex
100
AcDb2dVertex
 10
2.768024032351819
 20
6.883576366569273
 30
0.0
  0
VERTEX
  5
11C
330
119
100
AcDbEntity
  8
Layer 3
370
     0
100
AcDbVertex
100
AcDb2dVertex
 10
2.768024032351819
 20
6.734903346648555
 30
0.0
  0
VERTEX
  5
11D
330
119
100
AcDbEntity
  8
Layer 3
370
     0
100
AcDbVertex
100
AcDb2dVertex
 10
2.6044250911064
 20
6.680716865045231
 30
0.0
  0
VERTEX
  5
11E
330
119
100
AcDbEntity
  8
Layer 3
370
     0
100
AcDbVertex
100
AcDb2dVertex
 10
2.768024032351819
 20
6.619495163764933
 30
0.0
  0
VERTEX
  5
11F
330
119
100
AcDbEntity
  8
Layer 3
370
     0
100
AcDbVertex
100
AcDb2dVertex
 10
2.768024032351819
 20
6.472608062005848
 30
0.0
  0
VERTEX
  5
120
330
119
100
AcDbEntity
  8
Layer 3
370
     0
100
AcDbVertex
100
AcDb2dVertex
 10
2.876481714473837
 20
6.584553750494479
 30
0.0
  0
VERTEX
  5
121
330
119
100
AcDbEntity
  8
Layer 3
370
     0
100
AcDbVertex
100
AcDb2dVertex
 10
3.038203494544303
 20
6.544326588399258
 30
0.0
  0
VERTEX
  5
122
330
119
100
AcDbEntity
  8
Layer 3
370
     0
100
AcDbVertex
100
AcDb2dVertex
 10
2.948161426955494
 20
6.678979839615749
 30
0.0
  0
VERTEX
  5
123
330
119
100
AcDbEntity
  8
Layer 3
370
     0
100
AcDbVertex
100
AcDb2dVertex
 10
3.038203494544303
 20
6.804884847612533
 30
0.0
  0
VERTEX
  5
124
330
119
100
AcDbEntity
  8
Layer 3
370
     0
100
AcDbVertex
100
AcDb2dVertex
 10
2.876481714473837
 20
6.768168183685652
 30
0.0
  0
SEQEND
  5
125
330
119
100
AcDbEntity
  8
Layer 3
370
     0
  0
POLYLINE
  5
126
330
1F
100
AcDbEntity
  8
Layer 3
370
     0
100
AcDb2dPolyline
 66
     1
 10
0.0
 20
0.0
 30
0.0
  0
VERTEX
  5
127
330
126
100
AcDbEntity
  8
Layer 3
370
     0
100
AcDbVertex
100
AcDb2dVertex
 10
2.529042446949095
 20
7.007745238095342
 30
0.0
  0
VERTEX
  5
128
330
126
100
AcDbEntity
  8
Layer 3
370
     0
100
AcDbVertex
100
AcDb2dVertex
 10
2.692641388194526
 20
6.967505630577395
 30
0.0
  0
VERTEX
  5
129
330
126
100
AcDbEntity
  8
Layer 3
370
     0
100
AcDbVertex
100
AcDb2dVertex
 10
2.600734306317412
 20
7.102170438257859
 30
0.0
  0
VERTEX
  5
12A
330
126
100
AcDbEntity
  8
Layer 3
370
     0
100
AcDbVertex
100
AcDb2dVertex
 10
2.692641388194526
 20
7.228075446254618
 30
0.0
  0
VERTEX
  5
12B
330
126
100
AcDbEntity
  8
Layer 3
370
     0
100
AcDbVertex
100
AcDb2dVertex
 10
2.529042446949095
 20
7.191348114822555
 30
0.0
  0
VERTEX
  5
12C
330
126
100
AcDbEntity
  8
Layer 3
370
     0
100
AcDbVertex
100
AcDb2dVertex
 10
2.422461926002054
 20
7.306767854170125
 30
0.0
  0
VERTEX
  5
12D
330
126
100
AcDbEntity
  8
Layer 3
370
     0
100
AcDbVertex
100
AcDb2dVertex
 10
2.422461926002054
 20
7.158094834249406
 30
0.0
  0
VERTEX
  5
12E
330
126
100
AcDbEntity
  8
Layer 3
370
     0
100
AcDbVertex
100
AcDb2dVertex
 10
2.258811594082355
 20
7.103907463687316
 30
0.0
  0
VERTEX
  5
12F
330
126
100
AcDbEntity
  8
Layer 3
370
     0
100
AcDbVertex
100
AcDb2dVertex
 10
2.422461926002054
 20
7.044461013063432
 30
0.0
  0
VERTEX
  5
130
330
126
100
AcDbEntity
  8
Layer 3
370
     0
100
AcDbVertex
100
AcDb2dVertex
 10
2.422461926002054
 20
6.897585467768307
 30
0.0
  0
VERTEX
  5
131
330
126
100
AcDbEntity
  8
Layer 3
370
     0
100
AcDbVertex
100
AcDb2dVertex
 10
2.529042446949095
 20
7.007745238095342
 30
0.0
  0
SEQEND
  5
132
330
126
100
AcDbEntity
  8
Layer 3
370
     0
  0
POLYLINE
  5
133
330
1F
100
AcDbEntity
  8
Layer 3
370
     0
100
AcDb2dPolyline
 66
     1
 10
0.0
 20
0.0
 30
0.0
  0
VERTEX
  5
134
330
133
100
AcDbEntity
  8
Layer 3
370
     0
100
AcDbVertex
100
AcDb2dVertex
 10
2.98205217507738
 20
10.00513462858252
 30
0.0
  0
VERTEX
  5
135
330
133
100
AcDbEntity
  8
Layer 3
370
     0
100
AcDbVertex
100
AcDb2dVertex
 10
2.882645792259394
 20
9.959892850086273
 30
0.0
  0
VERTEX
  5
136
330
133
100
AcDbEntity
  8
Layer 3
370
     0
100
AcDbVertex
100
AcDb2dVertex
 10
3.038203494544303
 20
9.921206253533164
 30
0.0
  0
VERTEX
  5
137
330
133
100
AcDbEntity
  8
Layer 3
370
     0
100
AcDbVertex
100
AcDb2dVertex
 10
2.98205217507738
 20
10.00513462858252
 30
0.0
  0
SEQEND
  5
138
330
133
100
AcDbEntity
  8
Layer 3
370
     0
  0
SPLINE
  5
139
330
1F
100
AcDbEntity
  8
Layer 3
370
     0
100
AcDbSpline
210
0.0
220
0.0
230
1.0
 70
    11
 71
     3
 72
    38
 73
    34
 74
     0
 42
0.0000000001
 43
0.0000000001
 12
1.0
 22
0.0
 32
0.0
 13
1.0
 23
0.0
 33
0.0
 40
0.0
 40
0.0
 40
0.0
 40
0.0
 40
1.0
 40
1.0
 40
1.0
 40
2.0
 40
2.0
 40
2.0
 40
3.0
 40
3.0
 40
3.0
 40
4.0
 40
4.0
 40
4.0
 40
5.0
 40
5.0
 40
5.0
 40
6.0
 40
6.0
 40
6.0
 40
7.0
 40
7.0
 40
7.0
 40
8.0
 40
8.0
 40
8.0
 40
9.0
 40
9.0
 40
9.0
 40
10.0
 40
10.0
 40
10.0
 40
11.0
 40
11.0
 40
11.0
 40
11.0
 10
3.606235829839509
 20
10.14509763051048
 30
0.0
 10
3.606235829839509
 20
10.14509763051048
 30
0.0
 10
3.529946841063154
 20
10.22624089774484
 30
0.0
 10
3.529946841063154
 20
10.22624089774484
 30
0.0
 10
3.519379049679994
 20
10.22165831530426
 30
0.0
 10
3.508604761223826
 20
10.21708728932765
 30
0.0
 10
3.497778147717503
 20
10.21246737061889
 30
0.0
 10
3.497778147717503
 20
10.21246737061889
 30
0.0
 10
3.497778147717503
 20
10.11183101555583
 30
0.0
 10
3.497778147717503
 20
10.11183101555583
 30
0.0
 10
3.497778147717503
 20
10.11183101555583
 30
0.0
 10
3.334127815797804
 20
10.05764453395251
 30
0.0
 10
3.334127815797804
 20
10.05764453395251
 30
0.0
 10
3.334127815797804
 20
10.05764453395251
 30
0.0
 10
3.497778147717503
 20
9.996423721630991
 30
0.0
 10
3.497778147717503
 20
9.996423721630991
 30
0.0
 10
3.497778147717503
 20
9.996423721630991
 30
0.0
 10
3.497778147717503
 20
9.84953661987188
 30
0.0
 10
3.497778147717503
 20
9.84953661987188
 30
0.0
 10
3.497778147717503
 20
9.84953661987188
 30
0.0
 10
3.606235829839509
 20
9.961432526669618
 30
0.0
 10
3.606235829839509
 20
9.961432526669618
 30
0.0
 10
3.606235829839509
 20
9.961432526669618
 30
0.0
 10
3.767957609909988
 20
9.921206253533164
 30
0.0
 10
3.767957609909988
 20
9.921206253533164
 30
0.0
 10
3.767957609909988
 20
9.921206253533164
 30
0.0
 10
3.677914607945265
 20
10.05585772683212
 30
0.0
 10
3.677914607945265
 20
10.05585772683212
 30
0.0
 10
3.677914607945265
 20
10.05585772683212
 30
0.0
 10
3.767957609909988
 20
10.18176362378766
 30
0.0
 10
3.767957609909988
 20
10.18176362378766
 30
0.0
 10
3.767957609909988
 20
10.18176362378766
 30
0.0
 10
3.606235829839509
 20
10.14509763051048
 30
0.0
 10
3.606235829839509
 20
10.14509763051048
 30
0.0
  0
POLYLINE
  5
13A
330
1F
100
AcDbEntity
  8
Layer 3
370
     0
100
AcDb2dPolyline
 66
     1
 10
0.0
 20
0.0
 30
0.0
  0
VERTEX
  5
13B
330
13A
100
AcDbEntity
  8
Layer 3
370
     0
100
AcDbVertex
100
AcDb2dVertex
 10
3.606235829839509
 20
9.309113694957595
 30
0.0
  0
VERTEX
  5
13C
330
13A
100
AcDbEntity
  8
Layer 3
370
     0
100
AcDbVertex
100
AcDb2dVertex
 10
3.497778147717503
 20
9.42457077057337
 30
0.0
  0
VERTEX
  5
13D
330
13A
100
AcDbEntity
  8
Layer 3
370
     0
100
AcDbVertex
100
AcDb2dVertex
 10
3.497778147717503
 20
9.275959088807527
 30
0.0
  0
VERTEX
  5
13E
330
13A
100
AcDbEntity
  8
Layer 3
370
     0
100
AcDbVertex
100
AcDb2dVertex
 10
3.334127815797804
 20
9.22171038009056
 30
0.0
  0
VERTEX
  5
13F
330
13A
100
AcDbEntity
  8
Layer 3
370
     0
100
AcDbVertex
100
AcDb2dVertex
 10
3.497778147717503
 20
9.162275485930662
 30
0.0
  0
VERTEX
  5
140
330
13A
100
AcDbEntity
  8
Layer 3
370
     0
100
AcDbVertex
100
AcDb2dVertex
 10
3.497778147717503
 20
9.015338602480622
 30
0.0
  0
VERTEX
  5
141
330
13A
100
AcDbEntity
  8
Layer 3
370
     0
100
AcDbVertex
100
AcDb2dVertex
 10
3.606235829839509
 20
9.127285179928043
 30
0.0
  0
VERTEX
  5
142
330
13A
100
AcDbEntity
  8
Layer 3
370
     0
100
AcDbVertex
100
AcDb2dVertex
 10
3.767957609909988
 20
9.085320992403366
 30
0.0
  0
VERTEX
  5
143
330
13A
100
AcDbEntity
  8
Layer 3
370
     0
100
AcDbVertex
100
AcDb2dVertex
 10
3.677914607945265
 20
9.21998580008383
 30
0.0
  0
VERTEX
  5
144
330
13A
100
AcDbEntity
  8
Layer 3
370
     0
100
AcDbVertex
100
AcDb2dVertex
 10
3.767957609909988
 20
9.345878362657862
 30
0.0
  0
VERTEX
  5
145
330
13A
100
AcDbEntity
  8
Layer 3
370
     0
100
AcDbVertex
100
AcDb2dVertex
 10
3.606235829839509
 20
9.309113694957595
 30
0.0
  0
SEQEND
  5
146
330
13A
100
AcDbEntity
  8
Layer 3
370
     0
  0
POLYLINE
  5
147
330
1F
100
AcDbEntity
  8
Layer 3
370
     0
100
AcDb2dPolyline
 66
     1
 10
0.0
 20
0.0
 30
0.0
  0
VERTEX
  5
148
330
147
100
AcDbEntity
  8
Layer 3
370
     0
100
AcDbVertex
100
AcDb2dVertex
 10
3.606235829839509
 20
8.443486540381778
 30
0.0
  0
VERTEX
  5
149
330
147
100
AcDbEntity
  8
Layer 3
370
     0
100
AcDbVertex
100
AcDb2dVertex
 10
3.497778147717503
 20
8.560681530385775
 30
0.0
  0
VERTEX
  5
14A
330
147
100
AcDbEntity
  8
Layer 3
370
     0
100
AcDbVertex
100
AcDb2dVertex
 10
3.497778147717503
 20
8.412020066929017
 30
0.0
  0
VERTEX
  5
14B
330
147
100
AcDbEntity
  8
Layer 3
370
     0
100
AcDbVertex
100
AcDb2dVertex
 10
3.334127815797804
 20
8.357821139902954
 30
0.0
  0
VERTEX
  5
14C
330
147
100
AcDbEntity
  8
Layer 3
370
     0
100
AcDbVertex
100
AcDb2dVertex
 10
3.497778147717503
 20
8.296599438622682
 30
0.0
  0
VERTEX
  5
14D
330
147
100
AcDbEntity
  8
Layer 3
370
     0
100
AcDbVertex
100
AcDb2dVertex
 10
3.497778147717503
 20
8.14971233686357
 30
0.0
  0
VERTEX
  5
14E
330
147
100
AcDbEntity
  8
Layer 3
370
     0
100
AcDbVertex
100
AcDb2dVertex
 10
3.606235829839509
 20
8.261620689084035
 30
0.0
  0
VERTEX
  5
14F
330
147
100
AcDbEntity
  8
Layer 3
370
     0
100
AcDbVertex
100
AcDb2dVertex
 10
3.767957609909988
 20
8.219644945095386
 30
0.0
  0
VERTEX
  5
150
330
147
100
AcDbEntity
  8
Layer 3
370
     0
100
AcDbVertex
100
AcDb2dVertex
 10
3.677914607945265
 20
8.354309752775837
 30
0.0
  0
VERTEX
  5
151
330
147
100
AcDbEntity
  8
Layer 3
370
     0
100
AcDbVertex
100
AcDb2dVertex
 10
3.767957609909988
 20
8.48021476077262
 30
0.0
  0
VERTEX
  5
152
330
147
100
AcDbEntity
  8
Layer 3
370
     0
100
AcDbVertex
100
AcDb2dVertex
 10
3.606235829839509
 20
8.443486540381778
 30
0.0
  0
SEQEND
  5
153
330
147
100
AcDbEntity
  8
Layer 3
370
     0
  0
SPLINE
  5
154
330
1F
100
AcDbEntity
  8
Layer 3
370
     0
100
AcDbSpline
210
0.0
220
0.0
230
1.0
 70
    11
 71
     3
 72
    32
 73
    28
 74
     0
 42
0.0000000001
 43
0.0000000001
 12
1.0
 22
0.0
 32
0.0
 13
1.0
 23
0.0
 33
0.0
 40
0.0
 40
0.0
 40
0.0
 40
0.0
 40
1.0
 40
1.0
 40
1.0
 40
2.0
 40
2.0
 40
2.0
 40
3.0
 40
3.0
 40
3.0
 40
4.0
 40
4.0
 40
4.0
 40
5.0
 40
5.0
 40
5.0
 40
6.0
 40
6.0
 40
6.0
 40
7.0
 40
7.0
 40
7.0
 40
8.0
 40
8.0
 40
8.0
 40
9.0
 40
9.0
 40
9.0
 40
9.0
 10
4.394577182632828
 20
10.54599936600368
 30
0.0
 10
4.279747991276357
 20
10.6282902790054
 30
0.0
 10
4.258703977347851
 20
10.64234827293659
 30
0.0
 10
4.250053525303175
 20
10.64234827293659
 30
0.0
 10
4.242515914950571
 20
10.64234827293659
 30
0.0
 10
4.222132504780499
 20
10.62930013616398
 30
0.0
 10
4.1495856914674
 20
10.57809522226301
 30
0.0
 10
4.1495856914674
 20
10.57809522226301
 30
0.0
 10
4.091465641987725
 20
10.53800407085906
 30
0.0
 10
4.091465641987725
 20
10.53800407085906
 30
0.0
 10
4.098445429930444
 20
10.54320359068348
 30
0.0
 10
4.025095987722731
 20
10.49320588278723
 30
0.0
 10
3.941826276627757
 20
10.44031372514773
 30
0.0
 10
3.941826276627757
 20
10.44031372514773
 30
0.0
 10
3.943199809194791
 20
3.574942065928654
 30
0.0
 10
3.943199809194791
 20
3.574942065928654
 30
0.0
 10
4.11149959557272
 20
3.420071225488881
 30
0.0
 10
4.236895643936464
 20
3.312018287438125
 30
0.0
 10
4.250260022376172
 20
3.312018287438125
 30
0.0
 10
4.2624984778613
 20
3.312018287438125
 30
0.0
 10
4.382740508782995
 20
3.415352632357073
 30
0.0
 10
4.540213681654576
 20
3.55964041868333
 30
0.0
 10
4.540213681654576
 20
3.55964041868333
 30
0.0
 10
4.533286218762037
 20
10.45031717814553
 30
0.0
 10
4.533286218762037
 20
10.45031717814553
 30
0.0
 10
4.499693536550947
 20
10.48155074440151
 30
0.0
 10
4.439293609885175
 20
10.51553119324553
 30
0.0
 10
4.394577182632828
 20
10.54599936600368
 30
0.0
  0
POLYLINE
  5
155
330
1F
100
AcDbEntity
  8
Layer 3
370
     0
100
AcDb2dPolyline
 66
     1
 10
0.0
 20
0.0
 30
0.0
  0
VERTEX
  5
156
330
155
100
AcDbEntity
  8
Layer 3
370
     0
100
AcDbVertex
100
AcDb2dVertex
 10
3.606235829839509
 20
7.609340082598982
 30
0.0
  0
VERTEX
  5
157
330
155
100
AcDbEntity
  8
Layer 3
370
     0
100
AcDbVertex
100
AcDb2dVertex
 10
3.497778147717503
 20
7.724747376523825
 30
0.0
  0
VERTEX
  5
158
330
155
100
AcDbEntity
  8
Layer 3
370
     0
100
AcDbVertex
100
AcDb2dVertex
 10
3.497778147717503
 20
7.57608591306708
 30
0.0
  0
VERTEX
  5
159
330
155
100
AcDbEntity
  8
Layer 3
370
     0
100
AcDbVertex
100
AcDb2dVertex
 10
3.334127815797804
 20
7.521886986041017
 30
0.0
  0
VERTEX
  5
15A
330
155
100
AcDbEntity
  8
Layer 3
370
     0
100
AcDbVertex
100
AcDb2dVertex
 10
3.497778147717503
 20
7.462403199148967
 30
0.0
  0
VERTEX
  5
15B
330
155
100
AcDbEntity
  8
Layer 3
370
     0
100
AcDbVertex
100
AcDb2dVertex
 10
3.497778147717503
 20
7.31379062842436
 30
0.0
  0
VERTEX
  5
15C
330
155
100
AcDbEntity
  8
Layer 3
370
     0
100
AcDbVertex
100
AcDb2dVertex
 10
3.606235829839509
 20
7.425736316913016
 30
0.0
  0
VERTEX
  5
15D
330
155
100
AcDbEntity
  8
Layer 3
370
     0
100
AcDbVertex
100
AcDb2dVertex
 10
3.767957609909988
 20
7.385447816662918
 30
0.0
  0
VERTEX
  5
15E
330
155
100
AcDbEntity
  8
Layer 3
370
     0
100
AcDbVertex
100
AcDb2dVertex
 10
3.677914607945265
 20
7.520162406034286
 30
0.0
  0
VERTEX
  5
15F
330
155
100
AcDbEntity
  8
Layer 3
370
     0
100
AcDbVertex
100
AcDb2dVertex
 10
3.767957609909988
 20
7.646067414031045
 30
0.0
  0
VERTEX
  5
160
330
155
100
AcDbEntity
  8
Layer 3
370
     0
100
AcDbVertex
100
AcDb2dVertex
 10
3.606235829839509
 20
7.609340082598982
 30
0.0
  0
SEQEND
  5
161
330
155
100
AcDbEntity
  8
Layer 3
370
     0
  0
POLYLINE
  5
162
330
1F
100
AcDbEntity
  8
Layer 3
370
     0
100
AcDb2dPolyline
 66
     1
 10
0.0
 20
0.0
 30
0.0
  0
VERTEX
  5
163
330
162
100
AcDbEntity
  8
Layer 3
370
     0
100
AcDbVertex
100
AcDb2dVertex
 10
3.606235829839509
 20
6.768168183685652
 30
0.0
  0
VERTEX
  5
164
330
162
100
AcDbEntity
  8
Layer 3
370
     0
100
AcDbVertex
100
AcDb2dVertex
 10
3.497778147717503
 20
6.883576366569273
 30
0.0
  0
VERTEX
  5
165
330
162
100
AcDbEntity
  8
Layer 3
370
     0
100
AcDbVertex
100
AcDb2dVertex
 10
3.497778147717503
 20
6.734903346648555
 30
0.0
  0
VERTEX
  5
166
330
162
100
AcDbEntity
  8
Layer 3
370
     0
100
AcDbVertex
100
AcDb2dVertex
 10
3.334127815797804
 20
6.680716865045231
 30
0.0
  0
VERTEX
  5
167
330
162
100
AcDbEntity
  8
Layer 3
370
     0
100
AcDbVertex
100
AcDb2dVertex
 10
3.497778147717503
 20
6.619495163764933
 30
0.0
  0
VERTEX
  5
168
330
162
100
AcDbEntity
  8
Layer 3
370
     0
100
AcDbVertex
100
AcDb2dVertex
 10
3.497778147717503
 20
6.472608062005848
 30
0.0
  0
VERTEX
  5
169
330
162
100
AcDbEntity
  8
Layer 3
370
     0
100
AcDbVertex
100
AcDb2dVertex
 10
3.606235829839509
 20
6.584553750494479
 30
0.0
  0
VERTEX
  5
16A
330
162
100
AcDbEntity
  8
Layer 3
370
     0
100
AcDbVertex
100
AcDb2dVertex
 10
3.767957609909988
 20
6.544326588399258
 30
0.0
  0
VERTEX
  5
16B
330
162
100
AcDbEntity
  8
Layer 3
370
     0
100
AcDbVertex
100
AcDb2dVertex
 10
3.677914607945265
 20
6.678979839615749
 30
0.0
  0
VERTEX
  5
16C
330
162
100
AcDbEntity
  8
Layer 3
370
     0
100
AcDbVertex
100
AcDb2dVertex
 10
3.767957609909988
 20
6.804884847612533
 30
0.0
  0
VERTEX
  5
16D
330
162
100
AcDbEntity
  8
Layer 3
370
     0
100
AcDbVertex
100
AcDb2dVertex
 10
3.606235829839509
 20
6.768168183685652
 30
0.0
  0
SEQEND
  5
16E
330
162
100
AcDbEntity
  8
Layer 3
370
     0
  0
SPLINE
  5
16F
330
1F
100
AcDbEntity
  8
Layer 3
370
     0
100
AcDbSpline
210
0.0
220
0.0
230
1.0
 70
    11
 71
     3
 72
    53
 73
    49
 74
     0
 42
0.0000000001
 43
0.0000000001
 12
1.0
 22
0.0
 32
0.0
 13
1.0
 23
0.0
 33
0.0
 40
0.0
 40
0.0
 40
0.0
 40
0.0
 40
1.0
 40
1.0
 40
1.0
 40
2.0
 40
2.0
 40
2.0
 40
3.0
 40
3.0
 40
3.0
 40
4.0
 40
4.0
 40
4.0
 40
5.0
 40
5.0
 40
5.0
 40
6.0
 40
6.0
 40
6.0
 40
7.0
 40
7.0
 40
7.0
 40
8.0
 40
8.0
 40
8.0
 40
9.0
 40
9.0
 40
9.0
 40
10.0
 40
10.0
 40
10.0
 40
11.0
 40
11.0
 40
11.0
 40
12.0
 40
12.0
 40
12.0
 40
13.0
 40
13.0
 40
13.0
 40
14.0
 40
14.0
 40
14.0
 40
15.0
 40
15.0
 40
15.0
 40
16.0
 40
16.0
 40
16.0
 40
16.0
 10
6.459621728370924
 20
6.248580674337265
 30
0.0
 10
6.459621728370924
 20
6.248580674337265
 30
0.0
 10
6.765063602500529
 20
6.417695301090387
 30
0.0
 10
6.765063602500529
 20
6.417695301090387
 30
0.0
 10
6.870736844452646
 20
6.478004041717617
 30
0.0
 10
6.878170739080789
 20
6.481281632689186
 30
0.0
 10
6.897749651604449
 20
6.476082112864749
 30
0.0
 10
6.91601109411484
 20
6.471019492690352
 30
0.0
 10
6.93583761625094
 20
6.455962309105782
 30
0.0
 10
6.944644109070218
 20
6.433095622758767
 30
0.0
 10
6.944644109070218
 20
6.433095622758767
 30
0.0
 10
6.94560184436356
 20
5.921404734131935
 30
0.0
 10
6.94560184436356
 20
5.921404734131935
 30
0.0
 10
6.94560184436356
 20
5.921404734131935
 30
0.0
 10
6.946521270245208
 20
5.409714734463882
 30
0.0
 10
6.946521270245208
 20
5.409714734463882
 30
0.0
 10
6.946521270245208
 20
5.409714734463882
 30
0.0
 10
6.459518012646488
 20
5.136589265170616
 30
0.0
 10
6.459518012646488
 20
5.136589265170616
 30
0.0
 10
6.459518012646488
 20
5.136589265170616
 30
0.0
 10
6.459518012646488
 20
1.475176122894785
 30
0.0
 10
6.459518012646488
 20
1.475176122894785
 30
0.0
 10
6.561760226308656
 20
1.58591460537875
 30
0.0
 10
6.657772021496662
 20
1.700756521528168
 30
0.0
 10
6.760103935244842
 20
1.833535847665189
 30
0.0
 10
6.900432244801701
 20
2.017434747661607
 30
0.0
 10
7.246900695770566
 20
2.603863066652416
 30
0.0
 10
7.258386044283547
 20
2.648871048993113
 30
0.0
 10
7.258386044283547
 20
2.648871048993113
 30
0.0
 10
7.258386044283547
 20
3.543894292054826
 30
0.0
 10
7.258386044283547
 20
3.543894292054826
 30
0.0
 10
7.21882456884916
 20
3.690448923235357
 30
0.0
 10
7.194089770131667
 20
3.838924594309926
 30
0.0
 10
7.182200771231641
 20
3.998033990147683
 30
0.0
 10
7.17759056056103
 20
4.060402448236547
 30
0.0
 10
7.17759056056103
 20
4.219905652807812
 30
0.0
 10
7.182200771231641
 20
4.277455065424293
 30
0.0
 10
7.194841942727887
 20
4.434543857986101
 30
0.0
 10
7.217917289854186
 20
4.550925450718851
 30
0.0
 10
7.258439303709615
 20
4.650784855820145
 30
0.0
 10
7.258439303709615
 20
4.650784855820145
 30
0.0
 10
7.258439303709615
 20
8.150968435600436
 30
0.0
 10
7.258439303709615
 20
8.150968435600436
 30
0.0
 10
7.070907258265404
 20
8.623343344867559
 30
0.0
 10
6.797996615329086
 20
9.040756600487093
 30
0.0
 10
6.459569403320756
 20
9.373268071208106
 30
0.0
 10
6.459569403320756
 20
9.373268071208106
 30
0.0
 10
6.459621728370924
 20
6.248580674337265
 30
0.0
 10
6.459621728370924
 20
6.248580674337265
 30
0.0
  0
SPLINE
  5
170
330
1F
100
AcDbEntity
  8
Layer 3
370
     0
100
AcDbSpline
210
0.0
220
0.0
230
1.0
 70
    11
 71
     3
 72
    23
 73
    19
 74
     0
 42
0.0000000001
 43
0.0000000001
 12
1.0
 22
0.0
 32
0.0
 13
1.0
 23
0.0
 33
0.0
 40
0.0
 40
0.0
 40
0.0
 40
0.0
 40
1.0
 40
1.0
 40
1.0
 40
2.0
 40
2.0
 40
2.0
 40
3.0
 40
3.0
 40
3.0
 40
4.0
 40
4.0
 40
4.0
 40
5.0
 40
5.0
 40
5.0
 40
6.0
 40
6.0
 40
6.0
 40
6.0
 10
5.136582834746175
 20
10.15683899789652
 30
0.0
 10
5.136582834746175
 20
10.15683899789652
 30
0.0
 10
5.138912233854777
 20
5.653146314084489
 30
0.0
 10
5.138912233854777
 20
5.653146314084489
 30
0.0
 10
5.304934011798397
 20
5.712150063242714
 30
0.0
 10
5.482443007006774
 20
5.781688862741046
 30
0.0
 10
5.645587841566768
 20
5.852778895286658
 30
0.0
 10
5.732534321812282
 20
5.890701876259489
 30
0.0
 10
5.817268199936203
 20
5.928871098810583
 30
0.0
 10
5.90098921458894
 20
5.967853718632896
 30
0.0
 10
5.901650752723273
 20
7.24771521227976
 30
0.0
 10
5.902312290857581
 20
8.52761226427727
 30
0.0
 10
5.90297196024014
 20
9.807473757924134
 30
0.0
 10
5.723741844631427
 20
9.917213939713456
 30
0.0
 10
5.539810883890216
 20
10.00210327918925
 30
0.0
 10
5.255515805037652
 20
10.11058647328293
 30
0.0
 10
5.212158894713942
 20
10.12714599718265
 30
0.0
 10
5.173048722837292
 20
10.14234985896366
 30
0.0
 10
5.136582834746175
 20
10.15683899789652
 30
0.0
  0
SPLINE
  5
171
330
1F
100
AcDbEntity
  8
Layer 3
370
     0
100
AcDbSpline
210
0.0
220
0.0
230
1.0
 70
    11
 71
     3
 72
    35
 73
    31
 74
     0
 42
0.0000000001
 43
0.0000000001
 12
1.0
 22
0.0
 32
0.0
 13
1.0
 23
0.0
 33
0.0
 40
0.0
 40
0.0
 40
0.0
 40
0.0
 40
1.0
 40
1.0
 40
1.0
 40
2.0
 40
2.0
 40
2.0
 40
3.0
 40
3.0
 40
3.0
 40
4.0
 40
4.0
 40
4.0
 40
5.0
 40
5.0
 40
5.0
 40
6.0
 40
6.0
 40
6.0
 40
7.0
 40
7.0
 40
7.0
 40
8.0
 40
8.0
 40
8.0
 40
9.0
 40
9.0
 40
9.0
 40
10.0
 40
10.0
 40
10.0
 40
10.0
 10
5.253586318812546
 20
4.358316532729683
 30
0.0
 10
5.281209273424389
 20
4.033456330110716
 30
0.0
 10
5.28479634248894
 20
3.88406858734187
 30
0.0
 10
5.282516465302832
 20
3.156802530997008
 30
0.0
 10
5.280950451301224
 20
2.652233091047467
 30
0.0
 10
5.279694650097073
 20
2.57224724812689
 30
0.0
 10
5.269423990248823
 20
2.314092733417864
 30
0.0
 10
5.248575260882565
 20
1.790463128558864
 30
0.0
 10
5.200373611538351
 20
1.016525848021476
 30
0.0
 10
5.155554402937469
 20
0.4859605868673498
 30
0.0
 10
5.151810358722413
 20
0.4416308800653547
 30
0.0
 10
5.149583740962371
 20
0.4046199707868759
 30
0.0
 10
5.150542410631614
 20
0.4036590063604106
 30
0.0
 10
5.154841474128893
 20
0.3996177998085386
 30
0.0
 10
5.343628386401329
 20
0.5242658201097028
 30
0.0
 10
5.477740293122451
 20
0.6197142118122781
 30
0.0
 10
5.623326335845806
 20
0.7232823528867761
 30
0.0
 10
5.761931656250554
 20
0.8305094482435985
 30
0.0
 10
5.898414074619697
 20
0.945239355588506
 30
0.0
 10
5.899073744002256
 20
2.237814737511801
 30
0.0
 10
5.899734347760689
 20
3.530329670238997
 30
0.0
 10
5.900381870256575
 20
4.822892606739591
 30
0.0
 10
5.900381870256575
 20
4.822892606739591
 30
0.0
 10
5.900381870256575
 20
4.822942388430495
 30
0.0
 10
5.900381870256575
 20
4.822942388430495
 30
0.0
 10
5.541066685094342
 20
4.621289203952402
 30
0.0
 10
5.249390971039727
 20
4.457461214982787
 30
0.0
 10
5.248121154197128
 20
4.456352683401165
 30
0.0
 10
5.246606530869813
 20
4.454959685014248
 30
0.0
 10
5.248937798730164
 20
4.41250301433302
 30
0.0
 10
5.253586318812546
 20
4.358316532729683
 30
0.0
  0
POLYLINE
  5
172
330
1F
100
AcDbEntity
  8
Layer 3
370
     0
100
AcDb2dPolyline
 66
     1
 10
0.0
 20
0.0
 30
0.0
  0
VERTEX
  5
173
330
172
100
AcDbEntity
  8
Layer 3
370
     0
100
AcDbVertex
100
AcDb2dVertex
 10
3.339695761761757
 20
6.26100031726206
 30
0.0
  0
VERTEX
  5
174
330
172
100
AcDbEntity
  8
Layer 3
370
     0
100
AcDbVertex
100
AcDb2dVertex
 10
3.429738763726454
 20
6.386893768794872
 30
0.0
  0
VERTEX
  5
175
330
172
100
AcDbEntity
  8
Layer 3
370
     0
100
AcDbVertex
100
AcDb2dVertex
 10
3.267964658605807
 20
6.350225997600141
 30
0.0
  0
VERTEX
  5
176
330
172
100
AcDbEntity
  8
Layer 3
370
     0
100
AcDbVertex
100
AcDb2dVertex
 10
3.159507910859689
 20
6.465634180483751
 30
0.0
  0
VERTEX
  5
177
330
172
100
AcDbEntity
  8
Layer 3
370
     0
100
AcDbVertex
100
AcDb2dVertex
 10
3.159507910859689
 20
6.316972717026992
 30
0.0
  0
VERTEX
  5
178
330
172
100
AcDbEntity
  8
Layer 3
370
     0
100
AcDbVertex
100
AcDb2dVertex
 10
2.99590896961427
 20
6.262774678959708
 30
0.0
  0
VERTEX
  5
179
330
172
100
AcDbEntity
  8
Layer 3
370
     0
100
AcDbVertex
100
AcDb2dVertex
 10
3.159507910859689
 20
6.20329000310888
 30
0.0
  0
VERTEX
  5
17A
330
172
100
AcDbEntity
  8
Layer 3
370
     0
100
AcDbVertex
100
AcDb2dVertex
 10
3.159507910859689
 20
6.054677432384286
 30
0.0
  0
VERTEX
  5
17B
330
172
100
AcDbEntity
  8
Layer 3
370
     0
100
AcDbVertex
100
AcDb2dVertex
 10
3.267964658605807
 20
6.16657422814079
 30
0.0
  0
VERTEX
  5
17C
330
172
100
AcDbEntity
  8
Layer 3
370
     0
100
AcDbVertex
100
AcDb2dVertex
 10
3.429738763726454
 20
6.12633462062283
 30
0.0
  0
VERTEX
  5
17D
330
172
100
AcDbEntity
  8
Layer 3
370
     0
100
AcDbVertex
100
AcDb2dVertex
 10
3.339695761761757
 20
6.26100031726206
 30
0.0
  0
SEQEND
  5
17E
330
172
100
AcDbEntity
  8
Layer 3
370
     0
  0
POLYLINE
  5
17F
330
1F
100
AcDbEntity
  8
Layer 3
370
     0
100
AcDb2dPolyline
 66
     1
 10
0.0
 20
0.0
 30
0.0
  0
VERTEX
  5
180
330
17F
100
AcDbEntity
  8
Layer 3
370
     0
100
AcDbVertex
100
AcDb2dVertex
 10
1.391254787206549
 20
6.768168183685652
 30
0.0
  0
VERTEX
  5
181
330
17F
100
AcDbEntity
  8
Layer 3
370
     0
100
AcDbVertex
100
AcDb2dVertex
 10
1.282797105084531
 20
6.883576366569273
 30
0.0
  0
VERTEX
  5
182
330
17F
100
AcDbEntity
  8
Layer 3
370
     0
100
AcDbVertex
100
AcDb2dVertex
 10
1.282797105084531
 20
6.734903346648555
 30
0.0
  0
VERTEX
  5
183
330
17F
100
AcDbEntity
  8
Layer 3
370
     0
100
AcDbVertex
100
AcDb2dVertex
 10
1.119197229463212
 20
6.680716865045231
 30
0.0
  0
VERTEX
  5
184
330
17F
100
AcDbEntity
  8
Layer 3
370
     0
100
AcDbVertex
100
AcDb2dVertex
 10
1.282797105084531
 20
6.619495163764933
 30
0.0
  0
VERTEX
  5
185
330
17F
100
AcDbEntity
  8
Layer 3
370
     0
100
AcDbVertex
100
AcDb2dVertex
 10
1.282797105084531
 20
6.472608062005848
 30
0.0
  0
VERTEX
  5
186
330
17F
100
AcDbEntity
  8
Layer 3
370
     0
100
AcDbVertex
100
AcDb2dVertex
 10
1.391254787206549
 20
6.584553750494479
 30
0.0
  0
VERTEX
  5
187
330
17F
100
AcDbEntity
  8
Layer 3
370
     0
100
AcDbVertex
100
AcDb2dVertex
 10
1.552975632901116
 20
6.544326588399258
 30
0.0
  0
VERTEX
  5
188
330
17F
100
AcDbEntity
  8
Layer 3
370
     0
100
AcDbVertex
100
AcDb2dVertex
 10
1.462933565312306
 20
6.678979839615749
 30
0.0
  0
VERTEX
  5
189
330
17F
100
AcDbEntity
  8
Layer 3
370
     0
100
AcDbVertex
100
AcDb2dVertex
 10
1.552975632901116
 20
6.804884847612533
 30
0.0
  0
VERTEX
  5
18A
330
17F
100
AcDbEntity
  8
Layer 3
370
     0
100
AcDbVertex
100
AcDb2dVertex
 10
1.391254787206549
 20
6.768168183685652
 30
0.0
  0
SEQEND
  5
18B
330
17F
100
AcDbEntity
  8
Layer 3
370
     0
  0
SPLINE
  5
18C
330
1F
100
AcDbEntity
  8
Layer 3
370
     0
100
AcDbSpline
210
0.0
220
0.0
230
1.0
 70
    11
 71
     3
 72
    17
 73
    13
 74
     0
 42
0.0000000001
 43
0.0000000001
 12
1.0
 22
0.0
 32
0.0
 13
1.0
 23
0.0
 33
0.0
 40
0.0
 40
0.0
 40
0.0
 40
0.0
 40
1.0
 40
1.0
 40
1.0
 40
2.0
 40
2.0
 40
2.0
 40
3.0
 40
3.0
 40
3.0
 40
4.0
 40
4.0
 40
4.0
 40
4.0
 10
1.553843668108445
 20
2.094870167881481
 30
0.0
 10
1.709853608326992
 20
1.858657822402468
 30
0.0
 10
1.891752301494535
 20
1.631254169339273
 30
0.0
 10
2.102955825886637
 20
1.408374427438073
 30
0.0
 10
2.102955825886637
 20
1.408374427438073
 30
0.0
 10
2.102955825886637
 20
5.101500284744942
 30
0.0
 10
2.102955825886637
 20
5.101500284744942
 30
0.0
 10
2.102955825886637
 20
5.101500284744942
 30
0.0
 10
1.553895058782738
 20
5.409418711194651
 30
0.0
 10
1.553895058782738
 20
5.409418711194651
 30
0.0
 10
1.553895058782738
 20
5.409418711194651
 30
0.0
 10
1.553843668108445
 20
2.094870167881481
 30
0.0
 10
1.553843668108445
 20
2.094870167881481
 30
0.0
  0
POLYLINE
  5
18D
330
1F
100
AcDbEntity
  8
Layer 3
370
     0
100
AcDb2dPolyline
 66
     1
 10
0.0
 20
0.0
 30
0.0
  0
VERTEX
  5
18E
330
18D
100
AcDbEntity
  8
Layer 3
370
     0
100
AcDbVertex
100
AcDb2dVertex
 10
1.391254787206549
 20
5.907741437893037
 30
0.0
  0
VERTEX
  5
18F
330
18D
100
AcDbEntity
  8
Layer 3
370
     0
100
AcDbVertex
100
AcDb2dVertex
 10
1.282797105084531
 20
6.024923982474294
 30
0.0
  0
VERTEX
  5
190
330
18D
100
AcDbEntity
  8
Layer 3
370
     0
100
AcDbVertex
100
AcDb2dVertex
 10
1.282797105084531
 20
5.876262519017536
 30
0.0
  0
VERTEX
  5
191
330
18D
100
AcDbEntity
  8
Layer 3
370
     0
100
AcDbVertex
100
AcDb2dVertex
 10
1.119197229463212
 20
5.822075148455446
 30
0.0
  0
VERTEX
  5
192
330
18D
100
AcDbEntity
  8
Layer 3
370
     0
100
AcDbVertex
100
AcDb2dVertex
 10
1.282797105084531
 20
5.760854336133914
 30
0.0
  0
VERTEX
  5
193
330
18D
100
AcDbEntity
  8
Layer 3
370
     0
100
AcDbVertex
100
AcDb2dVertex
 10
1.282797105084531
 20
5.613967234374804
 30
0.0
  0
VERTEX
  5
194
330
18D
100
AcDbEntity
  8
Layer 3
370
     0
100
AcDbVertex
100
AcDb2dVertex
 10
1.391254787206549
 20
5.725912922863472
 30
0.0
  0
VERTEX
  5
195
330
18D
100
AcDbEntity
  8
Layer 3
370
     0
100
AcDbVertex
100
AcDb2dVertex
 10
1.552975632901116
 20
5.685673315345525
 30
0.0
  0
VERTEX
  5
196
330
18D
100
AcDbEntity
  8
Layer 3
370
     0
100
AcDbVertex
100
AcDb2dVertex
 10
1.462933565312306
 20
5.820289230293825
 30
0.0
  0
VERTEX
  5
197
330
18D
100
AcDbEntity
  8
Layer 3
370
     0
100
AcDbVertex
100
AcDb2dVertex
 10
1.552975632901116
 20
5.944506105593278
 30
0.0
  0
VERTEX
  5
198
330
18D
100
AcDbEntity
  8
Layer 3
370
     0
100
AcDbVertex
100
AcDb2dVertex
 10
1.391254787206549
 20
5.907741437893037
 30
0.0
  0
SEQEND
  5
199
330
18D
100
AcDbEntity
  8
Layer 3
370
     0
  0
SPLINE
  5
19A
330
1F
100
AcDbEntity
  8
Layer 3
370
     0
100
AcDbSpline
210
0.0
220
0.0
230
1.0
 70
    11
 71
     3
 72
    26
 73
    22
 74
     0
 42
0.0000000001
 43
0.0000000001
 12
1.0
 22
0.0
 32
0.0
 13
1.0
 23
0.0
 33
0.0
 40
0.0
 40
0.0
 40
0.0
 40
0.0
 40
1.0
 40
1.0
 40
1.0
 40
2.0
 40
2.0
 40
2.0
 40
3.0
 40
3.0
 40
3.0
 40
4.0
 40
4.0
 40
4.0
 40
5.0
 40
5.0
 40
5.0
 40
6.0
 40
6.0
 40
6.0
 40
7.0
 40
7.0
 40
7.0
 40
7.0
 10
1.117384540225076
 20
6.26100031726206
 30
0.0
 10
1.117384540225076
 20
6.26100031726206
 30
0.0
 10
1.20929162210219
 20
6.386893768794872
 30
0.0
 10
1.20929162210219
 20
6.386893768794872
 30
0.0
 10
1.20929162210219
 20
6.386893768794872
 30
0.0
 10
1.045653437069152
 20
6.350225997600141
 30
0.0
 10
1.045653437069152
 20
6.350225997600141
 30
0.0
 10
1.045653437069152
 20
6.350225997600141
 30
0.0
 10
1.007204803326835
 20
6.391906607278353
 30
0.0
 10
1.007204803326835
 20
6.391906607278353
 30
0.0
 10
1.004718429067717
 20
6.311046917890457
 30
0.0
 10
1.006842265479198
 20
6.225097939565166
 30
0.0
 10
1.014133200595274
 20
6.133505850991051
 30
0.0
 10
1.014133200595274
 20
6.133505850991051
 30
0.0
 10
1.045653437069152
 20
6.16657422814079
 30
0.0
 10
1.045653437069152
 20
6.16657422814079
 30
0.0
 10
1.045653437069152
 20
6.16657422814079
 30
0.0
 10
1.20929162210219
 20
6.12633462062283
 30
0.0
 10
1.20929162210219
 20
6.12633462062283
 30
0.0
 10
1.20929162210219
 20
6.12633462062283
 30
0.0
 10
1.117384540225076
 20
6.26100031726206
 30
0.0
 10
1.117384540225076
 20
6.26100031726206
 30
0.0
  0
POLYLINE
  5
19B
330
1F
100
AcDbEntity
  8
Layer 3
370
     0
100
AcDb2dPolyline
 66
     1
 10
0.0
 20
0.0
 30
0.0
  0
VERTEX
  5
19C
330
19B
100
AcDbEntity
  8
Layer 3
370
     0
100
AcDbVertex
100
AcDb2dVertex
 10
1.852656145256333
 20
7.102170438257859
 30
0.0
  0
VERTEX
  5
19D
330
19B
100
AcDbEntity
  8
Layer 3
370
     0
100
AcDbVertex
100
AcDb2dVertex
 10
1.944523983345814
 20
7.228075446254618
 30
0.0
  0
VERTEX
  5
19E
330
19B
100
AcDbEntity
  8
Layer 3
370
     0
100
AcDbVertex
100
AcDb2dVertex
 10
1.780924107724495
 20
7.191348114822555
 30
0.0
  0
VERTEX
  5
19F
330
19B
100
AcDbEntity
  8
Layer 3
370
     0
100
AcDbVertex
100
AcDb2dVertex
 10
1.674332374266669
 20
7.306767854170125
 30
0.0
  0
VERTEX
  5
1A0
330
19B
100
AcDbEntity
  8
Layer 3
370
     0
100
AcDbVertex
100
AcDb2dVertex
 10
1.674332374266669
 20
7.158094834249406
 30
0.0
  0
VERTEX
  5
1A1
330
19B
100
AcDbEntity
  8
Layer 3
370
     0
100
AcDbVertex
100
AcDb2dVertex
 10
1.510745579907911
 20
7.103907463687316
 30
0.0
  0
VERTEX
  5
1A2
330
19B
100
AcDbEntity
  8
Layer 3
370
     0
100
AcDbVertex
100
AcDb2dVertex
 10
1.674332374266669
 20
7.044461013063432
 30
0.0
  0
VERTEX
  5
1A3
330
19B
100
AcDbEntity
  8
Layer 3
370
     0
100
AcDbVertex
100
AcDb2dVertex
 10
1.674332374266669
 20
6.897585467768307
 30
0.0
  0
VERTEX
  5
1A4
330
19B
100
AcDbEntity
  8
Layer 3
370
     0
100
AcDbVertex
100
AcDb2dVertex
 10
1.780924107724495
 20
7.007745238095342
 30
0.0
  0
VERTEX
  5
1A5
330
19B
100
AcDbEntity
  8
Layer 3
370
     0
100
AcDbVertex
100
AcDb2dVertex
 10
1.944523983345814
 20
6.967505630577395
 30
0.0
  0
VERTEX
  5
1A6
330
19B
100
AcDbEntity
  8
Layer 3
370
     0
100
AcDbVertex
100
AcDb2dVertex
 10
1.852656145256333
 20
7.102170438257859
 30
0.0
  0
SEQEND
  5
1A7
330
19B
100
AcDbEntity
  8
Layer 3
370
     0
  0
POLYLINE
  5
1A8
330
1F
100
AcDbEntity
  8
Layer 3
370
     0
100
AcDb2dPolyline
 66
     1
 10
0.0
 20
0.0
 30
0.0
  0
VERTEX
  5
1A9
330
1A8
100
AcDbEntity
  8
Layer 3
370
     0
100
AcDbVertex
100
AcDb2dVertex
 10
3.606235829839509
 20
5.907741437893037
 30
0.0
  0
VERTEX
  5
1AA
330
1A8
100
AcDbEntity
  8
Layer 3
370
     0
100
AcDbVertex
100
AcDb2dVertex
 10
3.497778147717503
 20
6.024923982474294
 30
0.0
  0
VERTEX
  5
1AB
330
1A8
100
AcDbEntity
  8
Layer 3
370
     0
100
AcDbVertex
100
AcDb2dVertex
 10
3.497778147717503
 20
5.876262519017536
 30
0.0
  0
VERTEX
  5
1AC
330
1A8
100
AcDbEntity
  8
Layer 3
370
     0
100
AcDbVertex
100
AcDb2dVertex
 10
3.334127815797804
 20
5.822075148455446
 30
0.0
  0
VERTEX
  5
1AD
330
1A8
100
AcDbEntity
  8
Layer 3
370
     0
100
AcDbVertex
100
AcDb2dVertex
 10
3.497778147717503
 20
5.760854336133914
 30
0.0
  0
VERTEX
  5
1AE
330
1A8
100
AcDbEntity
  8
Layer 3
370
     0
100
AcDbVertex
100
AcDb2dVertex
 10
3.497778147717503
 20
5.613967234374804
 30
0.0
  0
VERTEX
  5
1AF
330
1A8
100
AcDbEntity
  8
Layer 3
370
     0
100
AcDbVertex
100
AcDb2dVertex
 10
3.606235829839509
 20
5.725912922863472
 30
0.0
  0
VERTEX
  5
1B0
330
1A8
100
AcDbEntity
  8
Layer 3
370
     0
100
AcDbVertex
100
AcDb2dVertex
 10
3.767957609909988
 20
5.685673315345525
 30
0.0
  0
VERTEX
  5
1B1
330
1A8
100
AcDbEntity
  8
Layer 3
370
     0
100
AcDbVertex
100
AcDb2dVertex
 10
3.677914607945265
 20
5.820289230293825
 30
0.0
  0
VERTEX
  5
1B2
330
1A8
100
AcDbEntity
  8
Layer 3
370
     0
100
AcDbVertex
100
AcDb2dVertex
 10
3.767957609909988
 20
5.944506105593278
 30
0.0
  0
VERTEX
  5
1B3
330
1A8
100
AcDbEntity
  8
Layer 3
370
     0
100
AcDbVertex
100
AcDb2dVertex
 10
3.606235829839509
 20
5.907741437893037
 30
0.0
  0
SEQEND
  5
1B4
330
1A8
100
AcDbEntity
  8
Layer 3
370
     0
  0
SPLINE
  5
1B5
330
1F
100
AcDbEntity
  8
Layer 3
370
     0
100
AcDbSpline
210
0.0
220
0.0
230
1.0
 70
    11
 71
     3
 72
    23
 73
    19
 74
     0
 42
0.0000000001
 43
0.0000000001
 12
1.0
 22
0.0
 32
0.0
 13
1.0
 23
0.0
 33
0.0
 40
0.0
 40
0.0
 40
0.0
 40
0.0
 40
1.0
 40
1.0
 40
1.0
 40
2.0
 40
2.0
 40
2.0
 40
3.0
 40
3.0
 40
3.0
 40
4.0
 40
4.0
 40
4.0
 40
5.0
 40
5.0
 40
5.0
 40
6.0
 40
6.0
 40
6.0
 40
6.0
 10
2.876481714473837
 20
5.907741437893037
 30
0.0
 10
2.876481714473837
 20
5.907741437893037
 30
0.0
 10
2.768024032351819
 20
6.024923982474294
 30
0.0
 10
2.768024032351819
 20
6.024923982474294
 30
0.0
 10
2.768024032351819
 20
6.024923982474294
 30
0.0
 10
2.790687319708
 20
5.880882437726288
 30
0.0
 10
2.790687319708
 20
5.880882437726288
 30
0.0
 10
2.836207310230848
 20
5.860626623276074
 30
0.0
 10
2.916691646780022
 20
5.818995795288767
 30
0.0
 10
2.956047559517287
 20
5.806908622942615
 30
0.0
 10
2.956047559517287
 20
5.806908622942615
 30
0.0
 10
2.948161426955494
 20
5.820289230293825
 30
0.0
 10
2.948161426955494
 20
5.820289230293825
 30
0.0
 10
2.948161426955494
 20
5.820289230293825
 30
0.0
 10
3.038203494544303
 20
5.944506105593278
 30
0.0
 10
3.038203494544303
 20
5.944506105593278
 30
0.0
 10
3.038203494544303
 20
5.944506105593278
 30
0.0
 10
2.876481714473837
 20
5.907741437893037
 30
0.0
 10
2.876481714473837
 20
5.907741437893037
 30
0.0
  0
SPLINE
  5
1B6
330
1F
100
AcDbEntity
  8
Layer 3
370
     0
100
AcDbSpline
210
0.0
220
0.0
230
1.0
 70
    11
 71
     3
 72
    26
 73
    22
 74
     0
 42
0.0000000001
 43
0.0000000001
 12
1.0
 22
0.0
 32
0.0
 13
1.0
 23
0.0
 33
0.0
 40
0.0
 40
0.0
 40
0.0
 40
0.0
 40
1.0
 40
1.0
 40
1.0
 40
2.0
 40
2.0
 40
2.0
 40
3.0
 40
3.0
 40
3.0
 40
4.0
 40
4.0
 40
4.0
 40
5.0
 40
5.0
 40
5.0
 40
6.0
 40
6.0
 40
6.0
 40
7.0
 40
7.0
 40
7.0
 40
7.0
 10
1.20929162210219
 20
6.967505630577395
 30
0.0
 10
1.20929162210219
 20
6.967505630577395
 30
0.0
 10
1.117384540225076
 20
7.102170438257859
 30
0.0
 10
1.117384540225076
 20
7.102170438257859
 30
0.0
 10
1.117384540225076
 20
7.102170438257859
 30
0.0
 10
1.20929162210219
 20
7.228075446254618
 30
0.0
 10
1.20929162210219
 20
7.228075446254618
 30
0.0
 10
1.20929162210219
 20
7.228075446254618
 30
0.0
 10
1.045653437069152
 20
7.191348114822555
 30
0.0
 10
1.045653437069152
 20
7.191348114822555
 30
0.0
 10
1.045653437069152
 20
7.191348114822555
 30
0.0
 10
1.003009455554029
 20
7.23288026838678
 30
0.0
 10
1.003009455554029
 20
7.23288026838678
 30
0.0
 10
1.00067725331774
 20
7.197027672380815
 30
0.0
 10
1.000418431194564
 20
7.095382349117939
 30
0.0
 10
1.000729578367921
 20
6.961296253594393
 30
0.0
 10
1.000729578367921
 20
6.961296253594393
 30
0.0
 10
1.045653437069152
 20
7.007745238095342
 30
0.0
 10
1.045653437069152
 20
7.007745238095342
 30
0.0
 10
1.045653437069152
 20
7.007745238095342
 30
0.0
 10
1.20929162210219
 20
6.967505630577395
 30
0.0
 10
1.20929162210219
 20
6.967505630577395
 30
0.0
  0
POLYLINE
  5
1B7
330
1F
100
AcDbEntity
  8
Layer 3
370
     0
100
AcDb2dPolyline
 66
     1
 10
0.0
 20
0.0
 30
0.0
  0
VERTEX
  5
1B8
330
1B7
100
AcDbEntity
  8
Layer 3
370
     0
100
AcDbVertex
100
AcDb2dVertex
 10
2.211064051423578
 20
6.678979839615749
 30
0.0
  0
VERTEX
  5
1B9
330
1B7
100
AcDbEntity
  8
Layer 3
370
     0
100
AcDbVertex
100
AcDb2dVertex
 10
2.301158444062543
 20
6.804884847612533
 30
0.0
  0
VERTEX
  5
1BA
330
1B7
100
AcDbEntity
  8
Layer 3
370
     0
100
AcDbVertex
100
AcDb2dVertex
 10
2.139384338941909
 20
6.768168183685652
 30
0.0
  0
VERTEX
  5
1BB
330
1B7
100
AcDbEntity
  8
Layer 3
370
     0
100
AcDbVertex
100
AcDb2dVertex
 10
2.030927591195791
 20
6.883576366569273
 30
0.0
  0
VERTEX
  5
1BC
330
1B7
100
AcDbEntity
  8
Layer 3
370
     0
100
AcDbVertex
100
AcDb2dVertex
 10
2.030927591195791
 20
6.734903346648555
 30
0.0
  0
VERTEX
  5
1BD
330
1B7
100
AcDbEntity
  8
Layer 3
370
     0
100
AcDbVertex
100
AcDb2dVertex
 10
1.867328649950372
 20
6.680716865045231
 30
0.0
  0
VERTEX
  5
1BE
330
1B7
100
AcDbEntity
  8
Layer 3
370
     0
100
AcDbVertex
100
AcDb2dVertex
 10
2.030927591195791
 20
6.619495163764933
 30
0.0
  0
VERTEX
  5
1BF
330
1B7
100
AcDbEntity
  8
Layer 3
370
     0
100
AcDbVertex
100
AcDb2dVertex
 10
2.030927591195791
 20
6.472608062005848
 30
0.0
  0
VERTEX
  5
1C0
330
1B7
100
AcDbEntity
  8
Layer 3
370
     0
100
AcDbVertex
100
AcDb2dVertex
 10
2.139384338941909
 20
6.584553750494479
 30
0.0
  0
VERTEX
  5
1C1
330
1B7
100
AcDbEntity
  8
Layer 3
370
     0
100
AcDbVertex
100
AcDb2dVertex
 10
2.301158444062543
 20
6.544326588399258
 30
0.0
  0
VERTEX
  5
1C2
330
1B7
100
AcDbEntity
  8
Layer 3
370
     0
100
AcDbVertex
100
AcDb2dVertex
 10
2.211064051423578
 20
6.678979839615749
 30
0.0
  0
SEQEND
  5
1C3
330
1B7
100
AcDbEntity
  8
Layer 3
370
     0
  0
POLYLINE
  5
1C4
330
1F
100
AcDbEntity
  8
Layer 3
370
     0
100
AcDb2dPolyline
 66
     1
 10
0.0
 20
0.0
 30
0.0
  0
VERTEX
  5
1C5
330
1C4
100
AcDbEntity
  8
Layer 3
370
     0
100
AcDbVertex
100
AcDb2dVertex
 10
2.529042446949095
 20
6.350225997600141
 30
0.0
  0
VERTEX
  5
1C6
330
1C4
100
AcDbEntity
  8
Layer 3
370
     0
100
AcDbVertex
100
AcDb2dVertex
 10
2.422461926002054
 20
6.465634180483751
 30
0.0
  0
VERTEX
  5
1C7
330
1C4
100
AcDbEntity
  8
Layer 3
370
     0
100
AcDbVertex
100
AcDb2dVertex
 10
2.422461926002054
 20
6.316972717026992
 30
0.0
  0
VERTEX
  5
1C8
330
1C4
100
AcDbEntity
  8
Layer 3
370
     0
100
AcDbVertex
100
AcDb2dVertex
 10
2.258811594082355
 20
6.262774678959708
 30
0.0
  0
VERTEX
  5
1C9
330
1C4
100
AcDbEntity
  8
Layer 3
370
     0
100
AcDbVertex
100
AcDb2dVertex
 10
2.422461926002054
 20
6.20329000310888
 30
0.0
  0
VERTEX
  5
1CA
330
1C4
100
AcDbEntity
  8
Layer 3
370
     0
100
AcDbVertex
100
AcDb2dVertex
 10
2.422461926002054
 20
6.054677432384286
 30
0.0
  0
VERTEX
  5
1CB
330
1C4
100
AcDbEntity
  8
Layer 3
370
     0
100
AcDbVertex
100
AcDb2dVertex
 10
2.529042446949095
 20
6.16657422814079
 30
0.0
  0
VERTEX
  5
1CC
330
1C4
100
AcDbEntity
  8
Layer 3
370
     0
100
AcDbVertex
100
AcDb2dVertex
 10
2.692641388194526
 20
6.12633462062283
 30
0.0
  0
VERTEX
  5
1CD
330
1C4
100
AcDbEntity
  8
Layer 3
370
     0
100
AcDbVertex
100
AcDb2dVertex
 10
2.600734306317412
 20
6.26100031726206
 30
0.0
  0
VERTEX
  5
1CE
330
1C4
100
AcDbEntity
  8
Layer 3
370
     0
100
AcDbVertex
100
AcDb2dVertex
 10
2.692641388194526
 20
6.386893768794872
 30
0.0
  0
VERTEX
  5
1CF
330
1C4
100
AcDbEntity
  8
Layer 3
370
     0
100
AcDbVertex
100
AcDb2dVertex
 10
2.529042446949095
 20
6.350225997600141
 30
0.0
  0
SEQEND
  5
1D0
330
1C4
100
AcDbEntity
  8
Layer 3
370
     0
  0
HATCH
  5
1D1
330
1F
100
AcDbEntity
  8
Layer 3
 62
   254
420
 15066597
100
AcDbHatch
 10
0.0
 20
0.0
 30
0.0
210
0.0
220
0.0
230
1.0
  2
SOLID
 70
     1
 71
     0
 91
       42
 92
        1
 93
        1
 72
     4
 94
        3
 73
     0
 74
     1
 95
       14
 96
       10
 40
0.0
 40
0.0
 40
0.0
 40
0.0
 40
1.0
 40
1.0
 40
1.0
 40
2.0
 40
2.0
 40
2.0
 40
3.0
 40
3.0
 40
3.0
 40
3.0
 10
2.856642111075214
 20
9.949407581437084
 10
2.856642111075214
 20
9.949407581437084
 10
2.768024032351819
 20
9.84953661987188
 10
2.768024032351819
 20
9.84953661987188
 10
2.768024032351819
 20
9.84953661987188
 10
2.768024032351819
 20
9.903155056823493
 10
2.768024032351819
 20
9.903155056823493
 10
2.801604567676248
 20
9.919665687991065
 10
2.822803688003495
 20
9.933427658653057
 10
2.856642111075214
 20
9.949407581437084
 97
        0
 97
        0
 92
        1
 93
       10
 72
     1
 10
2.030927591195791
 20
8.560681530385775
 11
2.030927591195791
 21
8.412020066929017
 72
     1
 10
2.030927591195791
 20
8.412020066929017
 11
1.867328649950372
 21
8.357821139902954
 72
     1
 10
1.867328649950372
 20
8.357821139902954
 11
2.030927591195791
 21
8.296599438622682
 72
     1
 10
2.030927591195791
 20
8.296599438622682
 11
2.030927591195791
 21
8.14971233686357
 72
     1
 10
2.030927591195791
 20
8.14971233686357
 11
2.139384338941909
 21
8.261620689084035
 72
     1
 10
2.139384338941909
 20
8.261620689084035
 11
2.301158444062543
 21
8.219644945095386
 72
     1
 10
2.301158444062543
 20
8.219644945095386
 11
2.211064051423578
 21
8.354309752775837
 72
     1
 10
2.211064051423578
 20
8.354309752775837
 11
2.301158444062543
 21
8.48021476077262
 72
     1
 10
2.301158444062543
 20
8.48021476077262
 11
2.139384338941909
 21
8.443486540381778
 72
     1
 10
2.139384338941909
 20
8.443486540381778
 11
2.030927591195791
 21
8.560681530385775
 97
        0
 92
        1
 93
       10
 72
     1
 10
2.529042446949095
 20
8.891220401604237
 11
2.422461926002054
 21
9.006628584487858
 72
     1
 10
2.422461926002054
 20
9.006628584487858
 11
2.422461926002054
 21
8.857967121031113
 72
     1
 10
2.422461926002054
 20
8.857967121031113
 11
2.258811594082355
 21
8.80376819400505
 72
     1
 10
2.258811594082355
 20
8.80376819400505
 11
2.422461926002054
 21
8.744283518154235
 72
     1
 10
2.422461926002054
 20
8.744283518154235
 11
2.422461926002054
 21
8.597396416395112
 72
     1
 10
2.422461926002054
 20
8.597396416395112
 11
2.529042446949095
 21
8.709293212151604
 72
     1
 10
2.529042446949095
 20
8.709293212151604
 11
2.692641388194526
 21
8.66732902462694
 72
     1
 10
2.692641388194526
 20
8.66732902462694
 11
2.600734306317412
 21
8.801993832307378
 72
     1
 10
2.600734306317412
 20
8.801993832307378
 11
2.692641388194526
 21
8.927948621995066
 72
     1
 10
2.692641388194526
 20
8.927948621995066
 11
2.529042446949095
 21
8.891220401604237
 97
        0
 92
        1
 93
       10
 72
     1
 10
2.529042446949095
 20
7.843678502998513
 11
2.692641388194526
 21
7.803439784439345
 72
     1
 10
2.692641388194526
 20
7.803439784439345
 11
2.600734306317412
 21
7.938104592119796
 72
     1
 10
2.600734306317412
 20
7.938104592119796
 11
2.692641388194526
 21
8.062272574687098
 72
     1
 10
2.692641388194526
 20
8.062272574687098
 11
2.529042446949095
 21
8.025544354296269
 72
     1
 10
2.529042446949095
 20
8.025544354296269
 11
2.422461926002054
 21
8.142689562609348
 72
     1
 10
2.422461926002054
 20
8.142689562609348
 11
2.422461926002054
 21
7.994077880843506
 72
     1
 10
2.422461926002054
 20
7.994077880843506
 11
2.258811594082355
 21
7.939878953817444
 72
     1
 10
2.258811594082355
 20
7.939878953817444
 11
2.422461926002054
 21
7.878657252537159
 72
     1
 10
2.422461926002054
 20
7.878657252537159
 11
2.422461926002054
 21
7.731732814509869
 72
     1
 10
2.422461926002054
 20
7.731732814509869
 11
2.529042446949095
 21
7.843678502998513
 97
        0
 92
        1
 93
        1
 72
     4
 94
        3
 73
     0
 74
     1
 95
       41
 96
       37
 40
0.0
 40
0.0
 40
0.0
 40
0.0
 40
1.0
 40
1.0
 40
1.0
 40
2.0
 40
2.0
 40
2.0
 40
3.0
 40
3.0
 40
3.0
 40
4.0
 40
4.0
 40
4.0
 40
5.0
 40
5.0
 40
5.0
 40
6.0
 40
6.0
 40
6.0
 40
7.0
 40
7.0
 40
7.0
 40
8.0
 40
8.0
 40
8.0
 40
9.0
 40
9.0
 40
9.0
 40
10.0
 40
10.0
 40
10.0
 40
11.0
 40
11.0
 40
11.0
 40
12.0
 40
12.0
 40
12.0
 40
12.0
 10
2.030927591195791
 20
9.015338602480622
 10
2.030927591195791
 20
9.015338602480622
 10
2.139384338941909
 20
9.127285179928043
 10
2.139384338941909
 20
9.127285179928043
 10
2.139384338941909
 20
9.127285179928043
 10
2.301158444062543
 20
9.085320992403366
 10
2.301158444062543
 20
9.085320992403366
 10
2.301158444062543
 20
9.085320992403366
 10
2.211064051423578
 20
9.21998580008383
 10
2.211064051423578
 20
9.21998580008383
 10
2.211064051423578
 20
9.21998580008383
 10
2.301158444062543
 20
9.345878362657862
 10
2.301158444062543
 20
9.345878362657862
 10
2.301158444062543
 20
9.345878362657862
 10
2.139384338941909
 20
9.309113694957595
 10
2.139384338941909
 20
9.309113694957595
 10
2.139384338941909
 20
9.309113694957595
 10
2.060569732118817
 20
9.393005622697538
 10
2.060569732118817
 20
9.393005622697538
 10
2.060569732118817
 20
9.393005622697538
 10
2.030927591195791
 20
9.363793548676274
 10
2.030927591195791
 20
9.363793548676274
 10
2.030927591195791
 20
9.363793548676274
 10
2.030927591195791
 20
9.275959088807527
 10
2.030927591195791
 20
9.275959088807527
 10
2.030927591195791
 20
9.275959088807527
 10
1.907693688655286
 20
9.235091876400537
 10
1.907693688655286
 20
9.235091876400537
 10
1.901373570095087
 20
9.22801932045541
 10
1.895093629698421
 20
9.220946764510245
 10
1.888824901812515
 20
9.21387509752387
 10
1.888824901812515
 20
9.21387509752387
 10
2.030927591195791
 20
9.162275485930662
 10
2.030927591195791
 20
9.162275485930662
 10
2.030927591195791
 20
9.162275485930662
 10
2.030927591195791
 20
9.015338602480622
 10
2.030927591195791
 20
9.015338602480622
 97
        0
 97
        0
 92
        1
 93
       10
 72
     1
 10
2.768024032351819
 20
9.162275485930662
 11
2.768024032351819
 21
9.015338602480622
 72
     1
 10
2.768024032351819
 20
9.015338602480622
 11
2.876481714473837
 21
9.127285179928043
 72
     1
 10
2.876481714473837
 20
9.127285179928043
 11
3.038203494544303
 21
9.085320992403366
 72
     1
 10
3.038203494544303
 20
9.085320992403366
 11
2.948161426955494
 21
9.21998580008383
 72
     1
 10
2.948161426955494
 20
9.21998580008383
 11
3.038203494544303
 21
9.345878362657862
 72
     1
 10
3.038203494544303
 20
9.345878362657862
 11
2.876481714473837
 21
9.309113694957595
 72
     1
 10
2.876481714473837
 20
9.309113694957595
 11
2.768024032351819
 21
9.42457077057337
 72
     1
 10
2.768024032351819
 20
9.42457077057337
 11
2.768024032351819
 21
9.275959088807527
 72
     1
 10
2.768024032351819
 20
9.275959088807527
 11
2.6044250911064
 21
9.22171038009056
 72
     1
 10
2.6044250911064
 20
9.22171038009056
 11
2.768024032351819
 21
9.162275485930662
 97
        0
 92
        1
 93
       13
 72
     1
 10
1.674332374266669
 20
8.597396416395112
 11
1.780924107724495
 21
8.709293212151604
 72
     1
 10
1.780924107724495
 20
8.709293212151604
 11
1.944523983345814
 21
8.66732902462694
 72
     1
 10
1.944523983345814
 20
8.66732902462694
 11
1.852656145256333
 21
8.801993832307378
 72
     1
 10
1.852656145256333
 20
8.801993832307378
 11
1.944523983345814
 21
8.927948621995066
 72
     1
 10
1.944523983345814
 20
8.927948621995066
 11
1.780924107724495
 21
8.891220401604237
 72
     1
 10
1.780924107724495
 20
8.891220401604237
 11
1.699169954332736
 21
8.97973313701171
 72
     1
 10
1.699169954332736
 20
8.97973313701171
 11
1.674332374266669
 21
8.945604232053698
 72
     1
 10
1.674332374266669
 20
8.945604232053698
 11
1.674332374266669
 21
8.857967121031113
 72
     1
 10
1.674332374266669
 20
8.857967121031113
 11
1.595724264516573
 21
8.831933074599558
 72
     1
 10
1.595724264516573
 20
8.831933074599558
 11
1.595672873842305
 21
8.831933074599558
 72
     1
 10
1.595672873842305
 20
8.831933074599558
 11
1.564670281614781
 21
8.784140873402634
 72
     1
 10
1.564670281614781
 20
8.784140873402634
 11
1.674332374266669
 21
8.744283518154235
 72
     1
 10
1.674332374266669
 20
8.744283518154235
 11
1.674332374266669
 21
8.597396416395112
 97
        0
 92
        1
 93
        8
 72
     1
 10
1.552975632901116
 20
8.219644945095386
 11
1.462933565312306
 21
8.354309752775837
 72
     1
 10
1.462933565312306
 20
8.354309752775837
 11
1.552975632901116
 21
8.48021476077262
 72
     1
 10
1.552975632901116
 20
8.48021476077262
 11
1.391254787206549
 21
8.443486540381778
 72
     1
 10
1.391254787206549
 20
8.443486540381778
 11
1.378861225322718
 21
8.456916040465153
 72
     1
 10
1.378861225322718
 20
8.456916040465153
 11
1.282797105084531
 21
8.250594933504898
 72
     1
 10
1.282797105084531
 20
8.250594933504898
 11
1.282797105084531
 21
8.14971233686357
 72
     1
 10
1.282797105084531
 20
8.14971233686357
 11
1.391254787206549
 21
8.261620689084035
 72
     1
 10
1.391254787206549
 20
8.261620689084035
 11
1.552975632901116
 21
8.219644945095386
 97
        0
 92
        1
 93
       11
 72
     1
 10
2.422461926002054
 20
9.43155709751818
 11
2.529042446949095
 21
9.543490340584084
 72
     1
 10
2.529042446949095
 20
9.543490340584084
 11
2.692641388194526
 21
9.503263178488888
 72
     1
 10
2.692641388194526
 20
9.503263178488888
 11
2.600734306317412
 21
9.63792798616934
 72
     1
 10
2.600734306317412
 20
9.63792798616934
 11
2.692641388194526
 21
9.763820548743372
 72
     1
 10
2.692641388194526
 20
9.763820548743372
 11
2.535724168981031
 21
9.728830242740766
 72
     1
 10
2.535724168981031
 20
9.728830242740766
 11
2.507596651385332
 21
9.750353712391831
 72
     1
 10
2.507596651385332
 20
9.750353712391831
 11
2.433133433109649
 21
9.704054072963622
 72
     1
 10
2.433133433109649
 20
9.704054072963622
 11
2.431359053283257
 21
9.68060689654217
 72
     1
 10
2.431359053283257
 20
9.68060689654217
 11
2.320635509613567
 21
9.617180577521315
 72
     1
 10
2.320635509613567
 20
9.617180577521315
 11
2.422461926002054
 21
9.580218560974938
 72
     1
 10
2.422461926002054
 20
9.580218560974938
 11
2.422461926002054
 21
9.43155709751818
 97
        0
 92
        1
 93
       10
 72
     1
 10
2.876481714473837
 20
7.609340082598982
 11
2.768024032351819
 21
7.724747376523825
 72
     1
 10
2.768024032351819
 20
7.724747376523825
 11
2.768024032351819
 21
7.57608591306708
 72
     1
 10
2.768024032351819
 20
7.57608591306708
 11
2.6044250911064
 21
7.521886986041017
 72
     1
 10
2.6044250911064
 20
7.521886986041017
 11
2.768024032351819
 21
7.462403199148967
 72
     1
 10
2.768024032351819
 20
7.462403199148967
 11
2.768024032351819
 21
7.31379062842436
 72
     1
 10
2.768024032351819
 20
7.31379062842436
 11
2.876481714473837
 21
7.425736316913016
 72
     1
 10
2.876481714473837
 20
7.425736316913016
 11
3.038203494544303
 21
7.385447816662918
 72
     1
 10
3.038203494544303
 20
7.385447816662918
 11
2.948161426955494
 21
7.520162406034286
 72
     1
 10
2.948161426955494
 20
7.520162406034286
 11
3.038203494544303
 21
7.646067414031045
 72
     1
 10
3.038203494544303
 20
7.646067414031045
 11
2.876481714473837
 21
7.609340082598982
 97
        0
 92
        1
 93
        1
 72
     4
 94
        3
 73
     0
 74
     1
 95
       32
 96
       28
 40
0.0
 40
0.0
 40
0.0
 40
0.0
 40
1.0
 40
1.0
 40
1.0
 40
2.0
 40
2.0
 40
2.0
 40
3.0
 40
3.0
 40
3.0
 40
4.0
 40
4.0
 40
4.0
 40
5.0
 40
5.0
 40
5.0
 40
6.0
 40
6.0
 40
6.0
 40
7.0
 40
7.0
 40
7.0
 40
8.0
 40
8.0
 40
8.0
 40
9.0
 40
9.0
 40
9.0
 40
9.0
 10
3.341522466638316
 20
0.406356996216295
 10
3.341522466638316
 20
0.406356996216295
 10
3.341522466638316
 20
0.5215313829443807
 10
3.341522466638316
 20
0.5215313829443807
 10
3.317849118938625
 20
0.7943608289684663
 10
3.274647315013617
 20
1.431191332094184
 10
3.254005082720369
 20
1.817272347034683
 10
3.222031673936966
 20
2.415639382257672
 10
3.216721615720303
 20
2.624511800877346
 10
3.216773006394583
 20
3.288387096552039
 10
3.216773006394583
 20
3.924973136017039
 10
3.220360075459123
 20
4.053810818984023
 10
3.246467472367764
 20
4.359856209313041
 10
3.250870251589479
 20
4.411689617061787
 10
3.253344478961922
 20
4.455094806746754
 10
3.251881246308888
 20
4.456352683401165
 10
3.250767470240905
 20
4.457362540559743
 10
2.989640241728365
 20
4.604053182431471
 10
2.666547072548421
 20
4.785400770768446
 10
2.666547072548421
 20
4.785400770768446
 10
2.666547072548421
 20
0.8918653822975859
 10
2.666547072548421
 20
0.8918653822975859
 10
2.868686216373956
 20
0.7261154644751412
 10
3.061876842244007
 20
0.5856359775039487
 10
3.278791272112155
 20
0.4457209793493904
 10
3.310001295788563
 20
0.4256145099718904
 10
3.33322053680283
 20
0.4111253710390327
 10
3.341522466638316
 20
0.406356996216295
 97
        0
 97
        0
 92
        1
 93
       10
 72
     1
 10
3.267964658605807
 20
8.025544354296269
 11
3.159507910859689
 21
8.142689562609348
 72
     1
 10
3.159507910859689
 20
8.142689562609348
 11
3.159507910859689
 21
7.994077880843506
 72
     1
 10
3.159507910859689
 20
7.994077880843506
 11
2.99590896961427
 21
7.939878953817444
 72
     1
 10
2.99590896961427
 20
7.939878953817444
 11
3.159507910859689
 21
7.878657252537159
 72
     1
 10
3.159507910859689
 20
7.878657252537159
 11
3.159507910859689
 21
7.731732814509869
 72
     1
 10
3.159507910859689
 20
7.731732814509869
 11
3.267964658605807
 21
7.843678502998513
 72
     1
 10
3.267964658605807
 20
7.843678502998513
 11
3.429738763726454
 21
7.803439784439345
 72
     1
 10
3.429738763726454
 20
7.803439784439345
 11
3.339695761761757
 21
7.938104592119796
 72
     1
 10
3.339695761761757
 20
7.938104592119796
 11
3.429738763726454
 21
8.062272574687098
 72
     1
 10
3.429738763726454
 20
8.062272574687098
 11
3.267964658605807
 21
8.025544354296269
 97
        0
 92
        1
 93
       10
 72
     1
 10
2.876481714473837
 20
8.443486540381778
 11
2.768024032351819
 21
8.560681530385775
 72
     1
 10
2.768024032351819
 20
8.560681530385775
 11
2.768024032351819
 21
8.412020066929017
 72
     1
 10
2.768024032351819
 20
8.412020066929017
 11
2.6044250911064
 21
8.357821139902954
 72
     1
 10
2.6044250911064
 20
8.357821139902954
 11
2.768024032351819
 21
8.296599438622682
 72
     1
 10
2.768024032351819
 20
8.296599438622682
 11
2.768024032351819
 21
8.14971233686357
 72
     1
 10
2.768024032351819
 20
8.14971233686357
 11
2.876481714473837
 21
8.261620689084035
 72
     1
 10
2.876481714473837
 20
8.261620689084035
 11
3.038203494544303
 21
8.219644945095386
 72
     1
 10
3.038203494544303
 20
8.219644945095386
 11
2.948161426955494
 21
8.354309752775837
 72
     1
 10
2.948161426955494
 20
8.354309752775837
 11
3.038203494544303
 21
8.48021476077262
 72
     1
 10
3.038203494544303
 20
8.48021476077262
 11
2.876481714473837
 21
8.443486540381778
 97
        0
 92
        1
 93
       10
 72
     1
 10
3.159507910859689
 20
9.580218560974938
 11
3.159507910859689
 21
9.43155709751818
 72
     1
 10
3.159507910859689
 20
9.43155709751818
 11
3.267964658605807
 21
9.543490340584084
 72
     1
 10
3.267964658605807
 20
9.543490340584084
 11
3.429738763726454
 21
9.503263178488888
 72
     1
 10
3.429738763726454
 20
9.503263178488888
 11
3.339695761761757
 21
9.63792798616934
 72
     1
 10
3.339695761761757
 20
9.63792798616934
 11
3.429738763726454
 21
9.763820548743372
 72
     1
 10
3.429738763726454
 20
9.763820548743372
 11
3.267964658605807
 21
9.727105662734049
 72
     1
 10
3.267964658605807
 20
9.727105662734049
 11
3.159507910859689
 21
9.842512956658892
 72
     1
 10
3.159507910859689
 20
9.842512956658892
 11
3.159507910859689
 21
9.693852382160886
 72
     1
 10
3.159507910859689
 20
9.693852382160886
 11
2.99590896961427
 21
9.639652566176057
 72
     1
 10
2.99590896961427
 20
9.639652566176057
 11
3.159507910859689
 21
9.580218560974938
 97
        0
 92
        1
 93
       10
 72
     1
 10
3.267964658605807
 20
7.191348114822555
 11
3.159507910859689
 21
7.306767854170125
 72
     1
 10
3.159507910859689
 20
7.306767854170125
 11
3.159507910859689
 21
7.158094834249406
 72
     1
 10
3.159507910859689
 20
7.158094834249406
 11
2.99590896961427
 21
7.103907463687316
 72
     1
 10
2.99590896961427
 20
7.103907463687316
 11
3.159507910859689
 21
7.044461013063432
 72
     1
 10
3.159507910859689
 20
7.044461013063432
 11
3.159507910859689
 21
6.897585467768307
 72
     1
 10
3.159507910859689
 20
6.897585467768307
 11
3.267964658605807
 21
7.007745238095342
 72
     1
 10
3.267964658605807
 20
7.007745238095342
 11
3.429738763726454
 21
6.967505630577395
 72
     1
 10
3.429738763726454
 20
6.967505630577395
 11
3.339695761761757
 21
7.102170438257859
 72
     1
 10
3.339695761761757
 20
7.102170438257859
 11
3.429738763726454
 21
7.228075446254618
 72
     1
 10
3.429738763726454
 20
7.228075446254618
 11
3.267964658605807
 21
7.191348114822555
 97
        0
 92
        1
 93
       10
 72
     1
 10
1.282797105084531
 20
7.31379062842436
 11
1.391254787206549
 21
7.425736316913016
 72
     1
 10
1.391254787206549
 20
7.425736316913016
 11
1.552975632901116
 21
7.385447816662918
 72
     1
 10
1.552975632901116
 20
7.385447816662918
 11
1.462933565312306
 21
7.520162406034286
 72
     1
 10
1.462933565312306
 20
7.520162406034286
 11
1.552975632901116
 21
7.646067414031045
 72
     1
 10
1.552975632901116
 20
7.646067414031045
 11
1.391254787206549
 21
7.609340082598982
 72
     1
 10
1.391254787206549
 20
7.609340082598982
 11
1.282797105084531
 21
7.724747376523825
 72
     1
 10
1.282797105084531
 20
7.724747376523825
 11
1.282797105084531
 21
7.57608591306708
 72
     1
 10
1.282797105084531
 20
7.57608591306708
 11
1.119197229463212
 21
7.521886986041017
 72
     1
 10
1.119197229463212
 20
7.521886986041017
 11
1.282797105084531
 21
7.462403199148967
 72
     1
 10
1.282797105084531
 20
7.462403199148967
 11
1.282797105084531
 21
7.31379062842436
 97
        0
 92
        1
 93
       10
 72
     1
 10
3.267964658605807
 20
8.891220401604237
 11
3.159507910859689
 21
9.006628584487858
 72
     1
 10
3.159507910859689
 20
9.006628584487858
 11
3.159507910859689
 21
8.857967121031113
 72
     1
 10
3.159507910859689
 20
8.857967121031113
 11
2.99590896961427
 21
8.80376819400505
 72
     1
 10
2.99590896961427
 20
8.80376819400505
 11
3.159507910859689
 21
8.744283518154235
 72
     1
 10
3.159507910859689
 20
8.744283518154235
 11
3.159507910859689
 21
8.597396416395112
 72
     1
 10
3.159507910859689
 20
8.597396416395112
 11
3.267964658605807
 21
8.709293212151604
 72
     1
 10
3.267964658605807
 20
8.709293212151604
 11
3.429738763726454
 21
8.66732902462694
 72
     1
 10
3.429738763726454
 20
8.66732902462694
 11
3.339695761761757
 21
8.801993832307378
 72
     1
 10
3.339695761761757
 20
8.801993832307378
 11
3.429738763726454
 21
8.927948621995066
 72
     1
 10
3.429738763726454
 20
8.927948621995066
 11
3.267964658605807
 21
8.891220401604237
 97
        0
 92
        1
 93
       10
 72
     1
 10
2.139384338941909
 20
7.425736316913016
 11
2.301158444062543
 21
7.385447816662918
 72
     1
 10
2.301158444062543
 20
7.385447816662918
 11
2.211064051423578
 21
7.520162406034286
 72
     1
 10
2.211064051423578
 20
7.520162406034286
 11
2.301158444062543
 21
7.646067414031045
 72
     1
 10
2.301158444062543
 20
7.646067414031045
 11
2.139384338941909
 21
7.609340082598982
 72
     1
 10
2.139384338941909
 20
7.609340082598982
 11
2.030927591195791
 21
7.724747376523825
 72
     1
 10
2.030927591195791
 20
7.724747376523825
 11
2.030927591195791
 21
7.57608591306708
 72
     1
 10
2.030927591195791
 20
7.57608591306708
 11
1.867328649950372
 21
7.521886986041017
 72
     1
 10
1.867328649950372
 20
7.521886986041017
 11
2.030927591195791
 21
7.462403199148967
 72
     1
 10
2.030927591195791
 20
7.462403199148967
 11
2.030927591195791
 21
7.31379062842436
 72
     1
 10
2.030927591195791
 20
7.31379062842436
 11
2.139384338941909
 21
7.425736316913016
 97
        0
 92
        1
 93
       10
 72
     1
 10
1.780924107724495
 20
7.843678502998513
 11
1.944523983345814
 21
7.803439784439345
 72
     1
 10
1.944523983345814
 20
7.803439784439345
 11
1.852656145256333
 21
7.938104592119796
 72
     1
 10
1.852656145256333
 20
7.938104592119796
 11
1.944523983345814
 21
8.062272574687098
 72
     1
 10
1.944523983345814
 20
8.062272574687098
 11
1.780924107724495
 21
8.025544354296269
 72
     1
 10
1.780924107724495
 20
8.025544354296269
 11
1.674332374266669
 21
8.142689562609348
 72
     1
 10
1.674332374266669
 20
8.142689562609348
 11
1.674332374266669
 21
7.994077880843506
 72
     1
 10
1.674332374266669
 20
7.994077880843506
 11
1.510745579907911
 21
7.939878953817444
 72
     1
 10
1.510745579907911
 20
7.939878953817444
 11
1.674332374266669
 21
7.878657252537159
 72
     1
 10
1.674332374266669
 20
7.878657252537159
 11
1.674332374266669
 21
7.731732814509869
 72
     1
 10
1.674332374266669
 20
7.731732814509869
 11
1.780924107724495
 21
7.843678502998513
 97
        0
 92
        1
 93
       10
 72
     1
 10
2.876481714473837
 20
6.768168183685652
 11
2.768024032351819
 21
6.883576366569273
 72
     1
 10
2.768024032351819
 20
6.883576366569273
 11
2.768024032351819
 21
6.734903346648555
 72
     1
 10
2.768024032351819
 20
6.734903346648555
 11
2.6044250911064
 21
6.680716865045231
 72
     1
 10
2.6044250911064
 20
6.680716865045231
 11
2.768024032351819
 21
6.619495163764933
 72
     1
 10
2.768024032351819
 20
6.619495163764933
 11
2.768024032351819
 21
6.472608062005848
 72
     1
 10
2.768024032351819
 20
6.472608062005848
 11
2.876481714473837
 21
6.584553750494479
 72
     1
 10
2.876481714473837
 20
6.584553750494479
 11
3.038203494544303
 21
6.544326588399258
 72
     1
 10
3.038203494544303
 20
6.544326588399258
 11
2.948161426955494
 21
6.678979839615749
 72
     1
 10
2.948161426955494
 20
6.678979839615749
 11
3.038203494544303
 21
6.804884847612533
 72
     1
 10
3.038203494544303
 20
6.804884847612533
 11
2.876481714473837
 21
6.768168183685652
 97
        0
 92
        1
 93
       10
 72
     1
 10
2.529042446949095
 20
7.007745238095342
 11
2.692641388194526
 21
6.967505630577395
 72
     1
 10
2.692641388194526
 20
6.967505630577395
 11
2.600734306317412
 21
7.102170438257859
 72
     1
 10
2.600734306317412
 20
7.102170438257859
 11
2.692641388194526
 21
7.228075446254618
 72
     1
 10
2.692641388194526
 20
7.228075446254618
 11
2.529042446949095
 21
7.191348114822555
 72
     1
 10
2.529042446949095
 20
7.191348114822555
 11
2.422461926002054
 21
7.306767854170125
 72
     1
 10
2.422461926002054
 20
7.306767854170125
 11
2.422461926002054
 21
7.158094834249406
 72
     1
 10
2.422461926002054
 20
7.158094834249406
 11
2.258811594082355
 21
7.103907463687316
 72
     1
 10
2.258811594082355
 20
7.103907463687316
 11
2.422461926002054
 21
7.044461013063432
 72
     1
 10
2.422461926002054
 20
7.044461013063432
 11
2.422461926002054
 21
6.897585467768307
 72
     1
 10
2.422461926002054
 20
6.897585467768307
 11
2.529042446949095
 21
7.007745238095342
 97
        0
 92
        1
 93
        3
 72
     1
 10
2.98205217507738
 20
10.00513462858252
 11
2.882645792259394
 21
9.959892850086273
 72
     1
 10
2.882645792259394
 20
9.959892850086273
 11
3.038203494544303
 21
9.921206253533164
 72
     1
 10
3.038203494544303
 20
9.921206253533164
 11
2.98205217507738
 21
10.00513462858252
 97
        0
 92
        1
 93
        1
 72
     4
 94
        3
 73
     0
 74
     1
 95
       38
 96
       34
 40
0.0
 40
0.0
 40
0.0
 40
0.0
 40
1.0
 40
1.0
 40
1.0
 40
2.0
 40
2.0
 40
2.0
 40
3.0
 40
3.0
 40
3.0
 40
4.0
 40
4.0
 40
4.0
 40
5.0
 40
5.0
 40
5.0
 40
6.0
 40
6.0
 40
6.0
 40
7.0
 40
7.0
 40
7.0
 40
8.0
 40
8.0
 40
8.0
 40
9.0
 40
9.0
 40
9.0
 40
10.0
 40
10.0
 40
10.0
 40
11.0
 40
11.0
 40
11.0
 40
11.0
 10
3.606235829839509
 20
10.14509763051048
 10
3.606235829839509
 20
10.14509763051048
 10
3.529946841063154
 20
10.22624089774484
 10
3.529946841063154
 20
10.22624089774484
 10
3.519379049679994
 20
10.22165831530426
 10
3.508604761223826
 20
10.21708728932765
 10
3.497778147717503
 20
10.21246737061889
 10
3.497778147717503
 20
10.21246737061889
 10
3.497778147717503
 20
10.11183101555583
 10
3.497778147717503
 20
10.11183101555583
 10
3.497778147717503
 20
10.11183101555583
 10
3.334127815797804
 20
10.05764453395251
 10
3.334127815797804
 20
10.05764453395251
 10
3.334127815797804
 20
10.05764453395251
 10
3.497778147717503
 20
9.996423721630991
 10
3.497778147717503
 20
9.996423721630991
 10
3.497778147717503
 20
9.996423721630991
 10
3.497778147717503
 20
9.84953661987188
 10
3.497778147717503
 20
9.84953661987188
 10
3.497778147717503
 20
9.84953661987188
 10
3.606235829839509
 20
9.961432526669618
 10
3.606235829839509
 20
9.961432526669618
 10
3.606235829839509
 20
9.961432526669618
 10
3.767957609909988
 20
9.921206253533164
 10
3.767957609909988
 20
9.921206253533164
 10
3.767957609909988
 20
9.921206253533164
 10
3.677914607945265
 20
10.05585772683212
 10
3.677914607945265
 20
10.05585772683212
 10
3.677914607945265
 20
10.05585772683212
 10
3.767957609909988
 20
10.18176362378766
 10
3.767957609909988
 20
10.18176362378766
 10
3.767957609909988
 20
10.18176362378766
 10
3.606235829839509
 20
10.14509763051048
 10
3.606235829839509
 20
10.14509763051048
 97
        0
 97
        0
 92
        1
 93
       10
 72
     1
 10
3.606235829839509
 20
9.309113694957595
 11
3.497778147717503
 21
9.42457077057337
 72
     1
 10
3.497778147717503
 20
9.42457077057337
 11
3.497778147717503
 21
9.275959088807527
 72
     1
 10
3.497778147717503
 20
9.275959088807527
 11
3.334127815797804
 21
9.22171038009056
 72
     1
 10
3.334127815797804
 20
9.22171038009056
 11
3.497778147717503
 21
9.162275485930662
 72
     1
 10
3.497778147717503
 20
9.162275485930662
 11
3.497778147717503
 21
9.015338602480622
 72
     1
 10
3.497778147717503
 20
9.015338602480622
 11
3.606235829839509
 21
9.127285179928043
 72
     1
 10
3.606235829839509
 20
9.127285179928043
 11
3.767957609909988
 21
9.085320992403366
 72
     1
 10
3.767957609909988
 20
9.085320992403366
 11
3.677914607945265
 21
9.21998580008383
 72
     1
 10
3.677914607945265
 20
9.21998580008383
 11
3.767957609909988
 21
9.345878362657862
 72
     1
 10
3.767957609909988
 20
9.345878362657862
 11
3.606235829839509
 21
9.309113694957595
 97
        0
 92
        1
 93
       10
 72
     1
 10
3.606235829839509
 20
8.443486540381778
 11
3.497778147717503
 21
8.560681530385775
 72
     1
 10
3.497778147717503
 20
8.560681530385775
 11
3.497778147717503
 21
8.412020066929017
 72
     1
 10
3.497778147717503
 20
8.412020066929017
 11
3.334127815797804
 21
8.357821139902954
 72
     1
 10
3.334127815797804
 20
8.357821139902954
 11
3.497778147717503
 21
8.296599438622682
 72
     1
 10
3.497778147717503
 20
8.296599438622682
 11
3.497778147717503
 21
8.14971233686357
 72
     1
 10
3.497778147717503
 20
8.14971233686357
 11
3.606235829839509
 21
8.261620689084035
 72
     1
 10
3.606235829839509
 20
8.261620689084035
 11
3.767957609909988
 21
8.219644945095386
 72
     1
 10
3.767957609909988
 20
8.219644945095386
 11
3.677914607945265
 21
8.354309752775837
 72
     1
 10
3.677914607945265
 20
8.354309752775837
 11
3.767957609909988
 21
8.48021476077262
 72
     1
 10
3.767957609909988
 20
8.48021476077262
 11
3.606235829839509
 21
8.443486540381778
 97
        0
 92
        1
 93
        1
 72
     4
 94
        3
 73
     0
 74
     1
 95
       32
 96
       28
 40
0.0
 40
0.0
 40
0.0
 40
0.0
 40
1.0
 40
1.0
 40
1.0
 40
2.0
 40
2.0
 40
2.0
 40
3.0
 40
3.0
 40
3.0
 40
4.0
 40
4.0
 40
4.0
 40
5.0
 40
5.0
 40
5.0
 40
6.0
 40
6.0
 40
6.0
 40
7.0
 40
7.0
 40
7.0
 40
8.0
 40
8.0
 40
8.0
 40
9.0
 40
9.0
 40
9.0
 40
9.0
 10
4.394577182632828
 20
10.54599936600368
 10
4.279747991276357
 20
10.6282902790054
 10
4.258703977347851
 20
10.64234827293659
 10
4.250053525303175
 20
10.64234827293659
 10
4.242515914950571
 20
10.64234827293659
 10
4.222132504780499
 20
10.62930013616398
 10
4.1495856914674
 20
10.57809522226301
 10
4.1495856914674
 20
10.57809522226301
 10
4.091465641987725
 20
10.53800407085906
 10
4.091465641987725
 20
10.53800407085906
 10
4.098445429930444
 20
10.54320359068348
 10
4.025095987722731
 20
10.49320588278723
 10
3.941826276627757
 20
10.44031372514773
 10
3.941826276627757
 20
10.44031372514773
 10
3.943199809194791
 20
3.574942065928654
 10
3.943199809194791
 20
3.574942065928654
 10
4.11149959557272
 20
3.420071225488881
 10
4.236895643936464
 20
3.312018287438125
 10
4.250260022376172
 20
3.312018287438125
 10
4.2624984778613
 20
3.312018287438125
 10
4.382740508782995
 20
3.415352632357073
 10
4.540213681654576
 20
3.55964041868333
 10
4.540213681654576
 20
3.55964041868333
 10
4.533286218762037
 20
10.45031717814553
 10
4.533286218762037
 20
10.45031717814553
 10
4.499693536550947
 20
10.48155074440151
 10
4.439293609885175
 20
10.51553119324553
 10
4.394577182632828
 20
10.54599936600368
 97
        0
 97
        0
 92
        1
 93
       10
 72
     1
 10
3.606235829839509
 20
7.609340082598982
 11
3.497778147717503
 21
7.724747376523825
 72
     1
 10
3.497778147717503
 20
7.724747376523825
 11
3.497778147717503
 21
7.57608591306708
 72
     1
 10
3.497778147717503
 20
7.57608591306708
 11
3.334127815797804
 21
7.521886986041017
 72
     1
 10
3.334127815797804
 20
7.521886986041017
 11
3.497778147717503
 21
7.462403199148967
 72
     1
 10
3.497778147717503
 20
7.462403199148967
 11
3.497778147717503
 21
7.31379062842436
 72
     1
 10
3.497778147717503
 20
7.31379062842436
 11
3.606235829839509
 21
7.425736316913016
 72
     1
 10
3.606235829839509
 20
7.425736316913016
 11
3.767957609909988
 21
7.385447816662918
 72
     1
 10
3.767957609909988
 20
7.385447816662918
 11
3.677914607945265
 21
7.520162406034286
 72
     1
 10
3.677914607945265
 20
7.520162406034286
 11
3.767957609909988
 21
7.646067414031045
 72
     1
 10
3.767957609909988
 20
7.646067414031045
 11
3.606235829839509
 21
7.609340082598982
 97
        0
 92
        1
 93
       10
 72
     1
 10
3.606235829839509
 20
6.768168183685652
 11
3.497778147717503
 21
6.883576366569273
 72
     1
 10
3.497778147717503
 20
6.883576366569273
 11
3.497778147717503
 21
6.734903346648555
 72
     1
 10
3.497778147717503
 20
6.734903346648555
 11
3.334127815797804
 21
6.680716865045231
 72
     1
 10
3.334127815797804
 20
6.680716865045231
 11
3.497778147717503
 21
6.619495163764933
 72
     1
 10
3.497778147717503
 20
6.619495163764933
 11
3.497778147717503
 21
6.472608062005848
 72
     1
 10
3.497778147717503
 20
6.472608062005848
 11
3.606235829839509
 21
6.584553750494479
 72
     1
 10
3.606235829839509
 20
6.584553750494479
 11
3.767957609909988
 21
6.544326588399258
 72
     1
 10
3.767957609909988
 20
6.544326588399258
 11
3.677914607945265
 21
6.678979839615749
 72
     1
 10
3.677914607945265
 20
6.678979839615749
 11
3.767957609909988
 21
6.804884847612533
 72
     1
 10
3.767957609909988
 20
6.804884847612533
 11
3.606235829839509
 21
6.768168183685652
 97
        0
 92
        1
 93
        1
 72
     4
 94
        3
 73
     0
 74
     1
 95
       53
 96
       49
 40
0.0
 40
0.0
 40
0.0
 40
0.0
 40
1.0
 40
1.0
 40
1.0
 40
2.0
 40
2.0
 40
2.0
 40
3.0
 40
3.0
 40
3.0
 40
4.0
 40
4.0
 40
4.0
 40
5.0
 40
5.0
 40
5.0
 40
6.0
 40
6.0
 40
6.0
 40
7.0
 40
7.0
 40
7.0
 40
8.0
 40
8.0
 40
8.0
 40
9.0
 40
9.0
 40
9.0
 40
10.0
 40
10.0
 40
10.0
 40
11.0
 40
11.0
 40
11.0
 40
12.0
 40
12.0
 40
12.0
 40
13.0
 40
13.0
 40
13.0
 40
14.0
 40
14.0
 40
14.0
 40
15.0
 40
15.0
 40
15.0
 40
16.0
 40
16.0
 40
16.0
 40
16.0
 10
6.459621728370924
 20
6.248580674337265
 10
6.459621728370924
 20
6.248580674337265
 10
6.765063602500529
 20
6.417695301090387
 10
6.765063602500529
 20
6.417695301090387
 10
6.870736844452646
 20
6.478004041717617
 10
6.878170739080789
 20
6.481281632689186
 10
6.897749651604449
 20
6.476082112864749
 10
6.91601109411484
 20
6.471019492690352
 10
6.93583761625094
 20
6.455962309105782
 10
6.944644109070218
 20
6.433095622758767
 10
6.944644109070218
 20
6.433095622758767
 10
6.94560184436356
 20
5.921404734131935
 10
6.94560184436356
 20
5.921404734131935
 10
6.94560184436356
 20
5.921404734131935
 10
6.946521270245208
 20
5.409714734463882
 10
6.946521270245208
 20
5.409714734463882
 10
6.946521270245208
 20
5.409714734463882
 10
6.459518012646488
 20
5.136589265170616
 10
6.459518012646488
 20
5.136589265170616
 10
6.459518012646488
 20
5.136589265170616
 10
6.459518012646488
 20
1.475176122894785
 10
6.459518012646488
 20
1.475176122894785
 10
6.561760226308656
 20
1.58591460537875
 10
6.657772021496662
 20
1.700756521528168
 10
6.760103935244842
 20
1.833535847665189
 10
6.900432244801701
 20
2.017434747661607
 10
7.246900695770566
 20
2.603863066652416
 10
7.258386044283547
 20
2.648871048993113
 10
7.258386044283547
 20
2.648871048993113
 10
7.258386044283547
 20
3.543894292054826
 10
7.258386044283547
 20
3.543894292054826
 10
7.21882456884916
 20
3.690448923235357
 10
7.194089770131667
 20
3.838924594309926
 10
7.182200771231641
 20
3.998033990147683
 10
7.17759056056103
 20
4.060402448236547
 10
7.17759056056103
 20
4.219905652807812
 10
7.182200771231641
 20
4.277455065424293
 10
7.194841942727887
 20
4.434543857986101
 10
7.217917289854186
 20
4.550925450718851
 10
7.258439303709615
 20
4.650784855820145
 10
7.258439303709615
 20
4.650784855820145
 10
7.258439303709615
 20
8.150968435600436
 10
7.258439303709615
 20
8.150968435600436
 10
7.070907258265404
 20
8.623343344867559
 10
6.797996615329086
 20
9.040756600487093
 10
6.459569403320756
 20
9.373268071208106
 10
6.459569403320756
 20
9.373268071208106
 10
6.459621728370924
 20
6.248580674337265
 10
6.459621728370924
 20
6.248580674337265
 97
        0
 97
        0
 92
        1
 93
        1
 72
     4
 94
        3
 73
     0
 74
     1
 95
       23
 96
       19
 40
0.0
 40
0.0
 40
0.0
 40
0.0
 40
1.0
 40
1.0
 40
1.0
 40
2.0
 40
2.0
 40
2.0
 40
3.0
 40
3.0
 40
3.0
 40
4.0
 40
4.0
 40
4.0
 40
5.0
 40
5.0
 40
5.0
 40
6.0
 40
6.0
 40
6.0
 40
6.0
 10
5.136582834746175
 20
10.15683899789652
 10
5.136582834746175
 20
10.15683899789652
 10
5.138912233854777
 20
5.653146314084489
 10
5.138912233854777
 20
5.653146314084489
 10
5.304934011798397
 20
5.712150063242714
 10
5.482443007006774
 20
5.781688862741046
 10
5.645587841566768
 20
5.852778895286658
 10
5.732534321812282
 20
5.890701876259489
 10
5.817268199936203
 20
5.928871098810583
 10
5.90098921458894
 20
5.967853718632896
 10
5.901650752723273
 20
7.24771521227976
 10
5.902312290857581
 20
8.52761226427727
 10
5.90297196024014
 20
9.807473757924134
 10
5.723741844631427
 20
9.917213939713456
 10
5.539810883890216
 20
10.00210327918925
 10
5.255515805037652
 20
10.11058647328293
 10
5.212158894713942
 20
10.12714599718265
 10
5.173048722837292
 20
10.14234985896366
 10
5.136582834746175
 20
10.15683899789652
 97
        0
 97
        0
 92
        1
 93
        1
 72
     4
 94
        3
 73
     0
 74
     1
 95
       35
 96
       31
 40
0.0
 40
0.0
 40
0.0
 40
0.0
 40
1.0
 40
1.0
 40
1.0
 40
2.0
 40
2.0
 40
2.0
 40
3.0
 40
3.0
 40
3.0
 40
4.0
 40
4.0
 40
4.0
 40
5.0
 40
5.0
 40
5.0
 40
6.0
 40
6.0
 40
6.0
 40
7.0
 40
7.0
 40
7.0
 40
8.0
 40
8.0
 40
8.0
 40
9.0
 40
9.0
 40
9.0
 40
10.0
 40
10.0
 40
10.0
 40
10.0
 10
5.253586318812546
 20
4.358316532729683
 10
5.281209273424389
 20
4.033456330110716
 10
5.28479634248894
 20
3.88406858734187
 10
5.282516465302832
 20
3.156802530997008
 10
5.280950451301224
 20
2.652233091047467
 10
5.279694650097073
 20
2.57224724812689
 10
5.269423990248823
 20
2.314092733417864
 10
5.248575260882565
 20
1.790463128558864
 10
5.200373611538351
 20
1.016525848021476
 10
5.155554402937469
 20
0.4859605868673498
 10
5.151810358722413
 20
0.4416308800653547
 10
5.149583740962371
 20
0.4046199707868759
 10
5.150542410631614
 20
0.4036590063604106
 10
5.154841474128893
 20
0.3996177998085386
 10
5.343628386401329
 20
0.5242658201097028
 10
5.477740293122451
 20
0.6197142118122781
 10
5.623326335845806
 20
0.7232823528867761
 10
5.761931656250554
 20
0.8305094482435985
 10
5.898414074619697
 20
0.945239355588506
 10
5.899073744002256
 20
2.237814737511801
 10
5.899734347760689
 20
3.530329670238997
 10
5.900381870256575
 20
4.822892606739591
 10
5.900381870256575
 20
4.822892606739591
 10
5.900381870256575
 20
4.822942388430495
 10
5.900381870256575
 20
4.822942388430495
 10
5.541066685094342
 20
4.621289203952402
 10
5.249390971039727
 20
4.457461214982787
 10
5.248121154197128
 20
4.456352683401165
 10
5.246606530869813
 20
4.454959685014248
 10
5.248937798730164
 20
4.41250301433302
 10
5.253586318812546
 20
4.358316532729683
 97
        0
 97
        0
 92
        1
 93
       10
 72
     1
 10
3.339695761761757
 20
6.26100031726206
 11
3.429738763726454
 21
6.386893768794872
 72
     1
 10
3.429738763726454
 20
6.386893768794872
 11
3.267964658605807
 21
6.350225997600141
 72
     1
 10
3.267964658605807
 20
6.350225997600141
 11
3.159507910859689
 21
6.465634180483751
 72
     1
 10
3.159507910859689
 20
6.465634180483751
 11
3.159507910859689
 21
6.316972717026992
 72
     1
 10
3.159507910859689
 20
6.316972717026992
 11
2.99590896961427
 21
6.262774678959708
 72
     1
 10
2.99590896961427
 20
6.262774678959708
 11
3.159507910859689
 21
6.20329000310888
 72
     1
 10
3.159507910859689
 20
6.20329000310888
 11
3.159507910859689
 21
6.054677432384286
 72
     1
 10
3.159507910859689
 20
6.054677432384286
 11
3.267964658605807
 21
6.16657422814079
 72
     1
 10
3.267964658605807
 20
6.16657422814079
 11
3.429738763726454
 21
6.12633462062283
 72
     1
 10
3.429738763726454
 20
6.12633462062283
 11
3.339695761761757
 21
6.26100031726206
 97
        0
 92
        1
 93
       10
 72
     1
 10
1.391254787206549
 20
6.768168183685652
 11
1.282797105084531
 21
6.883576366569273
 72
     1
 10
1.282797105084531
 20
6.883576366569273
 11
1.282797105084531
 21
6.734903346648555
 72
     1
 10
1.282797105084531
 20
6.734903346648555
 11
1.119197229463212
 21
6.680716865045231
 72
     1
 10
1.119197229463212
 20
6.680716865045231
 11
1.282797105084531
 21
6.619495163764933
 72
     1
 10
1.282797105084531
 20
6.619495163764933
 11
1.282797105084531
 21
6.472608062005848
 72
     1
 10
1.282797105084531
 20
6.472608062005848
 11
1.391254787206549
 21
6.584553750494479
 72
     1
 10
1.391254787206549
 20
6.584553750494479
 11
1.552975632901116
 21
6.544326588399258
 72
     1
 10
1.552975632901116
 20
6.544326588399258
 11
1.462933565312306
 21
6.678979839615749
 72
     1
 10
1.462933565312306
 20
6.678979839615749
 11
1.552975632901116
 21
6.804884847612533
 72
     1
 10
1.552975632901116
 20
6.804884847612533
 11
1.391254787206549
 21
6.768168183685652
 97
        0
 92
        1
 93
        1
 72
     4
 94
        3
 73
     0
 74
     1
 95
       17
 96
       13
 40
0.0
 40
0.0
 40
0.0
 40
0.0
 40
1.0
 40
1.0
 40
1.0
 40
2.0
 40
2.0
 40
2.0
 40
3.0
 40
3.0
 40
3.0
 40
4.0
 40
4.0
 40
4.0
 40
4.0
 10
1.553843668108445
 20
2.094870167881481
 10
1.709853608326992
 20
1.858657822402468
 10
1.891752301494535
 20
1.631254169339273
 10
2.102955825886637
 20
1.408374427438073
 10
2.102955825886637
 20
1.408374427438073
 10
2.102955825886637
 20
5.101500284744942
 10
2.102955825886637
 20
5.101500284744942
 10
2.102955825886637
 20
5.101500284744942
 10
1.553895058782738
 20
5.409418711194651
 10
1.553895058782738
 20
5.409418711194651
 10
1.553895058782738
 20
5.409418711194651
 10
1.553843668108445
 20
2.094870167881481
 10
1.553843668108445
 20
2.094870167881481
 97
        0
 97
        0
 92
        1
 93
       10
 72
     1
 10
1.391254787206549
 20
5.907741437893037
 11
1.282797105084531
 21
6.024923982474294
 72
     1
 10
1.282797105084531
 20
6.024923982474294
 11
1.282797105084531
 21
5.876262519017536
 72
     1
 10
1.282797105084531
 20
5.876262519017536
 11
1.119197229463212
 21
5.822075148455446
 72
     1
 10
1.119197229463212
 20
5.822075148455446
 11
1.282797105084531
 21
5.760854336133914
 72
     1
 10
1.282797105084531
 20
5.760854336133914
 11
1.282797105084531
 21
5.613967234374804
 72
     1
 10
1.282797105084531
 20
5.613967234374804
 11
1.391254787206549
 21
5.725912922863472
 72
     1
 10
1.391254787206549
 20
5.725912922863472
 11
1.552975632901116
 21
5.685673315345525
 72
     1
 10
1.552975632901116
 20
5.685673315345525
 11
1.462933565312306
 21
5.820289230293825
 72
     1
 10
1.462933565312306
 20
5.820289230293825
 11
1.552975632901116
 21
5.944506105593278
 72
     1
 10
1.552975632901116
 20
5.944506105593278
 11
1.391254787206549
 21
5.907741437893037
 97
        0
 92
        1
 93
        1
 72
     4
 94
        3
 73
     0
 74
     1
 95
       26
 96
       22
 40
0.0
 40
0.0
 40
0.0
 40
0.0
 40
1.0
 40
1.0
 40
1.0
 40
2.0
 40
2.0
 40
2.0
 40
3.0
 40
3.0
 40
3.0
 40
4.0
 40
4.0
 40
4.0
 40
5.0
 40
5.0
 40
5.0
 40
6.0
 40
6.0
 40
6.0
 40
7.0
 40
7.0
 40
7.0
 40
7.0
 10
1.117384540225076
 20
6.26100031726206
 10
1.117384540225076
 20
6.26100031726206
 10
1.20929162210219
 20
6.386893768794872
 10
1.20929162210219
 20
6.386893768794872
 10
1.20929162210219
 20
6.386893768794872
 10
1.045653437069152
 20
6.350225997600141
 10
1.045653437069152
 20
6.350225997600141
 10
1.045653437069152
 20
6.350225997600141
 10
1.007204803326835
 20
6.391906607278353
 10
1.007204803326835
 20
6.391906607278353
 10
1.004718429067717
 20
6.311046917890457
 10
1.006842265479198
 20
6.225097939565166
 10
1.014133200595274
 20
6.133505850991051
 10
1.014133200595274
 20
6.133505850991051
 10
1.045653437069152
 20
6.16657422814079
 10
1.045653437069152
 20
6.16657422814079
 10
1.045653437069152
 20
6.16657422814079
 10
1.20929162210219
 20
6.12633462062283
 10
1.20929162210219
 20
6.12633462062283
 10
1.20929162210219
 20
6.12633462062283
 10
1.117384540225076
 20
6.26100031726206
 10
1.117384540225076
 20
6.26100031726206
 97
        0
 97
        0
 92
        1
 93
       10
 72
     1
 10
1.852656145256333
 20
7.102170438257859
 11
1.944523983345814
 21
7.228075446254618
 72
     1
 10
1.944523983345814
 20
7.228075446254618
 11
1.780924107724495
 21
7.191348114822555
 72
     1
 10
1.780924107724495
 20
7.191348114822555
 11
1.674332374266669
 21
7.306767854170125
 72
     1
 10
1.674332374266669
 20
7.306767854170125
 11
1.674332374266669
 21
7.158094834249406
 72
     1
 10
1.674332374266669
 20
7.158094834249406
 11
1.510745579907911
 21
7.103907463687316
 72
     1
 10
1.510745579907911
 20
7.103907463687316
 11
1.674332374266669
 21
7.044461013063432
 72
     1
 10
1.674332374266669
 20
7.044461013063432
 11
1.674332374266669
 21
6.897585467768307
 72
     1
 10
1.674332374266669
 20
6.897585467768307
 11
1.780924107724495
 21
7.007745238095342
 72
     1
 10
1.780924107724495
 20
7.007745238095342
 11
1.944523983345814
 21
6.967505630577395
 72
     1
 10
1.944523983345814
 20
6.967505630577395
 11
1.852656145256333
 21
7.102170438257859
 97
        0
 92
        1
 93
       10
 72
     1
 10
3.606235829839509
 20
5.907741437893037
 11
3.497778147717503
 21
6.024923982474294
 72
     1
 10
3.497778147717503
 20
6.024923982474294
 11
3.497778147717503
 21
5.876262519017536
 72
     1
 10
3.497778147717503
 20
5.876262519017536
 11
3.334127815797804
 21
5.822075148455446
 72
     1
 10
3.334127815797804
 20
5.822075148455446
 11
3.497778147717503
 21
5.760854336133914
 72
     1
 10
3.497778147717503
 20
5.760854336133914
 11
3.497778147717503
 21
5.613967234374804
 72
     1
 10
3.497778147717503
 20
5.613967234374804
 11
3.606235829839509
 21
5.725912922863472
 72
     1
 10
3.606235829839509
 20
5.725912922863472
 11
3.767957609909988
 21
5.685673315345525
 72
     1
 10
3.767957609909988
 20
5.685673315345525
 11
3.677914607945265
 21
5.820289230293825
 72
     1
 10
3.677914607945265
 20
5.820289230293825
 11
3.767957609909988
 21
5.944506105593278
 72
     1
 10
3.767957609909988
 20
5.944506105593278
 11
3.606235829839509
 21
5.907741437893037
 97
        0
 92
        1
 93
        1
 72
     4
 94
        3
 73
     0
 74
     1
 95
       23
 96
       19
 40
0.0
 40
0.0
 40
0.0
 40
0.0
 40
1.0
 40
1.0
 40
1.0
 40
2.0
 40
2.0
 40
2.0
 40
3.0
 40
3.0
 40
3.0
 40
4.0
 40
4.0
 40
4.0
 40
5.0
 40
5.0
 40
5.0
 40
6.0
 40
6.0
 40
6.0
 40
6.0
 10
2.876481714473837
 20
5.907741437893037
 10
2.876481714473837
 20
5.907741437893037
 10
2.768024032351819
 20
6.024923982474294
 10
2.768024032351819
 20
6.024923982474294
 10
2.768024032351819
 20
6.024923982474294
 10
2.790687319708
 20
5.880882437726288
 10
2.790687319708
 20
5.880882437726288
 10
2.836207310230848
 20
5.860626623276074
 10
2.916691646780022
 20
5.818995795288767
 10
2.956047559517287
 20
5.806908622942615
 10
2.956047559517287
 20
5.806908622942615
 10
2.948161426955494
 20
5.820289230293825
 10
2.948161426955494
 20
5.820289230293825
 10
2.948161426955494
 20
5.820289230293825
 10
3.038203494544303
 20
5.944506105593278
 10
3.038203494544303
 20
5.944506105593278
 10
3.038203494544303
 20
5.944506105593278
 10
2.876481714473837
 20
5.907741437893037
 10
2.876481714473837
 20
5.907741437893037
 97
        0
 97
        0
 92
        1
 93
        1
 72
     4
 94
        3
 73
     0
 74
     1
 95
       26
 96
       22
 40
0.0
 40
0.0
 40
0.0
 40
0.0
 40
1.0
 40
1.0
 40
1.0
 40
2.0
 40
2.0
 40
2.0
 40
3.0
 40
3.0
 40
3.0
 40
4.0
 40
4.0
 40
4.0
 40
5.0
 40
5.0
 40
5.0
 40
6.0
 40
6.0
 40
6.0
 40
7.0
 40
7.0
 40
7.0
 40
7.0
 10
1.20929162210219
 20
6.967505630577395
 10
1.20929162210219
 20
6.967505630577395
 10
1.117384540225076
 20
7.102170438257859
 10
1.117384540225076
 20
7.102170438257859
 10
1.117384540225076
 20
7.102170438257859
 10
1.20929162210219
 20
7.228075446254618
 10
1.20929162210219
 20
7.228075446254618
 10
1.20929162210219
 20
7.228075446254618
 10
1.045653437069152
 20
7.191348114822555
 10
1.045653437069152
 20
7.191348114822555
 10
1.045653437069152
 20
7.191348114822555
 10
1.003009455554029
 20
7.23288026838678
 10
1.003009455554029
 20
7.23288026838678
 10
1.00067725331774
 20
7.197027672380815
 10
1.000418431194564
 20
7.095382349117939
 10
1.000729578367921
 20
6.961296253594393
 10
1.000729578367921
 20
6.961296253594393
 10
1.045653437069152
 20
7.007745238095342
 10
1.045653437069152
 20
7.007745238095342
 10
1.045653437069152
 20
7.007745238095342
 10
1.20929162210219
 20
6.967505630577395
 10
1.20929162210219
 20
6.967505630577395
 97
        0
 97
        0
 92
        1
 93
       10
 72
     1
 10
2.211064051423578
 20
6.678979839615749
 11
2.301158444062543
 21
6.804884847612533
 72
     1
 10
2.301158444062543
 20
6.804884847612533
 11
2.139384338941909
 21
6.768168183685652
 72
     1
 10
2.139384338941909
 20
6.768168183685652
 11
2.030927591195791
 21
6.883576366569273
 72
     1
 10
2.030927591195791
 20
6.883576366569273
 11
2.030927591195791
 21
6.734903346648555
 72
     1
 10
2.030927591195791
 20
6.734903346648555
 11
1.867328649950372
 21
6.680716865045231
 72
     1
 10
1.867328649950372
 20
6.680716865045231
 11
2.030927591195791
 21
6.619495163764933
 72
     1
 10
2.030927591195791
 20
6.619495163764933
 11
2.030927591195791
 21
6.472608062005848
 72
     1
 10
2.030927591195791
 20
6.472608062005848
 11
2.139384338941909
 21
6.584553750494479
 72
     1
 10
2.139384338941909
 20
6.584553750494479
 11
2.301158444062543
 21
6.544326588399258
 72
     1
 10
2.301158444062543
 20
6.544326588399258
 11
2.211064051423578
 21
6.678979839615749
 97
        0
 92
        1
 93
       10
 72
     1
 10
2.529042446949095
 20
6.350225997600141
 11
2.422461926002054
 21
6.465634180483751
 72
     1
 10
2.422461926002054
 20
6.465634180483751
 11
2.422461926002054
 21
6.316972717026992
 72
     1
 10
2.422461926002054
 20
6.316972717026992
 11
2.258811594082355
 21
6.262774678959708
 72
     1
 10
2.258811594082355
 20
6.262774678959708
 11
2.422461926002054
 21
6.20329000310888
 72
     1
 10
2.422461926002054
 20
6.20329000310888
 11
2.422461926002054
 21
6.054677432384286
 72
     1
 10
2.422461926002054
 20
6.054677432384286
 11
2.529042446949095
 21
6.16657422814079
 72
     1
 10
2.529042446949095
 20
6.16657422814079
 11
2.692641388194526
 21
6.12633462062283
 72
     1
 10
2.692641388194526
 20
6.12633462062283
 11
2.600734306317412
 21
6.26100031726206
 72
     1
 10
2.600734306317412
 20
6.26100031726206
 11
2.692641388194526
 21
6.386893768794872
 72
     1
 10
2.692641388194526
 20
6.386893768794872
 11
2.529042446949095
 21
6.350225997600141
 97
        0
 75
     2
 76
     1
 98
        0
  0
ENDSEC
  0
SECTION
  2
OBJECTS
  0
DICTIONARY
  5
C
330
0
100
AcDbDictionary
281
     1
  3
ACAD_GROUP
350
D
  3
ACAD_LAYOUT
350
1A
  3
ACAD_MATERIAL
350
3B
  3
ACAD_MLEADERSTYLE
350
1D3
  3
ACAD_MLINESTYLE
350
17
  3
ACAD_PLOTSETTINGS
350
19
  3
ACAD_PLOTSTYLENAME
350
E
  3
ACAD_TABLESTYLE
350
1D2
  3
ACAD_VISUALSTYLE
350
2A
  0
SUN
  5
3F
330
29
100
AcDbSun
 90
        1
290
     0
 63
     7
421
 16777215
 40
1.0
291
     1
 91
  2455826
 92
 54000000
292
     0
 70
     2
 71
   256
280
     1
  0
DICTIONARY
  5
D
102
{ACAD_REACTORS
330
C
102
}
330
C
100
AcDbDictionary
281
     1
  0
DICTIONARY
  5
1A
102
{ACAD_REACTORS
330
C
102
}
330
C
100
AcDbDictionary
281
     1
  3
Layout1
350
1E
  3
Layout2
350
26
  3
Model
350
22
  0
DICTIONARY
  5
3B
102
{ACAD_REACTORS
330
C
102
}
330
C
100
AcDbDictionary
281
     1
  3
ByBlock
350
3D
  3
ByLayer
350
3C
  3
Global
350
3E
  0
DICTIONARY
  5
1D3
102
{ACAD_REACTORS
330
C
102
}
330
C
100
AcDbDictionary
281
     1
  0
DICTIONARY
  5
17
102
{ACAD_REACTORS
330
C
102
}
330
C
100
AcDbDictionary
281
     1
  3
Standard
350
18
  0
DICTIONARY
  5
19
102
{ACAD_REACTORS
330
C
102
}
330
C
100
AcDbDictionary
281
     1
  0
ACDBDICTIONARYWDFLT
  5
E
102
{ACAD_REACTORS
330
C
102
}
330
C
100
AcDbDictionary
281
     1
  3
Normal
350
F
100
AcDbDictionaryWithDefault
340
F
  0
DICTIONARY
  5
1D2
102
{ACAD_REACTORS
330
C
102
}
330
C
100
AcDbDictionary
281
     1
  0
DICTIONARY
  5
2A
102
{ACAD_REACTORS
330
C
102
}
330
C
100
AcDbDictionary
281
     1
  3
2dWireframe
350
2F
  3
3D Hidden
350
31
  3
3dWireframe
350
30
  3
Basic
350
32
  3
Brighten
350
36
  3
ColorChange
350
3A
  3
Conceptual
350
34
  3
Dim
350
35
  3
Facepattern
350
39
  3
Flat
350
2B
  3
FlatWithEdges
350
2C
  3
Gouraud
350
2D
  3
GouraudWithEdges
350
2E
  3
Linepattern
350
38
  3
Realistic
350
33
  3
Thicken
350
37
  0
LAYOUT
  5
1E
102
{ACAD_REACTORS
330
1A
102
}
330
1A
100
AcDbPlotSettings
  1

  2
none_device
  4

  6

 40
0.0
 41
0.0
 42
0.0
 43
0.0
 44
0.0
 45
0.0
 46
0.0
 47
0.0
 48
0.0
 49
0.0
140
0.0
141
0.0
142
1.0
143
1.0
 70
   688
 72
     0
 73
     0
 74
     5
  7

 75
    16
 76
     0
 77
     2
 78
   300
147
1.0
148
0.0
149
0.0
100
AcDbLayout
  1
Layout1
 70
     1
 71
     1
 10
0.0
 20
0.0
 11
12.0
 21
9.0
 12
0.0
 22
0.0
 32
0.0
 14
1.000000000000000E+20
 24
1.000000000000000E+20
 34
1.000000000000000E+20
 15
-1.000000000000000E+20
 25
-1.000000000000000E+20
 35
-1.000000000000000E+20
146
0.0
 13
0.0
 23
0.0
 33
0.0
 16
1.0
 26
0.0
 36
0.0
 17
0.0
 27
1.0
 37
0.0
 76
     0
330
1B
  0
LAYOUT
  5
26
102
{ACAD_REACTORS
330
1A
102
}
330
1A
100
AcDbPlotSettings
  1

  2
none_device
  4

  6

 40
0.0
 41
0.0
 42
0.0
 43
0.0
 44
0.0
 45
0.0
 46
0.0
 47
0.0
 48
0.0
 49
0.0
140
0.0
141
0.0
142
1.0
143
1.0
 70
   688
 72
     0
 73
     0
 74
     5
  7

 75
    16
 76
     0
 77
     2
 78
   300
147
1.0
148
0.0
149
0.0
100
AcDbLayout
  1
Layout2
 70
     1
 71
     2
 10
0.0
 20
0.0
 11
0.0
 21
0.0
 12
0.0
 22
0.0
 32
0.0
 14
0.0
 24
0.0
 34
0.0
 15
0.0
 25
0.0
 35
0.0
146
0.0
 13
0.0
 23
0.0
 33
0.0
 16
1.0
 26
0.0
 36
0.0
 17
0.0
 27
1.0
 37
0.0
 76
     0
330
23
  0
LAYOUT
  5
22
102
{ACAD_REACTORS
330
1A
102
}
330
1A
100
AcDbPlotSettings
  1

  2
none_device
  4

  6

 40
0.0
 41
0.0
 42
0.0
 43
0.0
 44
0.0
 45
0.0
 46
0.0
 47
0.0
 48
0.0
 49
0.0
140
0.0
141
0.0
142
1.0
143
1.0
 70
  1712
 72
     0
 73
     0
 74
     0
  7

 75
     0
 76
     0
 77
     2
 78
   300
147
1.0
148
0.0
149
0.0
100
AcDbLayout
  1
Model
 70
     1
 71
     0
 10
0.0
 20
0.0
 11
12.0
 21
9.0
 12
0.0
 22
0.0
 32
0.0
 14
1.000000000000000E+20
 24
1.000000000000000E+20
 34
1.000000000000000E+20
 15
-1.000000000000000E+20
 25
-1.000000000000000E+20
 35
-1.000000000000000E+20
146
0.0
 13
0.0
 23
0.0
 33
0.0
 16
1.0
 26
0.0
 36
0.0
 17
0.0
 27
1.0
 37
0.0
 76
     0
330
1F
331
29
  0
MATERIAL
  5
3D
102
{ACAD_REACTORS
330
3B
102
}
330
3B
100
AcDbMaterial
  1
ByBlock
 72
     1
 94
      127
  0
MATERIAL
  5
3C
102
{ACAD_REACTORS
330
3B
102
}
330
3B
100
AcDbMaterial
  1
ByLayer
 72
     1
 94
      127
  0
MATERIAL
  5
3E
102
{ACAD_REACTORS
330
3B
102
}
330
3B
100
AcDbMaterial
  1
Global
 72
     1
 94
      127
  0
MLINESTYLE
  5
18
102
{ACAD_REACTORS
330
17
102
}
330
17
100
AcDbMlineStyle
  2
Standard
 70
     0
  3

 62
   256
 51
90.0
 52
90.0
 71
     2
 49
0.5
 62
   256
  6
BYLAYER
 49
-0.5
 62
   256
  6
BYLAYER
  0
ACDBPLACEHOLDER
  5
F
102
{ACAD_REACTORS
330
E
102
}
330
E
  0
VISUALSTYLE
  5
2F
102
{ACAD_REACTORS
330
2A
102
}
330
2A
100
AcDbVisualStyle
  2
2dWireframe
 70
     4
177
     2
291
     0
 71
     0
176
     1
 72
     2
176
     1
 73
     0
176
     1
 90
        0
176
     1
 40
-0.6
176
     1
 41
-30.0
176
     1
 62
     5
 63
     7
421
 16777215
176
     1
 74
     1
176
     1
 91
        4
176
     1
 64
     7
176
     1
 65
   257
176
     1
 75
     1
176
     1
175
     1
176
     1
 42
1.0
176
     1
 92
        0
176
     1
 66
   257
176
     1
 43
1.0
176
     1
 76
     1
176
     1
 77
     6
176
     1
 78
     2
176
     1
 67
     7
176
     1
 79
     5
176
     1
170
     0
176
     1
171
     0
176
     1
290
     0
176
     1
 93
        1
176
     1
 44
0.0
176
     1
173
     0
176
     1
  0
VISUALSTYLE
  5
31
102
{ACAD_REACTORS
330
2A
102
}
330
2A
100
AcDbVisualStyle
  2
3D Hidden
 70
     6
177
     2
291
     0
 71
     1
176
     1
 72
     2
176
     1
 73
     2
176
     1
 90
        0
176
     1
 40
-0.6
176
     1
 41
-30.0
176
     1
 62
     5
 63
     7
421
 16777215
176
     1
 74
     2
176
     1
 91
        2
176
     1
 64
     7
176
     1
 65
   257
176
     1
 75
     2
176
     1
175
     1
176
     1
 42
40.0
176
     1
 92
        0
176
     1
 66
   257
176
     1
 43
1.0
176
     1
 76
     1
176
     1
 77
     6
176
     1
 78
     2
176
     1
 67
     7
176
     1
 79
     3
176
     1
170
     0
176
     1
171
     0
176
     1
290
     0
176
     1
 93
        1
176
     1
 44
0.0
176
     1
173
     0
176
     1
  0
VISUALSTYLE
  5
30
102
{ACAD_REACTORS
330
2A
102
}
330
2A
100
AcDbVisualStyle
  2
3dWireframe
 70
     5
177
     2
291
     0
 71
     0
176
     1
 72
     2
176
     1
 73
     0
176
     1
 90
        0
176
     1
 40
-0.6
176
     1
 41
-30.0
176
     1
 62
     5
 63
     7
421
 16777215
176
     1
 74
     1
176
     1
 91
        4
176
     1
 64
     7
176
     1
 65
   257
176
     1
 75
     1
176
     1
175
     1
176
     1
 42
1.0
176
     1
 92
        0
176
     1
 66
   257
176
     1
 43
1.0
176
     1
 76
     1
176
     1
 77
     6
176
     1
 78
     2
176
     1
 67
     7
176
     1
 79
     5
176
     1
170
     0
176
     1
171
     0
176
     1
290
     0
176
     1
 93
        1
176
     1
 44
0.0
176
     1
173
     0
176
     1
  0
VISUALSTYLE
  5
32
102
{ACAD_REACTORS
330
2A
102
}
330
2A
100
AcDbVisualStyle
  2
Basic
 70
     7
177
     2
291
     1
 71
     1
176
     1
 72
     0
176
     1
 73
     1
176
     1
 90
        0
176
     1
 40
-0.6
176
     1
 41
-30.0
176
     1
 62
     5
 63
     7
421
 16777215
176
     1
 74
     0
176
     1
 91
        4
176
     1
 64
     7
176
     1
 65
   257
176
     1
 75
     1
176
     1
175
     1
176
     1
 42
1.0
176
     1
 92
        8
176
     1
 66
     7
176
     1
 43
1.0
176
     1
 76
     1
176
     1
 77
     6
176
     1
 78
     2
176
     1
 67
     7
176
     1
 79
     5
176
     1
170
     0
176
     1
171
     0
176
     1
290
     0
176
     1
 93
        1
176
     1
 44
0.0
176
     1
173
     0
176
     1
  0
VISUALSTYLE
  5
36
102
{ACAD_REACTORS
330
2A
102
}
330
2A
100
AcDbVisualStyle
  2
Brighten
 70
    12
177
     2
291
     1
 71
     2
176
     1
 72
     2
176
     1
 73
     0
176
     1
 90
        0
176
     1
 40
-0.6
176
     1
 41
-30.0
176
     1
 62
     5
 63
     7
421
 16777215
176
     1
 74
     1
176
     1
 91
        4
176
     1
 64
     7
176
     1
 65
   257
176
     1
 75
     1
176
     1
175
     1
176
     1
 42
1.0
176
     1
 92
        8
176
     1
 66
     7
176
     1
 43
1.0
176
     1
 76
     1
176
     1
 77
     6
176
     1
 78
     2
176
     1
 67
     7
176
     1
 79
     5
176
     1
170
     0
176
     1
171
     0
176
     1
290
     0
176
     1
 93
        1
176
     1
 44
50.0
176
     1
173
     0
176
     1
  0
VISUALSTYLE
  5
3A
102
{ACAD_REACTORS
330
2A
102
}
330
2A
100
AcDbVisualStyle
  2
ColorChange
 70
    16
177
     2
291
     1
 71
     2
176
     1
 72
     2
176
     1
 73
     3
176
     1
 90
        0
176
     1
 40
-0.6
176
     1
 41
-30.0
176
     1
 62
     5
 63
     8
421
  8421504
176
     1
 74
     1
176
     1
 91
        4
176
     1
 64
     7
176
     1
 65
   257
176
     1
 75
     1
176
     1
175
     1
176
     1
 42
1.0
176
     1
 92
        8
176
     1
 66
     8
424
  8421504
176
     1
 43
1.0
176
     1
 76
     1
176
     1
 77
     6
176
     1
 78
     2
176
     1
 67
     7
176
     1
 79
     5
176
     1
170
     0
176
     1
171
     0
176
     1
290
     0
176
     1
 93
        1
176
     1
 44
0.0
176
     1
173
     0
176
     1
  0
VISUALSTYLE
  5
34
102
{ACAD_REACTORS
330
2A
102
}
330
2A
100
AcDbVisualStyle
  2
Conceptual
 70
     9
177
     2
291
     0
 71
     3
176
     1
 72
     2
176
     1
 73
     0
176
     1
 90
        0
176
     1
 40
-0.6
176
     1
 41
-30.0
176
     1
 62
     5
 63
     7
421
 16777215
176
     1
 74
     2
176
     1
 91
        2
176
     1
 64
     7
176
     1
 65
   257
176
     1
 75
     1
176
     1
175
     1
176
     1
 42
40.0
176
     1
 92
        8
176
     1
 66
     7
176
     1
 43
1.0
176
     1
 76
     1
176
     1
 77
     6
176
     1
 78
     2
176
     1
 67
     7
176
     1
 79
     3
176
     1
170
     0
176
     1
171
     0
176
     1
290
     0
176
     1
 93
        1
176
     1
 44
0.0
176
     1
173
     0
176
     1
  0
VISUALSTYLE
  5
35
102
{ACAD_REACTORS
330
2A
102
}
330
2A
100
AcDbVisualStyle
  2
Dim
 70
    11
177
     2
291
     1
 71
     2
176
     1
 72
     2
176
     1
 73
     0
176
     1
 90
        0
176
     1
 40
-0.6
176
     1
 41
-30.0
176
     1
 62
     5
 63
     7
421
 16777215
176
     1
 74
     1
176
     1
 91
        4
176
     1
 64
     7
176
     1
 65
   257
176
     1
 75
     1
176
     1
175
     1
176
     1
 42
1.0
176
     1
 92
        8
176
     1
 66
     7
176
     1
 43
1.0
176
     1
 76
     1
176
     1
 77
     6
176
     1
 78
     2
176
     1
 67
     7
176
     1
 79
     5
176
     1
170
     0
176
     1
171
     0
176
     1
290
     0
176
     1
 93
        1
176
     1
 44
-50.0
176
     1
173
     0
176
     1
  0
VISUALSTYLE
  5
39
102
{ACAD_REACTORS
330
2A
102
}
330
2A
100
AcDbVisualStyle
  2
Facepattern
 70
    15
177
     2
291
     1
 71
     2
176
     1
 72
     2
176
     1
 73
     0
176
     1
 90
        0
176
     1
 40
-0.6
176
     1
 41
-30.0
176
     1
 62
     5
 63
     7
421
 16777215
176
     1
 74
     1
176
     1
 91
        4
176
     1
 64
     7
176
     1
 65
   257
176
     1
 75
     1
176
     1
175
     1
176
     1
 42
1.0
176
     1
 92
        8
176
     1
 66
     7
176
     1
 43
1.0
176
     1
 76
     1
176
     1
 77
     6
176
     1
 78
     2
176
     1
 67
     7
176
     1
 79
     5
176
     1
170
     0
176
     1
171
     0
176
     1
290
     0
176
     1
 93
        1
176
     1
 44
0.0
176
     1
173
     0
176
     1
  0
VISUALSTYLE
  5
2B
102
{ACAD_REACTORS
330
2A
102
}
330
2A
100
AcDbVisualStyle
  2
Flat
 70
     0
177
     2
291
     1
 71
     2
176
     1
 72
     1
176
     1
 73
     1
176
     1
 90
        2
176
     1
 40
-0.6
176
     1
 41
30.0
176
     1
 62
     5
 63
     7
421
 16777215
176
     1
 74
     0
176
     1
 91
        4
176
     1
 64
     7
176
     1
 65
   257
176
     1
 75
     1
176
     1
175
     1
176
     1
 42
1.0
176
     1
 92
        8
176
     1
 66
     7
176
     1
 43
1.0
176
     1
 76
     1
176
     1
 77
     6
176
     1
 78
     2
176
     1
 67
     7
176
     1
 79
     5
176
     1
170
     0
176
     1
171
     0
176
     1
290
     0
176
     1
 93
       13
176
     1
 44
0.0
176
     1
173
     0
176
     1
  0
VISUALSTYLE
  5
2C
102
{ACAD_REACTORS
330
2A
102
}
330
2A
100
AcDbVisualStyle
  2
FlatWithEdges
 70
     1
177
     2
291
     1
 71
     2
176
     1
 72
     1
176
     1
 73
     1
176
     1
 90
        2
176
     1
 40
-0.6
176
     1
 41
30.0
176
     1
 62
     5
 63
     7
421
 16777215
176
     1
 74
     1
176
     1
 91
        4
176
     1
 64
     7
176
     1
 65
   257
176
     1
 75
     1
176
     1
175
     1
176
     1
 42
1.0
176
     1
 92
        0
176
     1
 66
   257
176
     1
 43
1.0
176
     1
 76
     1
176
     1
 77
     6
176
     1
 78
     2
176
     1
 67
     7
176
     1
 79
     5
176
     1
170
     0
176
     1
171
     0
176
     1
290
     0
176
     1
 93
       13
176
     1
 44
0.0
176
     1
173
     0
176
     1
  0
VISUALSTYLE
  5
2D
102
{ACAD_REACTORS
330
2A
102
}
330
2A
100
AcDbVisualStyle
  2
Gouraud
 70
     2
177
     2
291
     1
 71
     2
176
     1
 72
     2
176
     1
 73
     1
176
     1
 90
        2
176
     1
 40
-0.6
176
     1
 41
30.0
176
     1
 62
     5
 63
     7
421
 16777215
176
     1
 74
     0
176
     1
 91
        4
176
     1
 64
     7
176
     1
 65
   257
176
     1
 75
     1
176
     1
175
     1
176
     1
 42
1.0
176
     1
 92
        0
176
     1
 66
     7
176
     1
 43
1.0
176
     1
 76
     1
176
     1
 77
     6
176
     1
 78
     2
176
     1
 67
     7
176
     1
 79
     5
176
     1
170
     0
176
     1
171
     0
176
     1
290
     0
176
     1
 93
       13
176
     1
 44
0.0
176
     1
173
     0
176
     1
  0
VISUALSTYLE
  5
2E
102
{ACAD_REACTORS
330
2A
102
}
330
2A
100
AcDbVisualStyle
  2
GouraudWithEdges
 70
     3
177
     2
291
     1
 71
     2
176
     1
 72
     2
176
     1
 73
     1
176
     1
 90
        2
176
     1
 40
-0.6
176
     1
 41
30.0
176
     1
 62
     5
 63
     7
421
 16777215
176
     1
 74
     1
176
     1
 91
        4
176
     1
 64
     7
176
     1
 65
   257
176
     1
 75
     1
176
     1
175
     1
176
     1
 42
1.0
176
     1
 92
        0
176
     1
 66
   257
176
     1
 43
1.0
176
     1
 76
     1
176
     1
 77
     6
176
     1
 78
     2
176
     1
 67
     7
176
     1
 79
     5
176
     1
170
     0
176
     1
171
     0
176
     1
290
     0
176
     1
 93
       13
176
     1
 44
0.0
176
     1
173
     0
176
     1
  0
VISUALSTYLE
  5
38
102
{ACAD_REACTORS
330
2A
102
}
330
2A
100
AcDbVisualStyle
  2
Linepattern
 70
    14
177
     2
291
     1
 71
     2
176
     1
 72
     2
176
     1
 73
     0
176
     1
 90
        0
176
     1
 40
-0.6
176
     1
 41
-30.0
176
     1
 62
     5
 63
     7
421
 16777215
176
     1
 74
     1
176
     1
 91
        4
176
     1
 64
     7
176
     1
 65
   257
176
     1
 75
     7
176
     1
175
     7
176
     1
 42
1.0
176
     1
 92
        8
176
     1
 66
     7
176
     1
 43
1.0
176
     1
 76
     1
176
     1
 77
     6
176
     1
 78
     2
176
     1
 67
     7
176
     1
 79
     5
176
     1
170
     0
176
     1
171
     0
176
     1
290
     0
176
     1
 93
        1
176
     1
 44
0.0
176
     1
173
     0
176
     1
  0
VISUALSTYLE
  5
33
102
{ACAD_REACTORS
330
2A
102
}
330
2A
100
AcDbVisualStyle
  2
Realistic
 70
     8
177
     2
291
     0
 71
     2
176
     1
 72
     2
176
     1
 73
     0
176
     1
 90
        0
176
     1
 40
-0.6
176
     1
 41
-30.0
176
     1
 62
     5
 63
     7
421
 16777215
176
     1
 74
     1
176
     1
 91
        0
176
     1
 64
     7
176
     1
 65
   257
176
     1
 75
     1
176
     1
175
     1
176
     1
 42
1.0
176
     1
 92
        8
176
     1
 66
     8
424
  7895160
176
     1
 43
1.0
176
     1
 76
     1
176
     1
 77
     6
176
     1
 78
     2
176
     1
 67
     7
176
     1
 79
     5
176
     1
170
     0
176
     1
171
     0
176
     1
290
     0
176
     1
 93
       13
176
     1
 44
0.0
176
     1
173
     0
176
     1
  0
VISUALSTYLE
  5
37
102
{ACAD_REACTORS
330
2A
102
}
330
2A
100
AcDbVisualStyle
  2
Thicken
 70
    13
177
     2
291
     1
 71
     2
176
     1
 72
     2
176
     1
 73
     0
176
     1
 90
        0
176
     1
 40
-0.6
176
     1
 41
-30.0
176
     1
 62
     5
 63
     7
421
 16777215
176
     1
 74
     1
176
     1
 91
        4
176
     1
 64
     7
176
     1
 65
   257
176
     1
 75
     1
176
     1
175
     1
176
     1
 42
1.0
176
     1
 92
       12
176
     1
 66
     7
176
     1
 43
1.0
176
     1
 76
     1
176
     1
 77
     6
176
     1
 78
     2
176
     1
 67
     7
176
     1
 79
     5
176
     1
170
     0
176
     1
171
     0
176
     1
290
     0
176
     1
 93
        1
176
     1
 44
0.0
176
     1
173
     0
176
     1
  0
ENDSEC
  0
EOF
