<?xml version="1.0" encoding="utf-8"?>
<!-- Generator: Adobe Illustrator 23.0.3, SVG Export Plug-In . SVG Version: 6.00 Build 0)  -->
<svg version="1.1" xmlns="http://www.w3.org/2000/svg" xmlns:xlink="http://www.w3.org/1999/xlink" x="0px" y="0px"
	 viewBox="0 0 612 792" style="enable-background:new 0 0 612 792;" xml:space="preserve">
<style type="text/css">
	.st0{fill:#E6E6E6;}
</style>
<g id="Layer_2">
	<path d="M306.1,18c-1,0-2.1,0.1-2.7,0.4c-1.3,0.5-5.3,3.2-10.5,7c-11.7,8.5-18.2,12.4-31.7,18.9c-10,4.8-16.5,7.5-30.5,12.9
		c-13.5,5.2-20.2,8-28.8,12.1c-25.4,12.2-48.9,29.6-68.5,50.9c-27.9,30.1-48.8,68.2-60.8,110.6c-3.3,11.8-6.6,26.7-7.5,34.5
		c-0.8,7.2-1,19.6-0.6,48.9c0.6,40.8,1.5,61,3.6,76.3l0.6,4.6l-0.8,0.9c-0.4,0.5-1.8,2-3,3.3c-7.6,8.3-11.6,18.2-10.7,26.5
		c0.5,4.5,1.2,5.6,4.8,7.8c4.7,2.9,11.4,8.6,14.8,12.6c6.2,7.3,9.8,15,11.7,25c1.4,7.6,2,14,2,22.9c0,15-2.1,29.6-6.5,44.5
		c-2.6,9-5.1,15.6-9.9,26.1l-1.8,3.8l1.1,4c1.5,5.4,2.2,7.8,3.9,12.5c6.9,19.3,18.6,41.9,33,63.2c9.4,13.9,22.2,30.1,34.3,43.1
		c19.3,20.8,45.3,43.6,70.8,61.8c11.8,8.5,29.7,20.1,32.3,21h0c2.1,0.7,4.7-0.7,5.1-2.9c0.1-0.4-0.2-4.2-0.5-8.4
		c-2.7-29.9-6-79.5-7.7-116.1c-1.7-34.7-1.9-44.9-1.9-90.5c0-48.9,0.2-56.1,2.5-81.4c0.3-4,0.6-7.3,0.6-7.3c0,0-27.6-15.5-61.2-34.4
		c-33.7-18.9-61.3-34.4-61.5-34.6c-0.3-0.2-0.3-4.7-0.2-31.3c0.1-17.1,0.2-31.1,0.2-31.2c0.1,0,2.7,1.4,5.9,3.2
		c33.8,19.2,71.4,37.2,102.9,49.1c10.7,4,27.4,9.6,37.2,12.4l2.3,0.7l0.7,1.5c2.4,4.9,3,9,3.2,19.7c0.4,21.9-1.9,38.7-9.9,73.2
		c-2.1,9.3-3.4,14.5-4.8,19.5l-1.1,4l2.5,2.4c31.7,29.8,42.9,39.5,46.3,40c1.7,0.2,2.8-0.1,4.9-1.4c3-1.9,8.8-6.7,16.6-13.7
		c3.6-3.3,29.3-27.2,29.3-27.3c0-0.1-0.5-2.1-1.2-4.5c-3-10.6-7.7-31.4-10.2-44.6c-3.5-18.4-4.7-31.5-4.4-47.7
		c0.2-10.6,0.8-14.7,3.2-19.6l0.7-1.5l2.3-0.7c4.7-1.3,18.8-5.8,24.4-7.8c35.2-12.2,76.8-31.5,115.8-53.7c3.2-1.8,5.8-3.2,5.9-3.2
		c0.1,0.1,0.2,14.1,0.2,31.2c0.1,26.6,0.1,31.1-0.2,31.3c-0.2,0.1-27.9,15.7-61.5,34.6c-33.7,18.9-61.2,34.3-61.2,34.4
		c0,0,0.3,3.3,0.6,7.3c2.2,25.3,2.4,32.4,2.4,81c0,35.9-0.1,48.1-0.8,65.3c-1.5,39.5-5.3,100.4-8.7,140.5c-0.6,7.2-0.7,9.4-0.6,10
		c0.5,1.9,2.8,3.1,4.7,2.6c1-0.3,4.8-2.5,12.3-7.3c24.1-15.5,44.9-31.6,67.7-52.3c32.7-29.8,59.6-64.6,78.1-100.8
		c7.8-15.2,12.7-27.6,16.4-41.1l1.1-4l-2.1-4.6c-5.7-12.6-9.2-22.5-12-34.4c-4.6-19.8-5.4-39.8-2.3-57.3
		c1.9-10.8,5.7-18.9,12.1-26.3c3.5-4,9.5-9.1,14.2-12.1c3.9-2.5,4.6-3.5,5.1-8.1c0.9-8.2-3.1-18.2-10.7-26.5c-1.2-1.3-2.6-2.8-3-3.3
		l-0.8-0.9l0.3-2c2.2-15.1,3.3-36.5,3.9-79c0.3-19.5,0.3-35.8,0-41.4c-0.4-7.4-1-11.8-3.1-21.7c-5.8-27.4-14.2-50.9-26.5-74.5
		c-9.4-18-19.2-32.8-31.6-47.5c-6.8-8.1-11.6-13.2-19.8-20.9c-9.7-9.1-18.3-15.9-29.4-23.4c-16-10.7-30.3-17.8-55.4-27.4
		c-13.4-5.1-20.6-8.2-30-12.6c-13.2-6.3-20-10.3-30.8-18.1c-7.3-5.2-10.8-7.6-12.1-8.2C308.2,18.2,307.1,18,306.1,18L306.1,18z"/>
</g>
<g id="Layer_3">
	<path class="st0" d="M205.7,75.6l-6.4,7.2V79C201.7,77.8,203.2,76.8,205.7,75.6z M146.2,175.6v10.7l-11.8,3.9l11.8,4.4v10.6
		l7.8-8.1l11.6,3l-6.5-9.7l6.5-9.1l-11.6,2.6L146.2,175.6z M182.1,151.8l-7.7-8.3v10.7l-11.8,3.9l11.8,4.3V173l7.7-8.1l11.8,3
		l-6.6-9.7l6.6-9.1L182.1,151.8z M182.1,227.3l11.8,2.9l-6.6-9.7l6.6-8.9l-11.8,2.6l-7.7-8.4v10.7l-11.8,3.9l11.8,4.4v10.6
		L182.1,227.3z M146.2,142.9l7.8-8.1l11.6,3l-6.5-9.7l6.5-9.1l-11.6,2.6l-5.7-6l-2.1,2.1v6.3l-8.9,2.9c-0.5,0.5-0.9,1-1.4,1.5
		l10.2,3.7V142.9z M199.3,132.3v10.6l7.8-8.1l11.6,3l-6.5-9.7l6.5-9.1l-11.6,2.6l-7.8-8.3v10.7l-11.8,3.9L199.3,132.3z M120.6,173
		l7.7-8.1l11.8,3l-6.6-9.7l6.6-9.1l-11.8,2.6l-5.9-6.4l-1.8,2.5v6.3l-5.7,1.9h0l-2.2,3.4l7.9,2.9V173z M111.8,200.2l-6.5-9.7
		l6.5-9.1l-11.6,2.6l-0.9-1L92.4,198v7.3l7.8-8.1L111.8,200.2z M174.4,112.9l7.7-8.1l11.8,2.9l-6.6-9.7l6.6-9.1l-11.3,2.5l-2-1.5
		l-5.4,3.3l-0.1,1.7l-8,4.6l7.3,2.7V112.9z M207.1,244.1l-7.8-8.3v10.7l-11.8,3.9l11.8,4.3v10.7l7.8-8.1l11.6,2.9l-6.5-9.7l6.5-9.1
		L207.1,244.1z M240.6,762.7v-8.3c-1.7-19.6-4.8-65.5-6.3-93.3c-2.3-43.1-2.7-58.1-2.7-105.9c0-45.8,0.3-55.1,2.1-77.1
		c0.3-3.7,0.5-6.9,0.4-6.9c-0.1-0.1-18.9-10.6-42.1-23.7v280.3c14.6,11.9,28.5,22,44.1,32.1C238.3,761.4,240,762.4,240.6,762.7z
		 M235.3,214.2l-7.8-8.4v10.7l-11.8,3.9l11.8,4.4v10.6l7.8-8.1l11.6,2.9l-6.5-9.7l6.5-8.9L235.3,214.2z M207.1,184.1l-7.8-8.4v10.7
		l-11.8,3.9l11.8,4.4v10.6l7.8-8.1l11.6,3l-6.5-9.7l6.5-9.1L207.1,184.1z M227.5,102.2v10.7l7.8-8.1l11.6,2.9l-6.5-9.7l6.5-9.1
		l-11.6,2.6l-7.8-8.3V94l-11.8,3.9L227.5,102.2z M235.3,274.2l-7.8-8.3v10.7l-11.8,3.9l11.8,4.3v10.6l7.8-7.9l11.6,2.9l-6.5-9.7
		l6.5-9.1L235.3,274.2z M92.4,265.4l7.8-8.1l11.6,2.9l-6.5-9.7l6.5-9.1l-11.6,2.6l-7.8-8.3v10.7l-11.8,3.9l11.8,4.3V265.4z
		 M235.3,151.8l-7.8-8.3v10.7l-11.8,3.9l11.8,4.3V173l7.8-8.1l11.6,3l-6.5-9.7l6.5-9.1L235.3,151.8z M154,257.3l11.6,2.9l-6.5-9.7
		l6.5-9.1l-11.6,2.6l-7.8-8.3v10.7l-11.8,3.9l11.8,4.3v10.7L154,257.3z M128.2,227.3l11.8,2.9l-6.6-9.7l6.6-8.9l-11.8,2.6l-7.7-8.4
		v10.7l-11.8,3.9l11.8,4.4v10.6L128.2,227.3z M207.1,304.7l-7.8-8.3v10.7l-11.8,3.9l11.8,4.4V326l7.8-8.1l11.6,2.9l-6.5-9.7l6.5-9.1
		L207.1,304.7z M182.1,287.4l11.8,2.9l-6.6-9.7l6.6-9.1l-11.8,2.6l-7.7-8.3v10.7l-11.8,3.9l11.8,4.3v10.6L182.1,287.4z M214.7,71.6
		l-7.2,3.3l11.2,2.8L214.7,71.6z M259.6,61.6l-5.5-5.8c-0.8,0.3-1.5,0.7-2.3,1v7.2l-11.8,3.9l11.8,4.4v10.6l7.8-8.1l11.6,2.9
		l-6.5-9.7l6.5-9.1L259.6,61.6z M259.6,121.7l-7.8-8.3v10.7l-11.8,3.9l11.8,4.3v10.6l7.8-8.1l11.6,3l-6.5-9.7l6.5-9.1L259.6,121.7z
		 M259.6,184.1l-7.8-8.4v10.7l-11.8,3.9l11.8,4.4v10.6l7.8-8.1l11.6,3l-6.5-9.7l6.5-9.1L259.6,184.1z M316.4,32.7
		c-8.3-5.9-9.8-6.9-10.4-6.9c-0.5,0-2,0.9-7.2,4.6l-4.2,2.9c0.5-0.4-4.8,3.2-10.8,7l0.1,494.3c12.1,11.2,21.1,18.9,22.1,18.9
		c0.9,0,9.5-7.4,20.9-17.8l-0.5-496.1C324,37.3,319.6,34.9,316.4,32.7z M259.6,244.1l-7.8-8.3v10.7l-11.8,3.9l11.8,4.3v10.7l7.8-8.1
		l11.6,2.9l-6.5-9.7l6.5-9.1L259.6,244.1z M259.6,304.7l-7.8-8.3v10.7l-11.8,3.9l11.8,4.4V326l7.8-8.1l11.6,2.9l-6.5-9.7l6.5-9.1
		L259.6,304.7z M465.1,342.1l22-12.2c7.6-4.3,8.1-4.6,9.6-4.2c1.3,0.4,2.7,1.4,3.4,3.1l0.1,36.8l0.1,36.8l-35.1,19.7v263.6
		c7.4-8,14.3-16.2,21.6-25.8c10.1-13.2,35-55.5,35.9-58.7v-64.4c-2.8-10.6-4.6-21.2-5.5-32.7c-0.3-4.5-0.3-16,0-20.1
		c0.9-11.3,2.6-19.7,5.5-26.9v-252c-13.5-34-33.2-64.1-57.5-88L465.1,342.1z M369.8,60.7L370,385c12-4.2,24.7-9.3,36.5-14.4
		c6.3-2.7,12.4-5.5,18.4-8.3c0-92.2,0.1-184.3,0.1-276.5c-12.9-7.9-26.1-14-46.6-21.8C375.3,62.8,372.5,61.8,369.8,60.7z
		 M378.3,478.2c2,23.4,2.2,34.1,2.1,86.5c-0.1,36.3-0.2,42.1-0.9,60.7c-1.5,37.7-5,93.4-8.2,131.6c-0.3,3.2-0.4,5.9-0.4,5.9
		c0.3,0.3,13.9-8.7,23.6-15.6c10.5-7.5,20.5-15.2,30.3-23.4c0-93.1,0.1-186.1,0.1-279.2v0c-25.9,14.5-46.9,26.3-47,26.4
		C377.8,471.2,377.9,474.3,378.3,478.2z M240.5,341.2l6.5-9.1l-11.6,2.6l-7.8-8.3v10.7l-11.8,3.9l11.8,4.3v10.7l7.8-8.1l11.6,2.9
		L240.5,341.2z M100.2,304.7l-7.8-8.3v10.7L80.6,311l11.8,4.4V326l7.8-8.1l11.6,2.9l-6.5-9.7l6.5-9.1L100.2,304.7z M111.9,641.2
		c11.2,17,24.3,33.4,39.5,49.4V424.7l-39.5-22.2L111.9,641.2z M100.2,366.6l-7.8-8.4v10.7l-11.8,3.9l11.8,4.4v10.6l7.8-8.1l11.6,2.9
		l-6.5-9.7l6.5-8.9L100.2,366.6z M80.5,341.2l6.6-9.1l-11.8,2.6l-2.8-3c-0.2,5.8,0,12,0.5,18.6l2.3-2.4l11.8,2.9L80.5,341.2z
		 M133.4,280.6l6.6-9.1l-11.8,2.6l-7.7-8.3v10.7l-11.8,3.9l11.8,4.3v10.6l7.7-7.9l11.8,2.9L133.4,280.6z M259.6,366.6l-7.8-8.4v10.7
		l-11.8,3.9l11.8,4.4v10.6l7.8-8.1l11.6,2.9l-6.5-9.7l6.5-8.9L259.6,366.6z M207.1,366.6l-7.8-8.4l1.6,10.4
		c3.3,1.5,9.1,4.5,11.9,5.3l-0.6-1l6.5-8.9L207.1,366.6z M87.1,290.3l-6.6-9.7l6.6-9.1l-11.8,2.6l-3.1-3c-0.2,2.6-0.2,9.9-0.2,19.6
		l3.2-3.3L87.1,290.3z M159.2,311.1l6.5-9.1l-11.6,2.6l-7.8-8.3v10.7l-11.8,3.9l11.8,4.4V326l7.8-8.1l11.6,2.9L159.2,311.1z
		 M182.1,334.8l-7.7-8.3v10.7l-11.8,3.9l11.8,4.3v10.7l7.7-8.1l11.8,2.9l-6.6-9.7l6.6-9.1L182.1,334.8z"/>
</g>
</svg>
