<?xml version="1.0" encoding="utf-8"?>
<!-- Generator: Adobe Illustrator 23.0.3, SVG Export Plug-In . SVG Version: 6.00 Build 0)  -->
<svg version="1.1" id="Layer_2" xmlns="http://www.w3.org/2000/svg" xmlns:xlink="http://www.w3.org/1999/xlink" x="0px" y="0px"
	 viewBox="0 0 612 792" style="enable-background:new 0 0 612 792;" xml:space="preserve">
<path d="M306.1,35.5c-0.9,0-1.9,0.1-2.5,0.3c-1.2,0.5-4.8,3-9.5,6.7c-10.6,8.1-16.5,11.8-28.8,18c-9.1,4.6-15,7.2-27.7,12.3
	c-12.3,5-18.3,7.6-26.1,11.5c-23.1,11.6-44.4,28.3-62.2,48.5C124,161.7,105.1,198,94.2,238.4c-3,11.2-6,25.4-6.8,32.9
	c-0.8,6.8-0.9,18.7-0.5,46.6c0.5,38.9,1.4,58.1,3.2,72.8l0.6,4.4l-0.7,0.8c-0.4,0.5-1.6,1.9-2.7,3.1c-6.9,7.9-10.5,17.4-9.7,25.3
	c0.5,4.3,1.1,5.4,4.3,7.5c4.3,2.8,10.4,8.2,13.4,12c5.6,6.9,8.9,14.3,10.6,23.8c1.3,7.3,1.8,13.4,1.8,21.8c0,14.3-1.9,28.3-5.9,42.4
	c-2.4,8.6-4.7,14.9-9,24.9l-1.6,3.7l1,3.8c1.3,5.2,2,7.4,3.5,11.9c6.2,18.4,16.9,39.9,29.9,60.3c8.5,13.3,20.2,28.7,31.1,41.1
	c17.5,19.9,41.1,41.5,64.3,58.9c10.7,8.1,27,19.1,29.3,20h0c1.9,0.7,4.2-0.7,4.6-2.8c0.1-0.4-0.1-4-0.5-8
	c-2.4-28.6-5.4-75.9-7-110.7c-1.5-33.1-1.7-42.8-1.7-86.3c0-46.6,0.2-53.5,2.2-77.7c0.3-3.8,0.6-6.9,0.5-6.9c0,0-25-14.8-55.6-32.8
	c-30.5-18-55.7-32.8-55.8-33c-0.2-0.2-0.3-4.5-0.2-29.9c0.1-16.3,0.2-29.7,0.2-29.7c0,0,2.4,1.3,5.3,3.1
	c30.7,18.4,64.7,35.4,93.4,46.8c9.7,3.8,24.9,9.2,33.8,11.8l2.1,0.6l0.7,1.5c2.1,4.7,2.7,8.6,2.9,18.8c0.3,20.8-1.7,36.9-9,69.8
	c-1.9,8.8-3.1,13.8-4.4,18.6l-1,3.8l2.3,2.3c28.7,28.4,38.9,37.7,42,38.1c1.6,0.2,2.5-0.1,4.4-1.3c2.8-1.9,8-6.4,15.1-13.1
	c3.3-3.1,26.6-25.9,26.6-26c0-0.1-0.5-2-1.1-4.3c-2.7-10.1-7-29.9-9.2-42.5c-3.1-17.6-4.2-30.1-4-45.5c0.2-10.1,0.8-14,2.9-18.7
	l0.7-1.5l2.1-0.6c4.3-1.3,17.1-5.6,22.1-7.4c32-11.7,69.6-30,105-51.2c2.9-1.7,5.3-3.1,5.3-3c0,0,0.1,13.4,0.2,29.7
	c0.1,25.3,0.1,29.6-0.2,29.8c-0.2,0.1-25.3,15-55.8,33c-30.5,18-55.5,32.7-55.6,32.8c0,0,0.2,3.1,0.5,6.9c2,24.1,2.2,30.9,2.2,77.3
	c0,34.2-0.1,45.9-0.7,62.2c-1.3,37.7-4.8,95.7-7.9,134c-0.6,6.9-0.7,8.9-0.5,9.6c0.5,1.8,2.5,3,4.3,2.5c0.9-0.3,4.3-2.4,11.2-7
	c21.9-14.7,40.8-30.1,61.4-49.9c29.6-28.4,54.1-61.6,70.9-96.1c7-14.5,11.5-26.3,14.9-39.2l1-3.8L519,556
	c-5.2-12-8.3-21.4-10.8-32.8c-4.2-18.9-4.9-38-2.1-54.6c1.7-10.3,5.1-18.1,11-25.1c3.2-3.8,8.6-8.6,12.9-11.5
	c3.6-2.4,4.1-3.3,4.6-7.7c0.8-7.8-2.8-17.4-9.7-25.2c-1.1-1.3-2.3-2.7-2.7-3.1l-0.7-0.8l0.3-1.9c2-14.4,3-34.8,3.5-75.3
	c0.3-18.6,0.3-34.2,0-39.5c-0.3-7-0.9-11.2-2.8-20.7c-5.3-26.1-12.9-48.6-24-71.1c-8.5-17.2-17.4-31.3-28.6-45.3
	c-6.2-7.8-10.5-12.6-18-19.9c-8.8-8.7-16.6-15.2-26.7-22.3c-14.5-10.2-27.5-16.9-50.2-26.1c-12.2-4.9-18.7-7.8-27.2-12
	c-12-6-18.1-9.8-28-17.2c-6.6-5-9.8-7.2-11-7.8C308,35.7,307,35.6,306.1,35.5L306.1,35.5z M306,42.9c0.6,0,1.9,1,9.4,6.6
	c2.9,2.1,6.9,4.4,9.1,6.6l0.5,473.1c-10.3,9.9-18.1,17-18.9,17c-0.9,0-9.1-7.4-20.1-18.1l-0.1-471.4c5.4-3.6,10.2-7.1,9.8-6.7
	l3.8-2.8C304.2,43.8,305.5,42.9,306,42.9L306,42.9z M259,71.5l5,5.6l10.6-2.5l-5.9,8.6l5.9,9.2l-10.6-2.8l-7.1,7.7V87.3l-10.7-4.2
	l10.7-3.7v-6.9C257.6,72.1,258.3,71.8,259,71.5L259,71.5z M363.9,76.3c2.4,1,4.9,2,7.8,3.2c18.6,7.4,30.6,13.3,42.3,20.8
	c0,87.9-0.1,175.8-0.1,263.6c-5.5,2.7-11,5.3-16.7,7.9c-10.7,4.9-22.3,9.7-33.1,13.7L363.9,76.3z M223.2,86.7l3.7,5.8l-10.2-2.7
	L223.2,86.7z M215,90.5l-5.8,6.9v-3.7C211.4,92.5,212.8,91.6,215,90.5L215,90.5z M234.8,97.8l7.1,7.9l10.6-2.5l-5.9,8.6l5.9,9.2
	l-10.6-2.8l-7.1,7.7v-10.2l-10.7-4.1l10.7-3.7V97.8z M204.3,103.2l-6,8.6l6,9.2l-10.7-2.8l-7,7.7v-10.2l-6.7-2.5l7.2-4.4l0.1-1.6
	l4.9-3.2l1.8,1.5L204.3,103.2z M209.2,126.5l7.1,7.9l10.6-2.5l-5.9,8.6l5.9,9.2l-10.6-2.9l-7.1,7.7v-10.1l-10.7-4.1l10.7-3.7V126.5z
	 M256.9,126.5l7.1,7.9l10.6-2.5l-5.9,8.6l5.9,9.2l-10.6-2.9l-7.1,7.7v-10.1l-10.7-4.1l10.7-3.7V126.5z M163,128.7l5.1,5.8l10.6-2.5
	l-5.9,8.6l5.9,9.2l-10.6-2.9l-7.1,7.7v-10.1l-9.3-3.5c0.4-0.5,0.8-1,1.2-1.5l8-2.8v-6L163,128.7z M450.3,130.1
	c22.1,22.8,39.9,51.5,52.2,83.9v240.3c-2.6,6.9-4.2,14.8-5,25.6c-0.3,4-0.3,14.9,0,19.2c0.8,10.9,2.4,21.1,5,31.2v61.5
	c-0.8,3.1-23.4,43.4-32.5,56c-6.7,9.1-13,17-19.6,24.6V421l31.8-18.8l-0.1-35.1l-0.1-35.1c-0.6-1.6-1.9-2.6-3.1-3
	c-1.3-0.4-1.8-0.1-8.7,4l-20,11.6L450.3,130.1z M186.6,155.2l7,7.9l10.7-2.5l-6,8.6l6,9.2l-10.7-2.9l-7,7.7v-10.1l-10.7-4.1
	l10.7-3.7V155.2z M234.8,155.2l7.1,7.9l10.6-2.5l-5.9,8.6l5.9,9.2l-10.6-2.9l-7.1,7.7v-10.1l-10.7-4.1l10.7-3.7V155.2z M139.4,157.1
	l5.3,6.1l10.7-2.5l-6,8.6l6,9.2l-10.7-2.9l-7,7.7v-10.1l-7.2-2.7l2-3.3h0l5.1-1.8v-6L139.4,157.1z M161,185.9l7.1,8l10.6-2.5
	l-5.9,8.6l5.9,9.2l-10.6-2.9l-7.1,7.7V204l-10.7-4.2l10.7-3.7V185.9z M209.2,185.9l7.1,8l10.6-2.5L221,200l5.9,9.2l-10.6-2.9
	l-7.1,7.7V204l-10.7-4.2l10.7-3.7V185.9z M256.9,185.9l7.1,8l10.6-2.5l-5.9,8.6l5.9,9.2l-10.6-2.9l-7.1,7.7V204l-10.7-4.2l10.7-3.7
	V185.9z M129.8,191.4l-5.9,8.6l5.9,9.2l-10.6-2.9l-7.1,7.7v-6.9l6.3-14.2l0.8,0.9L129.8,191.4z M137.8,214.6l7,8l10.7-2.5l-6,8.5
	l6,9.2l-10.7-2.8l-7,7.7v-10.1l-10.7-4.2l10.7-3.7V214.6z M186.6,214.6l7,8l10.7-2.5l-6,8.5l6,9.2l-10.7-2.8l-7,7.7v-10.1l-10.7-4.2
	l10.7-3.7V214.6z M234.8,214.6l7.1,8l10.6-2.5l-5.9,8.5l5.9,9.2l-10.6-2.8l-7.1,7.7v-10.1l-10.7-4.2l10.7-3.7V214.6z M112.2,243.3
	l7.1,7.9l10.6-2.5l-5.9,8.6l5.9,9.2l-10.6-2.8l-7.1,7.7v-10.2l-10.7-4.1l10.7-3.7V243.3z M161,243.3l7.1,7.9l10.6-2.5l-5.9,8.6
	l5.9,9.2l-10.6-2.8l-7.1,7.7v-10.2l-10.7-4.1l10.7-3.7V243.3z M209.2,243.3l7.1,7.9l10.6-2.5l-5.9,8.6l5.9,9.2l-10.6-2.8l-7.1,7.7
	v-10.2l-10.7-4.1l10.7-3.7V243.3z M256.9,243.3l7.1,7.9l10.6-2.5l-5.9,8.6l5.9,9.2l-10.6-2.8l-7.1,7.7v-10.2l-10.7-4.1l10.7-3.7
	V243.3z M137.8,271.9l7,7.9l10.7-2.5l-6,8.6l6,9.2l-10.7-2.8l-7,7.6V290l-10.7-4.1l10.7-3.7V271.9z M186.6,271.9l7,7.9l10.7-2.5
	l-6,8.6l6,9.2l-10.7-2.8l-7,7.6V290l-10.7-4.1l10.7-3.7V271.9z M234.8,271.9l7.1,7.9l10.6-2.5l-5.9,8.6l5.9,9.2l-10.6-2.8l-7.1,7.6
	V290l-10.7-4.1l10.7-3.7V271.9z M93.9,277l2.8,2.9l10.7-2.5l-6,8.6l6,9.2l-10.7-2.8l-2.9,3.2C93.7,286.5,93.7,279.5,93.9,277
	L93.9,277z M112.2,301l7.1,7.9l10.6-2.5l-5.9,8.6l5.9,9.2l-10.6-2.8l-7.1,7.7v-10.1l-10.7-4.2l10.7-3.7V301z M161,301l7.1,7.9
	l10.6-2.5l-5.9,8.6l5.9,9.2l-10.6-2.8l-7.1,7.7v-10.1l-10.7-4.2l10.7-3.7V301z M209.2,301l7.1,7.9l10.6-2.5l-5.9,8.6l5.9,9.2
	l-10.6-2.8l-7.1,7.7v-10.1l-10.7-4.2l10.7-3.7V301z M256.9,301l7.1,7.9l10.6-2.5l-5.9,8.6l5.9,9.2l-10.6-2.8l-7.1,7.7v-10.1
	l-10.7-4.2l10.7-3.7V301z M186.6,329.7l7,7.9l10.7-2.5l-6,8.6l6,9.2l-10.7-2.8l-7,7.7v-10.2l-10.7-4.1l10.7-3.7V329.7z M234.8,329.7
	l7.1,7.9l10.6-2.5l-5.9,8.6l5.9,9.2l-10.6-2.8l-7.1,7.7v-10.2l-10.7-4.1l10.7-3.7V329.7z M94.2,334.8l2.5,2.9l10.7-2.5l-6,8.6l6,9.2
	l-10.7-2.8l-2.1,2.3C94.2,346.2,94,340.3,94.2,334.8L94.2,334.8z M112.2,360l7.1,8l10.6-2.5l-5.9,8.5l5.9,9.2l-10.6-2.8l-7.1,7.7
	v-10.1l-10.7-4.2l10.7-3.7V360z M209.2,360l7.1,8l10.6-2.5L221,374l0.5,0.9c-2.6-0.8-7.8-3.7-10.8-5.1L209.2,360z M256.9,360l7.1,8
	l10.6-2.5l-5.9,8.5l5.9,9.2l-10.6-2.8l-7.1,7.7v-10.1l-10.7-4.2l10.7-3.7V360z M129.9,402.2l35.9,21.1v253.6
	c-13.8-15.3-25.7-30.9-35.9-47.1L129.9,402.2z M413.8,442.5L413.8,442.5c0,88.7-0.1,177.5-0.1,266.2c-8.9,7.9-18,15.2-27.5,22.4
	c-8.8,6.6-21.1,15.1-21.4,14.8c-0.1-0.1,0.1-2.6,0.3-5.7c2.9-36.4,6.1-89.6,7.4-125.5c0.7-17.7,0.8-23.2,0.9-57.9
	c0.1-49.9-0.1-60.2-1.9-82.5c-0.3-3.7-0.5-6.6-0.4-6.7C371.3,467.6,390.3,456.3,413.8,442.5L413.8,442.5z M202.6,445.1
	c21.1,12.5,38.2,22.5,38.2,22.6c0.1,0.1-0.1,3.1-0.4,6.6c-1.7,21-1.9,29.9-1.9,73.6c0,45.6,0.3,59.9,2.4,101
	c1.3,26.5,4.2,70.2,5.7,89v7.9c-0.5-0.3-2.1-1.3-4.1-2.7c-14.2-9.6-26.8-19.3-40-30.6V445.1z M202.6,445.1"/>
</svg>
