  0
SECTION
  2
HEADER
  9
$ACADVER
  1
AC1024
  9
$ACADMAINTVER
 70
     6
  9
$DWGCODEPAGE
  3
ANSI_1252
  9
$INSBASE
 10
0.0
 20
0.0
 30
0.0
  9
$EXTMIN
 10
1.000000000000000E+20
 20
1.000000000000000E+20
 30
1.000000000000000E+20
  9
$EXTMAX
 10
-1.000000000000000E+20
 20
-1.000000000000000E+20
 30
-1.000000000000000E+20
  9
$LIMMIN
 10
0.0
 20
0.0
  9
$LIMMAX
 10
12.0
 20
9.0
  9
$ORTHOMODE
 70
     0
  9
$REGENMODE
 70
     1
  9
$FILLMODE
 70
     1
  9
$QTEXTMODE
 70
     0
  9
$MIRRTEXT
 70
     1
  9
$LTSCALE
 40
1.0
  9
$ATTMODE
 70
     1
  9
$TEXTSIZE
 40
0.2
  9
$TRACEWID
 40
0.05
  9
$TEXTSTYLE
  7
Standard
  9
$CLAYER
  8
0
  9
$CELTYPE
  6
ByLayer
  9
$CECOLOR
 62
   256
  9
$CELTSCALE
 40
1.0
  9
$DISPSILH
 70
     0
  9
$DIMSCALE
 40
1.0
  9
$DIMASZ
 40
0.18
  9
$DIMEXO
 40
0.0625
  9
$DIMDLI
 40
0.38
  9
$DIMRND
 40
0.0
  9
$DIMDLE
 40
0.0
  9
$DIMEXE
 40
0.18
  9
$DIMTP
 40
0.0
  9
$DIMTM
 40
0.0
  9
$DIMTXT
 40
0.18
  9
$DIMCEN
 40
0.09
  9
$DIMTSZ
 40
0.0
  9
$DIMTOL
 70
     0
  9
$DIMLIM
 70
     0
  9
$DIMTIH
 70
     1
  9
$DIMTOH
 70
     1
  9
$DIMSE1
 70
     0
  9
$DIMSE2
 70
     0
  9
$DIMTAD
 70
     0
  9
$DIMZIN
 70
     0
  9
$DIMBLK
  1

  9
$DIMASO
 70
     1
  9
$DIMSHO
 70
     1
  9
$DIMPOST
  1

  9
$DIMAPOST
  1

  9
$DIMALT
 70
     0
  9
$DIMALTD
 70
     2
  9
$DIMALTF
 40
25.4
  9
$DIMLFAC
 40
1.0
  9
$DIMTOFL
 70
     0
  9
$DIMTVP
 40
0.0
  9
$DIMTIX
 70
     0
  9
$DIMSOXD
 70
     0
  9
$DIMSAH
 70
     0
  9
$DIMBLK1
  1

  9
$DIMBLK2
  1

  9
$DIMSTYLE
  2
Standard
  9
$DIMCLRD
 70
     0
  9
$DIMCLRE
 70
     0
  9
$DIMCLRT
 70
     0
  9
$DIMTFAC
 40
1.0
  9
$DIMGAP
 40
0.09
  9
$DIMJUST
 70
     0
  9
$DIMSD1
 70
     0
  9
$DIMSD2
 70
     0
  9
$DIMTOLJ
 70
     1
  9
$DIMTZIN
 70
     0
  9
$DIMALTZ
 70
     0
  9
$DIMALTTZ
 70
     0
  9
$DIMUPT
 70
     0
  9
$DIMDEC
 70
     4
  9
$DIMTDEC
 70
     4
  9
$DIMALTU
 70
     2
  9
$DIMALTTD
 70
     2
  9
$DIMTXSTY
  7
Standard
  9
$DIMAUNIT
 70
     0
  9
$DIMADEC
 70
     0
  9
$DIMALTRND
 40
0.0
  9
$DIMAZIN
 70
     0
  9
$DIMDSEP
 70
    46
  9
$DIMATFIT
 70
     3
  9
$DIMFRAC
 70
     0
  9
$DIMLDRBLK
  1

  9
$DIMLUNIT
 70
     2
  9
$DIMLWD
 70
    -2
  9
$DIMLWE
 70
    -2
  9
$DIMTMOVE
 70
     0
  9
$DIMFXL
 40
1.0
  9
$DIMFXLON
 70
     0
  9
$DIMJOGANG
 40
0.7853981633974483
  9
$DIMTFILL
 70
     0
  9
$DIMTFILLCLR
 70
     0
  9
$DIMARCSYM
 70
     0
  9
$DIMLTYPE
  6

  9
$DIMLTEX1
  6

  9
$DIMLTEX2
  6

  9
$DIMTXTDIRECTION
 70
     0
  9
$LUNITS
 70
     2
  9
$LUPREC
 70
     4
  9
$SKETCHINC
 40
0.1
  9
$FILLETRAD
 40
0.5
  9
$AUNITS
 70
     0
  9
$AUPREC
 70
     0
  9
$MENU
  1
.
  9
$ELEVATION
 40
0.0
  9
$PELEVATION
 40
0.0
  9
$THICKNESS
 40
0.0
  9
$LIMCHECK
 70
     0
  9
$CHAMFERA
 40
0.5
  9
$CHAMFERB
 40
0.5
  9
$CHAMFERC
 40
1.0
  9
$CHAMFERD
 40
0.0
  9
$SKPOLY
 70
     0
  9
$TDCREATE
 40
2458667.514531238
  9
$TDUCREATE
 40
2458667.181197905
  9
$TDUPDATE
 40
2458667.514531238
  9
$TDUUPDATE
 40
2458667.181197905
  9
$TDINDWG
 40
0.0000000116
  9
$TDUSRTIMER
 40
0.0000000116
  9
$USRTIMER
 70
     1
  9
$ANGBASE
 50
0.0
  9
$ANGDIR
 70
     0
  9
$PDMODE
 70
     0
  9
$PDSIZE
 40
0.0
  9
$PLINEWID
 40
0.0
  9
$SPLFRAME
 70
     0
  9
$SPLINETYPE
 70
     6
  9
$SPLINESEGS
 70
     8
  9
$HANDSEED
  5
1D6
  9
$SURFTAB1
 70
     6
  9
$SURFTAB2
 70
     6
  9
$SURFTYPE
 70
     6
  9
$SURFU
 70
     6
  9
$SURFV
 70
     6
  9
$UCSBASE
  2

  9
$UCSNAME
  2

  9
$UCSORG
 10
0.0
 20
0.0
 30
0.0
  9
$UCSXDIR
 10
1.0
 20
0.0
 30
0.0
  9
$UCSYDIR
 10
0.0
 20
1.0
 30
0.0
  9
$UCSORTHOREF
  2

  9
$UCSORTHOVIEW
 70
     0
  9
$UCSORGTOP
 10
0.0
 20
0.0
 30
0.0
  9
$UCSORGBOTTOM
 10
0.0
 20
0.0
 30
0.0
  9
$UCSORGLEFT
 10
0.0
 20
0.0
 30
0.0
  9
$UCSORGRIGHT
 10
0.0
 20
0.0
 30
0.0
  9
$UCSORGFRONT
 10
0.0
 20
0.0
 30
0.0
  9
$UCSORGBACK
 10
0.0
 20
0.0
 30
0.0
  9
$PUCSBASE
  2

  9
$PUCSNAME
  2

  9
$PUCSORG
 10
0.0
 20
0.0
 30
0.0
  9
$PUCSXDIR
 10
1.0
 20
0.0
 30
0.0
  9
$PUCSYDIR
 10
0.0
 20
1.0
 30
0.0
  9
$PUCSORTHOREF
  2

  9
$PUCSORTHOVIEW
 70
     0
  9
$PUCSORGTOP
 10
0.0
 20
0.0
 30
0.0
  9
$PUCSORGBOTTOM
 10
0.0
 20
0.0
 30
0.0
  9
$PUCSORGLEFT
 10
0.0
 20
0.0
 30
0.0
  9
$PUCSORGRIGHT
 10
0.0
 20
0.0
 30
0.0
  9
$PUCSORGFRONT
 10
0.0
 20
0.0
 30
0.0
  9
$PUCSORGBACK
 10
0.0
 20
0.0
 30
0.0
  9
$USERI1
 70
     0
  9
$USERI2
 70
     0
  9
$USERI3
 70
     0
  9
$USERI4
 70
     0
  9
$USERI5
 70
     0
  9
$USERR1
 40
0.0
  9
$USERR2
 40
0.0
  9
$USERR3
 40
0.0
  9
$USERR4
 40
0.0
  9
$USERR5
 40
0.0
  9
$WORLDVIEW
 70
     1
  9
$SHADEDGE
 70
     3
  9
$SHADEDIF
 70
    70
  9
$TILEMODE
 70
     1
  9
$MAXACTVP
 70
    64
  9
$PINSBASE
 10
0.0
 20
0.0
 30
0.0
  9
$PLIMCHECK
 70
     0
  9
$PEXTMIN
 10
1.000000000000000E+20
 20
1.000000000000000E+20
 30
1.000000000000000E+20
  9
$PEXTMAX
 10
-1.000000000000000E+20
 20
-1.000000000000000E+20
 30
-1.000000000000000E+20
  9
$PLIMMIN
 10
0.0
 20
0.0
  9
$PLIMMAX
 10
12.0
 20
9.0
  9
$UNITMODE
 70
     0
  9
$VISRETAIN
 70
     1
  9
$PLINEGEN
 70
     0
  9
$PSLTSCALE
 70
     1
  9
$TREEDEPTH
 70
  3020
  9
$CMLSTYLE
  2
Standard
  9
$CMLJUST
 70
     0
  9
$CMLSCALE
 40
1.0
  9
$PROXYGRAPHICS
 70
     1
  9
$MEASUREMENT
 70
     0
  9
$CELWEIGHT
370
    -1
  9
$ENDCAPS
280
     0
  9
$JOINSTYLE
280
     0
  9
$LWDISPLAY
290
     1
  9
$INSUNITS
 70
     1
  9
$HYPERLINKBASE
  1

  9
$STYLESHEET
  1

  9
$XEDIT
290
     1
  9
$CEPSNTYPE
380
     0
  9
$PSTYLEMODE
290
     1
  9
$FINGERPRINTGUID
  2
{ECD2A461-8A0A-4457-A4A6-F9F2A535338F}
  9
$VERSIONGUID
  2
{FAEB1C32-E019-11D5-929B-00C0DF256EC4}
  9
$EXTNAMES
290
     1
  9
$PSVPSCALE
 40
0.0
  9
$OLESTARTUP
290
     0
  9
$SORTENTS
280
   127
  9
$INDEXCTL
280
     0
  9
$HIDETEXT
280
     1
  9
$XCLIPFRAME
280
     2
  9
$HALOGAP
280
     0
  9
$OBSCOLOR
 70
   257
  9
$OBSLTYPE
280
     0
  9
$INTERSECTIONDISPLAY
280
     0
  9
$INTERSECTIONCOLOR
 70
   257
  9
$DIMASSOC
280
     2
  9
$PROJECTNAME
  1

  9
$CAMERADISPLAY
290
     0
  9
$LENSLENGTH
 40
50.0
  9
$CAMERAHEIGHT
 40
0.0
  9
$STEPSPERSEC
 40
2.0
  9
$STEPSIZE
 40
6.0
  9
$3DDWFPREC
 40
2.0
  9
$PSOLWIDTH
 40
0.25
  9
$PSOLHEIGHT
 40
4.0
  9
$LOFTANG1
 40
1.570796326794897
  9
$LOFTANG2
 40
1.570796326794897
  9
$LOFTMAG1
 40
0.0
  9
$LOFTMAG2
 40
0.0
  9
$LOFTPARAM
 70
     7
  9
$LOFTNORMALS
280
     1
  9
$LATITUDE
 40
37.795
  9
$LONGITUDE
 40
-122.394
  9
$NORTHDIRECTION
 40
0.0
  9
$TIMEZONE
 70
 -8000
  9
$LIGHTGLYPHDISPLAY
280
     1
  9
$TILEMODELIGHTSYNCH
280
     1
  9
$CMATERIAL
347
3C
  9
$SOLIDHIST
280
     1
  9
$SHOWHIST
280
     1
  9
$DWFFRAME
280
     2
  9
$DGNFRAME
280
     2
  9
$REALWORLDSCALE
290
     1
  9
$INTERFERECOLOR
 62
   256
  9
$CSHADOW
280
     0
  9
$SHADOWPLANELOCATION
 40
0.0
  0
ENDSEC
  0
SECTION
  2
CLASSES
  0
CLASS
  1
ACDBDICTIONARYWDFLT
  2
AcDbDictionaryWithDefault
  3
ObjectDBX Classes
 90
        0
 91
        4
280
     0
281
     0
  0
CLASS
  1
VISUALSTYLE
  2
AcDbVisualStyle
  3
ObjectDBX Classes
 90
     4095
 91
        4
280
     0
281
     0
  0
CLASS
  1
MATERIAL
  2
AcDbMaterial
  3
ObjectDBX Classes
 90
     1153
 91
        4
280
     0
281
     0
  0
CLASS
  1
SUN
  2
AcDbSun
  3
SCENEOE
 90
     1024
 91
        4
280
     0
281
     0
  0
ENDSEC
  0
SECTION
  2
TABLES
  0
TABLE
  2
VPORT
  5
8
330
0
100
AcDbSymbolTable
 70
     1
  0
VPORT
  5
29
330
8
100
AcDbSymbolTableRecord
100
AcDbViewportTableRecord
  2
*Active
 70
     0
 10
0.0
 20
0.0
 11
1.0
 21
1.0
 12
0.0
 22
0.0
 13
0.0
 23
0.0
 14
0.5
 24
0.5
 15
0.5
 25
0.5
 16
0.0
 26
0.0
 36
1.0
 17
4.25
 27
5.5
 37
0.0
 40
11.0
 41
0.7727272727272727
 42
50.0
 43
0.0
 44
0.0
 50
0.0
 51
0.0
 71
     0
 72
   100
 73
     1
 74
     3
 75
     0
 76
     0
 77
     0
 78
     0
281
     0
 65
     1
110
0.0
120
0.0
130
0.0
111
1.0
121
0.0
131
0.0
112
0.0
122
1.0
132
0.0
 79
     0
146
0.0
 60
     3
 61
     5
292
     1
282
     1
141
0.0
142
0.0
 63
   250
361
3F
  0
ENDTAB
  0
TABLE
  2
LTYPE
  5
5
330
0
100
AcDbSymbolTable
 70
     1
  0
LTYPE
  5
14
330
5
100
AcDbSymbolTableRecord
100
AcDbLinetypeTableRecord
  2
ByBlock
 70
     0
  3

 72
    65
 73
     0
 40
0.0
  0
LTYPE
  5
15
330
5
100
AcDbSymbolTableRecord
100
AcDbLinetypeTableRecord
  2
ByLayer
 70
     0
  3

 72
    65
 73
     0
 40
0.0
  0
LTYPE
  5
16
330
5
100
AcDbSymbolTableRecord
100
AcDbLinetypeTableRecord
  2
Continuous
 70
     0
  3
Solid line
 72
    65
 73
     0
 40
0.0
  0
ENDTAB
  0
TABLE
  2
LAYER
  5
2
330
0
100
AcDbSymbolTable
 70
     2
  0
LAYER
  5
10
330
2
100
AcDbSymbolTableRecord
100
AcDbLayerTableRecord
  2
0
 70
     0
 62
     7
  6
Continuous
370
    -3
390
F
347
3E
  0
LAYER
  5
40
330
2
100
AcDbSymbolTableRecord
100
AcDbLayerTableRecord
  2
Layer 2
 70
     0
 62
     7
  6
Continuous
370
    -3
390
F
347
3E
  0
ENDTAB
  0
TABLE
  2
STYLE
  5
3
330
0
100
AcDbSymbolTable
 70
     1
  0
STYLE
  5
11
330
3
100
AcDbSymbolTableRecord
100
AcDbTextStyleTableRecord
  2
Standard
 70
     0
 40
0.0
 41
1.0
 50
0.0
 71
     0
 42
0.2
  3
txt
  4

  0
ENDTAB
  0
TABLE
  2
VIEW
  5
6
330
0
100
AcDbSymbolTable
 70
     0
  0
ENDTAB
  0
TABLE
  2
UCS
  5
7
330
0
100
AcDbSymbolTable
 70
     0
  0
ENDTAB
  0
TABLE
  2
APPID
  5
9
330
0
100
AcDbSymbolTable
 70
     1
  0
APPID
  5
12
330
9
100
AcDbSymbolTableRecord
100
AcDbRegAppTableRecord
  2
ACAD
 70
     0
  0
ENDTAB
  0
TABLE
  2
DIMSTYLE
  5
A
330
0
100
AcDbSymbolTable
 70
     1
100
AcDbDimStyleTable
  0
DIMSTYLE
105
27
330
A
100
AcDbSymbolTableRecord
100
AcDbDimStyleTableRecord
  2
Standard
 70
     0
178
     0
340
11
  0
ENDTAB
  0
TABLE
  2
BLOCK_RECORD
  5
1
330
0
100
AcDbSymbolTable
 70
     1
  0
BLOCK_RECORD
  5
1F
330
1
100
AcDbSymbolTableRecord
100
AcDbBlockTableRecord
  2
*Model_Space
340
22
 70
     0
280
     1
281
     0
  0
BLOCK_RECORD
  5
1B
330
1
100
AcDbSymbolTableRecord
100
AcDbBlockTableRecord
  2
*Paper_Space
340
1E
 70
     0
280
     1
281
     0
  0
BLOCK_RECORD
  5
23
330
1
100
AcDbSymbolTableRecord
100
AcDbBlockTableRecord
  2
*Paper_Space0
340
26
 70
     0
280
     1
281
     0
  0
ENDTAB
  0
ENDSEC
  0
SECTION
  2
BLOCKS
  0
BLOCK
  5
20
330
1F
100
AcDbEntity
  8
0
100
AcDbBlockBegin
  2
*Model_Space
 70
     0
 10
0.0
 20
0.0
 30
0.0
  3
*Model_Space
  1

  0
ENDBLK
  5
21
330
1F
100
AcDbEntity
  8
0
100
AcDbBlockEnd
  0
BLOCK
  5
1C
330
1B
100
AcDbEntity
 67
     1
  8
0
100
AcDbBlockBegin
  2
*Paper_Space
 70
     0
 10
0.0
 20
0.0
 30
0.0
  3
*Paper_Space
  1

  0
ENDBLK
  5
1D
330
1B
100
AcDbEntity
 67
     1
  8
0
100
AcDbBlockEnd
  0
BLOCK
  5
24
330
23
100
AcDbEntity
  8
0
100
AcDbBlockBegin
  2
*Paper_Space0
 70
     0
 10
0.0
 20
0.0
 30
0.0
  3
*Paper_Space0
  1

  0
ENDBLK
  5
25
330
23
100
AcDbEntity
  8
0
100
AcDbBlockEnd
  0
ENDSEC
  0
SECTION
  2
ENTITIES
  0
SPLINE
  5
41
330
1F
100
AcDbEntity
  8
Layer 2
370
     0
100
AcDbSpline
210
0.0
220
0.0
230
1.0
 70
    11
 71
     3
 72
   302
 73
   298
 74
     0
 42
0.0000000001
 43
0.0000000001
 12
1.0
 22
0.0
 32
0.0
 13
1.0
 23
0.0
 33
0.0
 40
0.0
 40
0.0
 40
0.0
 40
0.0
 40
1.0
 40
1.0
 40
1.0
 40
2.0
 40
2.0
 40
2.0
 40
3.0
 40
3.0
 40
3.0
 40
4.0
 40
4.0
 40
4.0
 40
5.0
 40
5.0
 40
5.0
 40
6.0
 40
6.0
 40
6.0
 40
7.0
 40
7.0
 40
7.0
 40
8.0
 40
8.0
 40
8.0
 40
9.0
 40
9.0
 40
9.0
 40
10.0
 40
10.0
 40
10.0
 40
11.0
 40
11.0
 40
11.0
 40
12.0
 40
12.0
 40
12.0
 40
13.0
 40
13.0
 40
13.0
 40
14.0
 40
14.0
 40
14.0
 40
15.0
 40
15.0
 40
15.0
 40
16.0
 40
16.0
 40
16.0
 40
17.0
 40
17.0
 40
17.0
 40
18.0
 40
18.0
 40
18.0
 40
19.0
 40
19.0
 40
19.0
 40
20.0
 40
20.0
 40
20.0
 40
21.0
 40
21.0
 40
21.0
 40
22.0
 40
22.0
 40
22.0
 40
23.0
 40
23.0
 40
23.0
 40
24.0
 40
24.0
 40
24.0
 40
25.0
 40
25.0
 40
25.0
 40
26.0
 40
26.0
 40
26.0
 40
27.0
 40
27.0
 40
27.0
 40
28.0
 40
28.0
 40
28.0
 40
29.0
 40
29.0
 40
29.0
 40
30.0
 40
30.0
 40
30.0
 40
31.0
 40
31.0
 40
31.0
 40
32.0
 40
32.0
 40
32.0
 40
33.0
 40
33.0
 40
33.0
 40
34.0
 40
34.0
 40
34.0
 40
35.0
 40
35.0
 40
35.0
 40
36.0
 40
36.0
 40
36.0
 40
37.0
 40
37.0
 40
37.0
 40
38.0
 40
38.0
 40
38.0
 40
39.0
 40
39.0
 40
39.0
 40
40.0
 40
40.0
 40
40.0
 40
41.0
 40
41.0
 40
41.0
 40
42.0
 40
42.0
 40
42.0
 40
43.0
 40
43.0
 40
43.0
 40
44.0
 40
44.0
 40
44.0
 40
45.0
 40
45.0
 40
45.0
 40
46.0
 40
46.0
 40
46.0
 40
47.0
 40
47.0
 40
47.0
 40
48.0
 40
48.0
 40
48.0
 40
49.0
 40
49.0
 40
49.0
 40
50.0
 40
50.0
 40
50.0
 40
51.0
 40
51.0
 40
51.0
 40
52.0
 40
52.0
 40
52.0
 40
53.0
 40
53.0
 40
53.0
 40
54.0
 40
54.0
 40
54.0
 40
55.0
 40
55.0
 40
55.0
 40
56.0
 40
56.0
 40
56.0
 40
57.0
 40
57.0
 40
57.0
 40
58.0
 40
58.0
 40
58.0
 40
59.0
 40
59.0
 40
59.0
 40
60.0
 40
60.0
 40
60.0
 40
61.0
 40
61.0
 40
61.0
 40
62.0
 40
62.0
 40
62.0
 40
63.0
 40
63.0
 40
63.0
 40
64.0
 40
64.0
 40
64.0
 40
65.0
 40
65.0
 40
65.0
 40
66.0
 40
66.0
 40
66.0
 40
67.0
 40
67.0
 40
67.0
 40
68.0
 40
68.0
 40
68.0
 40
69.0
 40
69.0
 40
69.0
 40
70.0
 40
70.0
 40
70.0
 40
71.0
 40
71.0
 40
71.0
 40
72.0
 40
72.0
 40
72.0
 40
73.0
 40
73.0
 40
73.0
 40
74.0
 40
74.0
 40
74.0
 40
75.0
 40
75.0
 40
75.0
 40
76.0
 40
76.0
 40
76.0
 40
77.0
 40
77.0
 40
77.0
 40
78.0
 40
78.0
 40
78.0
 40
79.0
 40
79.0
 40
79.0
 40
80.0
 40
80.0
 40
80.0
 40
81.0
 40
81.0
 40
81.0
 40
82.0
 40
82.0
 40
82.0
 40
83.0
 40
83.0
 40
83.0
 40
84.0
 40
84.0
 40
84.0
 40
85.0
 40
85.0
 40
85.0
 40
86.0
 40
86.0
 40
86.0
 40
87.0
 40
87.0
 40
87.0
 40
88.0
 40
88.0
 40
88.0
 40
89.0
 40
89.0
 40
89.0
 40
90.0
 40
90.0
 40
90.0
 40
91.0
 40
91.0
 40
91.0
 40
92.0
 40
92.0
 40
92.0
 40
93.0
 40
93.0
 40
93.0
 40
94.0
 40
94.0
 40
94.0
 40
95.0
 40
95.0
 40
95.0
 40
96.0
 40
96.0
 40
96.0
 40
97.0
 40
97.0
 40
97.0
 40
98.0
 40
98.0
 40
98.0
 40
99.0
 40
99.0
 40
99.0
 40
99.0
 10
4.250963785179061
 20
10.50635486266493
 30
0.0
 10
4.237886711871726
 20
10.50658935504108
 30
0.0
 10
4.224763026930001
 20
10.50497946089901
 30
0.0
 10
4.216727181158894
 20
10.50153737097384
 30
0.0
 10
4.2007128577821
 20
10.49465247402146
 30
0.0
 10
4.150403845117668
 20
10.45940547318786
 30
0.0
 10
4.084362330189062
 20
10.40883758667697
 30
0.0
 10
3.937041598494425
 20
10.29602380648203
 30
0.0
 10
3.85452896617187
 20
10.24435158278681
 30
0.0
 10
3.684721347837012
 20
10.15866649091658
 30
0.0
 10
3.558465847933298
 20
10.09501005746528
 30
0.0
 10
3.476997674772406
 20
10.05870533108176
 30
0.0
 10
3.299799602527413
 20
9.98724897843964
 30
0.0
 10
3.129204247571137
 20
9.918445903448161
 30
0.0
 10
3.045081362555468
 20
9.881225437724133
 30
0.0
 10
2.937460476984067
 20
9.826933640175461
 30
0.0
 10
2.617076842118056
 20
9.665290228881833
 30
0.0
 10
2.321002608797433
 20
9.434258587309436
 30
0.0
 10
2.073908956560747
 20
9.153163181979783
 30
0.0
 10
1.722860603073993
 20
8.75387357964093
 30
0.0
 10
1.459201175970432
 20
8.24963035287164
 30
0.0
 10
1.307885827207441
 20
7.688251301753009
 30
0.0
 10
1.265847869792323
 20
7.532118102747896
 30
0.0
 10
1.225043686484759
 20
7.334911448608787
 30
0.0
 10
1.213388985128795
 20
7.231508198848815
 30
0.0
 10
1.20274432203525
 20
7.136693680554167
 30
0.0
 10
1.200899576965993
 20
6.971291220221436
 30
0.0
 10
1.20613944177497
 20
6.584397444225537
 30
0.0
 10
1.213435596763209
 20
6.043802162336255
 30
0.0
 10
1.225325507597379
 20
5.776923664050602
 30
0.0
 10
1.251161619444992
 20
5.573477863371105
 30
0.0
 10
1.251161619444992
 20
5.573477863371105
 30
0.0
 10
1.258869032469066
 20
5.51285297891118
 30
0.0
 10
1.258869032469066
 20
5.51285297891118
 30
0.0
 10
1.258869032469066
 20
5.51285297891118
 30
0.0
 10
1.248729926333277
 20
5.501103978633321
 30
0.0
 10
1.248729926333277
 20
5.501103978633321
 30
0.0
 10
1.243125415122853
 20
5.494630339716776
 30
0.0
 10
1.226054083298209
 20
5.474939075487655
 30
0.0
 10
1.210768694173276
 20
5.457409515441719
 30
0.0
 10
1.114943779065179
 20
5.347215667651274
 30
0.0
 10
1.064552299662953
 20
5.215814960411509
 30
0.0
 10
1.076301299940825
 20
5.106678479619934
 30
0.0
 10
1.082727968671924
 20
5.047157932344336
 30
0.0
 10
1.091351838138571
 20
5.032236831069818
 30
0.0
 10
1.136280075437715
 20
5.003004882380436
 30
0.0
 10
1.19599997708815
 20
4.964139743064025
 30
0.0
 10
1.280393209583344
 20
4.88886410480912
 30
0.0
 10
1.322759958296526
 20
4.836686682707194
 30
0.0
 10
1.400961372987808
 20
4.740356210641342
 30
0.0
 10
1.4463008683228
 20
4.638374615730653
 30
0.0
 10
1.4697518986931
 20
4.506198362604638
 30
0.0
 10
1.487610250037088
 20
4.405415403800185
 30
0.0
 10
1.494589087360345
 20
4.320187823049157
 30
0.0
 10
1.494542117174913
 20
4.20311015395944
 30
0.0
 10
1.494448176804035
 20
4.004480769317929
 30
0.0
 10
1.467601668142985
 20
3.810622264733107
 30
0.0
 10
1.412980720745218
 20
3.613732569707938
 30
0.0
 10
1.379942394280255
 20
3.494586061152757
 30
0.0
 10
1.348232140844743
 20
3.407067339295306
 30
0.0
 10
1.287830275127893
 20
3.268335339066021
 30
0.0
 10
1.287830275127893
 20
3.268335339066021
 30
0.0
 10
1.265706959236013
 20
3.217568815282347
 30
0.0
 10
1.265706959236013
 20
3.217568815282347
 30
0.0
 10
1.265706959236013
 20
3.217568815282347
 30
0.0
 10
1.279383171320938
 20
3.16525048262411
 30
0.0
 10
1.279383171320938
 20
3.16525048262411
 30
0.0
 10
1.298110650371023
 20
3.09361646794471
 30
0.0
 10
1.307521539357026
 20
3.061940814683971
 30
0.0
 10
1.328399607508269
 20
2.999988753572173
 30
0.0
 10
1.414778137078012
 20
2.744119026954952
 30
0.0
 10
1.563062295400666
 20
2.445530095958273
 30
0.0
 10
1.744067462523301
 20
2.162966961971481
 30
0.0
 10
1.862109633894142
 20
1.978788976750113
 30
0.0
 10
2.024163586121555
 20
1.764510990786372
 30
0.0
 10
2.175843222734961
 20
1.592130051681427
 30
0.0
 10
2.418718522058157
 20
1.316157623523698
 30
0.0
 10
2.747091391060874
 20
1.015135744486694
 30
0.0
 10
3.068579363111212
 20
0.7738233691201356
 30
0.0
 10
3.21779145150952
 20
0.6618432200789357
 30
0.0
 10
3.443313239344409
 20
0.5079556261989637
 30
0.0
 10
3.475482438103275
 20
0.4961589386335971
 30
0.0
 10
3.475482438103275
 20
0.4961589386335971
 30
0.0
 10
3.475388139181367
 20
0.4961589386335971
 30
0.0
 10
3.475388139181367
 20
0.4961589386335971
 30
0.0
 10
3.502152539655665
 20
0.4863837617971916
 30
0.0
 10
3.534086887487332
 20
0.5055701861706186
 30
0.0
 10
3.539373363930723
 20
0.5346253692003352
 30
0.0
 10
3.540337149109771
 20
0.5400419996690036
 30
0.0
 10
3.537305958669422
 20
0.5901512994075802
 30
0.0
 10
3.532617903901571
 20
0.6459586921764134
 30
0.0
 10
3.499214931035163
 20
1.042628362110791
 30
0.0
 10
3.457588590206935
 20
1.699468757589153
 30
0.0
 10
3.435148315201117
 20
2.184115019051231
 30
0.0
 10
3.413894127015333
 20
2.643335888874996
 30
0.0
 10
3.411144757687616
 20
2.778954231926162
 30
0.0
 10
3.411144757687616
 20
3.382512330291724
 30
0.0
 10
3.411097787502184
 20
4.029811682758817
 30
0.0
 10
3.413847156829901
 20
4.12513175801122
 30
0.0
 10
3.442067991603785
 20
4.461082244563739
 30
0.0
 10
3.446473866707985
 20
4.513777414358603
 30
0.0
 10
3.449916673735199
 20
4.557142010599035
 30
0.0
 10
3.449646326255662
 20
4.557412716629591
 30
0.0
 10
3.449364863694073
 20
4.557648284658853
 30
0.0
 10
3.102087391430536
 20
4.762433273449838
 30
0.0
 10
2.677925103872086
 20
5.012463100102902
 30
0.0
 10
2.253774289946717
 20
5.262493643858003
 30
0.0
 10
1.904923137195523
 20
5.468465436571123
 30
0.0
 10
1.902772906645396
 20
5.470215882718472
 30
0.0
 10
1.899330458169212
 20
5.472918640411788
 30
0.0
 10
1.89904863705658
 20
5.532403332584004
 30
0.0
 10
1.900611561013231
 20
5.884826370734623
 30
0.0
 10
1.901621599275636
 20
6.111088566454454
 30
0.0
 10
1.902996283939501
 20
6.296769956160839
 30
0.0
 10
1.903642392902535
 20
6.297462676758275
 30
0.0
 10
1.904335472051002
 20
6.298109502823384
 30
0.0
 10
1.937655978179628
 20
6.279063989006241
 30
0.0
 10
1.977719753602249
 20
6.255061148594816
 30
0.0
 10
2.403750450598194
 20
6.000154669330097
 30
0.0
 10
2.876929532895019
 20
5.762977463037171
 30
0.0
 10
3.274327778530215
 20
5.605235445543081
 30
0.0
 10
3.408619124205036
 20
5.551906716071395
 30
0.0
 10
3.619725367723175
 20
5.477970265927979
 30
0.0
 10
3.743324363016932
 20
5.440937322394675
 30
0.0
 10
3.743324363016932
 20
5.440937322394675
 30
0.0
 10
3.772461654233388
 20
5.43220803892407
 30
0.0
 10
3.772461654233388
 20
5.43220803892407
 30
0.0
 10
3.772461654233388
 20
5.43220803892407
 30
0.0
 10
3.781696494661762
 20
5.411882139364985
 30
0.0
 10
3.781696494661762
 20
5.411882139364985
 30
0.0
 10
3.811339342835974
 20
5.346522588502794
 30
0.0
 10
3.819645536086606
 20
5.292653164072034
 30
0.0
 10
3.821901539191723
 20
5.150513853367859
 30
0.0
 10
3.826483821404584
 20
4.861053810969022
 30
0.0
 10
3.797757429672957
 20
4.63772922386968
 30
0.0
 10
3.697244818348041
 20
4.180527892744193
 30
0.0
 10
3.670304010765082
 20
4.057762170053138
 30
0.0
 10
3.653926116639935
 20
3.988467521594227
 30
0.0
 10
3.636349227857535
 20
3.922790294516037
 30
0.0
 10
3.636349227857535
 20
3.922790294516037
 30
0.0
 10
3.622074952648126
 20
3.86946120649332
 30
0.0
 10
3.622074952648126
 20
3.86946120649332
 30
0.0
 10
3.622074952648126
 20
3.86946120649332
 30
0.0
 10
3.654055195012132
 20
3.837832702693529
 30
0.0
 10
3.654055195012132
 20
3.837832702693529
 30
0.0
 10
4.053062976238367
 20
3.44286650872108
 30
0.0
 10
4.194427458158353
 20
3.314591649394616
 30
0.0
 10
4.237840100237324
 20
3.308071040292639
 30
0.0
 10
4.259634266280121
 20
3.304816114007154
 30
0.0
 10
4.272945831963574
 20
3.308811089626538
 30
0.0
 10
4.299064123474838
 20
3.32643459004334
 30
0.0
 10
4.337294986012314
 20
3.352224090256565
 30
0.0
 10
4.410080128785972
 20
3.415515160204349
 30
0.0
 10
4.508242796634906
 20
3.508227135236363
 30
0.0
 10
4.5541932629316
 20
3.551545119842406
 30
0.0
 10
4.877338099309453
 20
3.868086521829456
 30
0.0
 10
4.877338099309453
 20
3.869684583787425
 30
0.0
 10
4.877338099309453
 20
3.870424991672356
 30
0.0
 10
4.870453919459148
 20
3.897223813045912
 30
0.0
 10
4.8619584112626
 20
3.929216604696093
 30
0.0
 10
4.824737945538573
 20
4.070064414576286
 30
0.0
 10
4.764981830233737
 20
4.344838206627754
 30
0.0
 10
4.733588535912152
 20
4.519827245953087
 30
0.0
 10
4.689894072720563
 20
4.763665971904301
 30
0.0
 10
4.674620515779755
 20
4.937468924409586
 30
0.0
 10
4.678063322806969
 20
5.151935508217144
 30
0.0
 10
4.680307135176943
 20
5.292606193886589
 30
0.0
 10
4.688661374266126
 20
5.346757439429994
 30
0.0
 10
4.718256176601799
 20
5.411882139364985
 30
0.0
 10
4.718256176601799
 20
5.411882139364985
 30
0.0
 10
4.727444405395747
 20
5.43220803892407
 30
0.0
 10
4.727444405395747
 20
5.43220803892407
 30
0.0
 10
4.727444405395747
 20
5.43220803892407
 30
0.0
 10
4.756581696612202
 20
5.440890352209231
 30
0.0
 10
4.756581696612202
 20
5.440890352209231
 30
0.0
 10
4.815879583695783
 20
5.458607792996923
 30
0.0
 10
4.993770376538223
 20
5.51812834027252
 30
0.0
 10
5.063430388500643
 20
5.543553194084274
 30
0.0
 10
5.507378239210134
 20
5.705701086682565
 30
0.0
 10
6.030713591430968
 20
5.960913051428141
 30
0.0
 10
6.522198138211024
 20
6.255061148594816
 30
0.0
 10
6.562262630735707
 20
6.279063989006241
 30
0.0
 10
6.59562938994769
 20
6.298062174086908
 30
0.0
 10
6.596357965648521
 20
6.297322124752996
 30
0.0
 10
6.597050686245969
 20
6.29664016068658
 30
0.0
 10
6.598425370909808
 20
6.110947655898144
 30
0.0
 10
6.599389156088868
 20
5.884685460178313
 30
0.0
 10
6.600857781123598
 20
5.532720650248987
 30
0.0
 10
6.600540104907597
 20
5.472918640411788
 30
0.0
 10
6.597133152983739
 20
5.470215882718472
 30
0.0
 10
6.594983280984656
 20
5.468465436571123
 30
0.0
 10
6.24613176968243
 20
5.262446673672583
 30
0.0
 10
5.821980955757074
 20
5.012463100102902
 30
0.0
 10
5.397818668198599
 20
4.762433273449838
 30
0.0
 10
5.050635853408013
 20
4.557648284658853
 30
0.0
 10
5.050306703558918
 20
4.557412716629591
 30
0.0
 10
5.050036356079368
 20
4.557189697886542
 30
0.0
 10
5.053479163106608
 20
4.513812552359923
 30
0.0
 10
5.05793164984521
 20
4.461082244563739
 30
0.0
 10
5.086058544248216
 20
4.12628342393201
 30
0.0
 10
5.088726163940211
 20
4.032431973714337
 30
0.0
 10
5.0887727755746
 20
3.388164528789654
 30
0.0
 10
5.0887727755746
 20
2.912693229733299
 30
0.0
 10
5.086928389056387
 20
2.750968785906025
 30
0.0
 10
5.078904016918361
 20
2.523919570666824
 30
0.0
 10
5.060410671693388
 20
2.000630112978342
 30
0.0
 10
5.012721949984476
 20
1.194766226945477
 30
0.0
 10
4.968757139313336
 20
0.6625362992274151
 30
0.0
 10
4.96086184554752
 20
0.567123717808272
 30
0.0
 10
4.959345891776315
 20
0.5385260458977983
 30
0.0
 10
4.961730973253629
 20
0.5297619829769044
 30
0.0
 10
4.96834552272647
 20
0.5052535856077106
 30
0.0
 10
4.996801566978572
 20
0.4885454659804003
 30
0.0
 10
5.020886874127781
 20
0.4950194634479632
 30
0.0
 10
5.034057887805981
 20
0.4985565693970986
 30
0.0
 10
5.080972139281736
 20
0.527928711540729
 30
0.0
 10
5.176102899588234
 20
0.5920422975602074
 30
0.0
 10
5.479744711029753
 20
0.7967688425326792
 30
0.0
 10
5.742310916031051
 20
1.010002369334769
 30
0.0
 10
6.029563359714327
 20
1.285281359792988
 30
0.0
 10
6.44128249219332
 20
1.679788966993101
 30
0.0
 10
6.781134372545416
 20
2.140796317343125
 30
0.0
 10
7.013811763363265
 20
2.620625624940658
 30
0.0
 10
7.111481064989574
 20
2.82195633307136
 30
0.0
 10
7.173891175047149
 20
2.986313437864838
 30
0.0
 10
7.220617545781149
 20
3.16525048262411
 30
0.0
 10
7.220617545781149
 20
3.16525048262411
 30
0.0
 10
7.234293399315042
 20
3.217568815282347
 30
0.0
 10
7.234293399315042
 20
3.217568815282347
 30
0.0
 10
7.234293399315042
 20
3.217568815282347
 30
0.0
 10
7.20785814868984
 20
3.278205531926409
 30
0.0
 10
7.20785814868984
 20
3.278205531926409
 30
0.0
 10
7.135438010868685
 20
3.444430149779792
 30
0.0
 10
7.092024651687628
 20
3.575690305014278
 30
0.0
 10
7.057236596177391
 20
3.733608371065985
 30
0.0
 10
6.99936000539209
 20
3.996268516438148
 30
0.0
 10
6.989033018514546
 20
4.261349598391032
 30
0.0
 10
7.027769438009777
 20
4.492112326688003
 30
0.0
 10
7.051678338050325
 20
4.634743927961684
 30
0.0
 10
7.099179896119544
 20
4.743011639598181
 30
0.0
 10
7.180506441622052
 20
4.840399478662928
 30
0.0
 10
7.224882151778021
 20
4.893551442474922
 30
0.0
 10
7.300017238027648
 20
4.960509055295057
 30
0.0
 10
7.359631367123079
 20
5.00006834941304
 30
0.0
 10
7.409376737562272
 20
5.033070820774608
 30
0.0
 10
7.417178090957223
 20
5.046053595160022
 30
0.0
 10
7.4236987000592
 20
5.106772419990825
 30
0.0
 10
7.435400371600584
 20
5.215403702375675
 30
0.0
 10
7.384551381079139
 20
5.347991213537524
 30
0.0
 10
7.28927791746115
 20
5.457409515441719
 30
0.0
 10
7.273992886887249
 20
5.474939075487655
 30
0.0
 10
7.256827614691726
 20
5.494630339716776
 30
0.0
 10
7.251176850397946
 20
5.501103978633321
 30
0.0
 10
7.251176850397946
 20
5.501103978633321
 30
0.0
 10
7.240943086789204
 20
5.51285297891118
 30
0.0
 10
7.240943086789204
 20
5.51285297891118
 30
0.0
 10
7.240943086789204
 20
5.51285297891118
 30
0.0
 10
7.244714326563452
 20
5.539652517386799
 30
0.0
 10
7.244714326563452
 20
5.539652517386799
 30
0.0
 10
7.272840503864396
 20
5.73933855192513
 30
0.0
 10
7.286200115386413
 20
6.023476262777169
 30
0.0
 10
7.293907528410474
 20
6.58577141178734
 30
0.0
 10
7.297584827813857
 20
6.844613705750854
 30
0.0
 10
7.297537499077381
 20
7.060184626742739
 30
0.0
 10
7.293907528410474
 20
7.134215375808051
 30
0.0
 10
7.289137365455872
 20
7.232061084543034
 30
0.0
 10
7.28110080258269
 20
7.290441798081966
 30
0.0
 10
7.254442533214437
 20
7.421830673137606
 30
0.0
 10
7.18077607199954
 20
7.784581056716787
 30
0.0
 10
7.07522366734252
 20
8.096481732672462
 30
0.0
 10
6.920418541366871
 20
8.40874669647855
 30
0.0
 10
6.801964036307076
 20
8.647720960553228
 30
0.0
 10
6.678142739372308
 20
8.843507035496145
 30
0.0
 10
6.522738116068037
 20
9.03755342082272
 30
0.0
 10
6.436465717604328
 20
9.145315216950431
 30
0.0
 10
6.376252091180251
 20
9.211860854632656
 30
0.0
 10
6.272802229785864
 20
9.313971886466573
 30
0.0
 10
6.151046186806171
 20
9.434128791835178
 30
0.0
 10
6.042180770596233
 20
9.524995663246916
 30
0.0
 10
5.902203164075242
 20
9.623346928939656
 30
0.0
 10
5.700906876843823
 20
9.7647924433933
 30
0.0
 10
5.520313326308067
 20
9.858608755609641
 30
0.0
 10
5.204558943840336
 20
9.98559175556108
 30
0.0
 10
5.035714393582465
 20
10.05346618337484
 30
0.0
 10
4.944753581799861
 20
10.09371783953921
 30
0.0
 10
4.826664081692544
 20
10.15279199077764
 30
0.0
 10
4.660662841133242
 20
10.23585679169235
 30
0.0
 10
4.57488309179007
 20
10.28868068130835
 30
0.0
 10
4.438124556451182
 20
10.39208321396626
 30
0.0
 10
4.34647102407113
 20
10.46137965518036
 30
0.0
 10
4.302506213400016
 20
10.4925843516581
 30
0.0
 10
4.28529432957008
 20
10.50048036252599
 30
0.0
 10
4.277175299959127
 20
10.50415766192937
 30
0.0
 10
4.264086753018723
 20
10.50617845555626
 30
0.0
 10
4.250963785179061
 20
10.50635486266493
 30
0.0
 10
4.250963785179061
 20
10.50635486266493
 30
0.0
 10
4.250963785179061
 20
10.50635486266493
 30
0.0
 10
4.250963785179061
 20
10.50635486266493
 30
0.0
  0
SPLINE
  5
42
330
1F
100
AcDbEntity
  8
Layer 2
370
     0
100
AcDbSpline
210
0.0
220
0.0
230
1.0
 70
    11
 71
     3
 72
    35
 73
    31
 74
     0
 42
0.0000000001
 43
0.0000000001
 12
1.0
 22
0.0
 32
0.0
 13
1.0
 23
0.0
 33
0.0
 40
0.0
 40
0.0
 40
0.0
 40
0.0
 40
1.0
 40
1.0
 40
1.0
 40
2.0
 40
2.0
 40
2.0
 40
3.0
 40
3.0
 40
3.0
 40
4.0
 40
4.0
 40
4.0
 40
5.0
 40
5.0
 40
5.0
 40
6.0
 40
6.0
 40
6.0
 40
7.0
 40
7.0
 40
7.0
 40
8.0
 40
8.0
 40
8.0
 40
9.0
 40
9.0
 40
9.0
 40
10.0
 40
10.0
 40
10.0
 40
10.0
 10
4.250047328736476
 20
10.40373899097533
 30
0.0
 10
4.257895293765841
 20
10.40373899097533
 30
0.0
 10
4.276987419217372
 20
10.39033348492098
 30
0.0
 10
4.38116585631259
 20
10.31186100564809
 30
0.0
 10
4.421735188692966
 20
10.28280618116942
 30
0.0
 10
4.476532543199381
 20
10.25040249003441
 30
0.0
 10
4.507009381078382
 20
10.22061837275285
 30
0.0
 10
4.507009381078382
 20
10.22061837275285
 30
0.0
 10
4.513294780702128
 20
3.649673725343114
 30
0.0
 10
4.513294780702128
 20
3.649673725343114
 30
0.0
 10
4.370427252848154
 20
3.512080841748406
 30
0.0
 10
4.261338100793056
 20
3.413541336762894
 30
0.0
 10
4.25023520947823
 20
3.413541336762894
 30
0.0
 10
4.238109730614799
 20
3.413541336762894
 30
0.0
 10
4.124345073078024
 20
3.516580298672453
 30
0.0
 10
3.971655398202213
 20
3.664265318217506
 30
0.0
 10
3.971655398202213
 20
3.664265318217506
 30
0.0
 10
3.970409074808483
 20
10.21107876394569
 30
0.0
 10
3.970409074808483
 20
10.21107876394569
 30
0.0
 10
4.045955060542926
 20
10.26151685498232
 30
0.0
 10
4.112501415327213
 20
10.30919482016023
 30
0.0
 10
4.106168686967004
 20
10.30423677646387
 30
0.0
 10
4.106168686967004
 20
10.30423677646387
 30
0.0
 10
4.158897919110055
 20
10.34246763900133
 30
0.0
 10
4.158897919110055
 20
10.34246763900133
 30
0.0
 10
4.2247164152956
 20
10.39129655299795
 30
0.0
 10
4.243209043418497
 20
10.40373899097533
 30
0.0
 10
4.250047328736476
 20
10.40373899097533
 30
0.0
 10
4.250047328736476
 20
10.40373899097533
 30
0.0
 10
4.250047328736476
 20
10.40373899097533
 30
0.0
 10
4.250047328736476
 20
10.40373899097533
 30
0.0
  0
SPLINE
  5
43
330
1F
100
AcDbEntity
  8
Layer 2
370
     0
100
AcDbSpline
210
0.0
220
0.0
230
1.0
 70
    11
 71
     3
 72
    41
 73
    37
 74
     0
 42
0.0000000001
 43
0.0000000001
 12
1.0
 22
0.0
 32
0.0
 13
1.0
 23
0.0
 33
0.0
 40
0.0
 40
0.0
 40
0.0
 40
0.0
 40
1.0
 40
1.0
 40
1.0
 40
2.0
 40
2.0
 40
2.0
 40
3.0
 40
3.0
 40
3.0
 40
4.0
 40
4.0
 40
4.0
 40
5.0
 40
5.0
 40
5.0
 40
6.0
 40
6.0
 40
6.0
 40
7.0
 40
7.0
 40
7.0
 40
8.0
 40
8.0
 40
8.0
 40
9.0
 40
9.0
 40
9.0
 40
10.0
 40
10.0
 40
10.0
 40
11.0
 40
11.0
 40
11.0
 40
12.0
 40
12.0
 40
12.0
 40
12.0
 10
3.596732207023125
 20
10.00693916701567
 30
0.0
 10
3.596732207023125
 20
10.00693916701567
 30
0.0
 10
3.665945464397345
 20
9.929560985498142
 30
0.0
 10
3.665945464397345
 20
9.929560985498142
 30
0.0
 10
3.665945464397345
 20
9.929560985498142
 30
0.0
 10
3.812666698763362
 20
9.964525448117064
 30
0.0
 10
3.812666698763362
 20
9.964525448117064
 30
0.0
 10
3.812666698763362
 20
9.964525448117064
 30
0.0
 10
3.730975865410439
 20
9.844462483119324
 30
0.0
 10
3.730975865410439
 20
9.844462483119324
 30
0.0
 10
3.730975865410439
 20
9.844462483119324
 30
0.0
 10
3.812666698763362
 20
9.716058186869619
 30
0.0
 10
3.812666698763362
 20
9.716058186869619
 30
0.0
 10
3.812666698763362
 20
9.716058186869619
 30
0.0
 10
3.665945464397345
 20
9.754418127779292
 30
0.0
 10
3.665945464397345
 20
9.754418127779292
 30
0.0
 10
3.665945464397345
 20
9.754418127779292
 30
0.0
 10
3.567547587070205
 20
9.647714057201496
 30
0.0
 10
3.567547587070205
 20
9.647714057201496
 30
0.0
 10
3.567547587070205
 20
9.647714057201496
 30
0.0
 10
3.567547587070205
 20
9.787785604093338
 30
0.0
 10
3.567547587070205
 20
9.787785604093338
 30
0.0
 10
3.567547587070205
 20
9.787785604093338
 30
0.0
 10
3.419075548005796
 20
9.846166317632271
 30
0.0
 10
3.419075548005796
 20
9.846166317632271
 30
0.0
 10
3.419075548005796
 20
9.846166317632271
 30
0.0
 10
3.567547587070205
 20
9.897838541327486
 30
0.0
 10
3.567547587070205
 20
9.897838541327486
 30
0.0
 10
3.567547587070205
 20
9.897838541327486
 30
0.0
 10
3.567547587070205
 20
9.993804725542923
 30
0.0
 10
3.567547587070205
 20
9.993804725542923
 30
0.0
 10
3.577369734092043
 20
9.998210600647123
 30
0.0
 10
3.58714455237743
 20
10.00256914701486
 30
0.0
 10
3.596732207023125
 20
10.00693916701567
 30
0.0
 10
3.596732207023125
 20
10.00693916701567
 30
0.0
 10
3.596732207023125
 20
10.00693916701567
 30
0.0
 10
3.596732207023125
 20
10.00693916701567
 30
0.0
  0
SPLINE
  5
44
330
1F
100
AcDbEntity
  8
Layer 2
370
     0
100
AcDbSpline
210
0.0
220
0.0
230
1.0
 70
    11
 71
     3
 72
    23
 73
    19
 74
     0
 42
0.0000000001
 43
0.0000000001
 12
1.0
 22
0.0
 32
0.0
 13
1.0
 23
0.0
 33
0.0
 40
0.0
 40
0.0
 40
0.0
 40
0.0
 40
1.0
 40
1.0
 40
1.0
 40
2.0
 40
2.0
 40
2.0
 40
3.0
 40
3.0
 40
3.0
 40
4.0
 40
4.0
 40
4.0
 40
5.0
 40
5.0
 40
5.0
 40
6.0
 40
6.0
 40
6.0
 40
6.0
 10
5.054349007914778
 20
9.940757817183856
 30
0.0
 10
5.08743322891208
 20
9.926940694542623
 30
0.0
 10
5.122915439223889
 20
9.912442324937034
 30
0.0
 10
5.162251356047768
 20
9.896651737405376
 30
0.0
 10
5.420177193568709
 20
9.793201876010988
 30
0.0
 10
5.587048278936158
 20
9.712251809094052
 30
0.0
 10
5.749654041204697
 20
9.607602953042411
 30
0.0
 10
5.749055260978139
 20
8.387128220442365
 30
0.0
 10
5.748455763649518
 20
7.166619066943061
 30
0.0
 10
5.74785554921881
 20
5.946144334343014
 30
0.0
 10
5.671899381101613
 20
5.908970480253388
 30
0.0
 10
5.595025322337707
 20
5.872572172050026
 30
0.0
 10
5.516142660682084
 20
5.836408714773849
 30
0.0
 10
5.36812992549206
 20
5.768617112248926
 30
0.0
 10
5.207085294424991
 20
5.702305608391813
 30
0.0
 10
5.05646302481048
 20
5.646039628850657
 30
0.0
 10
5.05646302481048
 20
5.646039628850657
 30
0.0
 10
5.054349007914778
 20
9.940757817183856
 30
0.0
 10
5.054349007914778
 20
9.940757817183856
 30
0.0
  0
POLYLINE
  5
45
330
1F
100
AcDbEntity
  8
Layer 2
370
     0
100
AcDb2dPolyline
 66
     1
 10
0.0
 20
0.0
 30
0.0
  0
VERTEX
  5
46
330
45
100
AcDbEntity
  8
Layer 2
370
     0
100
AcDbVertex
100
AcDb2dVertex
 10
3.099655698318833
 20
9.796092514446059
 30
0.0
  0
VERTEX
  5
47
330
45
100
AcDbEntity
  8
Layer 2
370
     0
100
AcDbVertex
100
AcDb2dVertex
 10
3.150598987762186
 20
9.716058186869619
 30
0.0
  0
VERTEX
  5
48
330
45
100
AcDbEntity
  8
Layer 2
370
     0
100
AcDbVertex
100
AcDb2dVertex
 10
3.009470073871448
 20
9.752950219846626
 30
0.0
  0
VERTEX
  5
49
330
45
100
AcDbEntity
  8
Layer 2
370
     0
100
AcDbVertex
100
AcDb2dVertex
 10
3.099655698318833
 20
9.796092514446059
 30
0.0
  0
SEQEND
  5
4A
330
45
100
AcDbEntity
  8
Layer 2
370
     0
  0
SPLINE
  5
4B
330
1F
100
AcDbEntity
  8
Layer 2
370
     0
100
AcDbSpline
210
0.0
220
0.0
230
1.0
 70
    11
 71
     3
 72
    17
 73
    13
 74
     0
 42
0.0000000001
 43
0.0000000001
 12
1.0
 22
0.0
 32
0.0
 13
1.0
 23
0.0
 33
0.0
 40
0.0
 40
0.0
 40
0.0
 40
0.0
 40
1.0
 40
1.0
 40
1.0
 40
2.0
 40
2.0
 40
2.0
 40
3.0
 40
3.0
 40
3.0
 40
4.0
 40
4.0
 40
4.0
 40
4.0
 10
2.98587813294484
 20
9.74295094861404
 30
0.0
 10
2.98587813294484
 20
9.74295094861404
 30
0.0
 10
2.905479517517998
 20
9.647714057201496
 30
0.0
 10
2.905479517517998
 20
9.647714057201496
 30
0.0
 10
2.905479517517998
 20
9.647714057201496
 30
0.0
 10
2.905479517517998
 20
9.69884486883556
 30
0.0
 10
2.905479517517998
 20
9.69884486883556
 30
0.0
 10
2.935944881763905
 20
9.71458956183489
 30
0.0
 10
2.955177917771746
 20
9.72771252967454
 30
0.0
 10
2.98587813294484
 20
9.74295094861404
 30
0.0
 10
2.98587813294484
 20
9.74295094861404
 30
0.0
 10
2.98587813294484
 20
9.74295094861404
 30
0.0
 10
2.98587813294484
 20
9.74295094861404
 30
0.0
  0
POLYLINE
  5
4C
330
1F
100
AcDbEntity
  8
Layer 2
370
     0
100
AcDb2dPolyline
 66
     1
 10
0.0
 20
0.0
 30
0.0
  0
VERTEX
  5
4D
330
4C
100
AcDbEntity
  8
Layer 2
370
     0
100
AcDbVertex
100
AcDb2dVertex
 10
3.260651924996321
 20
9.64101704099087
 30
0.0
  0
VERTEX
  5
4E
330
4C
100
AcDbEntity
  8
Layer 2
370
     0
100
AcDbVertex
100
AcDb2dVertex
 10
3.359049802323473
 20
9.530964103756723
 30
0.0
  0
VERTEX
  5
4F
330
4C
100
AcDbEntity
  8
Layer 2
370
     0
100
AcDbVertex
100
AcDb2dVertex
 10
3.505818365425954
 20
9.565975895112109
 30
0.0
  0
VERTEX
  5
50
330
4C
100
AcDbEntity
  8
Layer 2
370
     0
100
AcDbVertex
100
AcDb2dVertex
 10
3.424127173522
 20
9.445924403747451
 30
0.0
  0
VERTEX
  5
51
330
4C
100
AcDbEntity
  8
Layer 2
370
     0
100
AcDbVertex
100
AcDb2dVertex
 10
3.505818365425954
 20
9.317508633864664
 30
0.0
  0
VERTEX
  5
52
330
4C
100
AcDbEntity
  8
Layer 2
370
     0
100
AcDbVertex
100
AcDb2dVertex
 10
3.359049802323473
 20
9.355868574774338
 30
0.0
  0
VERTEX
  5
53
330
4C
100
AcDbEntity
  8
Layer 2
370
     0
100
AcDbVertex
100
AcDb2dVertex
 10
3.260651924996321
 20
9.249129366195222
 30
0.0
  0
VERTEX
  5
54
330
4C
100
AcDbEntity
  8
Layer 2
370
     0
100
AcDbVertex
100
AcDb2dVertex
 10
3.260651924996321
 20
9.39089255686488
 30
0.0
  0
VERTEX
  5
55
330
4C
100
AcDbEntity
  8
Layer 2
370
     0
100
AcDbVertex
100
AcDb2dVertex
 10
3.1122272146684
 20
9.447569435890854
 30
0.0
  0
VERTEX
  5
56
330
4C
100
AcDbEntity
  8
Layer 2
370
     0
100
AcDbVertex
100
AcDb2dVertex
 10
3.260651924996321
 20
9.499253850321212
 30
0.0
  0
VERTEX
  5
57
330
4C
100
AcDbEntity
  8
Layer 2
370
     0
100
AcDbVertex
100
AcDb2dVertex
 10
3.260651924996321
 20
9.64101704099087
 30
0.0
  0
SEQEND
  5
58
330
4C
100
AcDbEntity
  8
Layer 2
370
     0
  0
POLYLINE
  5
59
330
1F
100
AcDbEntity
  8
Layer 2
370
     0
100
AcDb2dPolyline
 66
     1
 10
0.0
 20
0.0
 30
0.0
  0
VERTEX
  5
5A
330
59
100
AcDbEntity
  8
Layer 2
370
     0
100
AcDbVertex
100
AcDb2dVertex
 10
2.837088776215473
 20
9.565975895112109
 30
0.0
  0
VERTEX
  5
5B
330
59
100
AcDbEntity
  8
Layer 2
370
     0
100
AcDbVertex
100
AcDb2dVertex
 10
2.753705940533715
 20
9.445924403747451
 30
0.0
  0
VERTEX
  5
5C
330
59
100
AcDbEntity
  8
Layer 2
370
     0
100
AcDbVertex
100
AcDb2dVertex
 10
2.837088776215473
 20
9.317508633864664
 30
0.0
  0
VERTEX
  5
5D
330
59
100
AcDbEntity
  8
Layer 2
370
     0
100
AcDbVertex
100
AcDb2dVertex
 10
2.688663707336509
 20
9.355868574774338
 30
0.0
  0
VERTEX
  5
5E
330
59
100
AcDbEntity
  8
Layer 2
370
     0
100
AcDbVertex
100
AcDb2dVertex
 10
2.591969305971273
 20
9.249129366195222
 30
0.0
  0
VERTEX
  5
5F
330
59
100
AcDbEntity
  8
Layer 2
370
     0
100
AcDbVertex
100
AcDb2dVertex
 10
2.591969305971273
 20
9.39089255686488
 30
0.0
  0
VERTEX
  5
60
330
59
100
AcDbEntity
  8
Layer 2
370
     0
100
AcDbVertex
100
AcDb2dVertex
 10
2.499586839339372
 20
9.426139557698484
 30
0.0
  0
VERTEX
  5
61
330
59
100
AcDbEntity
  8
Layer 2
370
     0
100
AcDbVertex
100
AcDb2dVertex
 10
2.600041006845774
 20
9.486622814500025
 30
0.0
  0
VERTEX
  5
62
330
59
100
AcDbEntity
  8
Layer 2
370
     0
100
AcDbVertex
100
AcDb2dVertex
 10
2.601650542436813
 20
9.508982056972185
 30
0.0
  0
VERTEX
  5
63
330
59
100
AcDbEntity
  8
Layer 2
370
     0
100
AcDbVertex
100
AcDb2dVertex
 10
2.669207294034562
 20
9.553134031283005
 30
0.0
  0
VERTEX
  5
64
330
59
100
AcDbEntity
  8
Layer 2
370
     0
100
AcDbVertex
100
AcDb2dVertex
 10
2.694726088217193
 20
9.532609135900126
 30
0.0
  0
VERTEX
  5
65
330
59
100
AcDbEntity
  8
Layer 2
370
     0
100
AcDbVertex
100
AcDb2dVertex
 10
2.837088776215473
 20
9.565975895112109
 30
0.0
  0
SEQEND
  5
66
330
59
100
AcDbEntity
  8
Layer 2
370
     0
  0
POLYLINE
  5
67
330
1F
100
AcDbEntity
  8
Layer 2
370
     0
100
AcDb2dPolyline
 66
     1
 10
0.0
 20
0.0
 30
0.0
  0
VERTEX
  5
68
330
67
100
AcDbEntity
  8
Layer 2
370
     0
100
AcDbVertex
100
AcDb2dVertex
 10
2.905479517517998
 20
9.242467487985916
 30
0.0
  0
VERTEX
  5
69
330
67
100
AcDbEntity
  8
Layer 2
370
     0
100
AcDbVertex
100
AcDb2dVertex
 10
3.003877394845138
 20
9.132367222015306
 30
0.0
  0
VERTEX
  5
6A
330
67
100
AcDbEntity
  8
Layer 2
370
     0
100
AcDbVertex
100
AcDb2dVertex
 10
3.150598987762186
 20
9.167426342107154
 30
0.0
  0
VERTEX
  5
6B
330
67
100
AcDbEntity
  8
Layer 2
370
     0
100
AcDbVertex
100
AcDb2dVertex
 10
3.068908512960307
 20
9.04737556784457
 30
0.0
  0
VERTEX
  5
6C
330
67
100
AcDbEntity
  8
Layer 2
370
     0
100
AcDbVertex
100
AcDb2dVertex
 10
3.150598987762186
 20
8.918959080859723
 30
0.0
  0
VERTEX
  5
6D
330
67
100
AcDbEntity
  8
Layer 2
370
     0
100
AcDbVertex
100
AcDb2dVertex
 10
3.003877394845138
 20
8.95897624464793
 30
0.0
  0
VERTEX
  5
6E
330
67
100
AcDbEntity
  8
Layer 2
370
     0
100
AcDbVertex
100
AcDb2dVertex
 10
2.905479517517998
 20
8.852224128231606
 30
0.0
  0
VERTEX
  5
6F
330
67
100
AcDbEntity
  8
Layer 2
370
     0
100
AcDbVertex
100
AcDb2dVertex
 10
2.905479517517998
 20
8.992343003859926
 30
0.0
  0
VERTEX
  5
70
330
67
100
AcDbEntity
  8
Layer 2
370
     0
100
AcDbVertex
100
AcDb2dVertex
 10
2.757054807190065
 20
9.049019882885899
 30
0.0
  0
VERTEX
  5
71
330
67
100
AcDbEntity
  8
Layer 2
370
     0
100
AcDbVertex
100
AcDb2dVertex
 10
2.905479517517998
 20
9.100751626052732
 30
0.0
  0
VERTEX
  5
72
330
67
100
AcDbEntity
  8
Layer 2
370
     0
100
AcDbVertex
100
AcDb2dVertex
 10
2.905479517517998
 20
9.242467487985916
 30
0.0
  0
SEQEND
  5
73
330
67
100
AcDbEntity
  8
Layer 2
370
     0
  0
POLYLINE
  5
74
330
1F
100
AcDbEntity
  8
Layer 2
370
     0
100
AcDb2dPolyline
 66
     1
 10
0.0
 20
0.0
 30
0.0
  0
VERTEX
  5
75
330
74
100
AcDbEntity
  8
Layer 2
370
     0
100
AcDbVertex
100
AcDb2dVertex
 10
3.567547587070205
 20
9.242467487985916
 30
0.0
  0
VERTEX
  5
76
330
74
100
AcDbEntity
  8
Layer 2
370
     0
100
AcDbVertex
100
AcDb2dVertex
 10
3.665945464397345
 20
9.132367222015306
 30
0.0
  0
VERTEX
  5
77
330
74
100
AcDbEntity
  8
Layer 2
370
     0
100
AcDbVertex
100
AcDb2dVertex
 10
3.812666698763362
 20
9.167426342107154
 30
0.0
  0
VERTEX
  5
78
330
74
100
AcDbEntity
  8
Layer 2
370
     0
100
AcDbVertex
100
AcDb2dVertex
 10
3.730975865410439
 20
9.04737556784457
 30
0.0
  0
VERTEX
  5
79
330
74
100
AcDbEntity
  8
Layer 2
370
     0
100
AcDbVertex
100
AcDb2dVertex
 10
3.812666698763362
 20
8.918959080859723
 30
0.0
  0
VERTEX
  5
7A
330
74
100
AcDbEntity
  8
Layer 2
370
     0
100
AcDbVertex
100
AcDb2dVertex
 10
3.665945464397345
 20
8.95897624464793
 30
0.0
  0
VERTEX
  5
7B
330
74
100
AcDbEntity
  8
Layer 2
370
     0
100
AcDbVertex
100
AcDb2dVertex
 10
3.567547587070205
 20
8.852224128231606
 30
0.0
  0
VERTEX
  5
7C
330
74
100
AcDbEntity
  8
Layer 2
370
     0
100
AcDbVertex
100
AcDb2dVertex
 10
3.567547587070205
 20
8.992343003859926
 30
0.0
  0
VERTEX
  5
7D
330
74
100
AcDbEntity
  8
Layer 2
370
     0
100
AcDbVertex
100
AcDb2dVertex
 10
3.419075548005796
 20
9.049019882885899
 30
0.0
  0
VERTEX
  5
7E
330
74
100
AcDbEntity
  8
Layer 2
370
     0
100
AcDbVertex
100
AcDb2dVertex
 10
3.567547587070205
 20
9.100751626052732
 30
0.0
  0
VERTEX
  5
7F
330
74
100
AcDbEntity
  8
Layer 2
370
     0
100
AcDbVertex
100
AcDb2dVertex
 10
3.567547587070205
 20
9.242467487985916
 30
0.0
  0
SEQEND
  5
80
330
74
100
AcDbEntity
  8
Layer 2
370
     0
  0
SPLINE
  5
81
330
1F
100
AcDbEntity
  8
Layer 2
370
     0
100
AcDbSpline
210
0.0
220
0.0
230
1.0
 70
    11
 71
     3
 72
    41
 73
    37
 74
     0
 42
0.0000000001
 43
0.0000000001
 12
1.0
 22
0.0
 32
0.0
 13
1.0
 23
0.0
 33
0.0
 40
0.0
 40
0.0
 40
0.0
 40
0.0
 40
1.0
 40
1.0
 40
1.0
 40
2.0
 40
2.0
 40
2.0
 40
3.0
 40
3.0
 40
3.0
 40
4.0
 40
4.0
 40
4.0
 40
5.0
 40
5.0
 40
5.0
 40
6.0
 40
6.0
 40
6.0
 40
7.0
 40
7.0
 40
7.0
 40
8.0
 40
8.0
 40
8.0
 40
9.0
 40
9.0
 40
9.0
 40
10.0
 40
10.0
 40
10.0
 40
11.0
 40
11.0
 40
11.0
 40
12.0
 40
12.0
 40
12.0
 40
12.0
 10
2.263643407154
 20
9.212366411590411
 30
0.0
 10
2.263643407154
 20
9.212366411590411
 30
0.0
 10
2.335147805634657
 20
9.132367222015306
 30
0.0
 10
2.335147805634657
 20
9.132367222015306
 30
0.0
 10
2.335147805634657
 20
9.132367222015306
 30
0.0
 10
2.481916368737138
 20
9.167426342107154
 30
0.0
 10
2.481916368737138
 20
9.167426342107154
 30
0.0
 10
2.481916368737138
 20
9.167426342107154
 30
0.0
 10
2.400178923749813
 20
9.04737556784457
 30
0.0
 10
2.400178923749813
 20
9.04737556784457
 30
0.0
 10
2.400178923749813
 20
9.04737556784457
 30
0.0
 10
2.481916368737138
 20
8.918959080859723
 30
0.0
 10
2.481916368737138
 20
8.918959080859723
 30
0.0
 10
2.481916368737138
 20
8.918959080859723
 30
0.0
 10
2.335147805634657
 20
8.95897624464793
 30
0.0
 10
2.335147805634657
 20
8.95897624464793
 30
0.0
 10
2.335147805634657
 20
8.95897624464793
 30
0.0
 10
2.236749928307505
 20
8.852224128231606
 30
0.0
 10
2.236749928307505
 20
8.852224128231606
 30
0.0
 10
2.236749928307505
 20
8.852224128231606
 30
0.0
 10
2.236749928307505
 20
8.992343003859926
 30
0.0
 10
2.236749928307505
 20
8.992343003859926
 30
0.0
 10
2.236749928307505
 20
8.992343003859926
 30
0.0
 10
2.107828242915932
 20
9.041547679340043
 30
0.0
 10
2.107828242915932
 20
9.041547679340043
 30
0.0
 10
2.113514862313119
 20
9.048291307185082
 30
0.0
 10
2.119212955343389
 20
9.055035652132181
 30
0.0
 10
2.124946544926009
 20
9.061779997079283
 30
0.0
 10
2.124946544926009
 20
9.061779997079283
 30
0.0
 10
2.236749928307505
 20
9.100751626052732
 30
0.0
 10
2.236749928307505
 20
9.100751626052732
 30
0.0
 10
2.236749928307505
 20
9.100751626052732
 30
0.0
 10
2.236749928307505
 20
9.184509864666955
 30
0.0
 10
2.236749928307505
 20
9.184509864666955
 30
0.0
 10
2.236749928307505
 20
9.184509864666955
 30
0.0
 10
2.263643407154
 20
9.212366411590411
 30
0.0
 10
2.263643407154
 20
9.212366411590411
 30
0.0
  0
SPLINE
  5
82
330
1F
100
AcDbEntity
  8
Layer 2
370
     0
100
AcDbSpline
210
0.0
220
0.0
230
1.0
 70
    11
 71
     3
 72
    53
 73
    49
 74
     0
 42
0.0000000001
 43
0.0000000001
 12
1.0
 22
0.0
 32
0.0
 13
1.0
 23
0.0
 33
0.0
 40
0.0
 40
0.0
 40
0.0
 40
0.0
 40
1.0
 40
1.0
 40
1.0
 40
2.0
 40
2.0
 40
2.0
 40
3.0
 40
3.0
 40
3.0
 40
4.0
 40
4.0
 40
4.0
 40
5.0
 40
5.0
 40
5.0
 40
6.0
 40
6.0
 40
6.0
 40
7.0
 40
7.0
 40
7.0
 40
8.0
 40
8.0
 40
8.0
 40
9.0
 40
9.0
 40
9.0
 40
10.0
 40
10.0
 40
10.0
 40
11.0
 40
11.0
 40
11.0
 40
12.0
 40
12.0
 40
12.0
 40
13.0
 40
13.0
 40
13.0
 40
14.0
 40
14.0
 40
14.0
 40
15.0
 40
15.0
 40
15.0
 40
16.0
 40
16.0
 40
16.0
 40
16.0
 10
6.25462584367483
 20
9.193544633618417
 30
0.0
 10
6.561663133407087
 20
8.87646217812125
 30
0.0
 10
6.809261266948422
 20
8.478417464971988
 30
0.0
 10
6.97939875223445
 20
8.027961195895676
 30
0.0
 10
6.97939875223445
 20
8.027961195895676
 30
0.0
 10
6.97939875223445
 20
4.690187749982189
 30
0.0
 10
6.97939875223445
 20
4.690187749982189
 30
0.0
 10
6.942635797629641
 20
4.594962332202713
 30
0.0
 10
6.921700002761932
 20
4.483981106341894
 30
0.0
 10
6.910232106494631
 20
4.334181352799078
 30
0.0
 10
6.906049250133492
 20
4.279302248656929
 30
0.0
 10
6.906049250133492
 20
4.127199521823538
 30
0.0
 10
6.910232106494631
 20
4.067725586182354
 30
0.0
 10
6.921018038695516
 20
3.915998979383504
 30
0.0
 10
6.943458313701335
 20
3.77441219582253
 30
0.0
 10
6.979350706395912
 20
3.634657608044613
 30
0.0
 10
6.979350706395912
 20
3.634657608044613
 30
0.0
 10
6.979350706395912
 20
2.781164161223437
 30
0.0
 10
6.979350706395912
 20
2.781164161223437
 30
0.0
 10
6.968930496249564
 20
2.738244706091538
 30
0.0
 10
6.654598127182175
 20
2.179027538431632
 30
0.0
 10
6.527285260279566
 20
2.003661303418691
 30
0.0
 10
6.43444492397743
 20
1.877042591317654
 30
0.0
 10
6.347338535808931
 20
1.767529990491564
 30
0.0
 10
6.254579232040416
 20
1.661929898547063
 30
0.0
 10
6.254579232040416
 20
1.661929898547063
 30
0.0
 10
6.254579232040416
 20
5.153451103437318
 30
0.0
 10
6.254579232040416
 20
5.153451103437318
 30
0.0
 10
6.254579232040416
 20
5.153451103437318
 30
0.0
 10
6.696412348752144
 20
5.413902932991883
 30
0.0
 10
6.696412348752144
 20
5.413902932991883
 30
0.0
 10
6.696412348752144
 20
5.413902932991883
 30
0.0
 10
6.695577641945293
 20
5.901850732373823
 30
0.0
 10
6.695577641945293
 20
5.901850732373823
 30
0.0
 10
6.695577641945293
 20
5.901850732373823
 30
0.0
 10
6.69470851423921
 20
6.389798890306805
 30
0.0
 10
6.69470851423921
 20
6.389798890306805
 30
0.0
 10
6.686719280102503
 20
6.411604529982671
 30
0.0
 10
6.668731491835286
 20
6.425962347582981
 30
0.0
 10
6.652164282764261
 20
6.430790595805092
 30
0.0
 10
6.634400947444242
 20
6.435748639501449
 30
0.0
 10
6.627656602497154
 20
6.432623508690236
 30
0.0
 10
6.531785075754644
 20
6.375112639959474
 30
0.0
 10
6.531785075754644
 20
6.375112639959474
 30
0.0
 10
6.254673172411306
 20
6.21384499014933
 30
0.0
 10
6.254673172411306
 20
6.21384499014933
 30
0.0
 10
6.254673172411306
 20
6.21384499014933
 30
0.0
 10
6.25462584367483
 20
9.193544633618417
 30
0.0
 10
6.25462584367483
 20
9.193544633618417
 30
0.0
  0
POLYLINE
  5
83
330
1F
100
AcDbEntity
  8
Layer 2
370
     0
100
AcDb2dPolyline
 66
     1
 10
0.0
 20
0.0
 30
0.0
  0
VERTEX
  5
84
330
83
100
AcDbEntity
  8
Layer 2
370
     0
100
AcDbVertex
100
AcDb2dVertex
 10
2.591969305971273
 20
8.843917934980961
 30
0.0
  0
VERTEX
  5
85
330
83
100
AcDbEntity
  8
Layer 2
370
     0
100
AcDbVertex
100
AcDb2dVertex
 10
2.688663707336509
 20
8.733864997746826
 30
0.0
  0
VERTEX
  5
86
330
83
100
AcDbEntity
  8
Layer 2
370
     0
100
AcDbVertex
100
AcDb2dVertex
 10
2.837088776215473
 20
8.768888979837357
 30
0.0
  0
VERTEX
  5
87
330
83
100
AcDbEntity
  8
Layer 2
370
     0
100
AcDbVertex
100
AcDb2dVertex
 10
2.753705940533715
 20
8.648778686103153
 30
0.0
  0
VERTEX
  5
88
330
83
100
AcDbEntity
  8
Layer 2
370
     0
100
AcDbVertex
100
AcDb2dVertex
 10
2.837088776215473
 20
8.520362199118292
 30
0.0
  0
VERTEX
  5
89
330
83
100
AcDbEntity
  8
Layer 2
370
     0
100
AcDbVertex
100
AcDb2dVertex
 10
2.688663707336509
 20
8.560379362906511
 30
0.0
  0
VERTEX
  5
8A
330
83
100
AcDbEntity
  8
Layer 2
370
     0
100
AcDbVertex
100
AcDb2dVertex
 10
2.591969305971273
 20
8.453674575226652
 30
0.0
  0
VERTEX
  5
8B
330
83
100
AcDbEntity
  8
Layer 2
370
     0
100
AcDbVertex
100
AcDb2dVertex
 10
2.591969305971273
 20
8.593746122118507
 30
0.0
  0
VERTEX
  5
8C
330
83
100
AcDbEntity
  8
Layer 2
370
     0
100
AcDbVertex
100
AcDb2dVertex
 10
2.443497625457907
 20
8.650470329880944
 30
0.0
  0
VERTEX
  5
8D
330
83
100
AcDbEntity
  8
Layer 2
370
     0
100
AcDbVertex
100
AcDb2dVertex
 10
2.591969305971273
 20
8.702154744311315
 30
0.0
  0
VERTEX
  5
8E
330
83
100
AcDbEntity
  8
Layer 2
370
     0
100
AcDbVertex
100
AcDb2dVertex
 10
2.591969305971273
 20
8.843917934980961
 30
0.0
  0
SEQEND
  5
8F
330
83
100
AcDbEntity
  8
Layer 2
370
     0
  0
POLYLINE
  5
90
330
1F
100
AcDbEntity
  8
Layer 2
370
     0
100
AcDb2dPolyline
 66
     1
 10
0.0
 20
0.0
 30
0.0
  0
VERTEX
  5
91
330
90
100
AcDbEntity
  8
Layer 2
370
     0
100
AcDbVertex
100
AcDb2dVertex
 10
3.260651924996321
 20
8.843917934980961
 30
0.0
  0
VERTEX
  5
92
330
90
100
AcDbEntity
  8
Layer 2
370
     0
100
AcDbVertex
100
AcDb2dVertex
 10
3.359049802323473
 20
8.733864997746826
 30
0.0
  0
VERTEX
  5
93
330
90
100
AcDbEntity
  8
Layer 2
370
     0
100
AcDbVertex
100
AcDb2dVertex
 10
3.505818365425954
 20
8.768888979837357
 30
0.0
  0
VERTEX
  5
94
330
90
100
AcDbEntity
  8
Layer 2
370
     0
100
AcDbVertex
100
AcDb2dVertex
 10
3.424127173522
 20
8.648778686103153
 30
0.0
  0
VERTEX
  5
95
330
90
100
AcDbEntity
  8
Layer 2
370
     0
100
AcDbVertex
100
AcDb2dVertex
 10
3.505818365425954
 20
8.520362199118292
 30
0.0
  0
VERTEX
  5
96
330
90
100
AcDbEntity
  8
Layer 2
370
     0
100
AcDbVertex
100
AcDb2dVertex
 10
3.359049802323473
 20
8.560379362906511
 30
0.0
  0
VERTEX
  5
97
330
90
100
AcDbEntity
  8
Layer 2
370
     0
100
AcDbVertex
100
AcDb2dVertex
 10
3.260651924996321
 20
8.453674575226652
 30
0.0
  0
VERTEX
  5
98
330
90
100
AcDbEntity
  8
Layer 2
370
     0
100
AcDbVertex
100
AcDb2dVertex
 10
3.260651924996321
 20
8.593746122118507
 30
0.0
  0
VERTEX
  5
99
330
90
100
AcDbEntity
  8
Layer 2
370
     0
100
AcDbVertex
100
AcDb2dVertex
 10
3.1122272146684
 20
8.650470329880944
 30
0.0
  0
VERTEX
  5
9A
330
90
100
AcDbEntity
  8
Layer 2
370
     0
100
AcDbVertex
100
AcDb2dVertex
 10
3.260651924996321
 20
8.702154744311315
 30
0.0
  0
VERTEX
  5
9B
330
90
100
AcDbEntity
  8
Layer 2
370
     0
100
AcDbVertex
100
AcDb2dVertex
 10
3.260651924996321
 20
8.843917934980961
 30
0.0
  0
SEQEND
  5
9C
330
90
100
AcDbEntity
  8
Layer 2
370
     0
  0
POLYLINE
  5
9D
330
1F
100
AcDbEntity
  8
Layer 2
370
     0
100
AcDb2dPolyline
 66
     1
 10
0.0
 20
0.0
 30
0.0
  0
VERTEX
  5
9E
330
9D
100
AcDbEntity
  8
Layer 2
370
     0
100
AcDbVertex
100
AcDb2dVertex
 10
1.935764262924926
 20
8.818270062426134
 30
0.0
  0
VERTEX
  5
9F
330
9D
100
AcDbEntity
  8
Layer 2
370
     0
100
AcDbVertex
100
AcDb2dVertex
 10
2.009935563995504
 20
8.733864997746826
 30
0.0
  0
VERTEX
  5
A0
330
9D
100
AcDbEntity
  8
Layer 2
370
     0
100
AcDbVertex
100
AcDb2dVertex
 10
2.158360632874468
 20
8.768888979837357
 30
0.0
  0
VERTEX
  5
A1
330
9D
100
AcDbEntity
  8
Layer 2
370
     0
100
AcDbVertex
100
AcDb2dVertex
 10
2.075013652296105
 20
8.648778686103153
 30
0.0
  0
VERTEX
  5
A2
330
9D
100
AcDbEntity
  8
Layer 2
370
     0
100
AcDbVertex
100
AcDb2dVertex
 10
2.158360632874468
 20
8.520362199118292
 30
0.0
  0
VERTEX
  5
A3
330
9D
100
AcDbEntity
  8
Layer 2
370
     0
100
AcDbVertex
100
AcDb2dVertex
 10
2.009935563995504
 20
8.560379362906511
 30
0.0
  0
VERTEX
  5
A4
330
9D
100
AcDbEntity
  8
Layer 2
370
     0
100
AcDbVertex
100
AcDb2dVertex
 10
1.913229688997199
 20
8.453674575226652
 30
0.0
  0
VERTEX
  5
A5
330
9D
100
AcDbEntity
  8
Layer 2
370
     0
100
AcDbVertex
100
AcDb2dVertex
 10
1.913229688997199
 20
8.593746122118507
 30
0.0
  0
VERTEX
  5
A6
330
9D
100
AcDbEntity
  8
Layer 2
370
     0
100
AcDbVertex
100
AcDb2dVertex
 10
1.813738948118814
 20
8.63175396591291
 30
0.0
  0
VERTEX
  5
A7
330
9D
100
AcDbEntity
  8
Layer 2
370
     0
100
AcDbVertex
100
AcDb2dVertex
 10
1.841866201072851
 20
8.67732867072612
 30
0.0
  0
VERTEX
  5
A8
330
9D
100
AcDbEntity
  8
Layer 2
370
     0
100
AcDbVertex
100
AcDb2dVertex
 10
1.841913171258284
 20
8.67732867072612
 30
0.0
  0
VERTEX
  5
A9
330
9D
100
AcDbEntity
  8
Layer 2
370
     0
100
AcDbVertex
100
AcDb2dVertex
 10
1.913229688997199
 20
8.702154744311315
 30
0.0
  0
VERTEX
  5
AA
330
9D
100
AcDbEntity
  8
Layer 2
370
     0
100
AcDbVertex
100
AcDb2dVertex
 10
1.913229688997199
 20
8.785725102183783
 30
0.0
  0
VERTEX
  5
AB
330
9D
100
AcDbEntity
  8
Layer 2
370
     0
100
AcDbVertex
100
AcDb2dVertex
 10
1.935764262924926
 20
8.818270062426134
 30
0.0
  0
SEQEND
  5
AC
330
9D
100
AcDbEntity
  8
Layer 2
370
     0
  0
POLYLINE
  5
AD
330
1F
100
AcDbEntity
  8
Layer 2
370
     0
100
AcDb2dPolyline
 66
     1
 10
0.0
 20
0.0
 30
0.0
  0
VERTEX
  5
AE
330
AD
100
AcDbEntity
  8
Layer 2
370
     0
100
AcDbVertex
100
AcDb2dVertex
 10
2.236749928307505
 20
8.418662783871266
 30
0.0
  0
VERTEX
  5
AF
330
AD
100
AcDbEntity
  8
Layer 2
370
     0
100
AcDbVertex
100
AcDb2dVertex
 10
2.335147805634657
 20
8.306906012124172
 30
0.0
  0
VERTEX
  5
B0
330
AD
100
AcDbEntity
  8
Layer 2
370
     0
100
AcDbVertex
100
AcDb2dVertex
 10
2.481916368737138
 20
8.341929994214713
 30
0.0
  0
VERTEX
  5
B1
330
AD
100
AcDbEntity
  8
Layer 2
370
     0
100
AcDbVertex
100
AcDb2dVertex
 10
2.400178923749813
 20
8.221867029216973
 30
0.0
  0
VERTEX
  5
B2
330
AD
100
AcDbEntity
  8
Layer 2
370
     0
100
AcDbVertex
100
AcDb2dVertex
 10
2.481916368737138
 20
8.093450542232125
 30
0.0
  0
VERTEX
  5
B3
330
AD
100
AcDbEntity
  8
Layer 2
370
     0
100
AcDbVertex
100
AcDb2dVertex
 10
2.335147805634657
 20
8.133479179653426
 30
0.0
  0
VERTEX
  5
B4
330
AD
100
AcDbEntity
  8
Layer 2
370
     0
100
AcDbVertex
100
AcDb2dVertex
 10
2.236749928307505
 20
8.026762918340484
 30
0.0
  0
VERTEX
  5
B5
330
AD
100
AcDbEntity
  8
Layer 2
370
     0
100
AcDbVertex
100
AcDb2dVertex
 10
2.236749928307505
 20
8.166834465232329
 30
0.0
  0
VERTEX
  5
B6
330
AD
100
AcDbEntity
  8
Layer 2
370
     0
100
AcDbVertex
100
AcDb2dVertex
 10
2.088325217979584
 20
8.225215895873323
 30
0.0
  0
VERTEX
  5
B7
330
AD
100
AcDbEntity
  8
Layer 2
370
     0
100
AcDbVertex
100
AcDb2dVertex
 10
2.236749928307505
 20
8.27689959320162
 30
0.0
  0
VERTEX
  5
B8
330
AD
100
AcDbEntity
  8
Layer 2
370
     0
100
AcDbVertex
100
AcDb2dVertex
 10
2.236749928307505
 20
8.418662783871266
 30
0.0
  0
SEQEND
  5
B9
330
AD
100
AcDbEntity
  8
Layer 2
370
     0
  0
POLYLINE
  5
BA
330
1F
100
AcDbEntity
  8
Layer 2
370
     0
100
AcDb2dPolyline
 66
     1
 10
0.0
 20
0.0
 30
0.0
  0
VERTEX
  5
BB
330
BA
100
AcDbEntity
  8
Layer 2
370
     0
100
AcDbVertex
100
AcDb2dVertex
 10
2.905479517517998
 20
8.418662783871266
 30
0.0
  0
VERTEX
  5
BC
330
BA
100
AcDbEntity
  8
Layer 2
370
     0
100
AcDbVertex
100
AcDb2dVertex
 10
3.003877394845138
 20
8.306906012124172
 30
0.0
  0
VERTEX
  5
BD
330
BA
100
AcDbEntity
  8
Layer 2
370
     0
100
AcDbVertex
100
AcDb2dVertex
 10
3.150598987762186
 20
8.341929994214713
 30
0.0
  0
VERTEX
  5
BE
330
BA
100
AcDbEntity
  8
Layer 2
370
     0
100
AcDbVertex
100
AcDb2dVertex
 10
3.068908512960307
 20
8.221867029216973
 30
0.0
  0
VERTEX
  5
BF
330
BA
100
AcDbEntity
  8
Layer 2
370
     0
100
AcDbVertex
100
AcDb2dVertex
 10
3.150598987762186
 20
8.093450542232125
 30
0.0
  0
VERTEX
  5
C0
330
BA
100
AcDbEntity
  8
Layer 2
370
     0
100
AcDbVertex
100
AcDb2dVertex
 10
3.003877394845138
 20
8.133479179653426
 30
0.0
  0
VERTEX
  5
C1
330
BA
100
AcDbEntity
  8
Layer 2
370
     0
100
AcDbVertex
100
AcDb2dVertex
 10
2.905479517517998
 20
8.026762918340484
 30
0.0
  0
VERTEX
  5
C2
330
BA
100
AcDbEntity
  8
Layer 2
370
     0
100
AcDbVertex
100
AcDb2dVertex
 10
2.905479517517998
 20
8.166834465232329
 30
0.0
  0
VERTEX
  5
C3
330
BA
100
AcDbEntity
  8
Layer 2
370
     0
100
AcDbVertex
100
AcDb2dVertex
 10
2.757054807190065
 20
8.225215895873323
 30
0.0
  0
VERTEX
  5
C4
330
BA
100
AcDbEntity
  8
Layer 2
370
     0
100
AcDbVertex
100
AcDb2dVertex
 10
2.905479517517998
 20
8.27689959320162
 30
0.0
  0
VERTEX
  5
C5
330
BA
100
AcDbEntity
  8
Layer 2
370
     0
100
AcDbVertex
100
AcDb2dVertex
 10
2.905479517517998
 20
8.418662783871266
 30
0.0
  0
SEQEND
  5
C6
330
BA
100
AcDbEntity
  8
Layer 2
370
     0
  0
POLYLINE
  5
C7
330
1F
100
AcDbEntity
  8
Layer 2
370
     0
100
AcDb2dPolyline
 66
     1
 10
0.0
 20
0.0
 30
0.0
  0
VERTEX
  5
C8
330
C7
100
AcDbEntity
  8
Layer 2
370
     0
100
AcDbVertex
100
AcDb2dVertex
 10
3.567547587070205
 20
8.418662783871266
 30
0.0
  0
VERTEX
  5
C9
330
C7
100
AcDbEntity
  8
Layer 2
370
     0
100
AcDbVertex
100
AcDb2dVertex
 10
3.665945464397345
 20
8.306906012124172
 30
0.0
  0
VERTEX
  5
CA
330
C7
100
AcDbEntity
  8
Layer 2
370
     0
100
AcDbVertex
100
AcDb2dVertex
 10
3.812666698763362
 20
8.341929994214713
 30
0.0
  0
VERTEX
  5
CB
330
C7
100
AcDbEntity
  8
Layer 2
370
     0
100
AcDbVertex
100
AcDb2dVertex
 10
3.730975865410439
 20
8.221867029216973
 30
0.0
  0
VERTEX
  5
CC
330
C7
100
AcDbEntity
  8
Layer 2
370
     0
100
AcDbVertex
100
AcDb2dVertex
 10
3.812666698763362
 20
8.093450542232125
 30
0.0
  0
VERTEX
  5
CD
330
C7
100
AcDbEntity
  8
Layer 2
370
     0
100
AcDbVertex
100
AcDb2dVertex
 10
3.665945464397345
 20
8.133479179653426
 30
0.0
  0
VERTEX
  5
CE
330
C7
100
AcDbEntity
  8
Layer 2
370
     0
100
AcDbVertex
100
AcDb2dVertex
 10
3.567547587070205
 20
8.026762918340484
 30
0.0
  0
VERTEX
  5
CF
330
C7
100
AcDbEntity
  8
Layer 2
370
     0
100
AcDbVertex
100
AcDb2dVertex
 10
3.567547587070205
 20
8.166834465232329
 30
0.0
  0
VERTEX
  5
D0
330
C7
100
AcDbEntity
  8
Layer 2
370
     0
100
AcDbVertex
100
AcDb2dVertex
 10
3.419075548005796
 20
8.225215895873323
 30
0.0
  0
VERTEX
  5
D1
330
C7
100
AcDbEntity
  8
Layer 2
370
     0
100
AcDbVertex
100
AcDb2dVertex
 10
3.567547587070205
 20
8.27689959320162
 30
0.0
  0
VERTEX
  5
D2
330
C7
100
AcDbEntity
  8
Layer 2
370
     0
100
AcDbVertex
100
AcDb2dVertex
 10
3.567547587070205
 20
8.418662783871266
 30
0.0
  0
SEQEND
  5
D3
330
C7
100
AcDbEntity
  8
Layer 2
370
     0
  0
POLYLINE
  5
D4
330
1F
100
AcDbEntity
  8
Layer 2
370
     0
100
AcDb2dPolyline
 66
     1
 10
0.0
 20
0.0
 30
0.0
  0
VERTEX
  5
D5
330
D4
100
AcDbEntity
  8
Layer 2
370
     0
100
AcDbVertex
100
AcDb2dVertex
 10
1.803129781577619
 20
8.341929994214713
 30
0.0
  0
VERTEX
  5
D6
330
D4
100
AcDbEntity
  8
Layer 2
370
     0
100
AcDbVertex
100
AcDb2dVertex
 10
1.721438948224697
 20
8.221867029216973
 30
0.0
  0
VERTEX
  5
D7
330
D4
100
AcDbEntity
  8
Layer 2
370
     0
100
AcDbVertex
100
AcDb2dVertex
 10
1.803129781577619
 20
8.093450542232125
 30
0.0
  0
VERTEX
  5
D8
330
D4
100
AcDbEntity
  8
Layer 2
370
     0
100
AcDbVertex
100
AcDb2dVertex
 10
1.656408188660571
 20
8.133479179653426
 30
0.0
  0
VERTEX
  5
D9
330
D4
100
AcDbEntity
  8
Layer 2
370
     0
100
AcDbVertex
100
AcDb2dVertex
 10
1.558010311333431
 20
8.026762918340484
 30
0.0
  0
VERTEX
  5
DA
330
D4
100
AcDbEntity
  8
Layer 2
370
     0
100
AcDbVertex
100
AcDb2dVertex
 10
1.558010311333431
 20
8.12296431203414
 30
0.0
  0
VERTEX
  5
DB
330
D4
100
AcDbEntity
  8
Layer 2
370
     0
100
AcDbVertex
100
AcDb2dVertex
 10
1.645164745340468
 20
8.319712737951956
 30
0.0
  0
VERTEX
  5
DC
330
D4
100
AcDbEntity
  8
Layer 2
370
     0
100
AcDbVertex
100
AcDb2dVertex
 10
1.656408188660571
 20
8.306906012124172
 30
0.0
  0
VERTEX
  5
DD
330
D4
100
AcDbEntity
  8
Layer 2
370
     0
100
AcDbVertex
100
AcDb2dVertex
 10
1.803129781577619
 20
8.341929994214713
 30
0.0
  0
SEQEND
  5
DE
330
D4
100
AcDbEntity
  8
Layer 2
370
     0
  0
POLYLINE
  5
DF
330
1F
100
AcDbEntity
  8
Layer 2
370
     0
100
AcDb2dPolyline
 66
     1
 10
0.0
 20
0.0
 30
0.0
  0
VERTEX
  5
E0
330
DF
100
AcDbEntity
  8
Layer 2
370
     0
100
AcDbVertex
100
AcDb2dVertex
 10
1.913229688997199
 20
8.020065902129847
 30
0.0
  0
VERTEX
  5
E1
330
DF
100
AcDbEntity
  8
Layer 2
370
     0
100
AcDbVertex
100
AcDb2dVertex
 10
2.009935563995504
 20
7.908356459119229
 30
0.0
  0
VERTEX
  5
E2
330
DF
100
AcDbEntity
  8
Layer 2
370
     0
100
AcDbVertex
100
AcDb2dVertex
 10
2.158360632874468
 20
7.943380441209759
 30
0.0
  0
VERTEX
  5
E3
330
DF
100
AcDbEntity
  8
Layer 2
370
     0
100
AcDbVertex
100
AcDb2dVertex
 10
2.075013652296105
 20
7.824973981988503
 30
0.0
  0
VERTEX
  5
E4
330
DF
100
AcDbEntity
  8
Layer 2
370
     0
100
AcDbVertex
100
AcDb2dVertex
 10
2.158360632874468
 20
7.696557495003654
 30
0.0
  0
VERTEX
  5
E5
330
DF
100
AcDbEntity
  8
Layer 2
370
     0
100
AcDbVertex
100
AcDb2dVertex
 10
2.009935563995504
 20
7.734929626648472
 30
0.0
  0
VERTEX
  5
E6
330
DF
100
AcDbEntity
  8
Layer 2
370
     0
100
AcDbVertex
100
AcDb2dVertex
 10
1.913229688997199
 20
7.62817822733421
 30
0.0
  0
VERTEX
  5
E7
330
DF
100
AcDbEntity
  8
Layer 2
370
     0
100
AcDbVertex
100
AcDb2dVertex
 10
1.913229688997199
 20
7.768284912227373
 30
0.0
  0
VERTEX
  5
E8
330
DF
100
AcDbEntity
  8
Layer 2
370
     0
100
AcDbVertex
100
AcDb2dVertex
 10
1.764816093751316
 20
7.826666342868369
 30
0.0
  0
VERTEX
  5
E9
330
DF
100
AcDbEntity
  8
Layer 2
370
     0
100
AcDbVertex
100
AcDb2dVertex
 10
1.913229688997199
 20
7.878350040196665
 30
0.0
  0
VERTEX
  5
EA
330
DF
100
AcDbEntity
  8
Layer 2
370
     0
100
AcDbVertex
100
AcDb2dVertex
 10
1.913229688997199
 20
8.020065902129847
 30
0.0
  0
SEQEND
  5
EB
330
DF
100
AcDbEntity
  8
Layer 2
370
     0
  0
POLYLINE
  5
EC
330
1F
100
AcDbEntity
  8
Layer 2
370
     0
100
AcDb2dPolyline
 66
     1
 10
0.0
 20
0.0
 30
0.0
  0
VERTEX
  5
ED
330
EC
100
AcDbEntity
  8
Layer 2
370
     0
100
AcDbVertex
100
AcDb2dVertex
 10
2.591969305971273
 20
8.020065902129847
 30
0.0
  0
VERTEX
  5
EE
330
EC
100
AcDbEntity
  8
Layer 2
370
     0
100
AcDbVertex
100
AcDb2dVertex
 10
2.688663707336509
 20
7.908356459119229
 30
0.0
  0
VERTEX
  5
EF
330
EC
100
AcDbEntity
  8
Layer 2
370
     0
100
AcDbVertex
100
AcDb2dVertex
 10
2.837088776215473
 20
7.943380441209759
 30
0.0
  0
VERTEX
  5
F0
330
EC
100
AcDbEntity
  8
Layer 2
370
     0
100
AcDbVertex
100
AcDb2dVertex
 10
2.753705940533715
 20
7.824973981988503
 30
0.0
  0
VERTEX
  5
F1
330
EC
100
AcDbEntity
  8
Layer 2
370
     0
100
AcDbVertex
100
AcDb2dVertex
 10
2.837088776215473
 20
7.696557495003654
 30
0.0
  0
VERTEX
  5
F2
330
EC
100
AcDbEntity
  8
Layer 2
370
     0
100
AcDbVertex
100
AcDb2dVertex
 10
2.688663707336509
 20
7.734929626648472
 30
0.0
  0
VERTEX
  5
F3
330
EC
100
AcDbEntity
  8
Layer 2
370
     0
100
AcDbVertex
100
AcDb2dVertex
 10
2.591969305971273
 20
7.62817822733421
 30
0.0
  0
VERTEX
  5
F4
330
EC
100
AcDbEntity
  8
Layer 2
370
     0
100
AcDbVertex
100
AcDb2dVertex
 10
2.591969305971273
 20
7.768284912227373
 30
0.0
  0
VERTEX
  5
F5
330
EC
100
AcDbEntity
  8
Layer 2
370
     0
100
AcDbVertex
100
AcDb2dVertex
 10
2.443497625457907
 20
7.826666342868369
 30
0.0
  0
VERTEX
  5
F6
330
EC
100
AcDbEntity
  8
Layer 2
370
     0
100
AcDbVertex
100
AcDb2dVertex
 10
2.591969305971273
 20
7.878350040196665
 30
0.0
  0
VERTEX
  5
F7
330
EC
100
AcDbEntity
  8
Layer 2
370
     0
100
AcDbVertex
100
AcDb2dVertex
 10
2.591969305971273
 20
8.020065902129847
 30
0.0
  0
SEQEND
  5
F8
330
EC
100
AcDbEntity
  8
Layer 2
370
     0
  0
POLYLINE
  5
F9
330
1F
100
AcDbEntity
  8
Layer 2
370
     0
100
AcDb2dPolyline
 66
     1
 10
0.0
 20
0.0
 30
0.0
  0
VERTEX
  5
FA
330
F9
100
AcDbEntity
  8
Layer 2
370
     0
100
AcDbVertex
100
AcDb2dVertex
 10
3.260651924996321
 20
8.020065902129847
 30
0.0
  0
VERTEX
  5
FB
330
F9
100
AcDbEntity
  8
Layer 2
370
     0
100
AcDbVertex
100
AcDb2dVertex
 10
3.359049802323473
 20
7.908356459119229
 30
0.0
  0
VERTEX
  5
FC
330
F9
100
AcDbEntity
  8
Layer 2
370
     0
100
AcDbVertex
100
AcDb2dVertex
 10
3.505818365425954
 20
7.943380441209759
 30
0.0
  0
VERTEX
  5
FD
330
F9
100
AcDbEntity
  8
Layer 2
370
     0
100
AcDbVertex
100
AcDb2dVertex
 10
3.424127173522
 20
7.824973981988503
 30
0.0
  0
VERTEX
  5
FE
330
F9
100
AcDbEntity
  8
Layer 2
370
     0
100
AcDbVertex
100
AcDb2dVertex
 10
3.505818365425954
 20
7.696557495003654
 30
0.0
  0
VERTEX
  5
FF
330
F9
100
AcDbEntity
  8
Layer 2
370
     0
100
AcDbVertex
100
AcDb2dVertex
 10
3.359049802323473
 20
7.734929626648472
 30
0.0
  0
VERTEX
  5
100
330
F9
100
AcDbEntity
  8
Layer 2
370
     0
100
AcDbVertex
100
AcDb2dVertex
 10
3.260651924996321
 20
7.62817822733421
 30
0.0
  0
VERTEX
  5
101
330
F9
100
AcDbEntity
  8
Layer 2
370
     0
100
AcDbVertex
100
AcDb2dVertex
 10
3.260651924996321
 20
7.768284912227373
 30
0.0
  0
VERTEX
  5
102
330
F9
100
AcDbEntity
  8
Layer 2
370
     0
100
AcDbVertex
100
AcDb2dVertex
 10
3.1122272146684
 20
7.826666342868369
 30
0.0
  0
VERTEX
  5
103
330
F9
100
AcDbEntity
  8
Layer 2
370
     0
100
AcDbVertex
100
AcDb2dVertex
 10
3.260651924996321
 20
7.878350040196665
 30
0.0
  0
VERTEX
  5
104
330
F9
100
AcDbEntity
  8
Layer 2
370
     0
100
AcDbVertex
100
AcDb2dVertex
 10
3.260651924996321
 20
8.020065902129847
 30
0.0
  0
SEQEND
  5
105
330
F9
100
AcDbEntity
  8
Layer 2
370
     0
  0
POLYLINE
  5
106
330
1F
100
AcDbEntity
  8
Layer 2
370
     0
100
AcDb2dPolyline
 66
     1
 10
0.0
 20
0.0
 30
0.0
  0
VERTEX
  5
107
330
106
100
AcDbEntity
  8
Layer 2
370
     0
100
AcDbVertex
100
AcDb2dVertex
 10
1.558010311333431
 20
7.621517066226968
 30
0.0
  0
VERTEX
  5
108
330
106
100
AcDbEntity
  8
Layer 2
370
     0
100
AcDbVertex
100
AcDb2dVertex
 10
1.656408188660571
 20
7.51146412899282
 30
0.0
  0
VERTEX
  5
109
330
106
100
AcDbEntity
  8
Layer 2
370
     0
100
AcDbVertex
100
AcDb2dVertex
 10
1.803129781577619
 20
7.546487393981288
 30
0.0
  0
VERTEX
  5
10A
330
106
100
AcDbEntity
  8
Layer 2
370
     0
100
AcDbVertex
100
AcDb2dVertex
 10
1.721438948224697
 20
7.426424428983561
 30
0.0
  0
VERTEX
  5
10B
330
106
100
AcDbEntity
  8
Layer 2
370
     0
100
AcDbVertex
100
AcDb2dVertex
 10
1.803129781577619
 20
7.297961330364299
 30
0.0
  0
VERTEX
  5
10C
330
106
100
AcDbEntity
  8
Layer 2
370
     0
100
AcDbVertex
100
AcDb2dVertex
 10
1.656408188660571
 20
7.336380073643517
 30
0.0
  0
VERTEX
  5
10D
330
106
100
AcDbEntity
  8
Layer 2
370
     0
100
AcDbVertex
100
AcDb2dVertex
 10
1.558010311333431
 20
7.229628674329255
 30
0.0
  0
VERTEX
  5
10E
330
106
100
AcDbEntity
  8
Layer 2
370
     0
100
AcDbVertex
100
AcDb2dVertex
 10
1.558010311333431
 20
7.371345253364502
 30
0.0
  0
VERTEX
  5
10F
330
106
100
AcDbEntity
  8
Layer 2
370
     0
100
AcDbVertex
100
AcDb2dVertex
 10
1.409585242454467
 20
7.428069461126951
 30
0.0
  0
VERTEX
  5
110
330
106
100
AcDbEntity
  8
Layer 2
370
     0
100
AcDbVertex
100
AcDb2dVertex
 10
1.558010311333431
 20
7.479753158455246
 30
0.0
  0
VERTEX
  5
111
330
106
100
AcDbEntity
  8
Layer 2
370
     0
100
AcDbVertex
100
AcDb2dVertex
 10
1.558010311333431
 20
7.621517066226968
 30
0.0
  0
SEQEND
  5
112
330
106
100
AcDbEntity
  8
Layer 2
370
     0
  0
POLYLINE
  5
113
330
1F
100
AcDbEntity
  8
Layer 2
370
     0
100
AcDb2dPolyline
 66
     1
 10
0.0
 20
0.0
 30
0.0
  0
VERTEX
  5
114
330
113
100
AcDbEntity
  8
Layer 2
370
     0
100
AcDbVertex
100
AcDb2dVertex
 10
2.236749928307505
 20
7.621517066226968
 30
0.0
  0
VERTEX
  5
115
330
113
100
AcDbEntity
  8
Layer 2
370
     0
100
AcDbVertex
100
AcDb2dVertex
 10
2.335147805634657
 20
7.51146412899282
 30
0.0
  0
VERTEX
  5
116
330
113
100
AcDbEntity
  8
Layer 2
370
     0
100
AcDbVertex
100
AcDb2dVertex
 10
2.481916368737138
 20
7.546487393981288
 30
0.0
  0
VERTEX
  5
117
330
113
100
AcDbEntity
  8
Layer 2
370
     0
100
AcDbVertex
100
AcDb2dVertex
 10
2.400178923749813
 20
7.426424428983561
 30
0.0
  0
VERTEX
  5
118
330
113
100
AcDbEntity
  8
Layer 2
370
     0
100
AcDbVertex
100
AcDb2dVertex
 10
2.481916368737138
 20
7.297961330364299
 30
0.0
  0
VERTEX
  5
119
330
113
100
AcDbEntity
  8
Layer 2
370
     0
100
AcDbVertex
100
AcDb2dVertex
 10
2.335147805634657
 20
7.336380073643517
 30
0.0
  0
VERTEX
  5
11A
330
113
100
AcDbEntity
  8
Layer 2
370
     0
100
AcDbVertex
100
AcDb2dVertex
 10
2.236749928307505
 20
7.229628674329255
 30
0.0
  0
VERTEX
  5
11B
330
113
100
AcDbEntity
  8
Layer 2
370
     0
100
AcDbVertex
100
AcDb2dVertex
 10
2.236749928307505
 20
7.371345253364502
 30
0.0
  0
VERTEX
  5
11C
330
113
100
AcDbEntity
  8
Layer 2
370
     0
100
AcDbVertex
100
AcDb2dVertex
 10
2.088325217979584
 20
7.428069461126951
 30
0.0
  0
VERTEX
  5
11D
330
113
100
AcDbEntity
  8
Layer 2
370
     0
100
AcDbVertex
100
AcDb2dVertex
 10
2.236749928307505
 20
7.479753158455246
 30
0.0
  0
VERTEX
  5
11E
330
113
100
AcDbEntity
  8
Layer 2
370
     0
100
AcDbVertex
100
AcDb2dVertex
 10
2.236749928307505
 20
7.621517066226968
 30
0.0
  0
SEQEND
  5
11F
330
113
100
AcDbEntity
  8
Layer 2
370
     0
  0
POLYLINE
  5
120
330
1F
100
AcDbEntity
  8
Layer 2
370
     0
100
AcDb2dPolyline
 66
     1
 10
0.0
 20
0.0
 30
0.0
  0
VERTEX
  5
121
330
120
100
AcDbEntity
  8
Layer 2
370
     0
100
AcDbVertex
100
AcDb2dVertex
 10
2.905479517517998
 20
7.621517066226968
 30
0.0
  0
VERTEX
  5
122
330
120
100
AcDbEntity
  8
Layer 2
370
     0
100
AcDbVertex
100
AcDb2dVertex
 10
3.003877394845138
 20
7.51146412899282
 30
0.0
  0
VERTEX
  5
123
330
120
100
AcDbEntity
  8
Layer 2
370
     0
100
AcDbVertex
100
AcDb2dVertex
 10
3.150598987762186
 20
7.546487393981288
 30
0.0
  0
VERTEX
  5
124
330
120
100
AcDbEntity
  8
Layer 2
370
     0
100
AcDbVertex
100
AcDb2dVertex
 10
3.068908512960307
 20
7.426424428983561
 30
0.0
  0
VERTEX
  5
125
330
120
100
AcDbEntity
  8
Layer 2
370
     0
100
AcDbVertex
100
AcDb2dVertex
 10
3.150598987762186
 20
7.297961330364299
 30
0.0
  0
VERTEX
  5
126
330
120
100
AcDbEntity
  8
Layer 2
370
     0
100
AcDbVertex
100
AcDb2dVertex
 10
3.003877394845138
 20
7.336380073643517
 30
0.0
  0
VERTEX
  5
127
330
120
100
AcDbEntity
  8
Layer 2
370
     0
100
AcDbVertex
100
AcDb2dVertex
 10
2.905479517517998
 20
7.229628674329255
 30
0.0
  0
VERTEX
  5
128
330
120
100
AcDbEntity
  8
Layer 2
370
     0
100
AcDbVertex
100
AcDb2dVertex
 10
2.905479517517998
 20
7.371345253364502
 30
0.0
  0
VERTEX
  5
129
330
120
100
AcDbEntity
  8
Layer 2
370
     0
100
AcDbVertex
100
AcDb2dVertex
 10
2.757054807190065
 20
7.428069461126951
 30
0.0
  0
VERTEX
  5
12A
330
120
100
AcDbEntity
  8
Layer 2
370
     0
100
AcDbVertex
100
AcDb2dVertex
 10
2.905479517517998
 20
7.479753158455246
 30
0.0
  0
VERTEX
  5
12B
330
120
100
AcDbEntity
  8
Layer 2
370
     0
100
AcDbVertex
100
AcDb2dVertex
 10
2.905479517517998
 20
7.621517066226968
 30
0.0
  0
SEQEND
  5
12C
330
120
100
AcDbEntity
  8
Layer 2
370
     0
  0
POLYLINE
  5
12D
330
1F
100
AcDbEntity
  8
Layer 2
370
     0
100
AcDb2dPolyline
 66
     1
 10
0.0
 20
0.0
 30
0.0
  0
VERTEX
  5
12E
330
12D
100
AcDbEntity
  8
Layer 2
370
     0
100
AcDbVertex
100
AcDb2dVertex
 10
3.567547587070205
 20
7.621517066226968
 30
0.0
  0
VERTEX
  5
12F
330
12D
100
AcDbEntity
  8
Layer 2
370
     0
100
AcDbVertex
100
AcDb2dVertex
 10
3.665945464397345
 20
7.51146412899282
 30
0.0
  0
VERTEX
  5
130
330
12D
100
AcDbEntity
  8
Layer 2
370
     0
100
AcDbVertex
100
AcDb2dVertex
 10
3.812666698763362
 20
7.546487393981288
 30
0.0
  0
VERTEX
  5
131
330
12D
100
AcDbEntity
  8
Layer 2
370
     0
100
AcDbVertex
100
AcDb2dVertex
 10
3.730975865410439
 20
7.426424428983561
 30
0.0
  0
VERTEX
  5
132
330
12D
100
AcDbEntity
  8
Layer 2
370
     0
100
AcDbVertex
100
AcDb2dVertex
 10
3.812666698763362
 20
7.297961330364299
 30
0.0
  0
VERTEX
  5
133
330
12D
100
AcDbEntity
  8
Layer 2
370
     0
100
AcDbVertex
100
AcDb2dVertex
 10
3.665945464397345
 20
7.336380073643517
 30
0.0
  0
VERTEX
  5
134
330
12D
100
AcDbEntity
  8
Layer 2
370
     0
100
AcDbVertex
100
AcDb2dVertex
 10
3.567547587070205
 20
7.229628674329255
 30
0.0
  0
VERTEX
  5
135
330
12D
100
AcDbEntity
  8
Layer 2
370
     0
100
AcDbVertex
100
AcDb2dVertex
 10
3.567547587070205
 20
7.371345253364502
 30
0.0
  0
VERTEX
  5
136
330
12D
100
AcDbEntity
  8
Layer 2
370
     0
100
AcDbVertex
100
AcDb2dVertex
 10
3.419075548005796
 20
7.428069461126951
 30
0.0
  0
VERTEX
  5
137
330
12D
100
AcDbEntity
  8
Layer 2
370
     0
100
AcDbVertex
100
AcDb2dVertex
 10
3.567547587070205
 20
7.479753158455246
 30
0.0
  0
VERTEX
  5
138
330
12D
100
AcDbEntity
  8
Layer 2
370
     0
100
AcDbVertex
100
AcDb2dVertex
 10
3.567547587070205
 20
7.621517066226968
 30
0.0
  0
SEQEND
  5
139
330
12D
100
AcDbEntity
  8
Layer 2
370
     0
  0
POLYLINE
  5
13A
330
1F
100
AcDbEntity
  8
Layer 2
370
     0
100
AcDb2dPolyline
 66
     1
 10
0.0
 20
0.0
 30
0.0
  0
VERTEX
  5
13B
330
13A
100
AcDbEntity
  8
Layer 2
370
     0
100
AcDbVertex
100
AcDb2dVertex
 10
1.913229688997199
 20
7.222931658118632
 30
0.0
  0
VERTEX
  5
13C
330
13A
100
AcDbEntity
  8
Layer 2
370
     0
100
AcDbVertex
100
AcDb2dVertex
 10
2.009935563995504
 20
7.112867247251402
 30
0.0
  0
VERTEX
  5
13D
330
13A
100
AcDbEntity
  8
Layer 2
370
     0
100
AcDbVertex
100
AcDb2dVertex
 10
2.158360632874468
 20
7.147890512239869
 30
0.0
  0
VERTEX
  5
13E
330
13A
100
AcDbEntity
  8
Layer 2
370
     0
100
AcDbVertex
100
AcDb2dVertex
 10
2.075013652296105
 20
7.02782754724213
 30
0.0
  0
VERTEX
  5
13F
330
13A
100
AcDbEntity
  8
Layer 2
370
     0
100
AcDbVertex
100
AcDb2dVertex
 10
2.158360632874468
 20
6.899411777359344
 30
0.0
  0
VERTEX
  5
140
330
13A
100
AcDbEntity
  8
Layer 2
370
     0
100
AcDbVertex
100
AcDb2dVertex
 10
2.009935563995504
 20
6.93778390900416
 30
0.0
  0
VERTEX
  5
141
330
13A
100
AcDbEntity
  8
Layer 2
370
     0
100
AcDbVertex
100
AcDb2dVertex
 10
1.913229688997199
 20
6.832735627100785
 30
0.0
  0
VERTEX
  5
142
330
13A
100
AcDbEntity
  8
Layer 2
370
     0
100
AcDbVertex
100
AcDb2dVertex
 10
1.913229688997199
 20
6.972795700359559
 30
0.0
  0
VERTEX
  5
143
330
13A
100
AcDbEntity
  8
Layer 2
370
     0
100
AcDbVertex
100
AcDb2dVertex
 10
1.764816093751316
 20
7.029484053018614
 30
0.0
  0
VERTEX
  5
144
330
13A
100
AcDbEntity
  8
Layer 2
370
     0
100
AcDbVertex
100
AcDb2dVertex
 10
1.913229688997199
 20
7.08115699381589
 30
0.0
  0
VERTEX
  5
145
330
13A
100
AcDbEntity
  8
Layer 2
370
     0
100
AcDbVertex
100
AcDb2dVertex
 10
1.913229688997199
 20
7.222931658118632
 30
0.0
  0
SEQEND
  5
146
330
13A
100
AcDbEntity
  8
Layer 2
370
     0
  0
POLYLINE
  5
147
330
1F
100
AcDbEntity
  8
Layer 2
370
     0
100
AcDb2dPolyline
 66
     1
 10
0.0
 20
0.0
 30
0.0
  0
VERTEX
  5
148
330
147
100
AcDbEntity
  8
Layer 2
370
     0
100
AcDbVertex
100
AcDb2dVertex
 10
2.591969305971273
 20
7.222931658118632
 30
0.0
  0
VERTEX
  5
149
330
147
100
AcDbEntity
  8
Layer 2
370
     0
100
AcDbVertex
100
AcDb2dVertex
 10
2.688663707336509
 20
7.112867247251402
 30
0.0
  0
VERTEX
  5
14A
330
147
100
AcDbEntity
  8
Layer 2
370
     0
100
AcDbVertex
100
AcDb2dVertex
 10
2.837088776215473
 20
7.147890512239869
 30
0.0
  0
VERTEX
  5
14B
330
147
100
AcDbEntity
  8
Layer 2
370
     0
100
AcDbVertex
100
AcDb2dVertex
 10
2.753705940533715
 20
7.02782754724213
 30
0.0
  0
VERTEX
  5
14C
330
147
100
AcDbEntity
  8
Layer 2
370
     0
100
AcDbVertex
100
AcDb2dVertex
 10
2.837088776215473
 20
6.899411777359344
 30
0.0
  0
VERTEX
  5
14D
330
147
100
AcDbEntity
  8
Layer 2
370
     0
100
AcDbVertex
100
AcDb2dVertex
 10
2.688663707336509
 20
6.93778390900416
 30
0.0
  0
VERTEX
  5
14E
330
147
100
AcDbEntity
  8
Layer 2
370
     0
100
AcDbVertex
100
AcDb2dVertex
 10
2.591969305971273
 20
6.832735627100785
 30
0.0
  0
VERTEX
  5
14F
330
147
100
AcDbEntity
  8
Layer 2
370
     0
100
AcDbVertex
100
AcDb2dVertex
 10
2.591969305971273
 20
6.972795700359559
 30
0.0
  0
VERTEX
  5
150
330
147
100
AcDbEntity
  8
Layer 2
370
     0
100
AcDbVertex
100
AcDb2dVertex
 10
2.443497625457907
 20
7.029484053018614
 30
0.0
  0
VERTEX
  5
151
330
147
100
AcDbEntity
  8
Layer 2
370
     0
100
AcDbVertex
100
AcDb2dVertex
 10
2.591969305971273
 20
7.08115699381589
 30
0.0
  0
VERTEX
  5
152
330
147
100
AcDbEntity
  8
Layer 2
370
     0
100
AcDbVertex
100
AcDb2dVertex
 10
2.591969305971273
 20
7.222931658118632
 30
0.0
  0
SEQEND
  5
153
330
147
100
AcDbEntity
  8
Layer 2
370
     0
  0
POLYLINE
  5
154
330
1F
100
AcDbEntity
  8
Layer 2
370
     0
100
AcDb2dPolyline
 66
     1
 10
0.0
 20
0.0
 30
0.0
  0
VERTEX
  5
155
330
154
100
AcDbEntity
  8
Layer 2
370
     0
100
AcDbVertex
100
AcDb2dVertex
 10
3.260651924996321
 20
7.222931658118632
 30
0.0
  0
VERTEX
  5
156
330
154
100
AcDbEntity
  8
Layer 2
370
     0
100
AcDbVertex
100
AcDb2dVertex
 10
3.359049802323473
 20
7.112867247251402
 30
0.0
  0
VERTEX
  5
157
330
154
100
AcDbEntity
  8
Layer 2
370
     0
100
AcDbVertex
100
AcDb2dVertex
 10
3.505818365425954
 20
7.147890512239869
 30
0.0
  0
VERTEX
  5
158
330
154
100
AcDbEntity
  8
Layer 2
370
     0
100
AcDbVertex
100
AcDb2dVertex
 10
3.424127173522
 20
7.02782754724213
 30
0.0
  0
VERTEX
  5
159
330
154
100
AcDbEntity
  8
Layer 2
370
     0
100
AcDbVertex
100
AcDb2dVertex
 10
3.505818365425954
 20
6.899411777359344
 30
0.0
  0
VERTEX
  5
15A
330
154
100
AcDbEntity
  8
Layer 2
370
     0
100
AcDbVertex
100
AcDb2dVertex
 10
3.359049802323473
 20
6.93778390900416
 30
0.0
  0
VERTEX
  5
15B
330
154
100
AcDbEntity
  8
Layer 2
370
     0
100
AcDbVertex
100
AcDb2dVertex
 10
3.260651924996321
 20
6.832735627100785
 30
0.0
  0
VERTEX
  5
15C
330
154
100
AcDbEntity
  8
Layer 2
370
     0
100
AcDbVertex
100
AcDb2dVertex
 10
3.260651924996321
 20
6.972795700359559
 30
0.0
  0
VERTEX
  5
15D
330
154
100
AcDbEntity
  8
Layer 2
370
     0
100
AcDbVertex
100
AcDb2dVertex
 10
3.1122272146684
 20
7.029484053018614
 30
0.0
  0
VERTEX
  5
15E
330
154
100
AcDbEntity
  8
Layer 2
370
     0
100
AcDbVertex
100
AcDb2dVertex
 10
3.260651924996321
 20
7.08115699381589
 30
0.0
  0
VERTEX
  5
15F
330
154
100
AcDbEntity
  8
Layer 2
370
     0
100
AcDbVertex
100
AcDb2dVertex
 10
3.260651924996321
 20
7.222931658118632
 30
0.0
  0
SEQEND
  5
160
330
154
100
AcDbEntity
  8
Layer 2
370
     0
  0
SPLINE
  5
161
330
1F
100
AcDbEntity
  8
Layer 2
370
     0
100
AcDbSpline
210
0.0
220
0.0
230
1.0
 70
    11
 71
     3
 72
    29
 73
    25
 74
     0
 42
0.0000000001
 43
0.0000000001
 12
1.0
 22
0.0
 32
0.0
 13
1.0
 23
0.0
 33
0.0
 40
0.0
 40
0.0
 40
0.0
 40
0.0
 40
1.0
 40
1.0
 40
1.0
 40
2.0
 40
2.0
 40
2.0
 40
3.0
 40
3.0
 40
3.0
 40
4.0
 40
4.0
 40
4.0
 40
5.0
 40
5.0
 40
5.0
 40
6.0
 40
6.0
 40
6.0
 40
7.0
 40
7.0
 40
7.0
 40
8.0
 40
8.0
 40
8.0
 40
8.0
 10
1.304173389802738
 20
7.152472794452731
 30
0.0
 10
1.304173389802738
 20
7.152472794452731
 30
0.0
 10
1.342862480561507
 20
7.112867247251402
 30
0.0
 10
1.342862480561507
 20
7.112867247251402
 30
0.0
 10
1.342862480561507
 20
7.112867247251402
 30
0.0
 10
1.491323045992822
 20
7.147890512239869
 30
0.0
 10
1.491323045992822
 20
7.147890512239869
 30
0.0
 10
1.491323045992822
 20
7.147890512239869
 30
0.0
 10
1.407940210311065
 20
7.02782754724213
 30
0.0
 10
1.407940210311065
 20
7.02782754724213
 30
0.0
 10
1.407940210311065
 20
7.02782754724213
 30
0.0
 10
1.491323045992822
 20
6.899411777359344
 30
0.0
 10
1.491323045992822
 20
6.899411777359344
 30
0.0
 10
1.491323045992822
 20
6.899411777359344
 30
0.0
 10
1.342862480561507
 20
6.93778390900416
 30
0.0
 10
1.342862480561507
 20
6.93778390900416
 30
0.0
 10
1.342862480561507
 20
6.93778390900416
 30
0.0
 10
1.302105267439376
 20
6.893489948483938
 30
0.0
 10
1.302105267439376
 20
6.893489948483938
 30
0.0
 10
1.301823446326757
 20
7.021354266876629
 30
0.0
 10
1.302058297253944
 20
7.118283519169053
 30
0.0
 10
1.304173389802738
 20
7.152472794452731
 30
0.0
 10
1.304173389802738
 20
7.152472794452731
 30
0.0
 10
1.304173389802738
 20
7.152472794452731
 30
0.0
 10
1.304173389802738
 20
7.152472794452731
 30
0.0
  0
POLYLINE
  5
162
330
1F
100
AcDbEntity
  8
Layer 2
370
     0
100
AcDb2dPolyline
 66
     1
 10
0.0
 20
0.0
 30
0.0
  0
VERTEX
  5
163
330
162
100
AcDbEntity
  8
Layer 2
370
     0
100
AcDbVertex
100
AcDb2dVertex
 10
1.558010311333431
 20
6.819376732680843
 30
0.0
  0
VERTEX
  5
164
330
162
100
AcDbEntity
  8
Layer 2
370
     0
100
AcDbVertex
100
AcDb2dVertex
 10
1.656408188660571
 20
6.709323795446708
 30
0.0
  0
VERTEX
  5
165
330
162
100
AcDbEntity
  8
Layer 2
370
     0
100
AcDbVertex
100
AcDb2dVertex
 10
1.803129781577619
 20
6.744336303904156
 30
0.0
  0
VERTEX
  5
166
330
162
100
AcDbEntity
  8
Layer 2
370
     0
100
AcDbVertex
100
AcDb2dVertex
 10
1.721438948224697
 20
6.624273338906416
 30
0.0
  0
VERTEX
  5
167
330
162
100
AcDbEntity
  8
Layer 2
370
     0
100
AcDbVertex
100
AcDb2dVertex
 10
1.803129781577619
 20
6.49586832555465
 30
0.0
  0
VERTEX
  5
168
330
162
100
AcDbEntity
  8
Layer 2
370
     0
100
AcDbVertex
100
AcDb2dVertex
 10
1.656408188660571
 20
6.534228983566385
 30
0.0
  0
VERTEX
  5
169
330
162
100
AcDbEntity
  8
Layer 2
370
     0
100
AcDbVertex
100
AcDb2dVertex
 10
1.558010311333431
 20
6.427477584252124
 30
0.0
  0
VERTEX
  5
16A
330
162
100
AcDbEntity
  8
Layer 2
370
     0
100
AcDbVertex
100
AcDb2dVertex
 10
1.558010311333431
 20
6.567549131143967
 30
0.0
  0
VERTEX
  5
16B
330
162
100
AcDbEntity
  8
Layer 2
370
     0
100
AcDbVertex
100
AcDb2dVertex
 10
1.409585242454467
 20
6.625929844682901
 30
0.0
  0
VERTEX
  5
16C
330
162
100
AcDbEntity
  8
Layer 2
370
     0
100
AcDbVertex
100
AcDb2dVertex
 10
1.558010311333431
 20
6.677602068378114
 30
0.0
  0
VERTEX
  5
16D
330
162
100
AcDbEntity
  8
Layer 2
370
     0
100
AcDbVertex
100
AcDb2dVertex
 10
1.558010311333431
 20
6.819376732680843
 30
0.0
  0
SEQEND
  5
16E
330
162
100
AcDbEntity
  8
Layer 2
370
     0
  0
POLYLINE
  5
16F
330
1F
100
AcDbEntity
  8
Layer 2
370
     0
100
AcDb2dPolyline
 66
     1
 10
0.0
 20
0.0
 30
0.0
  0
VERTEX
  5
170
330
16F
100
AcDbEntity
  8
Layer 2
370
     0
100
AcDbVertex
100
AcDb2dVertex
 10
2.236749928307505
 20
6.819376732680843
 30
0.0
  0
VERTEX
  5
171
330
16F
100
AcDbEntity
  8
Layer 2
370
     0
100
AcDbVertex
100
AcDb2dVertex
 10
2.335147805634657
 20
6.709323795446708
 30
0.0
  0
VERTEX
  5
172
330
16F
100
AcDbEntity
  8
Layer 2
370
     0
100
AcDbVertex
100
AcDb2dVertex
 10
2.481916368737138
 20
6.744336303904156
 30
0.0
  0
VERTEX
  5
173
330
16F
100
AcDbEntity
  8
Layer 2
370
     0
100
AcDbVertex
100
AcDb2dVertex
 10
2.400178923749813
 20
6.624273338906416
 30
0.0
  0
VERTEX
  5
174
330
16F
100
AcDbEntity
  8
Layer 2
370
     0
100
AcDbVertex
100
AcDb2dVertex
 10
2.481916368737138
 20
6.49586832555465
 30
0.0
  0
VERTEX
  5
175
330
16F
100
AcDbEntity
  8
Layer 2
370
     0
100
AcDbVertex
100
AcDb2dVertex
 10
2.335147805634657
 20
6.534228983566385
 30
0.0
  0
VERTEX
  5
176
330
16F
100
AcDbEntity
  8
Layer 2
370
     0
100
AcDbVertex
100
AcDb2dVertex
 10
2.236749928307505
 20
6.427477584252124
 30
0.0
  0
VERTEX
  5
177
330
16F
100
AcDbEntity
  8
Layer 2
370
     0
100
AcDbVertex
100
AcDb2dVertex
 10
2.236749928307505
 20
6.567549131143967
 30
0.0
  0
VERTEX
  5
178
330
16F
100
AcDbEntity
  8
Layer 2
370
     0
100
AcDbVertex
100
AcDb2dVertex
 10
2.088325217979584
 20
6.625929844682901
 30
0.0
  0
VERTEX
  5
179
330
16F
100
AcDbEntity
  8
Layer 2
370
     0
100
AcDbVertex
100
AcDb2dVertex
 10
2.236749928307505
 20
6.677602068378114
 30
0.0
  0
VERTEX
  5
17A
330
16F
100
AcDbEntity
  8
Layer 2
370
     0
100
AcDbVertex
100
AcDb2dVertex
 10
2.236749928307505
 20
6.819376732680843
 30
0.0
  0
SEQEND
  5
17B
330
16F
100
AcDbEntity
  8
Layer 2
370
     0
  0
POLYLINE
  5
17C
330
1F
100
AcDbEntity
  8
Layer 2
370
     0
100
AcDb2dPolyline
 66
     1
 10
0.0
 20
0.0
 30
0.0
  0
VERTEX
  5
17D
330
17C
100
AcDbEntity
  8
Layer 2
370
     0
100
AcDbVertex
100
AcDb2dVertex
 10
2.905479517517998
 20
6.819376732680843
 30
0.0
  0
VERTEX
  5
17E
330
17C
100
AcDbEntity
  8
Layer 2
370
     0
100
AcDbVertex
100
AcDb2dVertex
 10
3.003877394845138
 20
6.709323795446708
 30
0.0
  0
VERTEX
  5
17F
330
17C
100
AcDbEntity
  8
Layer 2
370
     0
100
AcDbVertex
100
AcDb2dVertex
 10
3.150598987762186
 20
6.744336303904156
 30
0.0
  0
VERTEX
  5
180
330
17C
100
AcDbEntity
  8
Layer 2
370
     0
100
AcDbVertex
100
AcDb2dVertex
 10
3.068908512960307
 20
6.624273338906416
 30
0.0
  0
VERTEX
  5
181
330
17C
100
AcDbEntity
  8
Layer 2
370
     0
100
AcDbVertex
100
AcDb2dVertex
 10
3.150598987762186
 20
6.49586832555465
 30
0.0
  0
VERTEX
  5
182
330
17C
100
AcDbEntity
  8
Layer 2
370
     0
100
AcDbVertex
100
AcDb2dVertex
 10
3.003877394845138
 20
6.534228983566385
 30
0.0
  0
VERTEX
  5
183
330
17C
100
AcDbEntity
  8
Layer 2
370
     0
100
AcDbVertex
100
AcDb2dVertex
 10
2.905479517517998
 20
6.427477584252124
 30
0.0
  0
VERTEX
  5
184
330
17C
100
AcDbEntity
  8
Layer 2
370
     0
100
AcDbVertex
100
AcDb2dVertex
 10
2.905479517517998
 20
6.567549131143967
 30
0.0
  0
VERTEX
  5
185
330
17C
100
AcDbEntity
  8
Layer 2
370
     0
100
AcDbVertex
100
AcDb2dVertex
 10
2.757054807190065
 20
6.625929844682901
 30
0.0
  0
VERTEX
  5
186
330
17C
100
AcDbEntity
  8
Layer 2
370
     0
100
AcDbVertex
100
AcDb2dVertex
 10
2.905479517517998
 20
6.677602068378114
 30
0.0
  0
VERTEX
  5
187
330
17C
100
AcDbEntity
  8
Layer 2
370
     0
100
AcDbVertex
100
AcDb2dVertex
 10
2.905479517517998
 20
6.819376732680843
 30
0.0
  0
SEQEND
  5
188
330
17C
100
AcDbEntity
  8
Layer 2
370
     0
  0
POLYLINE
  5
189
330
1F
100
AcDbEntity
  8
Layer 2
370
     0
100
AcDb2dPolyline
 66
     1
 10
0.0
 20
0.0
 30
0.0
  0
VERTEX
  5
18A
330
189
100
AcDbEntity
  8
Layer 2
370
     0
100
AcDbVertex
100
AcDb2dVertex
 10
3.567547587070205
 20
6.819376732680843
 30
0.0
  0
VERTEX
  5
18B
330
189
100
AcDbEntity
  8
Layer 2
370
     0
100
AcDbVertex
100
AcDb2dVertex
 10
3.665945464397345
 20
6.709323795446708
 30
0.0
  0
VERTEX
  5
18C
330
189
100
AcDbEntity
  8
Layer 2
370
     0
100
AcDbVertex
100
AcDb2dVertex
 10
3.812666698763362
 20
6.744336303904156
 30
0.0
  0
VERTEX
  5
18D
330
189
100
AcDbEntity
  8
Layer 2
370
     0
100
AcDbVertex
100
AcDb2dVertex
 10
3.730975865410439
 20
6.624273338906416
 30
0.0
  0
VERTEX
  5
18E
330
189
100
AcDbEntity
  8
Layer 2
370
     0
100
AcDbVertex
100
AcDb2dVertex
 10
3.812666698763362
 20
6.49586832555465
 30
0.0
  0
VERTEX
  5
18F
330
189
100
AcDbEntity
  8
Layer 2
370
     0
100
AcDbVertex
100
AcDb2dVertex
 10
3.665945464397345
 20
6.534228983566385
 30
0.0
  0
VERTEX
  5
190
330
189
100
AcDbEntity
  8
Layer 2
370
     0
100
AcDbVertex
100
AcDb2dVertex
 10
3.567547587070205
 20
6.427477584252124
 30
0.0
  0
VERTEX
  5
191
330
189
100
AcDbEntity
  8
Layer 2
370
     0
100
AcDbVertex
100
AcDb2dVertex
 10
3.567547587070205
 20
6.567549131143967
 30
0.0
  0
VERTEX
  5
192
330
189
100
AcDbEntity
  8
Layer 2
370
     0
100
AcDbVertex
100
AcDb2dVertex
 10
3.419075548005796
 20
6.625929844682901
 30
0.0
  0
VERTEX
  5
193
330
189
100
AcDbEntity
  8
Layer 2
370
     0
100
AcDbVertex
100
AcDb2dVertex
 10
3.567547587070205
 20
6.677602068378114
 30
0.0
  0
VERTEX
  5
194
330
189
100
AcDbEntity
  8
Layer 2
370
     0
100
AcDbVertex
100
AcDb2dVertex
 10
3.567547587070205
 20
6.819376732680843
 30
0.0
  0
SEQEND
  5
195
330
189
100
AcDbEntity
  8
Layer 2
370
     0
  0
POLYLINE
  5
196
330
1F
100
AcDbEntity
  8
Layer 2
370
     0
100
AcDb2dPolyline
 66
     1
 10
0.0
 20
0.0
 30
0.0
  0
VERTEX
  5
197
330
196
100
AcDbEntity
  8
Layer 2
370
     0
100
AcDbVertex
100
AcDb2dVertex
 10
2.591969305971273
 20
6.420827179675888
 30
0.0
  0
VERTEX
  5
198
330
196
100
AcDbEntity
  8
Layer 2
370
     0
100
AcDbVertex
100
AcDb2dVertex
 10
2.688663707336509
 20
6.310774242441753
 30
0.0
  0
VERTEX
  5
199
330
196
100
AcDbEntity
  8
Layer 2
370
     0
100
AcDbVertex
100
AcDb2dVertex
 10
2.837088776215473
 20
6.3457401392648
 30
0.0
  0
VERTEX
  5
19A
330
196
100
AcDbEntity
  8
Layer 2
370
     0
100
AcDbVertex
100
AcDb2dVertex
 10
2.753705940533715
 20
6.225688289349111
 30
0.0
  0
VERTEX
  5
19B
330
196
100
AcDbEntity
  8
Layer 2
370
     0
100
AcDbVertex
100
AcDb2dVertex
 10
2.837088776215473
 20
6.097271802364262
 30
0.0
  0
VERTEX
  5
19C
330
196
100
AcDbEntity
  8
Layer 2
370
     0
100
AcDbVertex
100
AcDb2dVertex
 10
2.688663707336509
 20
6.13564393400908
 30
0.0
  0
VERTEX
  5
19D
330
196
100
AcDbEntity
  8
Layer 2
370
     0
100
AcDbVertex
100
AcDb2dVertex
 10
2.591969305971273
 20
6.028939504880251
 30
0.0
  0
VERTEX
  5
19E
330
196
100
AcDbEntity
  8
Layer 2
370
     0
100
AcDbVertex
100
AcDb2dVertex
 10
2.591969305971273
 20
6.170656083915497
 30
0.0
  0
VERTEX
  5
19F
330
196
100
AcDbEntity
  8
Layer 2
370
     0
100
AcDbVertex
100
AcDb2dVertex
 10
2.443497625457907
 20
6.227380291677946
 30
0.0
  0
VERTEX
  5
1A0
330
196
100
AcDbEntity
  8
Layer 2
370
     0
100
AcDbVertex
100
AcDb2dVertex
 10
2.591969305971273
 20
6.279063989006241
 30
0.0
  0
VERTEX
  5
1A1
330
196
100
AcDbEntity
  8
Layer 2
370
     0
100
AcDbVertex
100
AcDb2dVertex
 10
2.591969305971273
 20
6.420827179675888
 30
0.0
  0
SEQEND
  5
1A2
330
196
100
AcDbEntity
  8
Layer 2
370
     0
  0
POLYLINE
  5
1A3
330
1F
100
AcDbEntity
  8
Layer 2
370
     0
100
AcDb2dPolyline
 66
     1
 10
0.0
 20
0.0
 30
0.0
  0
VERTEX
  5
1A4
330
1A3
100
AcDbEntity
  8
Layer 2
370
     0
100
AcDbVertex
100
AcDb2dVertex
 10
3.260651924996321
 20
6.420827179675888
 30
0.0
  0
VERTEX
  5
1A5
330
1A3
100
AcDbEntity
  8
Layer 2
370
     0
100
AcDbVertex
100
AcDb2dVertex
 10
3.359049802323473
 20
6.310774242441753
 30
0.0
  0
VERTEX
  5
1A6
330
1A3
100
AcDbEntity
  8
Layer 2
370
     0
100
AcDbVertex
100
AcDb2dVertex
 10
3.505818365425954
 20
6.3457401392648
 30
0.0
  0
VERTEX
  5
1A7
330
1A3
100
AcDbEntity
  8
Layer 2
370
     0
100
AcDbVertex
100
AcDb2dVertex
 10
3.424127173522
 20
6.225688289349111
 30
0.0
  0
VERTEX
  5
1A8
330
1A3
100
AcDbEntity
  8
Layer 2
370
     0
100
AcDbVertex
100
AcDb2dVertex
 10
3.505818365425954
 20
6.097271802364262
 30
0.0
  0
VERTEX
  5
1A9
330
1A3
100
AcDbEntity
  8
Layer 2
370
     0
100
AcDbVertex
100
AcDb2dVertex
 10
3.359049802323473
 20
6.13564393400908
 30
0.0
  0
VERTEX
  5
1AA
330
1A3
100
AcDbEntity
  8
Layer 2
370
     0
100
AcDbVertex
100
AcDb2dVertex
 10
3.260651924996321
 20
6.028939504880251
 30
0.0
  0
VERTEX
  5
1AB
330
1A3
100
AcDbEntity
  8
Layer 2
370
     0
100
AcDbVertex
100
AcDb2dVertex
 10
3.260651924996321
 20
6.170656083915497
 30
0.0
  0
VERTEX
  5
1AC
330
1A3
100
AcDbEntity
  8
Layer 2
370
     0
100
AcDbVertex
100
AcDb2dVertex
 10
3.1122272146684
 20
6.227380291677946
 30
0.0
  0
VERTEX
  5
1AD
330
1A3
100
AcDbEntity
  8
Layer 2
370
     0
100
AcDbVertex
100
AcDb2dVertex
 10
3.260651924996321
 20
6.279063989006241
 30
0.0
  0
VERTEX
  5
1AE
330
1A3
100
AcDbEntity
  8
Layer 2
370
     0
100
AcDbVertex
100
AcDb2dVertex
 10
3.260651924996321
 20
6.420827179675888
 30
0.0
  0
SEQEND
  5
1AF
330
1A3
100
AcDbEntity
  8
Layer 2
370
     0
  0
SPLINE
  5
1B0
330
1F
100
AcDbEntity
  8
Layer 2
370
     0
100
AcDbSpline
210
0.0
220
0.0
230
1.0
 70
    11
 71
     3
 72
    29
 73
    25
 74
     0
 42
0.0000000001
 43
0.0000000001
 12
1.0
 22
0.0
 32
0.0
 13
1.0
 23
0.0
 33
0.0
 40
0.0
 40
0.0
 40
0.0
 40
0.0
 40
1.0
 40
1.0
 40
1.0
 40
2.0
 40
2.0
 40
2.0
 40
3.0
 40
3.0
 40
3.0
 40
4.0
 40
4.0
 40
4.0
 40
5.0
 40
5.0
 40
5.0
 40
6.0
 40
6.0
 40
6.0
 40
7.0
 40
7.0
 40
7.0
 40
8.0
 40
8.0
 40
8.0
 40
8.0
 10
1.307979767578306
 20
6.350521058750435
 30
0.0
 10
1.307979767578306
 20
6.350521058750435
 30
0.0
 10
1.342862480561507
 20
6.310774242441753
 30
0.0
 10
1.342862480561507
 20
6.310774242441753
 30
0.0
 10
1.342862480561507
 20
6.310774242441753
 30
0.0
 10
1.491323045992822
 20
6.3457401392648
 30
0.0
 10
1.491323045992822
 20
6.3457401392648
 30
0.0
 10
1.491323045992822
 20
6.3457401392648
 30
0.0
 10
1.407940210311065
 20
6.225688289349111
 30
0.0
 10
1.407940210311065
 20
6.225688289349111
 30
0.0
 10
1.407940210311065
 20
6.225688289349111
 30
0.0
 10
1.491323045992822
 20
6.097271802364262
 30
0.0
 10
1.491323045992822
 20
6.097271802364262
 30
0.0
 10
1.491323045992822
 20
6.097271802364262
 30
0.0
 10
1.342862480561507
 20
6.13564393400908
 30
0.0
 10
1.342862480561507
 20
6.13564393400908
 30
0.0
 10
1.342862480561507
 20
6.13564393400908
 30
0.0
 10
1.314265525753096
 20
6.10410972913121
 30
0.0
 10
1.314265525753096
 20
6.10410972913121
 30
0.0
 10
1.307651334831285
 20
6.191451685328957
 30
0.0
 10
1.305724123024232
 20
6.273413224712448
 30
0.0
 10
1.307979767578306
 20
6.350521058750435
 30
0.0
 10
1.307979767578306
 20
6.350521058750435
 30
0.0
 10
1.307979767578306
 20
6.350521058750435
 30
0.0
 10
1.307979767578306
 20
6.350521058750435
 30
0.0
  0
POLYLINE
  5
1B1
330
1F
100
AcDbEntity
  8
Layer 2
370
     0
100
AcDb2dPolyline
 66
     1
 10
0.0
 20
0.0
 30
0.0
  0
VERTEX
  5
1B2
330
1B1
100
AcDbEntity
  8
Layer 2
370
     0
100
AcDbVertex
100
AcDb2dVertex
 10
1.558010311333431
 20
6.000565927365945
 30
0.0
  0
VERTEX
  5
1B3
330
1B1
100
AcDbEntity
  8
Layer 2
370
     0
100
AcDbVertex
100
AcDb2dVertex
 10
1.656408188660571
 20
5.888820987802975
 30
0.0
  0
VERTEX
  5
1B4
330
1B1
100
AcDbEntity
  8
Layer 2
370
     0
100
AcDbVertex
100
AcDb2dVertex
 10
1.803129781577619
 20
5.923880107894825
 30
0.0
  0
VERTEX
  5
1B5
330
1B1
100
AcDbEntity
  8
Layer 2
370
     0
100
AcDbVertex
100
AcDb2dVertex
 10
1.721438948224697
 20
5.805426678488137
 30
0.0
  0
VERTEX
  5
1B6
330
1B1
100
AcDbEntity
  8
Layer 2
370
     0
100
AcDbVertex
100
AcDb2dVertex
 10
1.803129781577619
 20
5.677057161688721
 30
0.0
  0
VERTEX
  5
1B7
330
1B1
100
AcDbEntity
  8
Layer 2
370
     0
100
AcDbVertex
100
AcDb2dVertex
 10
1.656408188660571
 20
5.715429293333537
 30
0.0
  0
VERTEX
  5
1B8
330
1B1
100
AcDbEntity
  8
Layer 2
370
     0
100
AcDbVertex
100
AcDb2dVertex
 10
1.558010311333431
 20
5.608677894019277
 30
0.0
  0
VERTEX
  5
1B9
330
1B1
100
AcDbEntity
  8
Layer 2
370
     0
100
AcDbVertex
100
AcDb2dVertex
 10
1.558010311333431
 20
5.74874944091112
 30
0.0
  0
VERTEX
  5
1BA
330
1B1
100
AcDbEntity
  8
Layer 2
370
     0
100
AcDbVertex
100
AcDb2dVertex
 10
1.409585242454467
 20
5.807130154450053
 30
0.0
  0
VERTEX
  5
1BB
330
1B1
100
AcDbEntity
  8
Layer 2
370
     0
100
AcDbVertex
100
AcDb2dVertex
 10
1.558010311333431
 20
5.858802378145267
 30
0.0
  0
VERTEX
  5
1BC
330
1B1
100
AcDbEntity
  8
Layer 2
370
     0
100
AcDbVertex
100
AcDb2dVertex
 10
1.558010311333431
 20
6.000565927365945
 30
0.0
  0
SEQEND
  5
1BD
330
1B1
100
AcDbEntity
  8
Layer 2
370
     0
  0
SPLINE
  5
1BE
330
1F
100
AcDbEntity
  8
Layer 2
370
     0
100
AcDbSpline
210
0.0
220
0.0
230
1.0
 70
    11
 71
     3
 72
    23
 73
    19
 74
     0
 42
0.0000000001
 43
0.0000000001
 12
1.0
 22
0.0
 32
0.0
 13
1.0
 23
0.0
 33
0.0
 40
0.0
 40
0.0
 40
0.0
 40
0.0
 40
1.0
 40
1.0
 40
1.0
 40
2.0
 40
2.0
 40
2.0
 40
3.0
 40
3.0
 40
3.0
 40
4.0
 40
4.0
 40
4.0
 40
5.0
 40
5.0
 40
5.0
 40
6.0
 40
6.0
 40
6.0
 40
6.0
 10
2.905479517517998
 20
6.000565927365945
 30
0.0
 10
2.905479517517998
 20
6.000565927365945
 30
0.0
 10
3.003877394845138
 20
5.888820987802975
 30
0.0
 10
3.003877394845138
 20
5.888820987802975
 30
0.0
 10
3.003877394845138
 20
5.888820987802975
 30
0.0
 10
3.150598987762186
 20
5.923880107894825
 30
0.0
 10
3.150598987762186
 20
5.923880107894825
 30
0.0
 10
3.150598987762186
 20
5.923880107894825
 30
0.0
 10
3.068908512960307
 20
5.805426678488137
 30
0.0
 10
3.068908512960307
 20
5.805426678488137
 30
0.0
 10
3.068908512960307
 20
5.805426678488137
 30
0.0
 10
3.076063398841181
 20
5.792667281396815
 30
0.0
 10
3.076063398841181
 20
5.792667281396815
 30
0.0
 10
3.040358169786297
 20
5.804192904380582
 30
0.0
 10
2.967338176085466
 20
5.843892750503831
 30
0.0
 10
2.926040268004259
 20
5.863208253249468
 30
0.0
 10
2.926040268004259
 20
5.863208253249468
 30
0.0
 10
2.905479517517998
 20
6.000565927365945
 30
0.0
 10
2.905479517517998
 20
6.000565927365945
 30
0.0
  0
POLYLINE
  5
1BF
330
1F
100
AcDbEntity
  8
Layer 2
370
     0
100
AcDb2dPolyline
 66
     1
 10
0.0
 20
0.0
 30
0.0
  0
VERTEX
  5
1C0
330
1BF
100
AcDbEntity
  8
Layer 2
370
     0
100
AcDbVertex
100
AcDb2dVertex
 10
3.567547587070205
 20
6.000565927365945
 30
0.0
  0
VERTEX
  5
1C1
330
1BF
100
AcDbEntity
  8
Layer 2
370
     0
100
AcDbVertex
100
AcDb2dVertex
 10
3.665945464397345
 20
5.888820987802975
 30
0.0
  0
VERTEX
  5
1C2
330
1BF
100
AcDbEntity
  8
Layer 2
370
     0
100
AcDbVertex
100
AcDb2dVertex
 10
3.812666698763362
 20
5.923880107894825
 30
0.0
  0
VERTEX
  5
1C3
330
1BF
100
AcDbEntity
  8
Layer 2
370
     0
100
AcDbVertex
100
AcDb2dVertex
 10
3.730975865410439
 20
5.805426678488137
 30
0.0
  0
VERTEX
  5
1C4
330
1BF
100
AcDbEntity
  8
Layer 2
370
     0
100
AcDbVertex
100
AcDb2dVertex
 10
3.812666698763362
 20
5.677057161688721
 30
0.0
  0
VERTEX
  5
1C5
330
1BF
100
AcDbEntity
  8
Layer 2
370
     0
100
AcDbVertex
100
AcDb2dVertex
 10
3.665945464397345
 20
5.715429293333537
 30
0.0
  0
VERTEX
  5
1C6
330
1BF
100
AcDbEntity
  8
Layer 2
370
     0
100
AcDbVertex
100
AcDb2dVertex
 10
3.567547587070205
 20
5.608677894019277
 30
0.0
  0
VERTEX
  5
1C7
330
1BF
100
AcDbEntity
  8
Layer 2
370
     0
100
AcDbVertex
100
AcDb2dVertex
 10
3.567547587070205
 20
5.74874944091112
 30
0.0
  0
VERTEX
  5
1C8
330
1BF
100
AcDbEntity
  8
Layer 2
370
     0
100
AcDbVertex
100
AcDb2dVertex
 10
3.419075548005796
 20
5.807130154450053
 30
0.0
  0
VERTEX
  5
1C9
330
1BF
100
AcDbEntity
  8
Layer 2
370
     0
100
AcDbVertex
100
AcDb2dVertex
 10
3.567547587070205
 20
5.858802378145267
 30
0.0
  0
VERTEX
  5
1CA
330
1BF
100
AcDbEntity
  8
Layer 2
370
     0
100
AcDbVertex
100
AcDb2dVertex
 10
3.567547587070205
 20
6.000565927365945
 30
0.0
  0
SEQEND
  5
1CB
330
1BF
100
AcDbEntity
  8
Layer 2
370
     0
  0
SPLINE
  5
1CC
330
1F
100
AcDbEntity
  8
Layer 2
370
     0
100
AcDbSpline
210
0.0
220
0.0
230
1.0
 70
    11
 71
     3
 72
    17
 73
    13
 74
     0
 42
0.0000000001
 43
0.0000000001
 12
1.0
 22
0.0
 32
0.0
 13
1.0
 23
0.0
 33
0.0
 40
0.0
 40
0.0
 40
0.0
 40
0.0
 40
1.0
 40
1.0
 40
1.0
 40
2.0
 40
2.0
 40
2.0
 40
3.0
 40
3.0
 40
3.0
 40
4.0
 40
4.0
 40
4.0
 40
4.0
 10
1.803963771282396
 20
5.413621111879264
 30
0.0
 10
1.803963771282396
 20
5.413621111879264
 30
0.0
 10
2.302098005536613
 20
5.119990045303413
 30
0.0
 10
2.302098005536613
 20
5.119990045303413
 30
0.0
 10
2.302098005536613
 20
5.119990045303413
 30
0.0
 10
2.302098005536613
 20
1.598227212012388
 30
0.0
 10
2.302098005536613
 20
1.598227212012388
 30
0.0
 10
2.110483671872771
 20
1.810765866910818
 30
0.0
 10
1.945456973023548
 20
2.027617532195715
 30
0.0
 10
1.803916801096964
 20
2.252869331102096
 30
0.0
 10
1.803916801096964
 20
2.252869331102096
 30
0.0
 10
1.803963771282396
 20
5.413621111879264
 30
0.0
 10
1.803963771282396
 20
5.413621111879264
 30
0.0
  0
SPLINE
  5
1CD
330
1F
100
AcDbEntity
  8
Layer 2
370
     0
100
AcDbSpline
210
0.0
220
0.0
230
1.0
 70
    11
 71
     3
 72
    38
 73
    34
 74
     0
 42
0.0000000001
 43
0.0000000001
 12
1.0
 22
0.0
 32
0.0
 13
1.0
 23
0.0
 33
0.0
 40
0.0
 40
0.0
 40
0.0
 40
0.0
 40
1.0
 40
1.0
 40
1.0
 40
2.0
 40
2.0
 40
2.0
 40
3.0
 40
3.0
 40
3.0
 40
4.0
 40
4.0
 40
4.0
 40
5.0
 40
5.0
 40
5.0
 40
6.0
 40
6.0
 40
6.0
 40
7.0
 40
7.0
 40
7.0
 40
8.0
 40
8.0
 40
8.0
 40
9.0
 40
9.0
 40
9.0
 40
10.0
 40
10.0
 40
10.0
 40
11.0
 40
11.0
 40
11.0
 40
11.0
 10
5.747304097728728
 20
4.854357153309441
 30
0.0
 10
5.747304097728728
 20
4.854357153309441
 30
0.0
 10
5.747304097728728
 20
4.854310183123996
 30
0.0
 10
5.747304097728728
 20
4.854310183123996
 30
0.0
 10
5.746716791135238
 20
3.621722520946706
 30
0.0
 10
5.746117293806618
 20
2.389181649679333
 30
0.0
 10
5.745519230682121
 20
1.156582334593445
 30
0.0
 10
5.621695782441141
 20
1.047176223424407
 30
0.0
 10
5.495946198046213
 20
0.9449239224831368
 30
0.0
 10
5.363863885291064
 20
0.8461621158566129
 30
0.0
 10
5.242191026151255
 20
0.7551421431534334
 30
0.0
 10
5.070914065679593
 20
0.6362781728129346
 30
0.0
 10
5.067014464635222
 20
0.6401318793249781
 30
0.0
 10
5.066144619827051
 20
0.6410479772165318
 30
0.0
 10
5.068164696351864
 20
0.6763419482355554
 30
0.0
 10
5.071560891744689
 20
0.7186147565778608
 30
0.0
 10
5.112223447393868
 20
1.224561459309067
 30
0.0
 10
5.155953765688865
 20
1.962587489733652
 30
0.0
 10
5.174869484031736
 20
2.461919822267545
 30
0.0
 10
5.184186791197892
 20
2.708096121684068
 30
0.0
 10
5.185326266383527
 20
2.784370683119328
 30
0.0
 10
5.18674756268178
 20
3.265527525919778
 30
0.0
 10
5.188815685045155
 20
3.959048050714121
 30
0.0
 10
5.185561475861757
 20
4.10150432053226
 30
0.0
 10
5.160500192798332
 20
4.411290621041189
 30
0.0
 10
5.15628291553796
 20
4.46296248618536
 30
0.0
 10
5.154168181540172
 20
4.503449710378996
 30
0.0
 10
5.155542149101974
 20
4.504777783408447
 30
0.0
 10
5.156693815022764
 20
4.505834433305254
 30
0.0
 10
5.421316668754343
 20
4.662061214130214
 30
0.0
 10
5.747304097728728
 20
4.854357153309441
 30
0.0
 10
5.747304097728728
 20
4.854357153309441
 30
0.0
 10
5.747304097728728
 20
4.854357153309441
 30
0.0
 10
5.747304097728728
 20
4.854357153309441
 30
0.0
  0
SPLINE
  5
1CE
330
1F
100
AcDbEntity
  8
Layer 2
370
     0
100
AcDbSpline
210
0.0
220
0.0
230
1.0
 70
    11
 71
     3
 72
    32
 73
    28
 74
     0
 42
0.0000000001
 43
0.0000000001
 12
1.0
 22
0.0
 32
0.0
 13
1.0
 23
0.0
 33
0.0
 40
0.0
 40
0.0
 40
0.0
 40
0.0
 40
1.0
 40
1.0
 40
1.0
 40
2.0
 40
2.0
 40
2.0
 40
3.0
 40
3.0
 40
3.0
 40
4.0
 40
4.0
 40
4.0
 40
5.0
 40
5.0
 40
5.0
 40
6.0
 40
6.0
 40
6.0
 40
7.0
 40
7.0
 40
7.0
 40
8.0
 40
8.0
 40
8.0
 40
9.0
 40
9.0
 40
9.0
 40
9.0
 10
2.813414368551068
 20
4.818557983883667
 30
0.0
 10
3.106540236720182
 20
4.645624517635522
 30
0.0
 10
3.34344709553357
 20
4.505740851485421
 30
0.0
 10
3.344457850898051
 20
4.504777783408447
 30
0.0
 10
3.34578520682544
 20
4.50357843020015
 30
0.0
 10
3.343541035904435
 20
4.46218729885014
 30
0.0
 10
3.339546418836082
 20
4.412758887524888
 30
0.0
 10
3.315860537538608
 20
4.120913763648761
 30
0.0
 10
3.312605969804167
 20
3.998054459137872
 30
0.0
 10
3.312605969804167
 20
3.391006762835155
 30
0.0
 10
3.312558999618722
 20
2.757935432494125
 30
0.0
 10
3.317376491309814
 20
2.558754775638034
 30
0.0
 10
3.34638470415406
 20
1.988152536999653
 30
0.0
 10
3.365112183204158
 20
1.619985881502821
 30
0.0
 10
3.404307189471713
 20
1.012704409926022
 30
0.0
 10
3.425784396400546
 20
0.7525347600351071
 30
0.0
 10
3.425784396400546
 20
0.7525347600351071
 30
0.0
 10
3.425784396400546
 20
0.6427044829930157
 30
0.0
 10
3.425784396400546
 20
0.6427044829930157
 30
0.0
 10
3.418253031934101
 20
0.6472512686535133
 30
0.0
 10
3.397187083041104
 20
0.6610680327437168
 30
0.0
 10
3.368871949345324
 20
0.6802422663820127
 30
0.0
 10
3.172076553242063
 20
0.8136648429017693
 30
0.0
 10
2.996804617151017
 20
0.94762596307439
 30
0.0
 10
2.813414368551068
 20
1.105685298233463
 30
0.0
 10
2.813414368551068
 20
1.105685298233463
 30
0.0
 10
2.813414368551068
 20
4.818557983883667
 30
0.0
 10
2.813414368551068
 20
4.818557983883667
 30
0.0
  0
POLYLINE
  5
1CF
330
1F
100
AcDbEntity
  8
Layer 2
370
     0
100
AcDb2dPolyline
 66
     1
 10
0.0
 20
0.0
 30
0.0
  0
VERTEX
  5
1D0
330
1CF
100
AcDbEntity
  8
Layer 2
370
     0
100
AcDbVertex
100
AcDb2dVertex
 10
2.813414368551068
 20
4.818557983883667
 30
0.0
  0
VERTEX
  5
1D3
330
1CF
100
AcDbEntity
  8
0
100
AcDbVertex
100
AcDb2dVertex
 10
2.813414368551068
 20
4.818557983883667
 30
0.0
  0
SEQEND
  5
1D1
330
1CF
100
AcDbEntity
  8
Layer 2
370
     0
  0
HATCH
  5
1D2
330
1F
100
AcDbEntity
  8
Layer 2
 62
     7
420
 16777215
100
AcDbHatch
 10
0.0
 20
0.0
 30
0.0
210
0.0
220
0.0
230
1.0
  2
SOLID
 70
     1
 71
     0
 91
       43
 92
        1
 93
        1
 72
     4
 94
        3
 73
     0
 74
     1
 95
      302
 96
      298
 40
0.0
 40
0.0
 40
0.0
 40
0.0
 40
1.0
 40
1.0
 40
1.0
 40
2.0
 40
2.0
 40
2.0
 40
3.0
 40
3.0
 40
3.0
 40
4.0
 40
4.0
 40
4.0
 40
5.0
 40
5.0
 40
5.0
 40
6.0
 40
6.0
 40
6.0
 40
7.0
 40
7.0
 40
7.0
 40
8.0
 40
8.0
 40
8.0
 40
9.0
 40
9.0
 40
9.0
 40
10.0
 40
10.0
 40
10.0
 40
11.0
 40
11.0
 40
11.0
 40
12.0
 40
12.0
 40
12.0
 40
13.0
 40
13.0
 40
13.0
 40
14.0
 40
14.0
 40
14.0
 40
15.0
 40
15.0
 40
15.0
 40
16.0
 40
16.0
 40
16.0
 40
17.0
 40
17.0
 40
17.0
 40
18.0
 40
18.0
 40
18.0
 40
19.0
 40
19.0
 40
19.0
 40
20.0
 40
20.0
 40
20.0
 40
21.0
 40
21.0
 40
21.0
 40
22.0
 40
22.0
 40
22.0
 40
23.0
 40
23.0
 40
23.0
 40
24.0
 40
24.0
 40
24.0
 40
25.0
 40
25.0
 40
25.0
 40
26.0
 40
26.0
 40
26.0
 40
27.0
 40
27.0
 40
27.0
 40
28.0
 40
28.0
 40
28.0
 40
29.0
 40
29.0
 40
29.0
 40
30.0
 40
30.0
 40
30.0
 40
31.0
 40
31.0
 40
31.0
 40
32.0
 40
32.0
 40
32.0
 40
33.0
 40
33.0
 40
33.0
 40
34.0
 40
34.0
 40
34.0
 40
35.0
 40
35.0
 40
35.0
 40
36.0
 40
36.0
 40
36.0
 40
37.0
 40
37.0
 40
37.0
 40
38.0
 40
38.0
 40
38.0
 40
39.0
 40
39.0
 40
39.0
 40
40.0
 40
40.0
 40
40.0
 40
41.0
 40
41.0
 40
41.0
 40
42.0
 40
42.0
 40
42.0
 40
43.0
 40
43.0
 40
43.0
 40
44.0
 40
44.0
 40
44.0
 40
45.0
 40
45.0
 40
45.0
 40
46.0
 40
46.0
 40
46.0
 40
47.0
 40
47.0
 40
47.0
 40
48.0
 40
48.0
 40
48.0
 40
49.0
 40
49.0
 40
49.0
 40
50.0
 40
50.0
 40
50.0
 40
51.0
 40
51.0
 40
51.0
 40
52.0
 40
52.0
 40
52.0
 40
53.0
 40
53.0
 40
53.0
 40
54.0
 40
54.0
 40
54.0
 40
55.0
 40
55.0
 40
55.0
 40
56.0
 40
56.0
 40
56.0
 40
57.0
 40
57.0
 40
57.0
 40
58.0
 40
58.0
 40
58.0
 40
59.0
 40
59.0
 40
59.0
 40
60.0
 40
60.0
 40
60.0
 40
61.0
 40
61.0
 40
61.0
 40
62.0
 40
62.0
 40
62.0
 40
63.0
 40
63.0
 40
63.0
 40
64.0
 40
64.0
 40
64.0
 40
65.0
 40
65.0
 40
65.0
 40
66.0
 40
66.0
 40
66.0
 40
67.0
 40
67.0
 40
67.0
 40
68.0
 40
68.0
 40
68.0
 40
69.0
 40
69.0
 40
69.0
 40
70.0
 40
70.0
 40
70.0
 40
71.0
 40
71.0
 40
71.0
 40
72.0
 40
72.0
 40
72.0
 40
73.0
 40
73.0
 40
73.0
 40
74.0
 40
74.0
 40
74.0
 40
75.0
 40
75.0
 40
75.0
 40
76.0
 40
76.0
 40
76.0
 40
77.0
 40
77.0
 40
77.0
 40
78.0
 40
78.0
 40
78.0
 40
79.0
 40
79.0
 40
79.0
 40
80.0
 40
80.0
 40
80.0
 40
81.0
 40
81.0
 40
81.0
 40
82.0
 40
82.0
 40
82.0
 40
83.0
 40
83.0
 40
83.0
 40
84.0
 40
84.0
 40
84.0
 40
85.0
 40
85.0
 40
85.0
 40
86.0
 40
86.0
 40
86.0
 40
87.0
 40
87.0
 40
87.0
 40
88.0
 40
88.0
 40
88.0
 40
89.0
 40
89.0
 40
89.0
 40
90.0
 40
90.0
 40
90.0
 40
91.0
 40
91.0
 40
91.0
 40
92.0
 40
92.0
 40
92.0
 40
93.0
 40
93.0
 40
93.0
 40
94.0
 40
94.0
 40
94.0
 40
95.0
 40
95.0
 40
95.0
 40
96.0
 40
96.0
 40
96.0
 40
97.0
 40
97.0
 40
97.0
 40
98.0
 40
98.0
 40
98.0
 40
99.0
 40
99.0
 40
99.0
 40
99.0
 10
4.250963785179061
 20
10.50635486266493
 10
4.237886711871726
 20
10.50658935504108
 10
4.224763026930001
 20
10.50497946089901
 10
4.216727181158894
 20
10.50153737097384
 10
4.2007128577821
 20
10.49465247402146
 10
4.150403845117668
 20
10.45940547318786
 10
4.084362330189062
 20
10.40883758667697
 10
3.937041598494425
 20
10.29602380648203
 10
3.85452896617187
 20
10.24435158278681
 10
3.684721347837012
 20
10.15866649091658
 10
3.558465847933298
 20
10.09501005746528
 10
3.476997674772406
 20
10.05870533108176
 10
3.299799602527413
 20
9.98724897843964
 10
3.129204247571137
 20
9.918445903448161
 10
3.045081362555468
 20
9.881225437724133
 10
2.937460476984067
 20
9.826933640175461
 10
2.617076842118056
 20
9.665290228881833
 10
2.321002608797433
 20
9.434258587309436
 10
2.073908956560747
 20
9.153163181979783
 10
1.722860603073993
 20
8.75387357964093
 10
1.459201175970432
 20
8.24963035287164
 10
1.307885827207441
 20
7.688251301753009
 10
1.265847869792323
 20
7.532118102747896
 10
1.225043686484759
 20
7.334911448608787
 10
1.213388985128795
 20
7.231508198848815
 10
1.20274432203525
 20
7.136693680554167
 10
1.200899576965993
 20
6.971291220221436
 10
1.20613944177497
 20
6.584397444225537
 10
1.213435596763209
 20
6.043802162336255
 10
1.225325507597379
 20
5.776923664050602
 10
1.251161619444992
 20
5.573477863371105
 10
1.251161619444992
 20
5.573477863371105
 10
1.258869032469066
 20
5.51285297891118
 10
1.258869032469066
 20
5.51285297891118
 10
1.258869032469066
 20
5.51285297891118
 10
1.248729926333277
 20
5.501103978633321
 10
1.248729926333277
 20
5.501103978633321
 10
1.243125415122853
 20
5.494630339716776
 10
1.226054083298209
 20
5.474939075487655
 10
1.210768694173276
 20
5.457409515441719
 10
1.114943779065179
 20
5.347215667651274
 10
1.064552299662953
 20
5.215814960411509
 10
1.076301299940825
 20
5.106678479619934
 10
1.082727968671924
 20
5.047157932344336
 10
1.091351838138571
 20
5.032236831069818
 10
1.136280075437715
 20
5.003004882380436
 10
1.19599997708815
 20
4.964139743064025
 10
1.280393209583344
 20
4.88886410480912
 10
1.322759958296526
 20
4.836686682707194
 10
1.400961372987808
 20
4.740356210641342
 10
1.4463008683228
 20
4.638374615730653
 10
1.4697518986931
 20
4.506198362604638
 10
1.487610250037088
 20
4.405415403800185
 10
1.494589087360345
 20
4.320187823049157
 10
1.494542117174913
 20
4.20311015395944
 10
1.494448176804035
 20
4.004480769317929
 10
1.467601668142985
 20
3.810622264733107
 10
1.412980720745218
 20
3.613732569707938
 10
1.379942394280255
 20
3.494586061152757
 10
1.348232140844743
 20
3.407067339295306
 10
1.287830275127893
 20
3.268335339066021
 10
1.287830275127893
 20
3.268335339066021
 10
1.265706959236013
 20
3.217568815282347
 10
1.265706959236013
 20
3.217568815282347
 10
1.265706959236013
 20
3.217568815282347
 10
1.279383171320938
 20
3.16525048262411
 10
1.279383171320938
 20
3.16525048262411
 10
1.298110650371023
 20
3.09361646794471
 10
1.307521539357026
 20
3.061940814683971
 10
1.328399607508269
 20
2.999988753572173
 10
1.414778137078012
 20
2.744119026954952
 10
1.563062295400666
 20
2.445530095958273
 10
1.744067462523301
 20
2.162966961971481
 10
1.862109633894142
 20
1.978788976750113
 10
2.024163586121555
 20
1.764510990786372
 10
2.175843222734961
 20
1.592130051681427
 10
2.418718522058157
 20
1.316157623523698
 10
2.747091391060874
 20
1.015135744486694
 10
3.068579363111212
 20
0.7738233691201356
 10
3.21779145150952
 20
0.6618432200789357
 10
3.443313239344409
 20
0.5079556261989637
 10
3.475482438103275
 20
0.4961589386335971
 10
3.475482438103275
 20
0.4961589386335971
 10
3.475388139181367
 20
0.4961589386335971
 10
3.475388139181367
 20
0.4961589386335971
 10
3.502152539655665
 20
0.4863837617971916
 10
3.534086887487332
 20
0.5055701861706186
 10
3.539373363930723
 20
0.5346253692003352
 10
3.540337149109771
 20
0.5400419996690036
 10
3.537305958669422
 20
0.5901512994075802
 10
3.532617903901571
 20
0.6459586921764134
 10
3.499214931035163
 20
1.042628362110791
 10
3.457588590206935
 20
1.699468757589153
 10
3.435148315201117
 20
2.184115019051231
 10
3.413894127015333
 20
2.643335888874996
 10
3.411144757687616
 20
2.778954231926162
 10
3.411144757687616
 20
3.382512330291724
 10
3.411097787502184
 20
4.029811682758817
 10
3.413847156829901
 20
4.12513175801122
 10
3.442067991603785
 20
4.461082244563739
 10
3.446473866707985
 20
4.513777414358603
 10
3.449916673735199
 20
4.557142010599035
 10
3.449646326255662
 20
4.557412716629591
 10
3.449364863694073
 20
4.557648284658853
 10
3.102087391430536
 20
4.762433273449838
 10
2.677925103872086
 20
5.012463100102902
 10
2.253774289946717
 20
5.262493643858003
 10
1.904923137195523
 20
5.468465436571123
 10
1.902772906645396
 20
5.470215882718472
 10
1.899330458169212
 20
5.472918640411788
 10
1.89904863705658
 20
5.532403332584004
 10
1.900611561013231
 20
5.884826370734623
 10
1.901621599275636
 20
6.111088566454454
 10
1.902996283939501
 20
6.296769956160839
 10
1.903642392902535
 20
6.297462676758275
 10
1.904335472051002
 20
6.298109502823384
 10
1.937655978179628
 20
6.279063989006241
 10
1.977719753602249
 20
6.255061148594816
 10
2.403750450598194
 20
6.000154669330097
 10
2.876929532895019
 20
5.762977463037171
 10
3.274327778530215
 20
5.605235445543081
 10
3.408619124205036
 20
5.551906716071395
 10
3.619725367723175
 20
5.477970265927979
 10
3.743324363016932
 20
5.440937322394675
 10
3.743324363016932
 20
5.440937322394675
 10
3.772461654233388
 20
5.43220803892407
 10
3.772461654233388
 20
5.43220803892407
 10
3.772461654233388
 20
5.43220803892407
 10
3.781696494661762
 20
5.411882139364985
 10
3.781696494661762
 20
5.411882139364985
 10
3.811339342835974
 20
5.346522588502794
 10
3.819645536086606
 20
5.292653164072034
 10
3.821901539191723
 20
5.150513853367859
 10
3.826483821404584
 20
4.861053810969022
 10
3.797757429672957
 20
4.63772922386968
 10
3.697244818348041
 20
4.180527892744193
 10
3.670304010765082
 20
4.057762170053138
 10
3.653926116639935
 20
3.988467521594227
 10
3.636349227857535
 20
3.922790294516037
 10
3.636349227857535
 20
3.922790294516037
 10
3.622074952648126
 20
3.86946120649332
 10
3.622074952648126
 20
3.86946120649332
 10
3.622074952648126
 20
3.86946120649332
 10
3.654055195012132
 20
3.837832702693529
 10
3.654055195012132
 20
3.837832702693529
 10
4.053062976238367
 20
3.44286650872108
 10
4.194427458158353
 20
3.314591649394616
 10
4.237840100237324
 20
3.308071040292639
 10
4.259634266280121
 20
3.304816114007154
 10
4.272945831963574
 20
3.308811089626538
 10
4.299064123474838
 20
3.32643459004334
 10
4.337294986012314
 20
3.352224090256565
 10
4.410080128785972
 20
3.415515160204349
 10
4.508242796634906
 20
3.508227135236363
 10
4.5541932629316
 20
3.551545119842406
 10
4.877338099309453
 20
3.868086521829456
 10
4.877338099309453
 20
3.869684583787425
 10
4.877338099309453
 20
3.870424991672356
 10
4.870453919459148
 20
3.897223813045912
 10
4.8619584112626
 20
3.929216604696093
 10
4.824737945538573
 20
4.070064414576286
 10
4.764981830233737
 20
4.344838206627754
 10
4.733588535912152
 20
4.519827245953087
 10
4.689894072720563
 20
4.763665971904301
 10
4.674620515779755
 20
4.937468924409586
 10
4.678063322806969
 20
5.151935508217144
 10
4.680307135176943
 20
5.292606193886589
 10
4.688661374266126
 20
5.346757439429994
 10
4.718256176601799
 20
5.411882139364985
 10
4.718256176601799
 20
5.411882139364985
 10
4.727444405395747
 20
5.43220803892407
 10
4.727444405395747
 20
5.43220803892407
 10
4.727444405395747
 20
5.43220803892407
 10
4.756581696612202
 20
5.440890352209231
 10
4.756581696612202
 20
5.440890352209231
 10
4.815879583695783
 20
5.458607792996923
 10
4.993770376538223
 20
5.51812834027252
 10
5.063430388500643
 20
5.543553194084274
 10
5.507378239210134
 20
5.705701086682565
 10
6.030713591430968
 20
5.960913051428141
 10
6.522198138211024
 20
6.255061148594816
 10
6.562262630735707
 20
6.279063989006241
 10
6.59562938994769
 20
6.298062174086908
 10
6.596357965648521
 20
6.297322124752996
 10
6.597050686245969
 20
6.29664016068658
 10
6.598425370909808
 20
6.110947655898144
 10
6.599389156088868
 20
5.884685460178313
 10
6.600857781123598
 20
5.532720650248987
 10
6.600540104907597
 20
5.472918640411788
 10
6.597133152983739
 20
5.470215882718472
 10
6.594983280984656
 20
5.468465436571123
 10
6.24613176968243
 20
5.262446673672583
 10
5.821980955757074
 20
5.012463100102902
 10
5.397818668198599
 20
4.762433273449838
 10
5.050635853408013
 20
4.557648284658853
 10
5.050306703558918
 20
4.557412716629591
 10
5.050036356079368
 20
4.557189697886542
 10
5.053479163106608
 20
4.513812552359923
 10
5.05793164984521
 20
4.461082244563739
 10
5.086058544248216
 20
4.12628342393201
 10
5.088726163940211
 20
4.032431973714337
 10
5.0887727755746
 20
3.388164528789654
 10
5.0887727755746
 20
2.912693229733299
 10
5.086928389056387
 20
2.750968785906025
 10
5.078904016918361
 20
2.523919570666824
 10
5.060410671693388
 20
2.000630112978342
 10
5.012721949984476
 20
1.194766226945477
 10
4.968757139313336
 20
0.6625362992274151
 10
4.96086184554752
 20
0.567123717808272
 10
4.959345891776315
 20
0.5385260458977983
 10
4.961730973253629
 20
0.5297619829769044
 10
4.96834552272647
 20
0.5052535856077106
 10
4.996801566978572
 20
0.4885454659804003
 10
5.020886874127781
 20
0.4950194634479632
 10
5.034057887805981
 20
0.4985565693970986
 10
5.080972139281736
 20
0.527928711540729
 10
5.176102899588234
 20
0.5920422975602074
 10
5.479744711029753
 20
0.7967688425326792
 10
5.742310916031051
 20
1.010002369334769
 10
6.029563359714327
 20
1.285281359792988
 10
6.44128249219332
 20
1.679788966993101
 10
6.781134372545416
 20
2.140796317343125
 10
7.013811763363265
 20
2.620625624940658
 10
7.111481064989574
 20
2.82195633307136
 10
7.173891175047149
 20
2.986313437864838
 10
7.220617545781149
 20
3.16525048262411
 10
7.220617545781149
 20
3.16525048262411
 10
7.234293399315042
 20
3.217568815282347
 10
7.234293399315042
 20
3.217568815282347
 10
7.234293399315042
 20
3.217568815282347
 10
7.20785814868984
 20
3.278205531926409
 10
7.20785814868984
 20
3.278205531926409
 10
7.135438010868685
 20
3.444430149779792
 10
7.092024651687628
 20
3.575690305014278
 10
7.057236596177391
 20
3.733608371065985
 10
6.99936000539209
 20
3.996268516438148
 10
6.989033018514546
 20
4.261349598391032
 10
7.027769438009777
 20
4.492112326688003
 10
7.051678338050325
 20
4.634743927961684
 10
7.099179896119544
 20
4.743011639598181
 10
7.180506441622052
 20
4.840399478662928
 10
7.224882151778021
 20
4.893551442474922
 10
7.300017238027648
 20
4.960509055295057
 10
7.359631367123079
 20
5.00006834941304
 10
7.409376737562272
 20
5.033070820774608
 10
7.417178090957223
 20
5.046053595160022
 10
7.4236987000592
 20
5.106772419990825
 10
7.435400371600584
 20
5.215403702375675
 10
7.384551381079139
 20
5.347991213537524
 10
7.28927791746115
 20
5.457409515441719
 10
7.273992886887249
 20
5.474939075487655
 10
7.256827614691726
 20
5.494630339716776
 10
7.251176850397946
 20
5.501103978633321
 10
7.251176850397946
 20
5.501103978633321
 10
7.240943086789204
 20
5.51285297891118
 10
7.240943086789204
 20
5.51285297891118
 10
7.240943086789204
 20
5.51285297891118
 10
7.244714326563452
 20
5.539652517386799
 10
7.244714326563452
 20
5.539652517386799
 10
7.272840503864396
 20
5.73933855192513
 10
7.286200115386413
 20
6.023476262777169
 10
7.293907528410474
 20
6.58577141178734
 10
7.297584827813857
 20
6.844613705750854
 10
7.297537499077381
 20
7.060184626742739
 10
7.293907528410474
 20
7.134215375808051
 10
7.289137365455872
 20
7.232061084543034
 10
7.28110080258269
 20
7.290441798081966
 10
7.254442533214437
 20
7.421830673137606
 10
7.18077607199954
 20
7.784581056716787
 10
7.07522366734252
 20
8.096481732672462
 10
6.920418541366871
 20
8.40874669647855
 10
6.801964036307076
 20
8.647720960553228
 10
6.678142739372308
 20
8.843507035496145
 10
6.522738116068037
 20
9.03755342082272
 10
6.436465717604328
 20
9.145315216950431
 10
6.376252091180251
 20
9.211860854632656
 10
6.272802229785864
 20
9.313971886466573
 10
6.151046186806171
 20
9.434128791835178
 10
6.042180770596233
 20
9.524995663246916
 10
5.902203164075242
 20
9.623346928939656
 10
5.700906876843823
 20
9.7647924433933
 10
5.520313326308067
 20
9.858608755609641
 10
5.204558943840336
 20
9.98559175556108
 10
5.035714393582465
 20
10.05346618337484
 10
4.944753581799861
 20
10.09371783953921
 10
4.826664081692544
 20
10.15279199077764
 10
4.660662841133242
 20
10.23585679169235
 10
4.57488309179007
 20
10.28868068130835
 10
4.438124556451182
 20
10.39208321396626
 10
4.34647102407113
 20
10.46137965518036
 10
4.302506213400016
 20
10.4925843516581
 10
4.28529432957008
 20
10.50048036252599
 10
4.277175299959127
 20
10.50415766192937
 10
4.264086753018723
 20
10.50617845555626
 10
4.250963785179061
 20
10.50635486266493
 10
4.250963785179061
 20
10.50635486266493
 10
4.250963785179061
 20
10.50635486266493
 10
4.250963785179061
 20
10.50635486266493
 97
        0
 97
        0
 92
        1
 93
        1
 72
     4
 94
        3
 73
     0
 74
     1
 95
       35
 96
       31
 40
0.0
 40
0.0
 40
0.0
 40
0.0
 40
1.0
 40
1.0
 40
1.0
 40
2.0
 40
2.0
 40
2.0
 40
3.0
 40
3.0
 40
3.0
 40
4.0
 40
4.0
 40
4.0
 40
5.0
 40
5.0
 40
5.0
 40
6.0
 40
6.0
 40
6.0
 40
7.0
 40
7.0
 40
7.0
 40
8.0
 40
8.0
 40
8.0
 40
9.0
 40
9.0
 40
9.0
 40
10.0
 40
10.0
 40
10.0
 40
10.0
 10
4.250047328736476
 20
10.40373899097533
 10
4.257895293765841
 20
10.40373899097533
 10
4.276987419217372
 20
10.39033348492098
 10
4.38116585631259
 20
10.31186100564809
 10
4.421735188692966
 20
10.28280618116942
 10
4.476532543199381
 20
10.25040249003441
 10
4.507009381078382
 20
10.22061837275285
 10
4.507009381078382
 20
10.22061837275285
 10
4.513294780702128
 20
3.649673725343114
 10
4.513294780702128
 20
3.649673725343114
 10
4.370427252848154
 20
3.512080841748406
 10
4.261338100793056
 20
3.413541336762894
 10
4.25023520947823
 20
3.413541336762894
 10
4.238109730614799
 20
3.413541336762894
 10
4.124345073078024
 20
3.516580298672453
 10
3.971655398202213
 20
3.664265318217506
 10
3.971655398202213
 20
3.664265318217506
 10
3.970409074808483
 20
10.21107876394569
 10
3.970409074808483
 20
10.21107876394569
 10
4.045955060542926
 20
10.26151685498232
 10
4.112501415327213
 20
10.30919482016023
 10
4.106168686967004
 20
10.30423677646387
 10
4.106168686967004
 20
10.30423677646387
 10
4.158897919110055
 20
10.34246763900133
 10
4.158897919110055
 20
10.34246763900133
 10
4.2247164152956
 20
10.39129655299795
 10
4.243209043418497
 20
10.40373899097533
 10
4.250047328736476
 20
10.40373899097533
 10
4.250047328736476
 20
10.40373899097533
 10
4.250047328736476
 20
10.40373899097533
 10
4.250047328736476
 20
10.40373899097533
 97
        0
 97
        0
 92
        1
 93
        1
 72
     4
 94
        3
 73
     0
 74
     1
 95
       41
 96
       37
 40
0.0
 40
0.0
 40
0.0
 40
0.0
 40
1.0
 40
1.0
 40
1.0
 40
2.0
 40
2.0
 40
2.0
 40
3.0
 40
3.0
 40
3.0
 40
4.0
 40
4.0
 40
4.0
 40
5.0
 40
5.0
 40
5.0
 40
6.0
 40
6.0
 40
6.0
 40
7.0
 40
7.0
 40
7.0
 40
8.0
 40
8.0
 40
8.0
 40
9.0
 40
9.0
 40
9.0
 40
10.0
 40
10.0
 40
10.0
 40
11.0
 40
11.0
 40
11.0
 40
12.0
 40
12.0
 40
12.0
 40
12.0
 10
3.596732207023125
 20
10.00693916701567
 10
3.596732207023125
 20
10.00693916701567
 10
3.665945464397345
 20
9.929560985498142
 10
3.665945464397345
 20
9.929560985498142
 10
3.665945464397345
 20
9.929560985498142
 10
3.812666698763362
 20
9.964525448117064
 10
3.812666698763362
 20
9.964525448117064
 10
3.812666698763362
 20
9.964525448117064
 10
3.730975865410439
 20
9.844462483119324
 10
3.730975865410439
 20
9.844462483119324
 10
3.730975865410439
 20
9.844462483119324
 10
3.812666698763362
 20
9.716058186869619
 10
3.812666698763362
 20
9.716058186869619
 10
3.812666698763362
 20
9.716058186869619
 10
3.665945464397345
 20
9.754418127779292
 10
3.665945464397345
 20
9.754418127779292
 10
3.665945464397345
 20
9.754418127779292
 10
3.567547587070205
 20
9.647714057201496
 10
3.567547587070205
 20
9.647714057201496
 10
3.567547587070205
 20
9.647714057201496
 10
3.567547587070205
 20
9.787785604093338
 10
3.567547587070205
 20
9.787785604093338
 10
3.567547587070205
 20
9.787785604093338
 10
3.419075548005796
 20
9.846166317632271
 10
3.419075548005796
 20
9.846166317632271
 10
3.419075548005796
 20
9.846166317632271
 10
3.567547587070205
 20
9.897838541327486
 10
3.567547587070205
 20
9.897838541327486
 10
3.567547587070205
 20
9.897838541327486
 10
3.567547587070205
 20
9.993804725542923
 10
3.567547587070205
 20
9.993804725542923
 10
3.577369734092043
 20
9.998210600647123
 10
3.58714455237743
 20
10.00256914701486
 10
3.596732207023125
 20
10.00693916701567
 10
3.596732207023125
 20
10.00693916701567
 10
3.596732207023125
 20
10.00693916701567
 10
3.596732207023125
 20
10.00693916701567
 97
        0
 97
        0
 92
        1
 93
        1
 72
     4
 94
        3
 73
     0
 74
     1
 95
       23
 96
       19
 40
0.0
 40
0.0
 40
0.0
 40
0.0
 40
1.0
 40
1.0
 40
1.0
 40
2.0
 40
2.0
 40
2.0
 40
3.0
 40
3.0
 40
3.0
 40
4.0
 40
4.0
 40
4.0
 40
5.0
 40
5.0
 40
5.0
 40
6.0
 40
6.0
 40
6.0
 40
6.0
 10
5.054349007914778
 20
9.940757817183856
 10
5.08743322891208
 20
9.926940694542623
 10
5.122915439223889
 20
9.912442324937034
 10
5.162251356047768
 20
9.896651737405376
 10
5.420177193568709
 20
9.793201876010988
 10
5.587048278936158
 20
9.712251809094052
 10
5.749654041204697
 20
9.607602953042411
 10
5.749055260978139
 20
8.387128220442365
 10
5.748455763649518
 20
7.166619066943061
 10
5.74785554921881
 20
5.946144334343014
 10
5.671899381101613
 20
5.908970480253388
 10
5.595025322337707
 20
5.872572172050026
 10
5.516142660682084
 20
5.836408714773849
 10
5.36812992549206
 20
5.768617112248926
 10
5.207085294424991
 20
5.702305608391813
 10
5.05646302481048
 20
5.646039628850657
 10
5.05646302481048
 20
5.646039628850657
 10
5.054349007914778
 20
9.940757817183856
 10
5.054349007914778
 20
9.940757817183856
 97
        0
 97
        0
 92
        1
 93
        3
 72
     1
 10
3.099655698318833
 20
9.796092514446059
 11
3.150598987762186
 21
9.716058186869619
 72
     1
 10
3.150598987762186
 20
9.716058186869619
 11
3.009470073871448
 21
9.752950219846626
 72
     1
 10
3.009470073871448
 20
9.752950219846626
 11
3.099655698318833
 21
9.796092514446059
 97
        0
 92
        1
 93
        1
 72
     4
 94
        3
 73
     0
 74
     1
 95
       17
 96
       13
 40
0.0
 40
0.0
 40
0.0
 40
0.0
 40
1.0
 40
1.0
 40
1.0
 40
2.0
 40
2.0
 40
2.0
 40
3.0
 40
3.0
 40
3.0
 40
4.0
 40
4.0
 40
4.0
 40
4.0
 10
2.98587813294484
 20
9.74295094861404
 10
2.98587813294484
 20
9.74295094861404
 10
2.905479517517998
 20
9.647714057201496
 10
2.905479517517998
 20
9.647714057201496
 10
2.905479517517998
 20
9.647714057201496
 10
2.905479517517998
 20
9.69884486883556
 10
2.905479517517998
 20
9.69884486883556
 10
2.935944881763905
 20
9.71458956183489
 10
2.955177917771746
 20
9.72771252967454
 10
2.98587813294484
 20
9.74295094861404
 10
2.98587813294484
 20
9.74295094861404
 10
2.98587813294484
 20
9.74295094861404
 10
2.98587813294484
 20
9.74295094861404
 97
        0
 97
        0
 92
        1
 93
       10
 72
     1
 10
3.260651924996321
 20
9.64101704099087
 11
3.359049802323473
 21
9.530964103756723
 72
     1
 10
3.359049802323473
 20
9.530964103756723
 11
3.505818365425954
 21
9.565975895112109
 72
     1
 10
3.505818365425954
 20
9.565975895112109
 11
3.424127173522
 21
9.445924403747451
 72
     1
 10
3.424127173522
 20
9.445924403747451
 11
3.505818365425954
 21
9.317508633864664
 72
     1
 10
3.505818365425954
 20
9.317508633864664
 11
3.359049802323473
 21
9.355868574774338
 72
     1
 10
3.359049802323473
 20
9.355868574774338
 11
3.260651924996321
 21
9.249129366195222
 72
     1
 10
3.260651924996321
 20
9.249129366195222
 11
3.260651924996321
 21
9.39089255686488
 72
     1
 10
3.260651924996321
 20
9.39089255686488
 11
3.1122272146684
 21
9.447569435890854
 72
     1
 10
3.1122272146684
 20
9.447569435890854
 11
3.260651924996321
 21
9.499253850321212
 72
     1
 10
3.260651924996321
 20
9.499253850321212
 11
3.260651924996321
 21
9.64101704099087
 97
        0
 92
        1
 93
       11
 72
     1
 10
2.837088776215473
 20
9.565975895112109
 11
2.753705940533715
 21
9.445924403747451
 72
     1
 10
2.753705940533715
 20
9.445924403747451
 11
2.837088776215473
 21
9.317508633864664
 72
     1
 10
2.837088776215473
 20
9.317508633864664
 11
2.688663707336509
 21
9.355868574774338
 72
     1
 10
2.688663707336509
 20
9.355868574774338
 11
2.591969305971273
 21
9.249129366195222
 72
     1
 10
2.591969305971273
 20
9.249129366195222
 11
2.591969305971273
 21
9.39089255686488
 72
     1
 10
2.591969305971273
 20
9.39089255686488
 11
2.499586839339372
 21
9.426139557698484
 72
     1
 10
2.499586839339372
 20
9.426139557698484
 11
2.600041006845774
 21
9.486622814500025
 72
     1
 10
2.600041006845774
 20
9.486622814500025
 11
2.601650542436813
 21
9.508982056972185
 72
     1
 10
2.601650542436813
 20
9.508982056972185
 11
2.669207294034562
 21
9.553134031283005
 72
     1
 10
2.669207294034562
 20
9.553134031283005
 11
2.694726088217193
 21
9.532609135900126
 72
     1
 10
2.694726088217193
 20
9.532609135900126
 11
2.837088776215473
 21
9.565975895112109
 97
        0
 92
        1
 93
       10
 72
     1
 10
2.905479517517998
 20
9.242467487985916
 11
3.003877394845138
 21
9.132367222015306
 72
     1
 10
3.003877394845138
 20
9.132367222015306
 11
3.150598987762186
 21
9.167426342107154
 72
     1
 10
3.150598987762186
 20
9.167426342107154
 11
3.068908512960307
 21
9.04737556784457
 72
     1
 10
3.068908512960307
 20
9.04737556784457
 11
3.150598987762186
 21
8.918959080859723
 72
     1
 10
3.150598987762186
 20
8.918959080859723
 11
3.003877394845138
 21
8.95897624464793
 72
     1
 10
3.003877394845138
 20
8.95897624464793
 11
2.905479517517998
 21
8.852224128231606
 72
     1
 10
2.905479517517998
 20
8.852224128231606
 11
2.905479517517998
 21
8.992343003859926
 72
     1
 10
2.905479517517998
 20
8.992343003859926
 11
2.757054807190065
 21
9.049019882885899
 72
     1
 10
2.757054807190065
 20
9.049019882885899
 11
2.905479517517998
 21
9.100751626052732
 72
     1
 10
2.905479517517998
 20
9.100751626052732
 11
2.905479517517998
 21
9.242467487985916
 97
        0
 92
        1
 93
       10
 72
     1
 10
3.567547587070205
 20
9.242467487985916
 11
3.665945464397345
 21
9.132367222015306
 72
     1
 10
3.665945464397345
 20
9.132367222015306
 11
3.812666698763362
 21
9.167426342107154
 72
     1
 10
3.812666698763362
 20
9.167426342107154
 11
3.730975865410439
 21
9.04737556784457
 72
     1
 10
3.730975865410439
 20
9.04737556784457
 11
3.812666698763362
 21
8.918959080859723
 72
     1
 10
3.812666698763362
 20
8.918959080859723
 11
3.665945464397345
 21
8.95897624464793
 72
     1
 10
3.665945464397345
 20
8.95897624464793
 11
3.567547587070205
 21
8.852224128231606
 72
     1
 10
3.567547587070205
 20
8.852224128231606
 11
3.567547587070205
 21
8.992343003859926
 72
     1
 10
3.567547587070205
 20
8.992343003859926
 11
3.419075548005796
 21
9.049019882885899
 72
     1
 10
3.419075548005796
 20
9.049019882885899
 11
3.567547587070205
 21
9.100751626052732
 72
     1
 10
3.567547587070205
 20
9.100751626052732
 11
3.567547587070205
 21
9.242467487985916
 97
        0
 92
        1
 93
        1
 72
     4
 94
        3
 73
     0
 74
     1
 95
       41
 96
       37
 40
0.0
 40
0.0
 40
0.0
 40
0.0
 40
1.0
 40
1.0
 40
1.0
 40
2.0
 40
2.0
 40
2.0
 40
3.0
 40
3.0
 40
3.0
 40
4.0
 40
4.0
 40
4.0
 40
5.0
 40
5.0
 40
5.0
 40
6.0
 40
6.0
 40
6.0
 40
7.0
 40
7.0
 40
7.0
 40
8.0
 40
8.0
 40
8.0
 40
9.0
 40
9.0
 40
9.0
 40
10.0
 40
10.0
 40
10.0
 40
11.0
 40
11.0
 40
11.0
 40
12.0
 40
12.0
 40
12.0
 40
12.0
 10
2.263643407154
 20
9.212366411590411
 10
2.263643407154
 20
9.212366411590411
 10
2.335147805634657
 20
9.132367222015306
 10
2.335147805634657
 20
9.132367222015306
 10
2.335147805634657
 20
9.132367222015306
 10
2.481916368737138
 20
9.167426342107154
 10
2.481916368737138
 20
9.167426342107154
 10
2.481916368737138
 20
9.167426342107154
 10
2.400178923749813
 20
9.04737556784457
 10
2.400178923749813
 20
9.04737556784457
 10
2.400178923749813
 20
9.04737556784457
 10
2.481916368737138
 20
8.918959080859723
 10
2.481916368737138
 20
8.918959080859723
 10
2.481916368737138
 20
8.918959080859723
 10
2.335147805634657
 20
8.95897624464793
 10
2.335147805634657
 20
8.95897624464793
 10
2.335147805634657
 20
8.95897624464793
 10
2.236749928307505
 20
8.852224128231606
 10
2.236749928307505
 20
8.852224128231606
 10
2.236749928307505
 20
8.852224128231606
 10
2.236749928307505
 20
8.992343003859926
 10
2.236749928307505
 20
8.992343003859926
 10
2.236749928307505
 20
8.992343003859926
 10
2.107828242915932
 20
9.041547679340043
 10
2.107828242915932
 20
9.041547679340043
 10
2.113514862313119
 20
9.048291307185082
 10
2.119212955343389
 20
9.055035652132181
 10
2.124946544926009
 20
9.061779997079283
 10
2.124946544926009
 20
9.061779997079283
 10
2.236749928307505
 20
9.100751626052732
 10
2.236749928307505
 20
9.100751626052732
 10
2.236749928307505
 20
9.100751626052732
 10
2.236749928307505
 20
9.184509864666955
 10
2.236749928307505
 20
9.184509864666955
 10
2.236749928307505
 20
9.184509864666955
 10
2.263643407154
 20
9.212366411590411
 10
2.263643407154
 20
9.212366411590411
 97
        0
 97
        0
 92
        1
 93
        1
 72
     4
 94
        3
 73
     0
 74
     1
 95
       53
 96
       49
 40
0.0
 40
0.0
 40
0.0
 40
0.0
 40
1.0
 40
1.0
 40
1.0
 40
2.0
 40
2.0
 40
2.0
 40
3.0
 40
3.0
 40
3.0
 40
4.0
 40
4.0
 40
4.0
 40
5.0
 40
5.0
 40
5.0
 40
6.0
 40
6.0
 40
6.0
 40
7.0
 40
7.0
 40
7.0
 40
8.0
 40
8.0
 40
8.0
 40
9.0
 40
9.0
 40
9.0
 40
10.0
 40
10.0
 40
10.0
 40
11.0
 40
11.0
 40
11.0
 40
12.0
 40
12.0
 40
12.0
 40
13.0
 40
13.0
 40
13.0
 40
14.0
 40
14.0
 40
14.0
 40
15.0
 40
15.0
 40
15.0
 40
16.0
 40
16.0
 40
16.0
 40
16.0
 10
6.25462584367483
 20
9.193544633618417
 10
6.561663133407087
 20
8.87646217812125
 10
6.809261266948422
 20
8.478417464971988
 10
6.97939875223445
 20
8.027961195895676
 10
6.97939875223445
 20
8.027961195895676
 10
6.97939875223445
 20
4.690187749982189
 10
6.97939875223445
 20
4.690187749982189
 10
6.942635797629641
 20
4.594962332202713
 10
6.921700002761932
 20
4.483981106341894
 10
6.910232106494631
 20
4.334181352799078
 10
6.906049250133492
 20
4.279302248656929
 10
6.906049250133492
 20
4.127199521823538
 10
6.910232106494631
 20
4.067725586182354
 10
6.921018038695516
 20
3.915998979383504
 10
6.943458313701335
 20
3.77441219582253
 10
6.979350706395912
 20
3.634657608044613
 10
6.979350706395912
 20
3.634657608044613
 10
6.979350706395912
 20
2.781164161223437
 10
6.979350706395912
 20
2.781164161223437
 10
6.968930496249564
 20
2.738244706091538
 10
6.654598127182175
 20
2.179027538431632
 10
6.527285260279566
 20
2.003661303418691
 10
6.43444492397743
 20
1.877042591317654
 10
6.347338535808931
 20
1.767529990491564
 10
6.254579232040416
 20
1.661929898547063
 10
6.254579232040416
 20
1.661929898547063
 10
6.254579232040416
 20
5.153451103437318
 10
6.254579232040416
 20
5.153451103437318
 10
6.254579232040416
 20
5.153451103437318
 10
6.696412348752144
 20
5.413902932991883
 10
6.696412348752144
 20
5.413902932991883
 10
6.696412348752144
 20
5.413902932991883
 10
6.695577641945293
 20
5.901850732373823
 10
6.695577641945293
 20
5.901850732373823
 10
6.695577641945293
 20
5.901850732373823
 10
6.69470851423921
 20
6.389798890306805
 10
6.69470851423921
 20
6.389798890306805
 10
6.686719280102503
 20
6.411604529982671
 10
6.668731491835286
 20
6.425962347582981
 10
6.652164282764261
 20
6.430790595805092
 10
6.634400947444242
 20
6.435748639501449
 10
6.627656602497154
 20
6.432623508690236
 10
6.531785075754644
 20
6.375112639959474
 10
6.531785075754644
 20
6.375112639959474
 10
6.254673172411306
 20
6.21384499014933
 10
6.254673172411306
 20
6.21384499014933
 10
6.254673172411306
 20
6.21384499014933
 10
6.25462584367483
 20
9.193544633618417
 10
6.25462584367483
 20
9.193544633618417
 97
        0
 97
        0
 92
        1
 93
       10
 72
     1
 10
2.591969305971273
 20
8.843917934980961
 11
2.688663707336509
 21
8.733864997746826
 72
     1
 10
2.688663707336509
 20
8.733864997746826
 11
2.837088776215473
 21
8.768888979837357
 72
     1
 10
2.837088776215473
 20
8.768888979837357
 11
2.753705940533715
 21
8.648778686103153
 72
     1
 10
2.753705940533715
 20
8.648778686103153
 11
2.837088776215473
 21
8.520362199118292
 72
     1
 10
2.837088776215473
 20
8.520362199118292
 11
2.688663707336509
 21
8.560379362906511
 72
     1
 10
2.688663707336509
 20
8.560379362906511
 11
2.591969305971273
 21
8.453674575226652
 72
     1
 10
2.591969305971273
 20
8.453674575226652
 11
2.591969305971273
 21
8.593746122118507
 72
     1
 10
2.591969305971273
 20
8.593746122118507
 11
2.443497625457907
 21
8.650470329880944
 72
     1
 10
2.443497625457907
 20
8.650470329880944
 11
2.591969305971273
 21
8.702154744311315
 72
     1
 10
2.591969305971273
 20
8.702154744311315
 11
2.591969305971273
 21
8.843917934980961
 97
        0
 92
        1
 93
       10
 72
     1
 10
3.260651924996321
 20
8.843917934980961
 11
3.359049802323473
 21
8.733864997746826
 72
     1
 10
3.359049802323473
 20
8.733864997746826
 11
3.505818365425954
 21
8.768888979837357
 72
     1
 10
3.505818365425954
 20
8.768888979837357
 11
3.424127173522
 21
8.648778686103153
 72
     1
 10
3.424127173522
 20
8.648778686103153
 11
3.505818365425954
 21
8.520362199118292
 72
     1
 10
3.505818365425954
 20
8.520362199118292
 11
3.359049802323473
 21
8.560379362906511
 72
     1
 10
3.359049802323473
 20
8.560379362906511
 11
3.260651924996321
 21
8.453674575226652
 72
     1
 10
3.260651924996321
 20
8.453674575226652
 11
3.260651924996321
 21
8.593746122118507
 72
     1
 10
3.260651924996321
 20
8.593746122118507
 11
3.1122272146684
 21
8.650470329880944
 72
     1
 10
3.1122272146684
 20
8.650470329880944
 11
3.260651924996321
 21
8.702154744311315
 72
     1
 10
3.260651924996321
 20
8.702154744311315
 11
3.260651924996321
 21
8.843917934980961
 97
        0
 92
        1
 93
       13
 72
     1
 10
1.935764262924926
 20
8.818270062426134
 11
2.009935563995504
 21
8.733864997746826
 72
     1
 10
2.009935563995504
 20
8.733864997746826
 11
2.158360632874468
 21
8.768888979837357
 72
     1
 10
2.158360632874468
 20
8.768888979837357
 11
2.075013652296105
 21
8.648778686103153
 72
     1
 10
2.075013652296105
 20
8.648778686103153
 11
2.158360632874468
 21
8.520362199118292
 72
     1
 10
2.158360632874468
 20
8.520362199118292
 11
2.009935563995504
 21
8.560379362906511
 72
     1
 10
2.009935563995504
 20
8.560379362906511
 11
1.913229688997199
 21
8.453674575226652
 72
     1
 10
1.913229688997199
 20
8.453674575226652
 11
1.913229688997199
 21
8.593746122118507
 72
     1
 10
1.913229688997199
 20
8.593746122118507
 11
1.813738948118814
 21
8.63175396591291
 72
     1
 10
1.813738948118814
 20
8.63175396591291
 11
1.841866201072851
 21
8.67732867072612
 72
     1
 10
1.841866201072851
 20
8.67732867072612
 11
1.841913171258284
 21
8.67732867072612
 72
     1
 10
1.841913171258284
 20
8.67732867072612
 11
1.913229688997199
 21
8.702154744311315
 72
     1
 10
1.913229688997199
 20
8.702154744311315
 11
1.913229688997199
 21
8.785725102183783
 72
     1
 10
1.913229688997199
 20
8.785725102183783
 11
1.935764262924926
 21
8.818270062426134
 97
        0
 92
        1
 93
       10
 72
     1
 10
2.236749928307505
 20
8.418662783871266
 11
2.335147805634657
 21
8.306906012124172
 72
     1
 10
2.335147805634657
 20
8.306906012124172
 11
2.481916368737138
 21
8.341929994214713
 72
     1
 10
2.481916368737138
 20
8.341929994214713
 11
2.400178923749813
 21
8.221867029216973
 72
     1
 10
2.400178923749813
 20
8.221867029216973
 11
2.481916368737138
 21
8.093450542232125
 72
     1
 10
2.481916368737138
 20
8.093450542232125
 11
2.335147805634657
 21
8.133479179653426
 72
     1
 10
2.335147805634657
 20
8.133479179653426
 11
2.236749928307505
 21
8.026762918340484
 72
     1
 10
2.236749928307505
 20
8.026762918340484
 11
2.236749928307505
 21
8.166834465232329
 72
     1
 10
2.236749928307505
 20
8.166834465232329
 11
2.088325217979584
 21
8.225215895873323
 72
     1
 10
2.088325217979584
 20
8.225215895873323
 11
2.236749928307505
 21
8.27689959320162
 72
     1
 10
2.236749928307505
 20
8.27689959320162
 11
2.236749928307505
 21
8.418662783871266
 97
        0
 92
        1
 93
       10
 72
     1
 10
2.905479517517998
 20
8.418662783871266
 11
3.003877394845138
 21
8.306906012124172
 72
     1
 10
3.003877394845138
 20
8.306906012124172
 11
3.150598987762186
 21
8.341929994214713
 72
     1
 10
3.150598987762186
 20
8.341929994214713
 11
3.068908512960307
 21
8.221867029216973
 72
     1
 10
3.068908512960307
 20
8.221867029216973
 11
3.150598987762186
 21
8.093450542232125
 72
     1
 10
3.150598987762186
 20
8.093450542232125
 11
3.003877394845138
 21
8.133479179653426
 72
     1
 10
3.003877394845138
 20
8.133479179653426
 11
2.905479517517998
 21
8.026762918340484
 72
     1
 10
2.905479517517998
 20
8.026762918340484
 11
2.905479517517998
 21
8.166834465232329
 72
     1
 10
2.905479517517998
 20
8.166834465232329
 11
2.757054807190065
 21
8.225215895873323
 72
     1
 10
2.757054807190065
 20
8.225215895873323
 11
2.905479517517998
 21
8.27689959320162
 72
     1
 10
2.905479517517998
 20
8.27689959320162
 11
2.905479517517998
 21
8.418662783871266
 97
        0
 92
        1
 93
       10
 72
     1
 10
3.567547587070205
 20
8.418662783871266
 11
3.665945464397345
 21
8.306906012124172
 72
     1
 10
3.665945464397345
 20
8.306906012124172
 11
3.812666698763362
 21
8.341929994214713
 72
     1
 10
3.812666698763362
 20
8.341929994214713
 11
3.730975865410439
 21
8.221867029216973
 72
     1
 10
3.730975865410439
 20
8.221867029216973
 11
3.812666698763362
 21
8.093450542232125
 72
     1
 10
3.812666698763362
 20
8.093450542232125
 11
3.665945464397345
 21
8.133479179653426
 72
     1
 10
3.665945464397345
 20
8.133479179653426
 11
3.567547587070205
 21
8.026762918340484
 72
     1
 10
3.567547587070205
 20
8.026762918340484
 11
3.567547587070205
 21
8.166834465232329
 72
     1
 10
3.567547587070205
 20
8.166834465232329
 11
3.419075548005796
 21
8.225215895873323
 72
     1
 10
3.419075548005796
 20
8.225215895873323
 11
3.567547587070205
 21
8.27689959320162
 72
     1
 10
3.567547587070205
 20
8.27689959320162
 11
3.567547587070205
 21
8.418662783871266
 97
        0
 92
        1
 93
        8
 72
     1
 10
1.803129781577619
 20
8.341929994214713
 11
1.721438948224697
 21
8.221867029216973
 72
     1
 10
1.721438948224697
 20
8.221867029216973
 11
1.803129781577619
 21
8.093450542232125
 72
     1
 10
1.803129781577619
 20
8.093450542232125
 11
1.656408188660571
 21
8.133479179653426
 72
     1
 10
1.656408188660571
 20
8.133479179653426
 11
1.558010311333431
 21
8.026762918340484
 72
     1
 10
1.558010311333431
 20
8.026762918340484
 11
1.558010311333431
 21
8.12296431203414
 72
     1
 10
1.558010311333431
 20
8.12296431203414
 11
1.645164745340468
 21
8.319712737951956
 72
     1
 10
1.645164745340468
 20
8.319712737951956
 11
1.656408188660571
 21
8.306906012124172
 72
     1
 10
1.656408188660571
 20
8.306906012124172
 11
1.803129781577619
 21
8.341929994214713
 97
        0
 92
        1
 93
       10
 72
     1
 10
1.913229688997199
 20
8.020065902129847
 11
2.009935563995504
 21
7.908356459119229
 72
     1
 10
2.009935563995504
 20
7.908356459119229
 11
2.158360632874468
 21
7.943380441209759
 72
     1
 10
2.158360632874468
 20
7.943380441209759
 11
2.075013652296105
 21
7.824973981988503
 72
     1
 10
2.075013652296105
 20
7.824973981988503
 11
2.158360632874468
 21
7.696557495003654
 72
     1
 10
2.158360632874468
 20
7.696557495003654
 11
2.009935563995504
 21
7.734929626648472
 72
     1
 10
2.009935563995504
 20
7.734929626648472
 11
1.913229688997199
 21
7.62817822733421
 72
     1
 10
1.913229688997199
 20
7.62817822733421
 11
1.913229688997199
 21
7.768284912227373
 72
     1
 10
1.913229688997199
 20
7.768284912227373
 11
1.764816093751316
 21
7.826666342868369
 72
     1
 10
1.764816093751316
 20
7.826666342868369
 11
1.913229688997199
 21
7.878350040196665
 72
     1
 10
1.913229688997199
 20
7.878350040196665
 11
1.913229688997199
 21
8.020065902129847
 97
        0
 92
        1
 93
       10
 72
     1
 10
2.591969305971273
 20
8.020065902129847
 11
2.688663707336509
 21
7.908356459119229
 72
     1
 10
2.688663707336509
 20
7.908356459119229
 11
2.837088776215473
 21
7.943380441209759
 72
     1
 10
2.837088776215473
 20
7.943380441209759
 11
2.753705940533715
 21
7.824973981988503
 72
     1
 10
2.753705940533715
 20
7.824973981988503
 11
2.837088776215473
 21
7.696557495003654
 72
     1
 10
2.837088776215473
 20
7.696557495003654
 11
2.688663707336509
 21
7.734929626648472
 72
     1
 10
2.688663707336509
 20
7.734929626648472
 11
2.591969305971273
 21
7.62817822733421
 72
     1
 10
2.591969305971273
 20
7.62817822733421
 11
2.591969305971273
 21
7.768284912227373
 72
     1
 10
2.591969305971273
 20
7.768284912227373
 11
2.443497625457907
 21
7.826666342868369
 72
     1
 10
2.443497625457907
 20
7.826666342868369
 11
2.591969305971273
 21
7.878350040196665
 72
     1
 10
2.591969305971273
 20
7.878350040196665
 11
2.591969305971273
 21
8.020065902129847
 97
        0
 92
        1
 93
       10
 72
     1
 10
3.260651924996321
 20
8.020065902129847
 11
3.359049802323473
 21
7.908356459119229
 72
     1
 10
3.359049802323473
 20
7.908356459119229
 11
3.505818365425954
 21
7.943380441209759
 72
     1
 10
3.505818365425954
 20
7.943380441209759
 11
3.424127173522
 21
7.824973981988503
 72
     1
 10
3.424127173522
 20
7.824973981988503
 11
3.505818365425954
 21
7.696557495003654
 72
     1
 10
3.505818365425954
 20
7.696557495003654
 11
3.359049802323473
 21
7.734929626648472
 72
     1
 10
3.359049802323473
 20
7.734929626648472
 11
3.260651924996321
 21
7.62817822733421
 72
     1
 10
3.260651924996321
 20
7.62817822733421
 11
3.260651924996321
 21
7.768284912227373
 72
     1
 10
3.260651924996321
 20
7.768284912227373
 11
3.1122272146684
 21
7.826666342868369
 72
     1
 10
3.1122272146684
 20
7.826666342868369
 11
3.260651924996321
 21
7.878350040196665
 72
     1
 10
3.260651924996321
 20
7.878350040196665
 11
3.260651924996321
 21
8.020065902129847
 97
        0
 92
        1
 93
       10
 72
     1
 10
1.558010311333431
 20
7.621517066226968
 11
1.656408188660571
 21
7.51146412899282
 72
     1
 10
1.656408188660571
 20
7.51146412899282
 11
1.803129781577619
 21
7.546487393981288
 72
     1
 10
1.803129781577619
 20
7.546487393981288
 11
1.721438948224697
 21
7.426424428983561
 72
     1
 10
1.721438948224697
 20
7.426424428983561
 11
1.803129781577619
 21
7.297961330364299
 72
     1
 10
1.803129781577619
 20
7.297961330364299
 11
1.656408188660571
 21
7.336380073643517
 72
     1
 10
1.656408188660571
 20
7.336380073643517
 11
1.558010311333431
 21
7.229628674329255
 72
     1
 10
1.558010311333431
 20
7.229628674329255
 11
1.558010311333431
 21
7.371345253364502
 72
     1
 10
1.558010311333431
 20
7.371345253364502
 11
1.409585242454467
 21
7.428069461126951
 72
     1
 10
1.409585242454467
 20
7.428069461126951
 11
1.558010311333431
 21
7.479753158455246
 72
     1
 10
1.558010311333431
 20
7.479753158455246
 11
1.558010311333431
 21
7.621517066226968
 97
        0
 92
        1
 93
       10
 72
     1
 10
2.236749928307505
 20
7.621517066226968
 11
2.335147805634657
 21
7.51146412899282
 72
     1
 10
2.335147805634657
 20
7.51146412899282
 11
2.481916368737138
 21
7.546487393981288
 72
     1
 10
2.481916368737138
 20
7.546487393981288
 11
2.400178923749813
 21
7.426424428983561
 72
     1
 10
2.400178923749813
 20
7.426424428983561
 11
2.481916368737138
 21
7.297961330364299
 72
     1
 10
2.481916368737138
 20
7.297961330364299
 11
2.335147805634657
 21
7.336380073643517
 72
     1
 10
2.335147805634657
 20
7.336380073643517
 11
2.236749928307505
 21
7.229628674329255
 72
     1
 10
2.236749928307505
 20
7.229628674329255
 11
2.236749928307505
 21
7.371345253364502
 72
     1
 10
2.236749928307505
 20
7.371345253364502
 11
2.088325217979584
 21
7.428069461126951
 72
     1
 10
2.088325217979584
 20
7.428069461126951
 11
2.236749928307505
 21
7.479753158455246
 72
     1
 10
2.236749928307505
 20
7.479753158455246
 11
2.236749928307505
 21
7.621517066226968
 97
        0
 92
        1
 93
       10
 72
     1
 10
2.905479517517998
 20
7.621517066226968
 11
3.003877394845138
 21
7.51146412899282
 72
     1
 10
3.003877394845138
 20
7.51146412899282
 11
3.150598987762186
 21
7.546487393981288
 72
     1
 10
3.150598987762186
 20
7.546487393981288
 11
3.068908512960307
 21
7.426424428983561
 72
     1
 10
3.068908512960307
 20
7.426424428983561
 11
3.150598987762186
 21
7.297961330364299
 72
     1
 10
3.150598987762186
 20
7.297961330364299
 11
3.003877394845138
 21
7.336380073643517
 72
     1
 10
3.003877394845138
 20
7.336380073643517
 11
2.905479517517998
 21
7.229628674329255
 72
     1
 10
2.905479517517998
 20
7.229628674329255
 11
2.905479517517998
 21
7.371345253364502
 72
     1
 10
2.905479517517998
 20
7.371345253364502
 11
2.757054807190065
 21
7.428069461126951
 72
     1
 10
2.757054807190065
 20
7.428069461126951
 11
2.905479517517998
 21
7.479753158455246
 72
     1
 10
2.905479517517998
 20
7.479753158455246
 11
2.905479517517998
 21
7.621517066226968
 97
        0
 92
        1
 93
       10
 72
     1
 10
3.567547587070205
 20
7.621517066226968
 11
3.665945464397345
 21
7.51146412899282
 72
     1
 10
3.665945464397345
 20
7.51146412899282
 11
3.812666698763362
 21
7.546487393981288
 72
     1
 10
3.812666698763362
 20
7.546487393981288
 11
3.730975865410439
 21
7.426424428983561
 72
     1
 10
3.730975865410439
 20
7.426424428983561
 11
3.812666698763362
 21
7.297961330364299
 72
     1
 10
3.812666698763362
 20
7.297961330364299
 11
3.665945464397345
 21
7.336380073643517
 72
     1
 10
3.665945464397345
 20
7.336380073643517
 11
3.567547587070205
 21
7.229628674329255
 72
     1
 10
3.567547587070205
 20
7.229628674329255
 11
3.567547587070205
 21
7.371345253364502
 72
     1
 10
3.567547587070205
 20
7.371345253364502
 11
3.419075548005796
 21
7.428069461126951
 72
     1
 10
3.419075548005796
 20
7.428069461126951
 11
3.567547587070205
 21
7.479753158455246
 72
     1
 10
3.567547587070205
 20
7.479753158455246
 11
3.567547587070205
 21
7.621517066226968
 97
        0
 92
        1
 93
       10
 72
     1
 10
1.913229688997199
 20
7.222931658118632
 11
2.009935563995504
 21
7.112867247251402
 72
     1
 10
2.009935563995504
 20
7.112867247251402
 11
2.158360632874468
 21
7.147890512239869
 72
     1
 10
2.158360632874468
 20
7.147890512239869
 11
2.075013652296105
 21
7.02782754724213
 72
     1
 10
2.075013652296105
 20
7.02782754724213
 11
2.158360632874468
 21
6.899411777359344
 72
     1
 10
2.158360632874468
 20
6.899411777359344
 11
2.009935563995504
 21
6.93778390900416
 72
     1
 10
2.009935563995504
 20
6.93778390900416
 11
1.913229688997199
 21
6.832735627100785
 72
     1
 10
1.913229688997199
 20
6.832735627100785
 11
1.913229688997199
 21
6.972795700359559
 72
     1
 10
1.913229688997199
 20
6.972795700359559
 11
1.764816093751316
 21
7.029484053018614
 72
     1
 10
1.764816093751316
 20
7.029484053018614
 11
1.913229688997199
 21
7.08115699381589
 72
     1
 10
1.913229688997199
 20
7.08115699381589
 11
1.913229688997199
 21
7.222931658118632
 97
        0
 92
        1
 93
       10
 72
     1
 10
2.591969305971273
 20
7.222931658118632
 11
2.688663707336509
 21
7.112867247251402
 72
     1
 10
2.688663707336509
 20
7.112867247251402
 11
2.837088776215473
 21
7.147890512239869
 72
     1
 10
2.837088776215473
 20
7.147890512239869
 11
2.753705940533715
 21
7.02782754724213
 72
     1
 10
2.753705940533715
 20
7.02782754724213
 11
2.837088776215473
 21
6.899411777359344
 72
     1
 10
2.837088776215473
 20
6.899411777359344
 11
2.688663707336509
 21
6.93778390900416
 72
     1
 10
2.688663707336509
 20
6.93778390900416
 11
2.591969305971273
 21
6.832735627100785
 72
     1
 10
2.591969305971273
 20
6.832735627100785
 11
2.591969305971273
 21
6.972795700359559
 72
     1
 10
2.591969305971273
 20
6.972795700359559
 11
2.443497625457907
 21
7.029484053018614
 72
     1
 10
2.443497625457907
 20
7.029484053018614
 11
2.591969305971273
 21
7.08115699381589
 72
     1
 10
2.591969305971273
 20
7.08115699381589
 11
2.591969305971273
 21
7.222931658118632
 97
        0
 92
        1
 93
       10
 72
     1
 10
3.260651924996321
 20
7.222931658118632
 11
3.359049802323473
 21
7.112867247251402
 72
     1
 10
3.359049802323473
 20
7.112867247251402
 11
3.505818365425954
 21
7.147890512239869
 72
     1
 10
3.505818365425954
 20
7.147890512239869
 11
3.424127173522
 21
7.02782754724213
 72
     1
 10
3.424127173522
 20
7.02782754724213
 11
3.505818365425954
 21
6.899411777359344
 72
     1
 10
3.505818365425954
 20
6.899411777359344
 11
3.359049802323473
 21
6.93778390900416
 72
     1
 10
3.359049802323473
 20
6.93778390900416
 11
3.260651924996321
 21
6.832735627100785
 72
     1
 10
3.260651924996321
 20
6.832735627100785
 11
3.260651924996321
 21
6.972795700359559
 72
     1
 10
3.260651924996321
 20
6.972795700359559
 11
3.1122272146684
 21
7.029484053018614
 72
     1
 10
3.1122272146684
 20
7.029484053018614
 11
3.260651924996321
 21
7.08115699381589
 72
     1
 10
3.260651924996321
 20
7.08115699381589
 11
3.260651924996321
 21
7.222931658118632
 97
        0
 92
        1
 93
        1
 72
     4
 94
        3
 73
     0
 74
     1
 95
       29
 96
       25
 40
0.0
 40
0.0
 40
0.0
 40
0.0
 40
1.0
 40
1.0
 40
1.0
 40
2.0
 40
2.0
 40
2.0
 40
3.0
 40
3.0
 40
3.0
 40
4.0
 40
4.0
 40
4.0
 40
5.0
 40
5.0
 40
5.0
 40
6.0
 40
6.0
 40
6.0
 40
7.0
 40
7.0
 40
7.0
 40
8.0
 40
8.0
 40
8.0
 40
8.0
 10
1.304173389802738
 20
7.152472794452731
 10
1.304173389802738
 20
7.152472794452731
 10
1.342862480561507
 20
7.112867247251402
 10
1.342862480561507
 20
7.112867247251402
 10
1.342862480561507
 20
7.112867247251402
 10
1.491323045992822
 20
7.147890512239869
 10
1.491323045992822
 20
7.147890512239869
 10
1.491323045992822
 20
7.147890512239869
 10
1.407940210311065
 20
7.02782754724213
 10
1.407940210311065
 20
7.02782754724213
 10
1.407940210311065
 20
7.02782754724213
 10
1.491323045992822
 20
6.899411777359344
 10
1.491323045992822
 20
6.899411777359344
 10
1.491323045992822
 20
6.899411777359344
 10
1.342862480561507
 20
6.93778390900416
 10
1.342862480561507
 20
6.93778390900416
 10
1.342862480561507
 20
6.93778390900416
 10
1.302105267439376
 20
6.893489948483938
 10
1.302105267439376
 20
6.893489948483938
 10
1.301823446326757
 20
7.021354266876629
 10
1.302058297253944
 20
7.118283519169053
 10
1.304173389802738
 20
7.152472794452731
 10
1.304173389802738
 20
7.152472794452731
 10
1.304173389802738
 20
7.152472794452731
 10
1.304173389802738
 20
7.152472794452731
 97
        0
 97
        0
 92
        1
 93
       10
 72
     1
 10
1.558010311333431
 20
6.819376732680843
 11
1.656408188660571
 21
6.709323795446708
 72
     1
 10
1.656408188660571
 20
6.709323795446708
 11
1.803129781577619
 21
6.744336303904156
 72
     1
 10
1.803129781577619
 20
6.744336303904156
 11
1.721438948224697
 21
6.624273338906416
 72
     1
 10
1.721438948224697
 20
6.624273338906416
 11
1.803129781577619
 21
6.49586832555465
 72
     1
 10
1.803129781577619
 20
6.49586832555465
 11
1.656408188660571
 21
6.534228983566385
 72
     1
 10
1.656408188660571
 20
6.534228983566385
 11
1.558010311333431
 21
6.427477584252124
 72
     1
 10
1.558010311333431
 20
6.427477584252124
 11
1.558010311333431
 21
6.567549131143967
 72
     1
 10
1.558010311333431
 20
6.567549131143967
 11
1.409585242454467
 21
6.625929844682901
 72
     1
 10
1.409585242454467
 20
6.625929844682901
 11
1.558010311333431
 21
6.677602068378114
 72
     1
 10
1.558010311333431
 20
6.677602068378114
 11
1.558010311333431
 21
6.819376732680843
 97
        0
 92
        1
 93
       10
 72
     1
 10
2.236749928307505
 20
6.819376732680843
 11
2.335147805634657
 21
6.709323795446708
 72
     1
 10
2.335147805634657
 20
6.709323795446708
 11
2.481916368737138
 21
6.744336303904156
 72
     1
 10
2.481916368737138
 20
6.744336303904156
 11
2.400178923749813
 21
6.624273338906416
 72
     1
 10
2.400178923749813
 20
6.624273338906416
 11
2.481916368737138
 21
6.49586832555465
 72
     1
 10
2.481916368737138
 20
6.49586832555465
 11
2.335147805634657
 21
6.534228983566385
 72
     1
 10
2.335147805634657
 20
6.534228983566385
 11
2.236749928307505
 21
6.427477584252124
 72
     1
 10
2.236749928307505
 20
6.427477584252124
 11
2.236749928307505
 21
6.567549131143967
 72
     1
 10
2.236749928307505
 20
6.567549131143967
 11
2.088325217979584
 21
6.625929844682901
 72
     1
 10
2.088325217979584
 20
6.625929844682901
 11
2.236749928307505
 21
6.677602068378114
 72
     1
 10
2.236749928307505
 20
6.677602068378114
 11
2.236749928307505
 21
6.819376732680843
 97
        0
 92
        1
 93
       10
 72
     1
 10
2.905479517517998
 20
6.819376732680843
 11
3.003877394845138
 21
6.709323795446708
 72
     1
 10
3.003877394845138
 20
6.709323795446708
 11
3.150598987762186
 21
6.744336303904156
 72
     1
 10
3.150598987762186
 20
6.744336303904156
 11
3.068908512960307
 21
6.624273338906416
 72
     1
 10
3.068908512960307
 20
6.624273338906416
 11
3.150598987762186
 21
6.49586832555465
 72
     1
 10
3.150598987762186
 20
6.49586832555465
 11
3.003877394845138
 21
6.534228983566385
 72
     1
 10
3.003877394845138
 20
6.534228983566385
 11
2.905479517517998
 21
6.427477584252124
 72
     1
 10
2.905479517517998
 20
6.427477584252124
 11
2.905479517517998
 21
6.567549131143967
 72
     1
 10
2.905479517517998
 20
6.567549131143967
 11
2.757054807190065
 21
6.625929844682901
 72
     1
 10
2.757054807190065
 20
6.625929844682901
 11
2.905479517517998
 21
6.677602068378114
 72
     1
 10
2.905479517517998
 20
6.677602068378114
 11
2.905479517517998
 21
6.819376732680843
 97
        0
 92
        1
 93
       10
 72
     1
 10
3.567547587070205
 20
6.819376732680843
 11
3.665945464397345
 21
6.709323795446708
 72
     1
 10
3.665945464397345
 20
6.709323795446708
 11
3.812666698763362
 21
6.744336303904156
 72
     1
 10
3.812666698763362
 20
6.744336303904156
 11
3.730975865410439
 21
6.624273338906416
 72
     1
 10
3.730975865410439
 20
6.624273338906416
 11
3.812666698763362
 21
6.49586832555465
 72
     1
 10
3.812666698763362
 20
6.49586832555465
 11
3.665945464397345
 21
6.534228983566385
 72
     1
 10
3.665945464397345
 20
6.534228983566385
 11
3.567547587070205
 21
6.427477584252124
 72
     1
 10
3.567547587070205
 20
6.427477584252124
 11
3.567547587070205
 21
6.567549131143967
 72
     1
 10
3.567547587070205
 20
6.567549131143967
 11
3.419075548005796
 21
6.625929844682901
 72
     1
 10
3.419075548005796
 20
6.625929844682901
 11
3.567547587070205
 21
6.677602068378114
 72
     1
 10
3.567547587070205
 20
6.677602068378114
 11
3.567547587070205
 21
6.819376732680843
 97
        0
 92
        1
 93
       10
 72
     1
 10
2.591969305971273
 20
6.420827179675888
 11
2.688663707336509
 21
6.310774242441753
 72
     1
 10
2.688663707336509
 20
6.310774242441753
 11
2.837088776215473
 21
6.3457401392648
 72
     1
 10
2.837088776215473
 20
6.3457401392648
 11
2.753705940533715
 21
6.225688289349111
 72
     1
 10
2.753705940533715
 20
6.225688289349111
 11
2.837088776215473
 21
6.097271802364262
 72
     1
 10
2.837088776215473
 20
6.097271802364262
 11
2.688663707336509
 21
6.13564393400908
 72
     1
 10
2.688663707336509
 20
6.13564393400908
 11
2.591969305971273
 21
6.028939504880251
 72
     1
 10
2.591969305971273
 20
6.028939504880251
 11
2.591969305971273
 21
6.170656083915497
 72
     1
 10
2.591969305971273
 20
6.170656083915497
 11
2.443497625457907
 21
6.227380291677946
 72
     1
 10
2.443497625457907
 20
6.227380291677946
 11
2.591969305971273
 21
6.279063989006241
 72
     1
 10
2.591969305971273
 20
6.279063989006241
 11
2.591969305971273
 21
6.420827179675888
 97
        0
 92
        1
 93
       10
 72
     1
 10
3.260651924996321
 20
6.420827179675888
 11
3.359049802323473
 21
6.310774242441753
 72
     1
 10
3.359049802323473
 20
6.310774242441753
 11
3.505818365425954
 21
6.3457401392648
 72
     1
 10
3.505818365425954
 20
6.3457401392648
 11
3.424127173522
 21
6.225688289349111
 72
     1
 10
3.424127173522
 20
6.225688289349111
 11
3.505818365425954
 21
6.097271802364262
 72
     1
 10
3.505818365425954
 20
6.097271802364262
 11
3.359049802323473
 21
6.13564393400908
 72
     1
 10
3.359049802323473
 20
6.13564393400908
 11
3.260651924996321
 21
6.028939504880251
 72
     1
 10
3.260651924996321
 20
6.028939504880251
 11
3.260651924996321
 21
6.170656083915497
 72
     1
 10
3.260651924996321
 20
6.170656083915497
 11
3.1122272146684
 21
6.227380291677946
 72
     1
 10
3.1122272146684
 20
6.227380291677946
 11
3.260651924996321
 21
6.279063989006241
 72
     1
 10
3.260651924996321
 20
6.279063989006241
 11
3.260651924996321
 21
6.420827179675888
 97
        0
 92
        1
 93
        1
 72
     4
 94
        3
 73
     0
 74
     1
 95
       29
 96
       25
 40
0.0
 40
0.0
 40
0.0
 40
0.0
 40
1.0
 40
1.0
 40
1.0
 40
2.0
 40
2.0
 40
2.0
 40
3.0
 40
3.0
 40
3.0
 40
4.0
 40
4.0
 40
4.0
 40
5.0
 40
5.0
 40
5.0
 40
6.0
 40
6.0
 40
6.0
 40
7.0
 40
7.0
 40
7.0
 40
8.0
 40
8.0
 40
8.0
 40
8.0
 10
1.307979767578306
 20
6.350521058750435
 10
1.307979767578306
 20
6.350521058750435
 10
1.342862480561507
 20
6.310774242441753
 10
1.342862480561507
 20
6.310774242441753
 10
1.342862480561507
 20
6.310774242441753
 10
1.491323045992822
 20
6.3457401392648
 10
1.491323045992822
 20
6.3457401392648
 10
1.491323045992822
 20
6.3457401392648
 10
1.407940210311065
 20
6.225688289349111
 10
1.407940210311065
 20
6.225688289349111
 10
1.407940210311065
 20
6.225688289349111
 10
1.491323045992822
 20
6.097271802364262
 10
1.491323045992822
 20
6.097271802364262
 10
1.491323045992822
 20
6.097271802364262
 10
1.342862480561507
 20
6.13564393400908
 10
1.342862480561507
 20
6.13564393400908
 10
1.342862480561507
 20
6.13564393400908
 10
1.314265525753096
 20
6.10410972913121
 10
1.314265525753096
 20
6.10410972913121
 10
1.307651334831285
 20
6.191451685328957
 10
1.305724123024232
 20
6.273413224712448
 10
1.307979767578306
 20
6.350521058750435
 10
1.307979767578306
 20
6.350521058750435
 10
1.307979767578306
 20
6.350521058750435
 10
1.307979767578306
 20
6.350521058750435
 97
        0
 97
        0
 92
        1
 93
       10
 72
     1
 10
1.558010311333431
 20
6.000565927365945
 11
1.656408188660571
 21
5.888820987802975
 72
     1
 10
1.656408188660571
 20
5.888820987802975
 11
1.803129781577619
 21
5.923880107894825
 72
     1
 10
1.803129781577619
 20
5.923880107894825
 11
1.721438948224697
 21
5.805426678488137
 72
     1
 10
1.721438948224697
 20
5.805426678488137
 11
1.803129781577619
 21
5.677057161688721
 72
     1
 10
1.803129781577619
 20
5.677057161688721
 11
1.656408188660571
 21
5.715429293333537
 72
     1
 10
1.656408188660571
 20
5.715429293333537
 11
1.558010311333431
 21
5.608677894019277
 72
     1
 10
1.558010311333431
 20
5.608677894019277
 11
1.558010311333431
 21
5.74874944091112
 72
     1
 10
1.558010311333431
 20
5.74874944091112
 11
1.409585242454467
 21
5.807130154450053
 72
     1
 10
1.409585242454467
 20
5.807130154450053
 11
1.558010311333431
 21
5.858802378145267
 72
     1
 10
1.558010311333431
 20
5.858802378145267
 11
1.558010311333431
 21
6.000565927365945
 97
        0
 92
        1
 93
        1
 72
     4
 94
        3
 73
     0
 74
     1
 95
       23
 96
       19
 40
0.0
 40
0.0
 40
0.0
 40
0.0
 40
1.0
 40
1.0
 40
1.0
 40
2.0
 40
2.0
 40
2.0
 40
3.0
 40
3.0
 40
3.0
 40
4.0
 40
4.0
 40
4.0
 40
5.0
 40
5.0
 40
5.0
 40
6.0
 40
6.0
 40
6.0
 40
6.0
 10
2.905479517517998
 20
6.000565927365945
 10
2.905479517517998
 20
6.000565927365945
 10
3.003877394845138
 20
5.888820987802975
 10
3.003877394845138
 20
5.888820987802975
 10
3.003877394845138
 20
5.888820987802975
 10
3.150598987762186
 20
5.923880107894825
 10
3.150598987762186
 20
5.923880107894825
 10
3.150598987762186
 20
5.923880107894825
 10
3.068908512960307
 20
5.805426678488137
 10
3.068908512960307
 20
5.805426678488137
 10
3.068908512960307
 20
5.805426678488137
 10
3.076063398841181
 20
5.792667281396815
 10
3.076063398841181
 20
5.792667281396815
 10
3.040358169786297
 20
5.804192904380582
 10
2.967338176085466
 20
5.843892750503831
 10
2.926040268004259
 20
5.863208253249468
 10
2.926040268004259
 20
5.863208253249468
 10
2.905479517517998
 20
6.000565927365945
 10
2.905479517517998
 20
6.000565927365945
 97
        0
 97
        0
 92
        1
 93
       10
 72
     1
 10
3.567547587070205
 20
6.000565927365945
 11
3.665945464397345
 21
5.888820987802975
 72
     1
 10
3.665945464397345
 20
5.888820987802975
 11
3.812666698763362
 21
5.923880107894825
 72
     1
 10
3.812666698763362
 20
5.923880107894825
 11
3.730975865410439
 21
5.805426678488137
 72
     1
 10
3.730975865410439
 20
5.805426678488137
 11
3.812666698763362
 21
5.677057161688721
 72
     1
 10
3.812666698763362
 20
5.677057161688721
 11
3.665945464397345
 21
5.715429293333537
 72
     1
 10
3.665945464397345
 20
5.715429293333537
 11
3.567547587070205
 21
5.608677894019277
 72
     1
 10
3.567547587070205
 20
5.608677894019277
 11
3.567547587070205
 21
5.74874944091112
 72
     1
 10
3.567547587070205
 20
5.74874944091112
 11
3.419075548005796
 21
5.807130154450053
 72
     1
 10
3.419075548005796
 20
5.807130154450053
 11
3.567547587070205
 21
5.858802378145267
 72
     1
 10
3.567547587070205
 20
5.858802378145267
 11
3.567547587070205
 21
6.000565927365945
 97
        0
 92
        1
 93
        1
 72
     4
 94
        3
 73
     0
 74
     1
 95
       17
 96
       13
 40
0.0
 40
0.0
 40
0.0
 40
0.0
 40
1.0
 40
1.0
 40
1.0
 40
2.0
 40
2.0
 40
2.0
 40
3.0
 40
3.0
 40
3.0
 40
4.0
 40
4.0
 40
4.0
 40
4.0
 10
1.803963771282396
 20
5.413621111879264
 10
1.803963771282396
 20
5.413621111879264
 10
2.302098005536613
 20
5.119990045303413
 10
2.302098005536613
 20
5.119990045303413
 10
2.302098005536613
 20
5.119990045303413
 10
2.302098005536613
 20
1.598227212012388
 10
2.302098005536613
 20
1.598227212012388
 10
2.110483671872771
 20
1.810765866910818
 10
1.945456973023548
 20
2.027617532195715
 10
1.803916801096964
 20
2.252869331102096
 10
1.803916801096964
 20
2.252869331102096
 10
1.803963771282396
 20
5.413621111879264
 10
1.803963771282396
 20
5.413621111879264
 97
        0
 97
        0
 92
        1
 93
        1
 72
     4
 94
        3
 73
     0
 74
     1
 95
       38
 96
       34
 40
0.0
 40
0.0
 40
0.0
 40
0.0
 40
1.0
 40
1.0
 40
1.0
 40
2.0
 40
2.0
 40
2.0
 40
3.0
 40
3.0
 40
3.0
 40
4.0
 40
4.0
 40
4.0
 40
5.0
 40
5.0
 40
5.0
 40
6.0
 40
6.0
 40
6.0
 40
7.0
 40
7.0
 40
7.0
 40
8.0
 40
8.0
 40
8.0
 40
9.0
 40
9.0
 40
9.0
 40
10.0
 40
10.0
 40
10.0
 40
11.0
 40
11.0
 40
11.0
 40
11.0
 10
5.747304097728728
 20
4.854357153309441
 10
5.747304097728728
 20
4.854357153309441
 10
5.747304097728728
 20
4.854310183123996
 10
5.747304097728728
 20
4.854310183123996
 10
5.746716791135238
 20
3.621722520946706
 10
5.746117293806618
 20
2.389181649679333
 10
5.745519230682121
 20
1.156582334593445
 10
5.621695782441141
 20
1.047176223424407
 10
5.495946198046213
 20
0.9449239224831368
 10
5.363863885291064
 20
0.8461621158566129
 10
5.242191026151255
 20
0.7551421431534334
 10
5.070914065679593
 20
0.6362781728129346
 10
5.067014464635222
 20
0.6401318793249781
 10
5.066144619827051
 20
0.6410479772165318
 10
5.068164696351864
 20
0.6763419482355554
 10
5.071560891744689
 20
0.7186147565778608
 10
5.112223447393868
 20
1.224561459309067
 10
5.155953765688865
 20
1.962587489733652
 10
5.174869484031736
 20
2.461919822267545
 10
5.184186791197892
 20
2.708096121684068
 10
5.185326266383527
 20
2.784370683119328
 10
5.18674756268178
 20
3.265527525919778
 10
5.188815685045155
 20
3.959048050714121
 10
5.185561475861757
 20
4.10150432053226
 10
5.160500192798332
 20
4.411290621041189
 10
5.15628291553796
 20
4.46296248618536
 10
5.154168181540172
 20
4.503449710378996
 10
5.155542149101974
 20
4.504777783408447
 10
5.156693815022764
 20
4.505834433305254
 10
5.421316668754343
 20
4.662061214130214
 10
5.747304097728728
 20
4.854357153309441
 10
5.747304097728728
 20
4.854357153309441
 10
5.747304097728728
 20
4.854357153309441
 10
5.747304097728728
 20
4.854357153309441
 97
        0
 97
        0
 92
        1
 93
        1
 72
     4
 94
        3
 73
     0
 74
     1
 95
       32
 96
       28
 40
0.0
 40
0.0
 40
0.0
 40
0.0
 40
1.0
 40
1.0
 40
1.0
 40
2.0
 40
2.0
 40
2.0
 40
3.0
 40
3.0
 40
3.0
 40
4.0
 40
4.0
 40
4.0
 40
5.0
 40
5.0
 40
5.0
 40
6.0
 40
6.0
 40
6.0
 40
7.0
 40
7.0
 40
7.0
 40
8.0
 40
8.0
 40
8.0
 40
9.0
 40
9.0
 40
9.0
 40
9.0
 10
2.813414368551068
 20
4.818557983883667
 10
3.106540236720182
 20
4.645624517635522
 10
3.34344709553357
 20
4.505740851485421
 10
3.344457850898051
 20
4.504777783408447
 10
3.34578520682544
 20
4.50357843020015
 10
3.343541035904435
 20
4.46218729885014
 10
3.339546418836082
 20
4.412758887524888
 10
3.315860537538608
 20
4.120913763648761
 10
3.312605969804167
 20
3.998054459137872
 10
3.312605969804167
 20
3.391006762835155
 10
3.312558999618722
 20
2.757935432494125
 10
3.317376491309814
 20
2.558754775638034
 10
3.34638470415406
 20
1.988152536999653
 10
3.365112183204158
 20
1.619985881502821
 10
3.404307189471713
 20
1.012704409926022
 10
3.425784396400546
 20
0.7525347600351071
 10
3.425784396400546
 20
0.7525347600351071
 10
3.425784396400546
 20
0.6427044829930157
 10
3.425784396400546
 20
0.6427044829930157
 10
3.418253031934101
 20
0.6472512686535133
 10
3.397187083041104
 20
0.6610680327437168
 10
3.368871949345324
 20
0.6802422663820127
 10
3.172076553242063
 20
0.8136648429017693
 10
2.996804617151017
 20
0.94762596307439
 10
2.813414368551068
 20
1.105685298233463
 10
2.813414368551068
 20
1.105685298233463
 10
2.813414368551068
 20
4.818557983883667
 10
2.813414368551068
 20
4.818557983883667
 97
        0
 97
        0
 75
     2
 76
     1
 98
        0
  0
ENDSEC
  0
SECTION
  2
OBJECTS
  0
DICTIONARY
  5
C
330
0
100
AcDbDictionary
281
     1
  3
ACAD_GROUP
350
D
  3
ACAD_LAYOUT
350
1A
  3
ACAD_MATERIAL
350
3B
  3
ACAD_MLEADERSTYLE
350
1D5
  3
ACAD_MLINESTYLE
350
17
  3
ACAD_PLOTSETTINGS
350
19
  3
ACAD_PLOTSTYLENAME
350
E
  3
ACAD_TABLESTYLE
350
1D4
  3
ACAD_VISUALSTYLE
350
2A
  0
SUN
  5
3F
330
29
100
AcDbSun
 90
        1
290
     0
 63
     7
421
 16777215
 40
1.0
291
     1
 91
  2455826
 92
 54000000
292
     0
 70
     2
 71
   256
280
     1
  0
DICTIONARY
  5
D
102
{ACAD_REACTORS
330
C
102
}
330
C
100
AcDbDictionary
281
     1
  0
DICTIONARY
  5
1A
102
{ACAD_REACTORS
330
C
102
}
330
C
100
AcDbDictionary
281
     1
  3
Layout1
350
1E
  3
Layout2
350
26
  3
Model
350
22
  0
DICTIONARY
  5
3B
102
{ACAD_REACTORS
330
C
102
}
330
C
100
AcDbDictionary
281
     1
  3
ByBlock
350
3D
  3
ByLayer
350
3C
  3
Global
350
3E
  0
DICTIONARY
  5
1D5
102
{ACAD_REACTORS
330
C
102
}
330
C
100
AcDbDictionary
281
     1
  0
DICTIONARY
  5
17
102
{ACAD_REACTORS
330
C
102
}
330
C
100
AcDbDictionary
281
     1
  3
Standard
350
18
  0
DICTIONARY
  5
19
102
{ACAD_REACTORS
330
C
102
}
330
C
100
AcDbDictionary
281
     1
  0
ACDBDICTIONARYWDFLT
  5
E
102
{ACAD_REACTORS
330
C
102
}
330
C
100
AcDbDictionary
281
     1
  3
Normal
350
F
100
AcDbDictionaryWithDefault
340
F
  0
DICTIONARY
  5
1D4
102
{ACAD_REACTORS
330
C
102
}
330
C
100
AcDbDictionary
281
     1
  0
DICTIONARY
  5
2A
102
{ACAD_REACTORS
330
C
102
}
330
C
100
AcDbDictionary
281
     1
  3
2dWireframe
350
2F
  3
3D Hidden
350
31
  3
3dWireframe
350
30
  3
Basic
350
32
  3
Brighten
350
36
  3
ColorChange
350
3A
  3
Conceptual
350
34
  3
Dim
350
35
  3
Facepattern
350
39
  3
Flat
350
2B
  3
FlatWithEdges
350
2C
  3
Gouraud
350
2D
  3
GouraudWithEdges
350
2E
  3
Linepattern
350
38
  3
Realistic
350
33
  3
Thicken
350
37
  0
LAYOUT
  5
1E
102
{ACAD_REACTORS
330
1A
102
}
330
1A
100
AcDbPlotSettings
  1

  2
none_device
  4

  6

 40
0.0
 41
0.0
 42
0.0
 43
0.0
 44
0.0
 45
0.0
 46
0.0
 47
0.0
 48
0.0
 49
0.0
140
0.0
141
0.0
142
1.0
143
1.0
 70
   688
 72
     0
 73
     0
 74
     5
  7

 75
    16
 76
     0
 77
     2
 78
   300
147
1.0
148
0.0
149
0.0
100
AcDbLayout
  1
Layout1
 70
     1
 71
     1
 10
0.0
 20
0.0
 11
12.0
 21
9.0
 12
0.0
 22
0.0
 32
0.0
 14
1.000000000000000E+20
 24
1.000000000000000E+20
 34
1.000000000000000E+20
 15
-1.000000000000000E+20
 25
-1.000000000000000E+20
 35
-1.000000000000000E+20
146
0.0
 13
0.0
 23
0.0
 33
0.0
 16
1.0
 26
0.0
 36
0.0
 17
0.0
 27
1.0
 37
0.0
 76
     0
330
1B
  0
LAYOUT
  5
26
102
{ACAD_REACTORS
330
1A
102
}
330
1A
100
AcDbPlotSettings
  1

  2
none_device
  4

  6

 40
0.0
 41
0.0
 42
0.0
 43
0.0
 44
0.0
 45
0.0
 46
0.0
 47
0.0
 48
0.0
 49
0.0
140
0.0
141
0.0
142
1.0
143
1.0
 70
   688
 72
     0
 73
     0
 74
     5
  7

 75
    16
 76
     0
 77
     2
 78
   300
147
1.0
148
0.0
149
0.0
100
AcDbLayout
  1
Layout2
 70
     1
 71
     2
 10
0.0
 20
0.0
 11
0.0
 21
0.0
 12
0.0
 22
0.0
 32
0.0
 14
0.0
 24
0.0
 34
0.0
 15
0.0
 25
0.0
 35
0.0
146
0.0
 13
0.0
 23
0.0
 33
0.0
 16
1.0
 26
0.0
 36
0.0
 17
0.0
 27
1.0
 37
0.0
 76
     0
330
23
  0
LAYOUT
  5
22
102
{ACAD_REACTORS
330
1A
102
}
330
1A
100
AcDbPlotSettings
  1

  2
none_device
  4

  6

 40
0.0
 41
0.0
 42
0.0
 43
0.0
 44
0.0
 45
0.0
 46
0.0
 47
0.0
 48
0.0
 49
0.0
140
0.0
141
0.0
142
1.0
143
1.0
 70
  1712
 72
     0
 73
     0
 74
     0
  7

 75
     0
 76
     0
 77
     2
 78
   300
147
1.0
148
0.0
149
0.0
100
AcDbLayout
  1
Model
 70
     1
 71
     0
 10
0.0
 20
0.0
 11
12.0
 21
9.0
 12
0.0
 22
0.0
 32
0.0
 14
1.000000000000000E+20
 24
1.000000000000000E+20
 34
1.000000000000000E+20
 15
-1.000000000000000E+20
 25
-1.000000000000000E+20
 35
-1.000000000000000E+20
146
0.0
 13
0.0
 23
0.0
 33
0.0
 16
1.0
 26
0.0
 36
0.0
 17
0.0
 27
1.0
 37
0.0
 76
     0
330
1F
331
29
  0
MATERIAL
  5
3D
102
{ACAD_REACTORS
330
3B
102
}
330
3B
100
AcDbMaterial
  1
ByBlock
 72
     1
 94
      127
  0
MATERIAL
  5
3C
102
{ACAD_REACTORS
330
3B
102
}
330
3B
100
AcDbMaterial
  1
ByLayer
 72
     1
 94
      127
  0
MATERIAL
  5
3E
102
{ACAD_REACTORS
330
3B
102
}
330
3B
100
AcDbMaterial
  1
Global
 72
     1
 94
      127
  0
MLINESTYLE
  5
18
102
{ACAD_REACTORS
330
17
102
}
330
17
100
AcDbMlineStyle
  2
Standard
 70
     0
  3

 62
   256
 51
90.0
 52
90.0
 71
     2
 49
0.5
 62
   256
  6
BYLAYER
 49
-0.5
 62
   256
  6
BYLAYER
  0
ACDBPLACEHOLDER
  5
F
102
{ACAD_REACTORS
330
E
102
}
330
E
  0
VISUALSTYLE
  5
2F
102
{ACAD_REACTORS
330
2A
102
}
330
2A
100
AcDbVisualStyle
  2
2dWireframe
 70
     4
177
     2
291
     0
 71
     0
176
     1
 72
     2
176
     1
 73
     0
176
     1
 90
        0
176
     1
 40
-0.6
176
     1
 41
-30.0
176
     1
 62
     5
 63
     7
421
 16777215
176
     1
 74
     1
176
     1
 91
        4
176
     1
 64
     7
176
     1
 65
   257
176
     1
 75
     1
176
     1
175
     1
176
     1
 42
1.0
176
     1
 92
        0
176
     1
 66
   257
176
     1
 43
1.0
176
     1
 76
     1
176
     1
 77
     6
176
     1
 78
     2
176
     1
 67
     7
176
     1
 79
     5
176
     1
170
     0
176
     1
171
     0
176
     1
290
     0
176
     1
 93
        1
176
     1
 44
0.0
176
     1
173
     0
176
     1
  0
VISUALSTYLE
  5
31
102
{ACAD_REACTORS
330
2A
102
}
330
2A
100
AcDbVisualStyle
  2
3D Hidden
 70
     6
177
     2
291
     0
 71
     1
176
     1
 72
     2
176
     1
 73
     2
176
     1
 90
        0
176
     1
 40
-0.6
176
     1
 41
-30.0
176
     1
 62
     5
 63
     7
421
 16777215
176
     1
 74
     2
176
     1
 91
        2
176
     1
 64
     7
176
     1
 65
   257
176
     1
 75
     2
176
     1
175
     1
176
     1
 42
40.0
176
     1
 92
        0
176
     1
 66
   257
176
     1
 43
1.0
176
     1
 76
     1
176
     1
 77
     6
176
     1
 78
     2
176
     1
 67
     7
176
     1
 79
     3
176
     1
170
     0
176
     1
171
     0
176
     1
290
     0
176
     1
 93
        1
176
     1
 44
0.0
176
     1
173
     0
176
     1
  0
VISUALSTYLE
  5
30
102
{ACAD_REACTORS
330
2A
102
}
330
2A
100
AcDbVisualStyle
  2
3dWireframe
 70
     5
177
     2
291
     0
 71
     0
176
     1
 72
     2
176
     1
 73
     0
176
     1
 90
        0
176
     1
 40
-0.6
176
     1
 41
-30.0
176
     1
 62
     5
 63
     7
421
 16777215
176
     1
 74
     1
176
     1
 91
        4
176
     1
 64
     7
176
     1
 65
   257
176
     1
 75
     1
176
     1
175
     1
176
     1
 42
1.0
176
     1
 92
        0
176
     1
 66
   257
176
     1
 43
1.0
176
     1
 76
     1
176
     1
 77
     6
176
     1
 78
     2
176
     1
 67
     7
176
     1
 79
     5
176
     1
170
     0
176
     1
171
     0
176
     1
290
     0
176
     1
 93
        1
176
     1
 44
0.0
176
     1
173
     0
176
     1
  0
VISUALSTYLE
  5
32
102
{ACAD_REACTORS
330
2A
102
}
330
2A
100
AcDbVisualStyle
  2
Basic
 70
     7
177
     2
291
     1
 71
     1
176
     1
 72
     0
176
     1
 73
     1
176
     1
 90
        0
176
     1
 40
-0.6
176
     1
 41
-30.0
176
     1
 62
     5
 63
     7
421
 16777215
176
     1
 74
     0
176
     1
 91
        4
176
     1
 64
     7
176
     1
 65
   257
176
     1
 75
     1
176
     1
175
     1
176
     1
 42
1.0
176
     1
 92
        8
176
     1
 66
     7
176
     1
 43
1.0
176
     1
 76
     1
176
     1
 77
     6
176
     1
 78
     2
176
     1
 67
     7
176
     1
 79
     5
176
     1
170
     0
176
     1
171
     0
176
     1
290
     0
176
     1
 93
        1
176
     1
 44
0.0
176
     1
173
     0
176
     1
  0
VISUALSTYLE
  5
36
102
{ACAD_REACTORS
330
2A
102
}
330
2A
100
AcDbVisualStyle
  2
Brighten
 70
    12
177
     2
291
     1
 71
     2
176
     1
 72
     2
176
     1
 73
     0
176
     1
 90
        0
176
     1
 40
-0.6
176
     1
 41
-30.0
176
     1
 62
     5
 63
     7
421
 16777215
176
     1
 74
     1
176
     1
 91
        4
176
     1
 64
     7
176
     1
 65
   257
176
     1
 75
     1
176
     1
175
     1
176
     1
 42
1.0
176
     1
 92
        8
176
     1
 66
     7
176
     1
 43
1.0
176
     1
 76
     1
176
     1
 77
     6
176
     1
 78
     2
176
     1
 67
     7
176
     1
 79
     5
176
     1
170
     0
176
     1
171
     0
176
     1
290
     0
176
     1
 93
        1
176
     1
 44
50.0
176
     1
173
     0
176
     1
  0
VISUALSTYLE
  5
3A
102
{ACAD_REACTORS
330
2A
102
}
330
2A
100
AcDbVisualStyle
  2
ColorChange
 70
    16
177
     2
291
     1
 71
     2
176
     1
 72
     2
176
     1
 73
     3
176
     1
 90
        0
176
     1
 40
-0.6
176
     1
 41
-30.0
176
     1
 62
     5
 63
     8
421
  8421504
176
     1
 74
     1
176
     1
 91
        4
176
     1
 64
     7
176
     1
 65
   257
176
     1
 75
     1
176
     1
175
     1
176
     1
 42
1.0
176
     1
 92
        8
176
     1
 66
     8
424
  8421504
176
     1
 43
1.0
176
     1
 76
     1
176
     1
 77
     6
176
     1
 78
     2
176
     1
 67
     7
176
     1
 79
     5
176
     1
170
     0
176
     1
171
     0
176
     1
290
     0
176
     1
 93
        1
176
     1
 44
0.0
176
     1
173
     0
176
     1
  0
VISUALSTYLE
  5
34
102
{ACAD_REACTORS
330
2A
102
}
330
2A
100
AcDbVisualStyle
  2
Conceptual
 70
     9
177
     2
291
     0
 71
     3
176
     1
 72
     2
176
     1
 73
     0
176
     1
 90
        0
176
     1
 40
-0.6
176
     1
 41
-30.0
176
     1
 62
     5
 63
     7
421
 16777215
176
     1
 74
     2
176
     1
 91
        2
176
     1
 64
     7
176
     1
 65
   257
176
     1
 75
     1
176
     1
175
     1
176
     1
 42
40.0
176
     1
 92
        8
176
     1
 66
     7
176
     1
 43
1.0
176
     1
 76
     1
176
     1
 77
     6
176
     1
 78
     2
176
     1
 67
     7
176
     1
 79
     3
176
     1
170
     0
176
     1
171
     0
176
     1
290
     0
176
     1
 93
        1
176
     1
 44
0.0
176
     1
173
     0
176
     1
  0
VISUALSTYLE
  5
35
102
{ACAD_REACTORS
330
2A
102
}
330
2A
100
AcDbVisualStyle
  2
Dim
 70
    11
177
     2
291
     1
 71
     2
176
     1
 72
     2
176
     1
 73
     0
176
     1
 90
        0
176
     1
 40
-0.6
176
     1
 41
-30.0
176
     1
 62
     5
 63
     7
421
 16777215
176
     1
 74
     1
176
     1
 91
        4
176
     1
 64
     7
176
     1
 65
   257
176
     1
 75
     1
176
     1
175
     1
176
     1
 42
1.0
176
     1
 92
        8
176
     1
 66
     7
176
     1
 43
1.0
176
     1
 76
     1
176
     1
 77
     6
176
     1
 78
     2
176
     1
 67
     7
176
     1
 79
     5
176
     1
170
     0
176
     1
171
     0
176
     1
290
     0
176
     1
 93
        1
176
     1
 44
-50.0
176
     1
173
     0
176
     1
  0
VISUALSTYLE
  5
39
102
{ACAD_REACTORS
330
2A
102
}
330
2A
100
AcDbVisualStyle
  2
Facepattern
 70
    15
177
     2
291
     1
 71
     2
176
     1
 72
     2
176
     1
 73
     0
176
     1
 90
        0
176
     1
 40
-0.6
176
     1
 41
-30.0
176
     1
 62
     5
 63
     7
421
 16777215
176
     1
 74
     1
176
     1
 91
        4
176
     1
 64
     7
176
     1
 65
   257
176
     1
 75
     1
176
     1
175
     1
176
     1
 42
1.0
176
     1
 92
        8
176
     1
 66
     7
176
     1
 43
1.0
176
     1
 76
     1
176
     1
 77
     6
176
     1
 78
     2
176
     1
 67
     7
176
     1
 79
     5
176
     1
170
     0
176
     1
171
     0
176
     1
290
     0
176
     1
 93
        1
176
     1
 44
0.0
176
     1
173
     0
176
     1
  0
VISUALSTYLE
  5
2B
102
{ACAD_REACTORS
330
2A
102
}
330
2A
100
AcDbVisualStyle
  2
Flat
 70
     0
177
     2
291
     1
 71
     2
176
     1
 72
     1
176
     1
 73
     1
176
     1
 90
        2
176
     1
 40
-0.6
176
     1
 41
30.0
176
     1
 62
     5
 63
     7
421
 16777215
176
     1
 74
     0
176
     1
 91
        4
176
     1
 64
     7
176
     1
 65
   257
176
     1
 75
     1
176
     1
175
     1
176
     1
 42
1.0
176
     1
 92
        8
176
     1
 66
     7
176
     1
 43
1.0
176
     1
 76
     1
176
     1
 77
     6
176
     1
 78
     2
176
     1
 67
     7
176
     1
 79
     5
176
     1
170
     0
176
     1
171
     0
176
     1
290
     0
176
     1
 93
       13
176
     1
 44
0.0
176
     1
173
     0
176
     1
  0
VISUALSTYLE
  5
2C
102
{ACAD_REACTORS
330
2A
102
}
330
2A
100
AcDbVisualStyle
  2
FlatWithEdges
 70
     1
177
     2
291
     1
 71
     2
176
     1
 72
     1
176
     1
 73
     1
176
     1
 90
        2
176
     1
 40
-0.6
176
     1
 41
30.0
176
     1
 62
     5
 63
     7
421
 16777215
176
     1
 74
     1
176
     1
 91
        4
176
     1
 64
     7
176
     1
 65
   257
176
     1
 75
     1
176
     1
175
     1
176
     1
 42
1.0
176
     1
 92
        0
176
     1
 66
   257
176
     1
 43
1.0
176
     1
 76
     1
176
     1
 77
     6
176
     1
 78
     2
176
     1
 67
     7
176
     1
 79
     5
176
     1
170
     0
176
     1
171
     0
176
     1
290
     0
176
     1
 93
       13
176
     1
 44
0.0
176
     1
173
     0
176
     1
  0
VISUALSTYLE
  5
2D
102
{ACAD_REACTORS
330
2A
102
}
330
2A
100
AcDbVisualStyle
  2
Gouraud
 70
     2
177
     2
291
     1
 71
     2
176
     1
 72
     2
176
     1
 73
     1
176
     1
 90
        2
176
     1
 40
-0.6
176
     1
 41
30.0
176
     1
 62
     5
 63
     7
421
 16777215
176
     1
 74
     0
176
     1
 91
        4
176
     1
 64
     7
176
     1
 65
   257
176
     1
 75
     1
176
     1
175
     1
176
     1
 42
1.0
176
     1
 92
        0
176
     1
 66
     7
176
     1
 43
1.0
176
     1
 76
     1
176
     1
 77
     6
176
     1
 78
     2
176
     1
 67
     7
176
     1
 79
     5
176
     1
170
     0
176
     1
171
     0
176
     1
290
     0
176
     1
 93
       13
176
     1
 44
0.0
176
     1
173
     0
176
     1
  0
VISUALSTYLE
  5
2E
102
{ACAD_REACTORS
330
2A
102
}
330
2A
100
AcDbVisualStyle
  2
GouraudWithEdges
 70
     3
177
     2
291
     1
 71
     2
176
     1
 72
     2
176
     1
 73
     1
176
     1
 90
        2
176
     1
 40
-0.6
176
     1
 41
30.0
176
     1
 62
     5
 63
     7
421
 16777215
176
     1
 74
     1
176
     1
 91
        4
176
     1
 64
     7
176
     1
 65
   257
176
     1
 75
     1
176
     1
175
     1
176
     1
 42
1.0
176
     1
 92
        0
176
     1
 66
   257
176
     1
 43
1.0
176
     1
 76
     1
176
     1
 77
     6
176
     1
 78
     2
176
     1
 67
     7
176
     1
 79
     5
176
     1
170
     0
176
     1
171
     0
176
     1
290
     0
176
     1
 93
       13
176
     1
 44
0.0
176
     1
173
     0
176
     1
  0
VISUALSTYLE
  5
38
102
{ACAD_REACTORS
330
2A
102
}
330
2A
100
AcDbVisualStyle
  2
Linepattern
 70
    14
177
     2
291
     1
 71
     2
176
     1
 72
     2
176
     1
 73
     0
176
     1
 90
        0
176
     1
 40
-0.6
176
     1
 41
-30.0
176
     1
 62
     5
 63
     7
421
 16777215
176
     1
 74
     1
176
     1
 91
        4
176
     1
 64
     7
176
     1
 65
   257
176
     1
 75
     7
176
     1
175
     7
176
     1
 42
1.0
176
     1
 92
        8
176
     1
 66
     7
176
     1
 43
1.0
176
     1
 76
     1
176
     1
 77
     6
176
     1
 78
     2
176
     1
 67
     7
176
     1
 79
     5
176
     1
170
     0
176
     1
171
     0
176
     1
290
     0
176
     1
 93
        1
176
     1
 44
0.0
176
     1
173
     0
176
     1
  0
VISUALSTYLE
  5
33
102
{ACAD_REACTORS
330
2A
102
}
330
2A
100
AcDbVisualStyle
  2
Realistic
 70
     8
177
     2
291
     0
 71
     2
176
     1
 72
     2
176
     1
 73
     0
176
     1
 90
        0
176
     1
 40
-0.6
176
     1
 41
-30.0
176
     1
 62
     5
 63
     7
421
 16777215
176
     1
 74
     1
176
     1
 91
        0
176
     1
 64
     7
176
     1
 65
   257
176
     1
 75
     1
176
     1
175
     1
176
     1
 42
1.0
176
     1
 92
        8
176
     1
 66
     8
424
  7895160
176
     1
 43
1.0
176
     1
 76
     1
176
     1
 77
     6
176
     1
 78
     2
176
     1
 67
     7
176
     1
 79
     5
176
     1
170
     0
176
     1
171
     0
176
     1
290
     0
176
     1
 93
       13
176
     1
 44
0.0
176
     1
173
     0
176
     1
  0
VISUALSTYLE
  5
37
102
{ACAD_REACTORS
330
2A
102
}
330
2A
100
AcDbVisualStyle
  2
Thicken
 70
    13
177
     2
291
     1
 71
     2
176
     1
 72
     2
176
     1
 73
     0
176
     1
 90
        0
176
     1
 40
-0.6
176
     1
 41
-30.0
176
     1
 62
     5
 63
     7
421
 16777215
176
     1
 74
     1
176
     1
 91
        4
176
     1
 64
     7
176
     1
 65
   257
176
     1
 75
     1
176
     1
175
     1
176
     1
 42
1.0
176
     1
 92
       12
176
     1
 66
     7
176
     1
 43
1.0
176
     1
 76
     1
176
     1
 77
     6
176
     1
 78
     2
176
     1
 67
     7
176
     1
 79
     5
176
     1
170
     0
176
     1
171
     0
176
     1
290
     0
176
     1
 93
        1
176
     1
 44
0.0
176
     1
173
     0
176
     1
  0
ENDSEC
  0
EOF
